G75*
%MOIN*%
%OFA0B0*%
%FSLAX25Y25*%
%IPPOS*%
%LPD*%
%AMOC8*
5,1,8,0,0,1.08239X$1,22.5*
%
%ADD10C,0.00600*%
%ADD11C,0.00400*%
%ADD12C,0.00300*%
%ADD13C,0.00500*%
%ADD14C,0.00984*%
%ADD15R,0.02559X0.05512*%
%ADD16R,0.00750X0.03500*%
%ADD17R,0.03500X0.00750*%
%ADD18R,0.05512X0.02559*%
%ADD19C,0.00700*%
%ADD20R,0.02400X0.03400*%
%ADD21C,0.00800*%
%ADD22R,0.10000X0.02500*%
%ADD23R,0.03937X0.00787*%
%ADD24R,0.00787X0.03937*%
%ADD25C,0.01600*%
%ADD26C,0.01200*%
D10*
X0077000Y0062290D02*
X0075500Y0064290D01*
X0078500Y0064290D01*
X0077000Y0062290D01*
X0076834Y0062511D02*
X0077166Y0062511D01*
X0077615Y0063110D02*
X0076385Y0063110D01*
X0075936Y0063708D02*
X0078064Y0063708D01*
X0104500Y0064290D02*
X0106000Y0062290D01*
X0107500Y0064290D01*
X0104500Y0064290D01*
X0104936Y0063708D02*
X0107064Y0063708D01*
X0106615Y0063110D02*
X0105385Y0063110D01*
X0105834Y0062511D02*
X0106166Y0062511D01*
X0140500Y0090790D02*
X0140500Y0092790D01*
X0113000Y0095290D02*
X0113008Y0095965D01*
X0113033Y0096639D01*
X0113075Y0097313D01*
X0113132Y0097985D01*
X0113207Y0098656D01*
X0113298Y0099325D01*
X0113405Y0099991D01*
X0113528Y0100655D01*
X0113668Y0101315D01*
X0113824Y0101972D01*
X0113996Y0102625D01*
X0114184Y0103273D01*
X0114388Y0103916D01*
X0114608Y0104554D01*
X0114843Y0105187D01*
X0115093Y0105814D01*
X0115359Y0106434D01*
X0115640Y0107048D01*
X0115936Y0107654D01*
X0116247Y0108253D01*
X0116573Y0108845D01*
X0116912Y0109428D01*
X0117267Y0110002D01*
X0117635Y0110568D01*
X0118016Y0111125D01*
X0118412Y0111672D01*
X0118820Y0112209D01*
X0119242Y0112736D01*
X0119677Y0113252D01*
X0120124Y0113758D01*
X0120583Y0114252D01*
X0121055Y0114735D01*
X0121538Y0115207D01*
X0122032Y0115666D01*
X0122538Y0116113D01*
X0123054Y0116548D01*
X0123581Y0116970D01*
X0124118Y0117378D01*
X0124665Y0117774D01*
X0125222Y0118155D01*
X0125788Y0118523D01*
X0126362Y0118878D01*
X0126945Y0119217D01*
X0127537Y0119543D01*
X0128136Y0119854D01*
X0128742Y0120150D01*
X0129356Y0120431D01*
X0129976Y0120697D01*
X0130603Y0120947D01*
X0131236Y0121182D01*
X0131874Y0121402D01*
X0132517Y0121606D01*
X0133165Y0121794D01*
X0133818Y0121966D01*
X0134475Y0122122D01*
X0135135Y0122262D01*
X0135799Y0122385D01*
X0136465Y0122492D01*
X0137134Y0122583D01*
X0137805Y0122658D01*
X0138477Y0122715D01*
X0139151Y0122757D01*
X0139825Y0122782D01*
X0140500Y0122790D01*
X0141175Y0122782D01*
X0141849Y0122757D01*
X0142523Y0122715D01*
X0143195Y0122658D01*
X0143866Y0122583D01*
X0144535Y0122492D01*
X0145201Y0122385D01*
X0145865Y0122262D01*
X0146525Y0122122D01*
X0147182Y0121966D01*
X0147835Y0121794D01*
X0148483Y0121606D01*
X0149126Y0121402D01*
X0149764Y0121182D01*
X0150397Y0120947D01*
X0151024Y0120697D01*
X0151644Y0120431D01*
X0152258Y0120150D01*
X0152864Y0119854D01*
X0153463Y0119543D01*
X0154055Y0119217D01*
X0154638Y0118878D01*
X0155212Y0118523D01*
X0155778Y0118155D01*
X0156335Y0117774D01*
X0156882Y0117378D01*
X0157419Y0116970D01*
X0157946Y0116548D01*
X0158462Y0116113D01*
X0158968Y0115666D01*
X0159462Y0115207D01*
X0159945Y0114735D01*
X0160417Y0114252D01*
X0160876Y0113758D01*
X0161323Y0113252D01*
X0161758Y0112736D01*
X0162180Y0112209D01*
X0162588Y0111672D01*
X0162984Y0111125D01*
X0163365Y0110568D01*
X0163733Y0110002D01*
X0164088Y0109428D01*
X0164427Y0108845D01*
X0164753Y0108253D01*
X0165064Y0107654D01*
X0165360Y0107048D01*
X0165641Y0106434D01*
X0165907Y0105814D01*
X0166157Y0105187D01*
X0166392Y0104554D01*
X0166612Y0103916D01*
X0166816Y0103273D01*
X0167004Y0102625D01*
X0167176Y0101972D01*
X0167332Y0101315D01*
X0167472Y0100655D01*
X0167595Y0099991D01*
X0167702Y0099325D01*
X0167793Y0098656D01*
X0167868Y0097985D01*
X0167925Y0097313D01*
X0167967Y0096639D01*
X0167992Y0095965D01*
X0168000Y0095290D01*
X0167992Y0094615D01*
X0167967Y0093941D01*
X0167925Y0093267D01*
X0167868Y0092595D01*
X0167793Y0091924D01*
X0167702Y0091255D01*
X0167595Y0090589D01*
X0167472Y0089925D01*
X0167332Y0089265D01*
X0167176Y0088608D01*
X0167004Y0087955D01*
X0166816Y0087307D01*
X0166612Y0086664D01*
X0166392Y0086026D01*
X0166157Y0085393D01*
X0165907Y0084766D01*
X0165641Y0084146D01*
X0165360Y0083532D01*
X0165064Y0082926D01*
X0164753Y0082327D01*
X0164427Y0081735D01*
X0164088Y0081152D01*
X0163733Y0080578D01*
X0163365Y0080012D01*
X0162984Y0079455D01*
X0162588Y0078908D01*
X0162180Y0078371D01*
X0161758Y0077844D01*
X0161323Y0077328D01*
X0160876Y0076822D01*
X0160417Y0076328D01*
X0159945Y0075845D01*
X0159462Y0075373D01*
X0158968Y0074914D01*
X0158462Y0074467D01*
X0157946Y0074032D01*
X0157419Y0073610D01*
X0156882Y0073202D01*
X0156335Y0072806D01*
X0155778Y0072425D01*
X0155212Y0072057D01*
X0154638Y0071702D01*
X0154055Y0071363D01*
X0153463Y0071037D01*
X0152864Y0070726D01*
X0152258Y0070430D01*
X0151644Y0070149D01*
X0151024Y0069883D01*
X0150397Y0069633D01*
X0149764Y0069398D01*
X0149126Y0069178D01*
X0148483Y0068974D01*
X0147835Y0068786D01*
X0147182Y0068614D01*
X0146525Y0068458D01*
X0145865Y0068318D01*
X0145201Y0068195D01*
X0144535Y0068088D01*
X0143866Y0067997D01*
X0143195Y0067922D01*
X0142523Y0067865D01*
X0141849Y0067823D01*
X0141175Y0067798D01*
X0140500Y0067790D01*
X0139825Y0067798D01*
X0139151Y0067823D01*
X0138477Y0067865D01*
X0137805Y0067922D01*
X0137134Y0067997D01*
X0136465Y0068088D01*
X0135799Y0068195D01*
X0135135Y0068318D01*
X0134475Y0068458D01*
X0133818Y0068614D01*
X0133165Y0068786D01*
X0132517Y0068974D01*
X0131874Y0069178D01*
X0131236Y0069398D01*
X0130603Y0069633D01*
X0129976Y0069883D01*
X0129356Y0070149D01*
X0128742Y0070430D01*
X0128136Y0070726D01*
X0127537Y0071037D01*
X0126945Y0071363D01*
X0126362Y0071702D01*
X0125788Y0072057D01*
X0125222Y0072425D01*
X0124665Y0072806D01*
X0124118Y0073202D01*
X0123581Y0073610D01*
X0123054Y0074032D01*
X0122538Y0074467D01*
X0122032Y0074914D01*
X0121538Y0075373D01*
X0121055Y0075845D01*
X0120583Y0076328D01*
X0120124Y0076822D01*
X0119677Y0077328D01*
X0119242Y0077844D01*
X0118820Y0078371D01*
X0118412Y0078908D01*
X0118016Y0079455D01*
X0117635Y0080012D01*
X0117267Y0080578D01*
X0116912Y0081152D01*
X0116573Y0081735D01*
X0116247Y0082327D01*
X0115936Y0082926D01*
X0115640Y0083532D01*
X0115359Y0084146D01*
X0115093Y0084766D01*
X0114843Y0085393D01*
X0114608Y0086026D01*
X0114388Y0086664D01*
X0114184Y0087307D01*
X0113996Y0087955D01*
X0113824Y0088608D01*
X0113668Y0089265D01*
X0113528Y0089925D01*
X0113405Y0090589D01*
X0113298Y0091255D01*
X0113207Y0091924D01*
X0113132Y0092595D01*
X0113075Y0093267D01*
X0113033Y0093941D01*
X0113008Y0094615D01*
X0113000Y0095290D01*
X0135500Y0096290D02*
X0145500Y0096290D01*
X0145500Y0098790D01*
X0140500Y0098790D01*
X0135500Y0098790D01*
X0135500Y0096290D01*
X0140500Y0098790D02*
X0140500Y0099790D01*
X0140500Y0112790D02*
X0140500Y0117790D01*
X0138000Y0115290D02*
X0143000Y0115290D01*
X0185000Y0116790D02*
X0185500Y0116290D01*
X0185500Y0097290D01*
X0185000Y0096790D01*
X0185000Y0095290D01*
X0185002Y0095230D01*
X0185007Y0095169D01*
X0185016Y0095110D01*
X0185029Y0095051D01*
X0185045Y0094992D01*
X0185065Y0094935D01*
X0185088Y0094880D01*
X0185115Y0094825D01*
X0185144Y0094773D01*
X0185177Y0094722D01*
X0185213Y0094673D01*
X0185251Y0094627D01*
X0185293Y0094583D01*
X0185337Y0094541D01*
X0185383Y0094503D01*
X0185432Y0094467D01*
X0185483Y0094434D01*
X0185535Y0094405D01*
X0185590Y0094378D01*
X0185645Y0094355D01*
X0185702Y0094335D01*
X0185761Y0094319D01*
X0185820Y0094306D01*
X0185879Y0094297D01*
X0185940Y0094292D01*
X0186000Y0094290D01*
X0193000Y0094290D01*
X0193060Y0094292D01*
X0193121Y0094297D01*
X0193180Y0094306D01*
X0193239Y0094319D01*
X0193298Y0094335D01*
X0193355Y0094355D01*
X0193410Y0094378D01*
X0193465Y0094405D01*
X0193517Y0094434D01*
X0193568Y0094467D01*
X0193617Y0094503D01*
X0193663Y0094541D01*
X0193707Y0094583D01*
X0193749Y0094627D01*
X0193787Y0094673D01*
X0193823Y0094722D01*
X0193856Y0094773D01*
X0193885Y0094825D01*
X0193912Y0094880D01*
X0193935Y0094935D01*
X0193955Y0094992D01*
X0193971Y0095051D01*
X0193984Y0095110D01*
X0193993Y0095169D01*
X0193998Y0095230D01*
X0194000Y0095290D01*
X0194000Y0096790D01*
X0193500Y0097290D01*
X0193500Y0116290D01*
X0194000Y0116790D01*
X0194000Y0118290D01*
X0193998Y0118350D01*
X0193993Y0118411D01*
X0193984Y0118470D01*
X0193971Y0118529D01*
X0193955Y0118588D01*
X0193935Y0118645D01*
X0193912Y0118700D01*
X0193885Y0118755D01*
X0193856Y0118807D01*
X0193823Y0118858D01*
X0193787Y0118907D01*
X0193749Y0118953D01*
X0193707Y0118997D01*
X0193663Y0119039D01*
X0193617Y0119077D01*
X0193568Y0119113D01*
X0193517Y0119146D01*
X0193465Y0119175D01*
X0193410Y0119202D01*
X0193355Y0119225D01*
X0193298Y0119245D01*
X0193239Y0119261D01*
X0193180Y0119274D01*
X0193121Y0119283D01*
X0193060Y0119288D01*
X0193000Y0119290D01*
X0186000Y0119290D01*
X0185940Y0119288D01*
X0185879Y0119283D01*
X0185820Y0119274D01*
X0185761Y0119261D01*
X0185702Y0119245D01*
X0185645Y0119225D01*
X0185590Y0119202D01*
X0185535Y0119175D01*
X0185483Y0119146D01*
X0185432Y0119113D01*
X0185383Y0119077D01*
X0185337Y0119039D01*
X0185293Y0118997D01*
X0185251Y0118953D01*
X0185213Y0118907D01*
X0185177Y0118858D01*
X0185144Y0118807D01*
X0185115Y0118755D01*
X0185088Y0118700D01*
X0185065Y0118645D01*
X0185045Y0118588D01*
X0185029Y0118529D01*
X0185016Y0118470D01*
X0185007Y0118411D01*
X0185002Y0118350D01*
X0185000Y0118290D01*
X0185000Y0116790D01*
X0201000Y0116790D02*
X0201500Y0116290D01*
X0201500Y0097290D01*
X0201000Y0096790D01*
X0201000Y0095290D01*
X0201002Y0095230D01*
X0201007Y0095169D01*
X0201016Y0095110D01*
X0201029Y0095051D01*
X0201045Y0094992D01*
X0201065Y0094935D01*
X0201088Y0094880D01*
X0201115Y0094825D01*
X0201144Y0094773D01*
X0201177Y0094722D01*
X0201213Y0094673D01*
X0201251Y0094627D01*
X0201293Y0094583D01*
X0201337Y0094541D01*
X0201383Y0094503D01*
X0201432Y0094467D01*
X0201483Y0094434D01*
X0201535Y0094405D01*
X0201590Y0094378D01*
X0201645Y0094355D01*
X0201702Y0094335D01*
X0201761Y0094319D01*
X0201820Y0094306D01*
X0201879Y0094297D01*
X0201940Y0094292D01*
X0202000Y0094290D01*
X0209000Y0094290D01*
X0209060Y0094292D01*
X0209121Y0094297D01*
X0209180Y0094306D01*
X0209239Y0094319D01*
X0209298Y0094335D01*
X0209355Y0094355D01*
X0209410Y0094378D01*
X0209465Y0094405D01*
X0209517Y0094434D01*
X0209568Y0094467D01*
X0209617Y0094503D01*
X0209663Y0094541D01*
X0209707Y0094583D01*
X0209749Y0094627D01*
X0209787Y0094673D01*
X0209823Y0094722D01*
X0209856Y0094773D01*
X0209885Y0094825D01*
X0209912Y0094880D01*
X0209935Y0094935D01*
X0209955Y0094992D01*
X0209971Y0095051D01*
X0209984Y0095110D01*
X0209993Y0095169D01*
X0209998Y0095230D01*
X0210000Y0095290D01*
X0210000Y0096790D01*
X0209500Y0097290D01*
X0209500Y0116290D01*
X0210000Y0116790D01*
X0210000Y0118290D01*
X0209998Y0118350D01*
X0209993Y0118411D01*
X0209984Y0118470D01*
X0209971Y0118529D01*
X0209955Y0118588D01*
X0209935Y0118645D01*
X0209912Y0118700D01*
X0209885Y0118755D01*
X0209856Y0118807D01*
X0209823Y0118858D01*
X0209787Y0118907D01*
X0209749Y0118953D01*
X0209707Y0118997D01*
X0209663Y0119039D01*
X0209617Y0119077D01*
X0209568Y0119113D01*
X0209517Y0119146D01*
X0209465Y0119175D01*
X0209410Y0119202D01*
X0209355Y0119225D01*
X0209298Y0119245D01*
X0209239Y0119261D01*
X0209180Y0119274D01*
X0209121Y0119283D01*
X0209060Y0119288D01*
X0209000Y0119290D01*
X0202000Y0119290D01*
X0201940Y0119288D01*
X0201879Y0119283D01*
X0201820Y0119274D01*
X0201761Y0119261D01*
X0201702Y0119245D01*
X0201645Y0119225D01*
X0201590Y0119202D01*
X0201535Y0119175D01*
X0201483Y0119146D01*
X0201432Y0119113D01*
X0201383Y0119077D01*
X0201337Y0119039D01*
X0201293Y0118997D01*
X0201251Y0118953D01*
X0201213Y0118907D01*
X0201177Y0118858D01*
X0201144Y0118807D01*
X0201115Y0118755D01*
X0201088Y0118700D01*
X0201065Y0118645D01*
X0201045Y0118588D01*
X0201029Y0118529D01*
X0201016Y0118470D01*
X0201007Y0118411D01*
X0201002Y0118350D01*
X0201000Y0118290D01*
X0201000Y0116790D01*
X0200063Y0137034D02*
X0202063Y0138534D01*
X0200063Y0140034D01*
X0200063Y0137034D01*
X0200063Y0137325D02*
X0200451Y0137325D01*
X0200063Y0137924D02*
X0201249Y0137924D01*
X0202047Y0138522D02*
X0200063Y0138522D01*
X0200063Y0139121D02*
X0201281Y0139121D01*
X0200483Y0139719D02*
X0200063Y0139719D01*
X0203435Y0146658D02*
X0203435Y0150928D01*
X0201300Y0148793D02*
X0205570Y0148793D01*
X0220800Y0148793D02*
X0225070Y0148793D01*
X0303000Y0115290D02*
X0308000Y0115290D01*
X0305500Y0117790D02*
X0305500Y0112790D01*
X0305500Y0099790D02*
X0305500Y0098790D01*
X0310500Y0098790D01*
X0310500Y0096290D01*
X0300500Y0096290D01*
X0300500Y0098790D01*
X0305500Y0098790D01*
X0278000Y0095290D02*
X0278008Y0095965D01*
X0278033Y0096639D01*
X0278075Y0097313D01*
X0278132Y0097985D01*
X0278207Y0098656D01*
X0278298Y0099325D01*
X0278405Y0099991D01*
X0278528Y0100655D01*
X0278668Y0101315D01*
X0278824Y0101972D01*
X0278996Y0102625D01*
X0279184Y0103273D01*
X0279388Y0103916D01*
X0279608Y0104554D01*
X0279843Y0105187D01*
X0280093Y0105814D01*
X0280359Y0106434D01*
X0280640Y0107048D01*
X0280936Y0107654D01*
X0281247Y0108253D01*
X0281573Y0108845D01*
X0281912Y0109428D01*
X0282267Y0110002D01*
X0282635Y0110568D01*
X0283016Y0111125D01*
X0283412Y0111672D01*
X0283820Y0112209D01*
X0284242Y0112736D01*
X0284677Y0113252D01*
X0285124Y0113758D01*
X0285583Y0114252D01*
X0286055Y0114735D01*
X0286538Y0115207D01*
X0287032Y0115666D01*
X0287538Y0116113D01*
X0288054Y0116548D01*
X0288581Y0116970D01*
X0289118Y0117378D01*
X0289665Y0117774D01*
X0290222Y0118155D01*
X0290788Y0118523D01*
X0291362Y0118878D01*
X0291945Y0119217D01*
X0292537Y0119543D01*
X0293136Y0119854D01*
X0293742Y0120150D01*
X0294356Y0120431D01*
X0294976Y0120697D01*
X0295603Y0120947D01*
X0296236Y0121182D01*
X0296874Y0121402D01*
X0297517Y0121606D01*
X0298165Y0121794D01*
X0298818Y0121966D01*
X0299475Y0122122D01*
X0300135Y0122262D01*
X0300799Y0122385D01*
X0301465Y0122492D01*
X0302134Y0122583D01*
X0302805Y0122658D01*
X0303477Y0122715D01*
X0304151Y0122757D01*
X0304825Y0122782D01*
X0305500Y0122790D01*
X0306175Y0122782D01*
X0306849Y0122757D01*
X0307523Y0122715D01*
X0308195Y0122658D01*
X0308866Y0122583D01*
X0309535Y0122492D01*
X0310201Y0122385D01*
X0310865Y0122262D01*
X0311525Y0122122D01*
X0312182Y0121966D01*
X0312835Y0121794D01*
X0313483Y0121606D01*
X0314126Y0121402D01*
X0314764Y0121182D01*
X0315397Y0120947D01*
X0316024Y0120697D01*
X0316644Y0120431D01*
X0317258Y0120150D01*
X0317864Y0119854D01*
X0318463Y0119543D01*
X0319055Y0119217D01*
X0319638Y0118878D01*
X0320212Y0118523D01*
X0320778Y0118155D01*
X0321335Y0117774D01*
X0321882Y0117378D01*
X0322419Y0116970D01*
X0322946Y0116548D01*
X0323462Y0116113D01*
X0323968Y0115666D01*
X0324462Y0115207D01*
X0324945Y0114735D01*
X0325417Y0114252D01*
X0325876Y0113758D01*
X0326323Y0113252D01*
X0326758Y0112736D01*
X0327180Y0112209D01*
X0327588Y0111672D01*
X0327984Y0111125D01*
X0328365Y0110568D01*
X0328733Y0110002D01*
X0329088Y0109428D01*
X0329427Y0108845D01*
X0329753Y0108253D01*
X0330064Y0107654D01*
X0330360Y0107048D01*
X0330641Y0106434D01*
X0330907Y0105814D01*
X0331157Y0105187D01*
X0331392Y0104554D01*
X0331612Y0103916D01*
X0331816Y0103273D01*
X0332004Y0102625D01*
X0332176Y0101972D01*
X0332332Y0101315D01*
X0332472Y0100655D01*
X0332595Y0099991D01*
X0332702Y0099325D01*
X0332793Y0098656D01*
X0332868Y0097985D01*
X0332925Y0097313D01*
X0332967Y0096639D01*
X0332992Y0095965D01*
X0333000Y0095290D01*
X0332992Y0094615D01*
X0332967Y0093941D01*
X0332925Y0093267D01*
X0332868Y0092595D01*
X0332793Y0091924D01*
X0332702Y0091255D01*
X0332595Y0090589D01*
X0332472Y0089925D01*
X0332332Y0089265D01*
X0332176Y0088608D01*
X0332004Y0087955D01*
X0331816Y0087307D01*
X0331612Y0086664D01*
X0331392Y0086026D01*
X0331157Y0085393D01*
X0330907Y0084766D01*
X0330641Y0084146D01*
X0330360Y0083532D01*
X0330064Y0082926D01*
X0329753Y0082327D01*
X0329427Y0081735D01*
X0329088Y0081152D01*
X0328733Y0080578D01*
X0328365Y0080012D01*
X0327984Y0079455D01*
X0327588Y0078908D01*
X0327180Y0078371D01*
X0326758Y0077844D01*
X0326323Y0077328D01*
X0325876Y0076822D01*
X0325417Y0076328D01*
X0324945Y0075845D01*
X0324462Y0075373D01*
X0323968Y0074914D01*
X0323462Y0074467D01*
X0322946Y0074032D01*
X0322419Y0073610D01*
X0321882Y0073202D01*
X0321335Y0072806D01*
X0320778Y0072425D01*
X0320212Y0072057D01*
X0319638Y0071702D01*
X0319055Y0071363D01*
X0318463Y0071037D01*
X0317864Y0070726D01*
X0317258Y0070430D01*
X0316644Y0070149D01*
X0316024Y0069883D01*
X0315397Y0069633D01*
X0314764Y0069398D01*
X0314126Y0069178D01*
X0313483Y0068974D01*
X0312835Y0068786D01*
X0312182Y0068614D01*
X0311525Y0068458D01*
X0310865Y0068318D01*
X0310201Y0068195D01*
X0309535Y0068088D01*
X0308866Y0067997D01*
X0308195Y0067922D01*
X0307523Y0067865D01*
X0306849Y0067823D01*
X0306175Y0067798D01*
X0305500Y0067790D01*
X0304825Y0067798D01*
X0304151Y0067823D01*
X0303477Y0067865D01*
X0302805Y0067922D01*
X0302134Y0067997D01*
X0301465Y0068088D01*
X0300799Y0068195D01*
X0300135Y0068318D01*
X0299475Y0068458D01*
X0298818Y0068614D01*
X0298165Y0068786D01*
X0297517Y0068974D01*
X0296874Y0069178D01*
X0296236Y0069398D01*
X0295603Y0069633D01*
X0294976Y0069883D01*
X0294356Y0070149D01*
X0293742Y0070430D01*
X0293136Y0070726D01*
X0292537Y0071037D01*
X0291945Y0071363D01*
X0291362Y0071702D01*
X0290788Y0072057D01*
X0290222Y0072425D01*
X0289665Y0072806D01*
X0289118Y0073202D01*
X0288581Y0073610D01*
X0288054Y0074032D01*
X0287538Y0074467D01*
X0287032Y0074914D01*
X0286538Y0075373D01*
X0286055Y0075845D01*
X0285583Y0076328D01*
X0285124Y0076822D01*
X0284677Y0077328D01*
X0284242Y0077844D01*
X0283820Y0078371D01*
X0283412Y0078908D01*
X0283016Y0079455D01*
X0282635Y0080012D01*
X0282267Y0080578D01*
X0281912Y0081152D01*
X0281573Y0081735D01*
X0281247Y0082327D01*
X0280936Y0082926D01*
X0280640Y0083532D01*
X0280359Y0084146D01*
X0280093Y0084766D01*
X0279843Y0085393D01*
X0279608Y0086026D01*
X0279388Y0086664D01*
X0279184Y0087307D01*
X0278996Y0087955D01*
X0278824Y0088608D01*
X0278668Y0089265D01*
X0278528Y0089925D01*
X0278405Y0090589D01*
X0278298Y0091255D01*
X0278207Y0091924D01*
X0278132Y0092595D01*
X0278075Y0093267D01*
X0278033Y0093941D01*
X0278008Y0094615D01*
X0278000Y0095290D01*
X0305500Y0092790D02*
X0305500Y0090790D01*
X0272500Y0064290D02*
X0269500Y0064290D01*
X0271000Y0062290D01*
X0272500Y0064290D01*
X0272064Y0063708D02*
X0269936Y0063708D01*
X0270385Y0063110D02*
X0271615Y0063110D01*
X0271166Y0062511D02*
X0270834Y0062511D01*
X0243500Y0064290D02*
X0240500Y0064290D01*
X0242000Y0062290D01*
X0243500Y0064290D01*
X0243064Y0063708D02*
X0240936Y0063708D01*
X0241385Y0063110D02*
X0242615Y0063110D01*
X0242166Y0062511D02*
X0241834Y0062511D01*
X0318268Y0150416D02*
X0320268Y0151916D01*
X0318268Y0153416D01*
X0318268Y0150416D01*
X0318268Y0150493D02*
X0318369Y0150493D01*
X0318268Y0151091D02*
X0319167Y0151091D01*
X0319965Y0151690D02*
X0318268Y0151690D01*
X0318268Y0152288D02*
X0319772Y0152288D01*
X0318974Y0152887D02*
X0318268Y0152887D01*
X0060070Y0148793D02*
X0055800Y0148793D01*
X0040570Y0148793D02*
X0036300Y0148793D01*
X0038435Y0150928D02*
X0038435Y0146658D01*
X0035063Y0140034D02*
X0035063Y0137034D01*
X0037063Y0138534D01*
X0035063Y0140034D01*
X0035063Y0139719D02*
X0035483Y0139719D01*
X0035063Y0139121D02*
X0036281Y0139121D01*
X0037047Y0138522D02*
X0035063Y0138522D01*
X0035063Y0137924D02*
X0036249Y0137924D01*
X0035451Y0137325D02*
X0035063Y0137325D01*
X0037000Y0119290D02*
X0044000Y0119290D01*
X0044060Y0119288D01*
X0044121Y0119283D01*
X0044180Y0119274D01*
X0044239Y0119261D01*
X0044298Y0119245D01*
X0044355Y0119225D01*
X0044410Y0119202D01*
X0044465Y0119175D01*
X0044517Y0119146D01*
X0044568Y0119113D01*
X0044617Y0119077D01*
X0044663Y0119039D01*
X0044707Y0118997D01*
X0044749Y0118953D01*
X0044787Y0118907D01*
X0044823Y0118858D01*
X0044856Y0118807D01*
X0044885Y0118755D01*
X0044912Y0118700D01*
X0044935Y0118645D01*
X0044955Y0118588D01*
X0044971Y0118529D01*
X0044984Y0118470D01*
X0044993Y0118411D01*
X0044998Y0118350D01*
X0045000Y0118290D01*
X0045000Y0116790D01*
X0044500Y0116290D01*
X0044500Y0097290D01*
X0045000Y0096790D01*
X0045000Y0095290D01*
X0044998Y0095230D01*
X0044993Y0095169D01*
X0044984Y0095110D01*
X0044971Y0095051D01*
X0044955Y0094992D01*
X0044935Y0094935D01*
X0044912Y0094880D01*
X0044885Y0094825D01*
X0044856Y0094773D01*
X0044823Y0094722D01*
X0044787Y0094673D01*
X0044749Y0094627D01*
X0044707Y0094583D01*
X0044663Y0094541D01*
X0044617Y0094503D01*
X0044568Y0094467D01*
X0044517Y0094434D01*
X0044465Y0094405D01*
X0044410Y0094378D01*
X0044355Y0094355D01*
X0044298Y0094335D01*
X0044239Y0094319D01*
X0044180Y0094306D01*
X0044121Y0094297D01*
X0044060Y0094292D01*
X0044000Y0094290D01*
X0037000Y0094290D01*
X0036940Y0094292D01*
X0036879Y0094297D01*
X0036820Y0094306D01*
X0036761Y0094319D01*
X0036702Y0094335D01*
X0036645Y0094355D01*
X0036590Y0094378D01*
X0036535Y0094405D01*
X0036483Y0094434D01*
X0036432Y0094467D01*
X0036383Y0094503D01*
X0036337Y0094541D01*
X0036293Y0094583D01*
X0036251Y0094627D01*
X0036213Y0094673D01*
X0036177Y0094722D01*
X0036144Y0094773D01*
X0036115Y0094825D01*
X0036088Y0094880D01*
X0036065Y0094935D01*
X0036045Y0094992D01*
X0036029Y0095051D01*
X0036016Y0095110D01*
X0036007Y0095169D01*
X0036002Y0095230D01*
X0036000Y0095290D01*
X0036000Y0096790D01*
X0036500Y0097290D01*
X0036500Y0116290D01*
X0036000Y0116790D01*
X0036000Y0118290D01*
X0036002Y0118350D01*
X0036007Y0118411D01*
X0036016Y0118470D01*
X0036029Y0118529D01*
X0036045Y0118588D01*
X0036065Y0118645D01*
X0036088Y0118700D01*
X0036115Y0118755D01*
X0036144Y0118807D01*
X0036177Y0118858D01*
X0036213Y0118907D01*
X0036251Y0118953D01*
X0036293Y0118997D01*
X0036337Y0119039D01*
X0036383Y0119077D01*
X0036432Y0119113D01*
X0036483Y0119146D01*
X0036535Y0119175D01*
X0036590Y0119202D01*
X0036645Y0119225D01*
X0036702Y0119245D01*
X0036761Y0119261D01*
X0036820Y0119274D01*
X0036879Y0119283D01*
X0036940Y0119288D01*
X0037000Y0119290D01*
X0029000Y0118290D02*
X0029000Y0116790D01*
X0028500Y0116290D01*
X0028500Y0097290D01*
X0029000Y0096790D01*
X0029000Y0095290D01*
X0028998Y0095230D01*
X0028993Y0095169D01*
X0028984Y0095110D01*
X0028971Y0095051D01*
X0028955Y0094992D01*
X0028935Y0094935D01*
X0028912Y0094880D01*
X0028885Y0094825D01*
X0028856Y0094773D01*
X0028823Y0094722D01*
X0028787Y0094673D01*
X0028749Y0094627D01*
X0028707Y0094583D01*
X0028663Y0094541D01*
X0028617Y0094503D01*
X0028568Y0094467D01*
X0028517Y0094434D01*
X0028465Y0094405D01*
X0028410Y0094378D01*
X0028355Y0094355D01*
X0028298Y0094335D01*
X0028239Y0094319D01*
X0028180Y0094306D01*
X0028121Y0094297D01*
X0028060Y0094292D01*
X0028000Y0094290D01*
X0021000Y0094290D01*
X0020940Y0094292D01*
X0020879Y0094297D01*
X0020820Y0094306D01*
X0020761Y0094319D01*
X0020702Y0094335D01*
X0020645Y0094355D01*
X0020590Y0094378D01*
X0020535Y0094405D01*
X0020483Y0094434D01*
X0020432Y0094467D01*
X0020383Y0094503D01*
X0020337Y0094541D01*
X0020293Y0094583D01*
X0020251Y0094627D01*
X0020213Y0094673D01*
X0020177Y0094722D01*
X0020144Y0094773D01*
X0020115Y0094825D01*
X0020088Y0094880D01*
X0020065Y0094935D01*
X0020045Y0094992D01*
X0020029Y0095051D01*
X0020016Y0095110D01*
X0020007Y0095169D01*
X0020002Y0095230D01*
X0020000Y0095290D01*
X0020000Y0096790D01*
X0020500Y0097290D01*
X0020500Y0116290D01*
X0020000Y0116790D01*
X0020000Y0118290D01*
X0020002Y0118350D01*
X0020007Y0118411D01*
X0020016Y0118470D01*
X0020029Y0118529D01*
X0020045Y0118588D01*
X0020065Y0118645D01*
X0020088Y0118700D01*
X0020115Y0118755D01*
X0020144Y0118807D01*
X0020177Y0118858D01*
X0020213Y0118907D01*
X0020251Y0118953D01*
X0020293Y0118997D01*
X0020337Y0119039D01*
X0020383Y0119077D01*
X0020432Y0119113D01*
X0020483Y0119146D01*
X0020535Y0119175D01*
X0020590Y0119202D01*
X0020645Y0119225D01*
X0020702Y0119245D01*
X0020761Y0119261D01*
X0020820Y0119274D01*
X0020879Y0119283D01*
X0020940Y0119288D01*
X0021000Y0119290D01*
X0028000Y0119290D01*
X0028060Y0119288D01*
X0028121Y0119283D01*
X0028180Y0119274D01*
X0028239Y0119261D01*
X0028298Y0119245D01*
X0028355Y0119225D01*
X0028410Y0119202D01*
X0028465Y0119175D01*
X0028517Y0119146D01*
X0028568Y0119113D01*
X0028617Y0119077D01*
X0028663Y0119039D01*
X0028707Y0118997D01*
X0028749Y0118953D01*
X0028787Y0118907D01*
X0028823Y0118858D01*
X0028856Y0118807D01*
X0028885Y0118755D01*
X0028912Y0118700D01*
X0028935Y0118645D01*
X0028955Y0118588D01*
X0028971Y0118529D01*
X0028984Y0118470D01*
X0028993Y0118411D01*
X0028998Y0118350D01*
X0029000Y0118290D01*
D11*
X0029696Y0117475D02*
X0034300Y0117475D01*
X0034300Y0114406D02*
X0029696Y0114406D01*
X0031231Y0115941D01*
X0029696Y0117475D01*
X0030463Y0112871D02*
X0031998Y0112871D01*
X0032765Y0112104D01*
X0032765Y0109802D01*
X0032765Y0111337D02*
X0034300Y0112871D01*
X0034300Y0109802D02*
X0029696Y0109802D01*
X0029696Y0112104D01*
X0030463Y0112871D01*
X0029696Y0108267D02*
X0029696Y0105198D01*
X0034300Y0105198D01*
X0034300Y0108267D01*
X0031998Y0106733D02*
X0031998Y0105198D01*
X0031998Y0103663D02*
X0031998Y0100594D01*
X0034300Y0100594D02*
X0029696Y0100594D01*
X0029696Y0099060D02*
X0029696Y0095990D01*
X0029696Y0097525D02*
X0034300Y0097525D01*
X0034300Y0103663D02*
X0029696Y0103663D01*
X0018800Y0103594D02*
X0014196Y0103594D01*
X0014196Y0105896D01*
X0014963Y0106663D01*
X0016498Y0106663D01*
X0017265Y0105896D01*
X0017265Y0103594D01*
X0017265Y0105129D02*
X0018800Y0106663D01*
X0018033Y0108198D02*
X0018800Y0108965D01*
X0018800Y0110500D01*
X0018033Y0111267D01*
X0014963Y0111267D01*
X0014196Y0110500D01*
X0014196Y0108965D01*
X0014963Y0108198D01*
X0018033Y0108198D01*
X0018033Y0112802D02*
X0018800Y0113569D01*
X0018800Y0115104D01*
X0018033Y0115871D01*
X0016498Y0115871D01*
X0016498Y0114337D01*
X0014963Y0115871D02*
X0014196Y0115104D01*
X0014196Y0113569D01*
X0014963Y0112802D01*
X0018033Y0112802D01*
X0016498Y0102060D02*
X0017265Y0101292D01*
X0017265Y0098990D01*
X0018800Y0098990D02*
X0014196Y0098990D01*
X0014196Y0101292D01*
X0014963Y0102060D01*
X0016498Y0102060D01*
X0027301Y0077593D02*
X0026700Y0076993D01*
X0026700Y0074591D01*
X0027301Y0073990D01*
X0028502Y0073990D01*
X0029102Y0074591D01*
X0029102Y0075792D01*
X0027901Y0075792D01*
X0029102Y0076993D02*
X0028502Y0077593D01*
X0027301Y0077593D01*
X0030383Y0077593D02*
X0030383Y0073990D01*
X0032785Y0073990D02*
X0030383Y0077593D01*
X0032785Y0077593D02*
X0032785Y0073990D01*
X0034066Y0073990D02*
X0035868Y0073990D01*
X0036468Y0074591D01*
X0036468Y0076993D01*
X0035868Y0077593D01*
X0034066Y0077593D01*
X0034066Y0073990D01*
X0031584Y0066993D02*
X0031584Y0064591D01*
X0030383Y0065792D02*
X0032785Y0065792D01*
X0029102Y0066392D02*
X0029102Y0066993D01*
X0028502Y0067593D01*
X0026700Y0067593D01*
X0026700Y0063990D01*
X0028502Y0063990D01*
X0029102Y0064591D01*
X0029102Y0065191D01*
X0028502Y0065792D01*
X0026700Y0065792D01*
X0028502Y0065792D02*
X0029102Y0066392D01*
X0068200Y0072258D02*
X0068967Y0071490D01*
X0070502Y0071490D01*
X0071269Y0072258D01*
X0072804Y0071490D02*
X0072804Y0076094D01*
X0071269Y0075327D02*
X0070502Y0076094D01*
X0068967Y0076094D01*
X0068200Y0075327D01*
X0068200Y0072258D01*
X0072804Y0073792D02*
X0075873Y0073792D01*
X0077408Y0073025D02*
X0079710Y0073025D01*
X0080477Y0073792D01*
X0080477Y0075327D01*
X0079710Y0076094D01*
X0077408Y0076094D01*
X0077408Y0071490D01*
X0075873Y0071490D02*
X0075873Y0076094D01*
X0078942Y0073025D02*
X0080477Y0071490D01*
X0082012Y0072258D02*
X0082779Y0071490D01*
X0084314Y0071490D01*
X0085081Y0072258D01*
X0085081Y0073792D01*
X0083546Y0073792D01*
X0082012Y0072258D02*
X0082012Y0075327D01*
X0082779Y0076094D01*
X0084314Y0076094D01*
X0085081Y0075327D01*
X0097200Y0076094D02*
X0097200Y0071490D01*
X0099502Y0071490D01*
X0100269Y0072258D01*
X0100269Y0075327D01*
X0099502Y0076094D01*
X0097200Y0076094D01*
X0101804Y0075327D02*
X0101804Y0072258D01*
X0102571Y0071490D01*
X0104106Y0071490D01*
X0104873Y0072258D01*
X0104873Y0075327D01*
X0104106Y0076094D01*
X0102571Y0076094D01*
X0101804Y0075327D01*
X0106408Y0076094D02*
X0106408Y0071490D01*
X0109477Y0071490D02*
X0106408Y0076094D01*
X0109477Y0076094D02*
X0109477Y0071490D01*
X0111012Y0071490D02*
X0114081Y0071490D01*
X0112546Y0073792D02*
X0111012Y0073792D01*
X0111012Y0076094D02*
X0111012Y0071490D01*
X0111012Y0076094D02*
X0114081Y0076094D01*
X0112433Y0055929D02*
X0108963Y0055929D01*
X0108096Y0055062D01*
X0108096Y0052459D01*
X0113300Y0052459D01*
X0113300Y0055062D01*
X0112433Y0055929D01*
X0113300Y0050773D02*
X0109830Y0050773D01*
X0108096Y0049038D01*
X0109830Y0047303D01*
X0113300Y0047303D01*
X0112433Y0045616D02*
X0108963Y0045616D01*
X0108096Y0044749D01*
X0108096Y0043014D01*
X0108963Y0042147D01*
X0112433Y0042147D01*
X0113300Y0043014D01*
X0113300Y0044749D01*
X0112433Y0045616D01*
X0110698Y0047303D02*
X0110698Y0050773D01*
X0103102Y0050591D02*
X0103102Y0052993D01*
X0102502Y0053593D01*
X0100700Y0053593D01*
X0100700Y0049990D01*
X0102502Y0049990D01*
X0103102Y0050591D01*
X0093102Y0052792D02*
X0090700Y0052792D01*
X0091901Y0053993D02*
X0091901Y0051591D01*
X0083102Y0050591D02*
X0082502Y0049990D01*
X0081301Y0049990D01*
X0080700Y0050591D01*
X0080700Y0052993D01*
X0081301Y0053593D01*
X0082502Y0053593D01*
X0083102Y0052993D01*
X0074300Y0054194D02*
X0069096Y0054194D01*
X0069096Y0052459D02*
X0069096Y0055929D01*
X0069096Y0050773D02*
X0069096Y0047303D01*
X0069096Y0049038D02*
X0074300Y0049038D01*
X0074300Y0045616D02*
X0070830Y0045616D01*
X0069096Y0043881D01*
X0070830Y0042147D01*
X0074300Y0042147D01*
X0073433Y0040460D02*
X0074300Y0039592D01*
X0074300Y0036990D01*
X0069096Y0036990D01*
X0069096Y0039592D01*
X0069963Y0040460D01*
X0070830Y0040460D01*
X0071698Y0039592D01*
X0071698Y0036990D01*
X0071698Y0039592D02*
X0072565Y0040460D01*
X0073433Y0040460D01*
X0071698Y0042147D02*
X0071698Y0045616D01*
X0108096Y0036990D02*
X0113300Y0036990D01*
X0113300Y0040460D01*
X0151334Y0064990D02*
X0153736Y0064990D01*
X0155017Y0066792D02*
X0157419Y0066792D01*
X0156218Y0067993D02*
X0156218Y0065591D01*
X0151334Y0064990D02*
X0151334Y0068593D01*
X0151334Y0073990D02*
X0151334Y0077593D01*
X0153736Y0073990D01*
X0153736Y0077593D01*
X0155017Y0077593D02*
X0156818Y0077593D01*
X0157419Y0076993D01*
X0157419Y0074591D01*
X0156818Y0073990D01*
X0155017Y0073990D01*
X0155017Y0077593D01*
X0150053Y0076993D02*
X0149452Y0077593D01*
X0148251Y0077593D01*
X0147651Y0076993D01*
X0147651Y0074591D01*
X0148251Y0073990D01*
X0149452Y0073990D01*
X0150053Y0074591D01*
X0150053Y0075792D01*
X0148852Y0075792D01*
X0179196Y0098990D02*
X0179196Y0101292D01*
X0179963Y0102060D01*
X0181498Y0102060D01*
X0182265Y0101292D01*
X0182265Y0098990D01*
X0183800Y0098990D02*
X0179196Y0098990D01*
X0179196Y0103594D02*
X0179196Y0105896D01*
X0179963Y0106663D01*
X0181498Y0106663D01*
X0182265Y0105896D01*
X0182265Y0103594D01*
X0182265Y0105129D02*
X0183800Y0106663D01*
X0183033Y0108198D02*
X0183800Y0108965D01*
X0183800Y0110500D01*
X0183033Y0111267D01*
X0179963Y0111267D01*
X0179196Y0110500D01*
X0179196Y0108965D01*
X0179963Y0108198D01*
X0183033Y0108198D01*
X0183800Y0103594D02*
X0179196Y0103594D01*
X0179963Y0112802D02*
X0183033Y0112802D01*
X0183800Y0113569D01*
X0183800Y0115104D01*
X0183033Y0115871D01*
X0181498Y0115871D01*
X0181498Y0114337D01*
X0179963Y0115871D02*
X0179196Y0115104D01*
X0179196Y0113569D01*
X0179963Y0112802D01*
X0194696Y0112104D02*
X0194696Y0109802D01*
X0199300Y0109802D01*
X0199300Y0108267D02*
X0199300Y0105198D01*
X0194696Y0105198D01*
X0194696Y0108267D01*
X0196998Y0106733D02*
X0196998Y0105198D01*
X0196998Y0103663D02*
X0196998Y0100594D01*
X0199300Y0100594D02*
X0194696Y0100594D01*
X0194696Y0099060D02*
X0194696Y0095990D01*
X0194696Y0097525D02*
X0199300Y0097525D01*
X0199300Y0103663D02*
X0194696Y0103663D01*
X0197765Y0109802D02*
X0197765Y0112104D01*
X0196998Y0112871D01*
X0195463Y0112871D01*
X0194696Y0112104D01*
X0194696Y0114406D02*
X0196231Y0115941D01*
X0194696Y0117475D01*
X0199300Y0117475D01*
X0199300Y0114406D02*
X0194696Y0114406D01*
X0197765Y0111337D02*
X0199300Y0112871D01*
X0165300Y0138634D02*
X0164533Y0137867D01*
X0162998Y0137867D01*
X0162998Y0140169D01*
X0163765Y0140936D01*
X0164533Y0140936D01*
X0165300Y0140169D01*
X0165300Y0138634D01*
X0162998Y0137867D02*
X0161463Y0139401D01*
X0160696Y0140936D01*
X0160696Y0142471D02*
X0163765Y0142471D01*
X0165300Y0144005D01*
X0163765Y0145540D01*
X0160696Y0145540D01*
X0158800Y0145396D02*
X0158033Y0146163D01*
X0158800Y0145396D02*
X0158800Y0143862D01*
X0158033Y0143094D01*
X0154963Y0143094D01*
X0154196Y0143862D01*
X0154196Y0145396D01*
X0154963Y0146163D01*
X0154196Y0147698D02*
X0154196Y0149233D01*
X0154196Y0148465D02*
X0158800Y0148465D01*
X0158800Y0147698D02*
X0158800Y0149233D01*
X0158800Y0150767D02*
X0154196Y0150767D01*
X0158800Y0153837D01*
X0154196Y0153837D01*
X0160696Y0154748D02*
X0165300Y0154748D01*
X0165300Y0156282D02*
X0162231Y0156282D01*
X0160696Y0157817D01*
X0162231Y0159352D01*
X0165300Y0159352D01*
X0165300Y0160886D02*
X0160696Y0163956D01*
X0160696Y0160886D02*
X0165300Y0163956D01*
X0162998Y0159352D02*
X0162998Y0156282D01*
X0160696Y0154748D02*
X0162231Y0153213D01*
X0160696Y0151678D01*
X0165300Y0151678D01*
X0158033Y0141560D02*
X0154963Y0141560D01*
X0154196Y0140792D01*
X0154196Y0138490D01*
X0158800Y0138490D01*
X0158800Y0140792D01*
X0158033Y0141560D01*
X0204700Y0141990D02*
X0207002Y0141990D01*
X0207769Y0142758D01*
X0207769Y0145827D01*
X0207002Y0146594D01*
X0204700Y0146594D01*
X0204700Y0141990D01*
X0209304Y0142758D02*
X0210071Y0141990D01*
X0211606Y0141990D01*
X0212373Y0142758D01*
X0213908Y0141990D02*
X0215442Y0141990D01*
X0214675Y0141990D02*
X0214675Y0146594D01*
X0213908Y0146594D02*
X0215442Y0146594D01*
X0216977Y0146594D02*
X0220046Y0141990D01*
X0220046Y0146594D01*
X0216977Y0146594D02*
X0216977Y0141990D01*
X0212373Y0145827D02*
X0211606Y0146594D01*
X0210071Y0146594D01*
X0209304Y0145827D01*
X0209304Y0142758D01*
X0200868Y0077593D02*
X0199066Y0077593D01*
X0199066Y0073990D01*
X0200868Y0073990D01*
X0201468Y0074591D01*
X0201468Y0076993D01*
X0200868Y0077593D01*
X0197785Y0077593D02*
X0197785Y0073990D01*
X0195383Y0077593D01*
X0195383Y0073990D01*
X0194102Y0074591D02*
X0194102Y0075792D01*
X0192901Y0075792D01*
X0191700Y0076993D02*
X0191700Y0074591D01*
X0192301Y0073990D01*
X0193502Y0073990D01*
X0194102Y0074591D01*
X0194102Y0076993D02*
X0193502Y0077593D01*
X0192301Y0077593D01*
X0191700Y0076993D01*
X0191700Y0067593D02*
X0193502Y0067593D01*
X0194102Y0066993D01*
X0194102Y0066392D01*
X0193502Y0065792D01*
X0191700Y0065792D01*
X0191700Y0067593D02*
X0191700Y0063990D01*
X0193502Y0063990D01*
X0194102Y0064591D01*
X0194102Y0065191D01*
X0193502Y0065792D01*
X0195383Y0065792D02*
X0197785Y0065792D01*
X0196584Y0066993D02*
X0196584Y0064591D01*
X0233200Y0072258D02*
X0233967Y0071490D01*
X0235502Y0071490D01*
X0236269Y0072258D01*
X0237804Y0071490D02*
X0237804Y0076094D01*
X0236269Y0075327D02*
X0235502Y0076094D01*
X0233967Y0076094D01*
X0233200Y0075327D01*
X0233200Y0072258D01*
X0237804Y0073792D02*
X0240873Y0073792D01*
X0242408Y0073025D02*
X0244710Y0073025D01*
X0245477Y0073792D01*
X0245477Y0075327D01*
X0244710Y0076094D01*
X0242408Y0076094D01*
X0242408Y0071490D01*
X0240873Y0071490D02*
X0240873Y0076094D01*
X0243942Y0073025D02*
X0245477Y0071490D01*
X0247012Y0072258D02*
X0247012Y0075327D01*
X0247779Y0076094D01*
X0249314Y0076094D01*
X0250081Y0075327D01*
X0250081Y0073792D02*
X0248546Y0073792D01*
X0250081Y0073792D02*
X0250081Y0072258D01*
X0249314Y0071490D01*
X0247779Y0071490D01*
X0247012Y0072258D01*
X0262200Y0071490D02*
X0264502Y0071490D01*
X0265269Y0072258D01*
X0265269Y0075327D01*
X0264502Y0076094D01*
X0262200Y0076094D01*
X0262200Y0071490D01*
X0266804Y0072258D02*
X0266804Y0075327D01*
X0267571Y0076094D01*
X0269106Y0076094D01*
X0269873Y0075327D01*
X0269873Y0072258D01*
X0269106Y0071490D01*
X0267571Y0071490D01*
X0266804Y0072258D01*
X0271408Y0071490D02*
X0271408Y0076094D01*
X0274477Y0071490D01*
X0274477Y0076094D01*
X0276012Y0076094D02*
X0276012Y0071490D01*
X0279081Y0071490D01*
X0277546Y0073792D02*
X0276012Y0073792D01*
X0276012Y0076094D02*
X0279081Y0076094D01*
X0277433Y0055929D02*
X0273963Y0055929D01*
X0273096Y0055062D01*
X0273096Y0052459D01*
X0278300Y0052459D01*
X0278300Y0055062D01*
X0277433Y0055929D01*
X0278300Y0050773D02*
X0274830Y0050773D01*
X0273096Y0049038D01*
X0274830Y0047303D01*
X0278300Y0047303D01*
X0277433Y0045616D02*
X0273963Y0045616D01*
X0273096Y0044749D01*
X0273096Y0043014D01*
X0273963Y0042147D01*
X0277433Y0042147D01*
X0278300Y0043014D01*
X0278300Y0044749D01*
X0277433Y0045616D01*
X0275698Y0047303D02*
X0275698Y0050773D01*
X0268102Y0050591D02*
X0268102Y0052993D01*
X0267502Y0053593D01*
X0265700Y0053593D01*
X0265700Y0049990D01*
X0267502Y0049990D01*
X0268102Y0050591D01*
X0258102Y0052792D02*
X0255700Y0052792D01*
X0256901Y0053993D02*
X0256901Y0051591D01*
X0248102Y0050591D02*
X0247502Y0049990D01*
X0246301Y0049990D01*
X0245700Y0050591D01*
X0245700Y0052993D01*
X0246301Y0053593D01*
X0247502Y0053593D01*
X0248102Y0052993D01*
X0239300Y0054194D02*
X0234096Y0054194D01*
X0234096Y0052459D02*
X0234096Y0055929D01*
X0234096Y0050773D02*
X0234096Y0047303D01*
X0234096Y0049038D02*
X0239300Y0049038D01*
X0239300Y0045616D02*
X0235830Y0045616D01*
X0234096Y0043881D01*
X0235830Y0042147D01*
X0239300Y0042147D01*
X0238433Y0040460D02*
X0239300Y0039592D01*
X0239300Y0036990D01*
X0234096Y0036990D01*
X0234096Y0039592D01*
X0234963Y0040460D01*
X0235830Y0040460D01*
X0236698Y0039592D01*
X0236698Y0036990D01*
X0236698Y0039592D02*
X0237565Y0040460D01*
X0238433Y0040460D01*
X0236698Y0042147D02*
X0236698Y0045616D01*
X0273096Y0036990D02*
X0278300Y0036990D01*
X0278300Y0040460D01*
X0316334Y0064990D02*
X0316334Y0068593D01*
X0316334Y0064990D02*
X0318736Y0064990D01*
X0320017Y0066792D02*
X0322419Y0066792D01*
X0321218Y0067993D02*
X0321218Y0065591D01*
X0321818Y0073990D02*
X0320017Y0073990D01*
X0320017Y0077593D01*
X0321818Y0077593D01*
X0322419Y0076993D01*
X0322419Y0074591D01*
X0321818Y0073990D01*
X0318736Y0073990D02*
X0318736Y0077593D01*
X0316334Y0077593D02*
X0316334Y0073990D01*
X0315053Y0074591D02*
X0315053Y0075792D01*
X0313852Y0075792D01*
X0315053Y0076993D02*
X0314452Y0077593D01*
X0313251Y0077593D01*
X0312651Y0076993D01*
X0312651Y0074591D01*
X0313251Y0073990D01*
X0314452Y0073990D01*
X0315053Y0074591D01*
X0316334Y0077593D02*
X0318736Y0073990D01*
X0332998Y0107867D02*
X0332998Y0110169D01*
X0333765Y0110936D01*
X0334533Y0110936D01*
X0335300Y0110169D01*
X0335300Y0108634D01*
X0334533Y0107867D01*
X0332998Y0107867D01*
X0331463Y0109401D01*
X0330696Y0110936D01*
X0330696Y0112471D02*
X0333765Y0112471D01*
X0335300Y0114005D01*
X0333765Y0115540D01*
X0330696Y0115540D01*
X0328800Y0118490D02*
X0324196Y0118490D01*
X0324196Y0120792D01*
X0324963Y0121560D01*
X0328033Y0121560D01*
X0328800Y0120792D01*
X0328800Y0118490D01*
X0330696Y0121678D02*
X0332231Y0123213D01*
X0330696Y0124748D01*
X0335300Y0124748D01*
X0335300Y0126282D02*
X0332231Y0126282D01*
X0330696Y0127817D01*
X0332231Y0129352D01*
X0335300Y0129352D01*
X0335300Y0130886D02*
X0330696Y0133956D01*
X0328800Y0133837D02*
X0324196Y0133837D01*
X0324196Y0130767D02*
X0328800Y0133837D01*
X0328800Y0130767D02*
X0324196Y0130767D01*
X0324196Y0129233D02*
X0324196Y0127698D01*
X0324196Y0128465D02*
X0328800Y0128465D01*
X0328800Y0127698D02*
X0328800Y0129233D01*
X0330696Y0130886D02*
X0335300Y0133956D01*
X0332998Y0129352D02*
X0332998Y0126282D01*
X0328800Y0125396D02*
X0328033Y0126163D01*
X0328800Y0125396D02*
X0328800Y0123862D01*
X0328033Y0123094D01*
X0324963Y0123094D01*
X0324196Y0123862D01*
X0324196Y0125396D01*
X0324963Y0126163D01*
X0330696Y0121678D02*
X0335300Y0121678D01*
X0055046Y0141990D02*
X0055046Y0146594D01*
X0051977Y0146594D02*
X0055046Y0141990D01*
X0051977Y0141990D02*
X0051977Y0146594D01*
X0050442Y0146594D02*
X0048908Y0146594D01*
X0049675Y0146594D02*
X0049675Y0141990D01*
X0048908Y0141990D02*
X0050442Y0141990D01*
X0047373Y0142758D02*
X0046606Y0141990D01*
X0045071Y0141990D01*
X0044304Y0142758D01*
X0044304Y0145827D01*
X0045071Y0146594D01*
X0046606Y0146594D01*
X0047373Y0145827D01*
X0042769Y0145827D02*
X0042769Y0142758D01*
X0042002Y0141990D01*
X0039700Y0141990D01*
X0039700Y0146594D01*
X0042002Y0146594D01*
X0042769Y0145827D01*
D12*
X0040368Y0134643D02*
X0038516Y0134643D01*
X0038516Y0130940D01*
X0037302Y0130940D02*
X0037302Y0134643D01*
X0034833Y0134643D02*
X0034833Y0130940D01*
X0036068Y0132175D01*
X0037302Y0130940D01*
X0038516Y0132175D02*
X0040368Y0132175D01*
X0040985Y0132792D01*
X0040985Y0134026D01*
X0040368Y0134643D01*
X0039751Y0132175D02*
X0040985Y0130940D01*
X0033619Y0132792D02*
X0033002Y0132175D01*
X0031150Y0132175D01*
X0031150Y0130940D02*
X0031150Y0134643D01*
X0033002Y0134643D01*
X0033619Y0134026D01*
X0033619Y0132792D01*
X0055647Y0116475D02*
X0057498Y0114623D01*
X0057498Y0117092D01*
X0055647Y0116475D02*
X0059350Y0116475D01*
X0059350Y0113409D02*
X0058116Y0112175D01*
X0058116Y0112792D02*
X0058116Y0110940D01*
X0059350Y0110940D02*
X0055647Y0110940D01*
X0055647Y0112792D01*
X0056264Y0113409D01*
X0057498Y0113409D01*
X0058116Y0112792D01*
X0072784Y0122440D02*
X0072784Y0126143D01*
X0074635Y0126143D01*
X0075252Y0125526D01*
X0075252Y0124292D01*
X0074635Y0123675D01*
X0072784Y0123675D01*
X0074018Y0123675D02*
X0075252Y0122440D01*
X0076467Y0122440D02*
X0078936Y0122440D01*
X0077701Y0122440D02*
X0077701Y0126143D01*
X0076467Y0124909D01*
X0099147Y0118358D02*
X0100381Y0117123D01*
X0099764Y0115909D02*
X0099147Y0115292D01*
X0099147Y0113440D01*
X0102850Y0113440D01*
X0102850Y0115292D01*
X0102233Y0115909D01*
X0099764Y0115909D01*
X0099147Y0118358D02*
X0102850Y0118358D01*
X0102850Y0119592D02*
X0102850Y0117123D01*
X0060802Y0087643D02*
X0058333Y0087643D01*
X0058333Y0085792D01*
X0059568Y0086409D01*
X0060185Y0086409D01*
X0060802Y0085792D01*
X0060802Y0084557D01*
X0060185Y0083940D01*
X0058950Y0083940D01*
X0058333Y0084557D01*
X0057119Y0083940D02*
X0055884Y0085175D01*
X0056502Y0085175D02*
X0054650Y0085175D01*
X0054650Y0083940D02*
X0054650Y0087643D01*
X0056502Y0087643D01*
X0057119Y0087026D01*
X0057119Y0085792D01*
X0056502Y0085175D01*
X0114525Y0152837D02*
X0116460Y0152837D01*
X0116944Y0153321D01*
X0116944Y0154288D01*
X0116460Y0154772D01*
X0115492Y0154772D01*
X0115492Y0153804D01*
X0114525Y0152837D02*
X0114041Y0153321D01*
X0114041Y0154288D01*
X0114525Y0154772D01*
X0114041Y0155783D02*
X0116944Y0157718D01*
X0114041Y0157718D01*
X0114041Y0158730D02*
X0114041Y0160181D01*
X0114525Y0160665D01*
X0116460Y0160665D01*
X0116944Y0160181D01*
X0116944Y0158730D01*
X0114041Y0158730D01*
X0114041Y0155783D02*
X0116944Y0155783D01*
X0196150Y0134643D02*
X0196150Y0130940D01*
X0196150Y0132175D02*
X0198002Y0132175D01*
X0198619Y0132792D01*
X0198619Y0134026D01*
X0198002Y0134643D01*
X0196150Y0134643D01*
X0199833Y0134643D02*
X0199833Y0130940D01*
X0201068Y0132175D01*
X0202302Y0130940D01*
X0202302Y0134643D01*
X0203516Y0134643D02*
X0203516Y0130940D01*
X0203516Y0132175D02*
X0205368Y0132175D01*
X0205985Y0132792D01*
X0205985Y0134026D01*
X0205368Y0134643D01*
X0203516Y0134643D01*
X0204751Y0132175D02*
X0205985Y0130940D01*
X0220647Y0116475D02*
X0222498Y0114623D01*
X0222498Y0117092D01*
X0220647Y0116475D02*
X0224350Y0116475D01*
X0224350Y0113409D02*
X0223116Y0112175D01*
X0223116Y0112792D02*
X0223116Y0110940D01*
X0224350Y0110940D02*
X0220647Y0110940D01*
X0220647Y0112792D01*
X0221264Y0113409D01*
X0222498Y0113409D01*
X0223116Y0112792D01*
X0237784Y0122440D02*
X0237784Y0126143D01*
X0239635Y0126143D01*
X0240252Y0125526D01*
X0240252Y0124292D01*
X0239635Y0123675D01*
X0237784Y0123675D01*
X0239018Y0123675D02*
X0240252Y0122440D01*
X0241467Y0122440D02*
X0243936Y0122440D01*
X0242701Y0122440D02*
X0242701Y0126143D01*
X0241467Y0124909D01*
X0264147Y0118358D02*
X0265381Y0117123D01*
X0264764Y0115909D02*
X0264147Y0115292D01*
X0264147Y0113440D01*
X0267850Y0113440D01*
X0267850Y0115292D01*
X0267233Y0115909D01*
X0264764Y0115909D01*
X0264147Y0118358D02*
X0267850Y0118358D01*
X0267850Y0119592D02*
X0267850Y0117123D01*
X0225802Y0087643D02*
X0223333Y0087643D01*
X0223333Y0085792D01*
X0224568Y0086409D01*
X0225185Y0086409D01*
X0225802Y0085792D01*
X0225802Y0084557D01*
X0225185Y0083940D01*
X0223950Y0083940D01*
X0223333Y0084557D01*
X0222119Y0083940D02*
X0220884Y0085175D01*
X0221502Y0085175D02*
X0219650Y0085175D01*
X0219650Y0083940D02*
X0219650Y0087643D01*
X0221502Y0087643D01*
X0222119Y0087026D01*
X0222119Y0085792D01*
X0221502Y0085175D01*
D13*
X0060358Y0037979D02*
X0042642Y0037979D01*
X0035752Y0051759D02*
X0035752Y0067507D01*
X0039098Y0067507D01*
X0039098Y0057664D01*
X0044610Y0057664D01*
X0058390Y0057664D02*
X0063902Y0057664D01*
X0063902Y0067507D01*
X0067248Y0067507D01*
X0067248Y0051759D01*
X0115752Y0051759D02*
X0115752Y0067507D01*
X0119098Y0067507D01*
X0119098Y0057664D01*
X0124610Y0057664D01*
X0138390Y0057664D02*
X0143902Y0057664D01*
X0143902Y0067507D01*
X0147248Y0067507D01*
X0147248Y0051759D01*
X0140358Y0037979D02*
X0122642Y0037979D01*
X0200752Y0051759D02*
X0200752Y0067507D01*
X0204098Y0067507D01*
X0204098Y0057664D01*
X0209610Y0057664D01*
X0223390Y0057664D02*
X0228902Y0057664D01*
X0228902Y0067507D01*
X0232248Y0067507D01*
X0232248Y0051759D01*
X0225358Y0037979D02*
X0207642Y0037979D01*
X0280752Y0051759D02*
X0280752Y0067507D01*
X0284098Y0067507D01*
X0284098Y0057664D01*
X0289610Y0057664D01*
X0303390Y0057664D02*
X0308902Y0057664D01*
X0308902Y0067507D01*
X0312248Y0067507D01*
X0312248Y0051759D01*
X0305358Y0037979D02*
X0287642Y0037979D01*
X0255874Y0098916D02*
X0255874Y0100885D01*
X0255874Y0098916D02*
X0253906Y0098916D01*
X0242094Y0098916D02*
X0240126Y0098916D01*
X0240126Y0100885D01*
X0240126Y0112696D02*
X0240126Y0114664D01*
X0242094Y0114664D01*
X0253906Y0114664D02*
X0255874Y0114664D01*
X0255874Y0112696D01*
X0255418Y0155040D02*
X0256585Y0156208D01*
X0256585Y0158543D01*
X0257933Y0156792D02*
X0258517Y0157376D01*
X0260268Y0157376D01*
X0259685Y0156208D02*
X0258517Y0156208D01*
X0257933Y0156792D01*
X0257933Y0155040D02*
X0259685Y0155040D01*
X0260268Y0155624D01*
X0259685Y0156208D01*
X0255418Y0155040D02*
X0254250Y0156208D01*
X0254250Y0158543D01*
X0251284Y0157376D02*
X0250116Y0157376D01*
X0250700Y0157959D02*
X0250700Y0155624D01*
X0251284Y0155040D01*
X0248768Y0155040D02*
X0248768Y0156792D01*
X0248185Y0157376D01*
X0247017Y0157376D01*
X0247017Y0156208D02*
X0248768Y0156208D01*
X0248768Y0155040D02*
X0247017Y0155040D01*
X0246433Y0155624D01*
X0247017Y0156208D01*
X0245085Y0156208D02*
X0245085Y0155624D01*
X0244501Y0155040D01*
X0242750Y0155040D01*
X0242750Y0158543D01*
X0244501Y0158543D01*
X0245085Y0157959D01*
X0245085Y0157376D01*
X0244501Y0156792D01*
X0242750Y0156792D01*
X0244501Y0156792D02*
X0245085Y0156208D01*
X0239952Y0156208D02*
X0239952Y0155624D01*
X0239368Y0155040D01*
X0237616Y0155040D01*
X0237616Y0158543D01*
X0239368Y0158543D01*
X0239952Y0157959D01*
X0239952Y0157376D01*
X0239368Y0156792D01*
X0237616Y0156792D01*
X0236268Y0156208D02*
X0236268Y0155624D01*
X0235685Y0155040D01*
X0234517Y0155040D01*
X0233933Y0155624D01*
X0234517Y0156792D02*
X0235685Y0156792D01*
X0236268Y0156208D01*
X0236268Y0157959D02*
X0235685Y0158543D01*
X0234517Y0158543D01*
X0233933Y0157959D01*
X0233933Y0157376D01*
X0234517Y0156792D01*
X0232585Y0155624D02*
X0232585Y0158543D01*
X0230250Y0158543D02*
X0230250Y0155624D01*
X0230834Y0155040D01*
X0232001Y0155040D01*
X0232585Y0155624D01*
X0239368Y0156792D02*
X0239952Y0156208D01*
X0264250Y0156792D02*
X0265418Y0156792D01*
X0266585Y0158543D02*
X0264250Y0158543D01*
X0264250Y0155040D01*
X0266585Y0155040D01*
X0267933Y0155040D02*
X0267933Y0158543D01*
X0270268Y0155040D01*
X0270268Y0158543D01*
X0273250Y0157959D02*
X0273250Y0155624D01*
X0273834Y0155040D01*
X0275001Y0155040D01*
X0275585Y0155624D01*
X0275585Y0156792D01*
X0274418Y0156792D01*
X0275585Y0157959D02*
X0275001Y0158543D01*
X0273834Y0158543D01*
X0273250Y0157959D01*
X0276933Y0158543D02*
X0279268Y0155040D01*
X0279268Y0158543D01*
X0280616Y0158543D02*
X0282368Y0158543D01*
X0282952Y0157959D01*
X0282952Y0155624D01*
X0282368Y0155040D01*
X0280616Y0155040D01*
X0280616Y0158543D01*
X0276933Y0158543D02*
X0276933Y0155040D01*
X0296250Y0156124D02*
X0296834Y0155540D01*
X0298001Y0155540D01*
X0298585Y0156124D01*
X0298585Y0157292D01*
X0297418Y0157292D01*
X0298585Y0158459D02*
X0298001Y0159043D01*
X0296834Y0159043D01*
X0296250Y0158459D01*
X0296250Y0156124D01*
X0303750Y0156124D02*
X0304334Y0155540D01*
X0305501Y0155540D01*
X0306085Y0156124D01*
X0306085Y0157292D01*
X0305501Y0157876D01*
X0304918Y0157876D01*
X0303750Y0157292D01*
X0303750Y0159043D01*
X0306085Y0159043D01*
X0307433Y0159043D02*
X0307433Y0156708D01*
X0308601Y0155540D01*
X0309768Y0156708D01*
X0309768Y0159043D01*
X0314099Y0158689D02*
X0315851Y0158689D01*
X0316435Y0158105D01*
X0316435Y0156937D01*
X0315851Y0156354D01*
X0314099Y0156354D01*
X0314099Y0155186D02*
X0314099Y0158689D01*
X0317782Y0158689D02*
X0317782Y0155186D01*
X0318950Y0156354D01*
X0320118Y0155186D01*
X0320118Y0158689D01*
X0321466Y0158689D02*
X0323217Y0158689D01*
X0323801Y0158105D01*
X0323801Y0156937D01*
X0323217Y0156354D01*
X0321466Y0156354D01*
X0322633Y0156354D02*
X0323801Y0155186D01*
X0321466Y0155186D02*
X0321466Y0158689D01*
X0327000Y0163040D02*
X0304000Y0163040D01*
X0290323Y0177704D02*
X0287567Y0177704D01*
X0290323Y0177704D02*
X0290323Y0180460D01*
X0290323Y0191483D02*
X0290323Y0194239D01*
X0287567Y0194239D01*
X0276543Y0194239D02*
X0273787Y0194239D01*
X0273787Y0191483D01*
X0273787Y0180460D02*
X0273787Y0177704D01*
X0276543Y0177704D01*
X0304000Y0221040D02*
X0327000Y0221040D01*
X0207831Y0200633D02*
X0207831Y0197483D01*
X0190114Y0205751D02*
X0186571Y0205751D01*
X0186571Y0175830D01*
X0190114Y0175830D01*
X0207831Y0180948D02*
X0207831Y0184097D01*
X0090874Y0114664D02*
X0090874Y0112696D01*
X0090874Y0114664D02*
X0088906Y0114664D01*
X0077094Y0114664D02*
X0075126Y0114664D01*
X0075126Y0112696D01*
X0075126Y0100885D02*
X0075126Y0098916D01*
X0077094Y0098916D01*
X0088906Y0098916D02*
X0090874Y0098916D01*
X0090874Y0100885D01*
D14*
X0072665Y0113680D02*
X0072667Y0113724D01*
X0072673Y0113768D01*
X0072683Y0113811D01*
X0072696Y0113853D01*
X0072714Y0113893D01*
X0072735Y0113932D01*
X0072759Y0113969D01*
X0072786Y0114004D01*
X0072817Y0114036D01*
X0072850Y0114065D01*
X0072886Y0114091D01*
X0072924Y0114113D01*
X0072964Y0114132D01*
X0073005Y0114148D01*
X0073048Y0114160D01*
X0073091Y0114168D01*
X0073135Y0114172D01*
X0073179Y0114172D01*
X0073223Y0114168D01*
X0073266Y0114160D01*
X0073309Y0114148D01*
X0073350Y0114132D01*
X0073390Y0114113D01*
X0073428Y0114091D01*
X0073464Y0114065D01*
X0073497Y0114036D01*
X0073528Y0114004D01*
X0073555Y0113969D01*
X0073579Y0113932D01*
X0073600Y0113893D01*
X0073618Y0113853D01*
X0073631Y0113811D01*
X0073641Y0113768D01*
X0073647Y0113724D01*
X0073649Y0113680D01*
X0073647Y0113636D01*
X0073641Y0113592D01*
X0073631Y0113549D01*
X0073618Y0113507D01*
X0073600Y0113467D01*
X0073579Y0113428D01*
X0073555Y0113391D01*
X0073528Y0113356D01*
X0073497Y0113324D01*
X0073464Y0113295D01*
X0073428Y0113269D01*
X0073390Y0113247D01*
X0073350Y0113228D01*
X0073309Y0113212D01*
X0073266Y0113200D01*
X0073223Y0113192D01*
X0073179Y0113188D01*
X0073135Y0113188D01*
X0073091Y0113192D01*
X0073048Y0113200D01*
X0073005Y0113212D01*
X0072964Y0113228D01*
X0072924Y0113247D01*
X0072886Y0113269D01*
X0072850Y0113295D01*
X0072817Y0113324D01*
X0072786Y0113356D01*
X0072759Y0113391D01*
X0072735Y0113428D01*
X0072714Y0113467D01*
X0072696Y0113507D01*
X0072683Y0113549D01*
X0072673Y0113592D01*
X0072667Y0113636D01*
X0072665Y0113680D01*
X0237665Y0113680D02*
X0237667Y0113724D01*
X0237673Y0113768D01*
X0237683Y0113811D01*
X0237696Y0113853D01*
X0237714Y0113893D01*
X0237735Y0113932D01*
X0237759Y0113969D01*
X0237786Y0114004D01*
X0237817Y0114036D01*
X0237850Y0114065D01*
X0237886Y0114091D01*
X0237924Y0114113D01*
X0237964Y0114132D01*
X0238005Y0114148D01*
X0238048Y0114160D01*
X0238091Y0114168D01*
X0238135Y0114172D01*
X0238179Y0114172D01*
X0238223Y0114168D01*
X0238266Y0114160D01*
X0238309Y0114148D01*
X0238350Y0114132D01*
X0238390Y0114113D01*
X0238428Y0114091D01*
X0238464Y0114065D01*
X0238497Y0114036D01*
X0238528Y0114004D01*
X0238555Y0113969D01*
X0238579Y0113932D01*
X0238600Y0113893D01*
X0238618Y0113853D01*
X0238631Y0113811D01*
X0238641Y0113768D01*
X0238647Y0113724D01*
X0238649Y0113680D01*
X0238647Y0113636D01*
X0238641Y0113592D01*
X0238631Y0113549D01*
X0238618Y0113507D01*
X0238600Y0113467D01*
X0238579Y0113428D01*
X0238555Y0113391D01*
X0238528Y0113356D01*
X0238497Y0113324D01*
X0238464Y0113295D01*
X0238428Y0113269D01*
X0238390Y0113247D01*
X0238350Y0113228D01*
X0238309Y0113212D01*
X0238266Y0113200D01*
X0238223Y0113192D01*
X0238179Y0113188D01*
X0238135Y0113188D01*
X0238091Y0113192D01*
X0238048Y0113200D01*
X0238005Y0113212D01*
X0237964Y0113228D01*
X0237924Y0113247D01*
X0237886Y0113269D01*
X0237850Y0113295D01*
X0237817Y0113324D01*
X0237786Y0113356D01*
X0237759Y0113391D01*
X0237735Y0113428D01*
X0237714Y0113467D01*
X0237696Y0113507D01*
X0237683Y0113549D01*
X0237673Y0113592D01*
X0237667Y0113636D01*
X0237665Y0113680D01*
D15*
X0218943Y0127040D03*
X0213143Y0127040D03*
X0243328Y0080607D03*
X0249128Y0080607D03*
X0261931Y0080595D03*
X0267731Y0080595D03*
X0102731Y0080595D03*
X0096931Y0080595D03*
X0084128Y0080607D03*
X0078328Y0080607D03*
X0085120Y0124784D03*
X0090920Y0124784D03*
X0053943Y0127040D03*
X0048143Y0127040D03*
D16*
X0036991Y0138534D03*
X0201991Y0138534D03*
X0320196Y0151916D03*
D17*
X0271000Y0062362D03*
X0242000Y0062362D03*
X0106000Y0062362D03*
X0077000Y0062362D03*
D18*
X0086006Y0060411D03*
X0086006Y0066211D03*
X0096006Y0066211D03*
X0096006Y0060411D03*
X0108494Y0094681D03*
X0108494Y0100481D03*
X0040506Y0103911D03*
X0040506Y0109711D03*
X0024506Y0109711D03*
X0024506Y0103911D03*
X0189506Y0103911D03*
X0189506Y0109711D03*
X0205506Y0109711D03*
X0205506Y0103911D03*
X0251006Y0066211D03*
X0251006Y0060411D03*
X0261006Y0060411D03*
X0261006Y0066211D03*
X0273494Y0094681D03*
X0273494Y0100481D03*
D19*
X0284328Y0072627D02*
X0284328Y0069358D01*
X0282694Y0070992D02*
X0285963Y0070992D01*
X0305194Y0070992D02*
X0308463Y0070992D01*
X0228463Y0070992D02*
X0225194Y0070992D01*
X0205963Y0070992D02*
X0202694Y0070992D01*
X0204328Y0069358D02*
X0204328Y0072627D01*
X0143463Y0070992D02*
X0140194Y0070992D01*
X0120963Y0070992D02*
X0117694Y0070992D01*
X0119328Y0069358D02*
X0119328Y0072627D01*
X0063463Y0070992D02*
X0060194Y0070992D01*
X0040963Y0070992D02*
X0037694Y0070992D01*
X0039328Y0069358D02*
X0039328Y0072627D01*
X0140244Y0157329D02*
X0143513Y0157329D01*
X0141878Y0158963D02*
X0141878Y0155694D01*
D20*
X0189500Y0120990D03*
X0205500Y0120990D03*
X0205500Y0092590D03*
X0189500Y0092590D03*
X0040500Y0092590D03*
X0024500Y0092590D03*
X0024500Y0120990D03*
X0040500Y0120990D03*
D21*
X0066402Y0131680D02*
X0070732Y0131680D01*
X0063646Y0141523D02*
X0063646Y0152152D01*
X0087268Y0131680D02*
X0091598Y0131680D01*
X0094354Y0141523D02*
X0094354Y0152152D01*
X0111177Y0151275D02*
X0111177Y0139156D01*
X0111177Y0126275D02*
X0111177Y0117156D01*
X0123020Y0117156D01*
X0123020Y0122093D01*
X0146610Y0122093D01*
X0146610Y0126275D01*
X0146610Y0139093D02*
X0146610Y0151275D01*
X0142386Y0151904D02*
X0114827Y0151904D01*
X0114827Y0173952D01*
X0142386Y0173952D01*
X0142386Y0179463D01*
X0114827Y0179463D01*
X0114827Y0173952D01*
X0115114Y0177212D02*
X0114990Y0177210D01*
X0114867Y0177204D01*
X0114743Y0177195D01*
X0114621Y0177181D01*
X0114498Y0177164D01*
X0114376Y0177142D01*
X0114255Y0177117D01*
X0114135Y0177088D01*
X0114016Y0177056D01*
X0113897Y0177019D01*
X0113780Y0176979D01*
X0113665Y0176936D01*
X0113550Y0176888D01*
X0113438Y0176837D01*
X0113327Y0176783D01*
X0113217Y0176725D01*
X0113110Y0176664D01*
X0113004Y0176599D01*
X0112901Y0176531D01*
X0112800Y0176460D01*
X0112701Y0176386D01*
X0112604Y0176309D01*
X0112510Y0176228D01*
X0112419Y0176145D01*
X0112330Y0176059D01*
X0112244Y0175970D01*
X0112161Y0175879D01*
X0112080Y0175785D01*
X0112003Y0175688D01*
X0111929Y0175589D01*
X0111858Y0175488D01*
X0111790Y0175385D01*
X0111725Y0175279D01*
X0111664Y0175172D01*
X0111606Y0175062D01*
X0111552Y0174951D01*
X0111501Y0174839D01*
X0111453Y0174724D01*
X0111410Y0174609D01*
X0111370Y0174492D01*
X0111333Y0174373D01*
X0111301Y0174254D01*
X0111272Y0174134D01*
X0111247Y0174013D01*
X0111225Y0173891D01*
X0111208Y0173768D01*
X0111194Y0173646D01*
X0111185Y0173522D01*
X0111179Y0173399D01*
X0111177Y0173275D01*
X0111177Y0164156D01*
X0115114Y0177212D02*
X0142673Y0177212D01*
X0142386Y0173952D02*
X0142386Y0151904D01*
X0146610Y0164093D02*
X0146610Y0173275D01*
X0146608Y0173399D01*
X0146602Y0173522D01*
X0146593Y0173646D01*
X0146579Y0173768D01*
X0146562Y0173891D01*
X0146540Y0174013D01*
X0146515Y0174134D01*
X0146486Y0174254D01*
X0146454Y0174373D01*
X0146417Y0174492D01*
X0146377Y0174609D01*
X0146334Y0174724D01*
X0146286Y0174839D01*
X0146235Y0174951D01*
X0146181Y0175062D01*
X0146123Y0175172D01*
X0146062Y0175279D01*
X0145997Y0175385D01*
X0145929Y0175488D01*
X0145858Y0175589D01*
X0145784Y0175688D01*
X0145707Y0175785D01*
X0145626Y0175879D01*
X0145543Y0175970D01*
X0145457Y0176059D01*
X0145368Y0176145D01*
X0145277Y0176228D01*
X0145183Y0176309D01*
X0145086Y0176386D01*
X0144987Y0176460D01*
X0144886Y0176531D01*
X0144783Y0176599D01*
X0144677Y0176664D01*
X0144570Y0176725D01*
X0144460Y0176783D01*
X0144349Y0176837D01*
X0144237Y0176888D01*
X0144122Y0176936D01*
X0144007Y0176979D01*
X0143890Y0177019D01*
X0143771Y0177056D01*
X0143652Y0177088D01*
X0143532Y0177117D01*
X0143411Y0177142D01*
X0143289Y0177164D01*
X0143166Y0177181D01*
X0143044Y0177195D01*
X0142920Y0177204D01*
X0142797Y0177210D01*
X0142673Y0177212D01*
X0166126Y0220790D02*
X0166128Y0220983D01*
X0166135Y0221176D01*
X0166147Y0221369D01*
X0166164Y0221562D01*
X0166185Y0221754D01*
X0166211Y0221945D01*
X0166242Y0222136D01*
X0166277Y0222326D01*
X0166317Y0222515D01*
X0166362Y0222703D01*
X0166411Y0222890D01*
X0166465Y0223076D01*
X0166523Y0223260D01*
X0166586Y0223443D01*
X0166654Y0223624D01*
X0166725Y0223803D01*
X0166802Y0223981D01*
X0166882Y0224157D01*
X0166967Y0224330D01*
X0167056Y0224502D01*
X0167149Y0224671D01*
X0167246Y0224838D01*
X0167348Y0225003D01*
X0167453Y0225165D01*
X0167562Y0225324D01*
X0167676Y0225481D01*
X0167793Y0225634D01*
X0167913Y0225785D01*
X0168038Y0225933D01*
X0168166Y0226078D01*
X0168297Y0226219D01*
X0168432Y0226358D01*
X0168571Y0226493D01*
X0168712Y0226624D01*
X0168857Y0226752D01*
X0169005Y0226877D01*
X0169156Y0226997D01*
X0169309Y0227114D01*
X0169466Y0227228D01*
X0169625Y0227337D01*
X0169787Y0227442D01*
X0169952Y0227544D01*
X0170119Y0227641D01*
X0170288Y0227734D01*
X0170460Y0227823D01*
X0170633Y0227908D01*
X0170809Y0227988D01*
X0170987Y0228065D01*
X0171166Y0228136D01*
X0171347Y0228204D01*
X0171530Y0228267D01*
X0171714Y0228325D01*
X0171900Y0228379D01*
X0172087Y0228428D01*
X0172275Y0228473D01*
X0172464Y0228513D01*
X0172654Y0228548D01*
X0172845Y0228579D01*
X0173036Y0228605D01*
X0173228Y0228626D01*
X0173421Y0228643D01*
X0173614Y0228655D01*
X0173807Y0228662D01*
X0174000Y0228664D01*
X0174193Y0228662D01*
X0174386Y0228655D01*
X0174579Y0228643D01*
X0174772Y0228626D01*
X0174964Y0228605D01*
X0175155Y0228579D01*
X0175346Y0228548D01*
X0175536Y0228513D01*
X0175725Y0228473D01*
X0175913Y0228428D01*
X0176100Y0228379D01*
X0176286Y0228325D01*
X0176470Y0228267D01*
X0176653Y0228204D01*
X0176834Y0228136D01*
X0177013Y0228065D01*
X0177191Y0227988D01*
X0177367Y0227908D01*
X0177540Y0227823D01*
X0177712Y0227734D01*
X0177881Y0227641D01*
X0178048Y0227544D01*
X0178213Y0227442D01*
X0178375Y0227337D01*
X0178534Y0227228D01*
X0178691Y0227114D01*
X0178844Y0226997D01*
X0178995Y0226877D01*
X0179143Y0226752D01*
X0179288Y0226624D01*
X0179429Y0226493D01*
X0179568Y0226358D01*
X0179703Y0226219D01*
X0179834Y0226078D01*
X0179962Y0225933D01*
X0180087Y0225785D01*
X0180207Y0225634D01*
X0180324Y0225481D01*
X0180438Y0225324D01*
X0180547Y0225165D01*
X0180652Y0225003D01*
X0180754Y0224838D01*
X0180851Y0224671D01*
X0180944Y0224502D01*
X0181033Y0224330D01*
X0181118Y0224157D01*
X0181198Y0223981D01*
X0181275Y0223803D01*
X0181346Y0223624D01*
X0181414Y0223443D01*
X0181477Y0223260D01*
X0181535Y0223076D01*
X0181589Y0222890D01*
X0181638Y0222703D01*
X0181683Y0222515D01*
X0181723Y0222326D01*
X0181758Y0222136D01*
X0181789Y0221945D01*
X0181815Y0221754D01*
X0181836Y0221562D01*
X0181853Y0221369D01*
X0181865Y0221176D01*
X0181872Y0220983D01*
X0181874Y0220790D01*
X0181872Y0220597D01*
X0181865Y0220404D01*
X0181853Y0220211D01*
X0181836Y0220018D01*
X0181815Y0219826D01*
X0181789Y0219635D01*
X0181758Y0219444D01*
X0181723Y0219254D01*
X0181683Y0219065D01*
X0181638Y0218877D01*
X0181589Y0218690D01*
X0181535Y0218504D01*
X0181477Y0218320D01*
X0181414Y0218137D01*
X0181346Y0217956D01*
X0181275Y0217777D01*
X0181198Y0217599D01*
X0181118Y0217423D01*
X0181033Y0217250D01*
X0180944Y0217078D01*
X0180851Y0216909D01*
X0180754Y0216742D01*
X0180652Y0216577D01*
X0180547Y0216415D01*
X0180438Y0216256D01*
X0180324Y0216099D01*
X0180207Y0215946D01*
X0180087Y0215795D01*
X0179962Y0215647D01*
X0179834Y0215502D01*
X0179703Y0215361D01*
X0179568Y0215222D01*
X0179429Y0215087D01*
X0179288Y0214956D01*
X0179143Y0214828D01*
X0178995Y0214703D01*
X0178844Y0214583D01*
X0178691Y0214466D01*
X0178534Y0214352D01*
X0178375Y0214243D01*
X0178213Y0214138D01*
X0178048Y0214036D01*
X0177881Y0213939D01*
X0177712Y0213846D01*
X0177540Y0213757D01*
X0177367Y0213672D01*
X0177191Y0213592D01*
X0177013Y0213515D01*
X0176834Y0213444D01*
X0176653Y0213376D01*
X0176470Y0213313D01*
X0176286Y0213255D01*
X0176100Y0213201D01*
X0175913Y0213152D01*
X0175725Y0213107D01*
X0175536Y0213067D01*
X0175346Y0213032D01*
X0175155Y0213001D01*
X0174964Y0212975D01*
X0174772Y0212954D01*
X0174579Y0212937D01*
X0174386Y0212925D01*
X0174193Y0212918D01*
X0174000Y0212916D01*
X0173807Y0212918D01*
X0173614Y0212925D01*
X0173421Y0212937D01*
X0173228Y0212954D01*
X0173036Y0212975D01*
X0172845Y0213001D01*
X0172654Y0213032D01*
X0172464Y0213067D01*
X0172275Y0213107D01*
X0172087Y0213152D01*
X0171900Y0213201D01*
X0171714Y0213255D01*
X0171530Y0213313D01*
X0171347Y0213376D01*
X0171166Y0213444D01*
X0170987Y0213515D01*
X0170809Y0213592D01*
X0170633Y0213672D01*
X0170460Y0213757D01*
X0170288Y0213846D01*
X0170119Y0213939D01*
X0169952Y0214036D01*
X0169787Y0214138D01*
X0169625Y0214243D01*
X0169466Y0214352D01*
X0169309Y0214466D01*
X0169156Y0214583D01*
X0169005Y0214703D01*
X0168857Y0214828D01*
X0168712Y0214956D01*
X0168571Y0215087D01*
X0168432Y0215222D01*
X0168297Y0215361D01*
X0168166Y0215502D01*
X0168038Y0215647D01*
X0167913Y0215795D01*
X0167793Y0215946D01*
X0167676Y0216099D01*
X0167562Y0216256D01*
X0167453Y0216415D01*
X0167348Y0216577D01*
X0167246Y0216742D01*
X0167149Y0216909D01*
X0167056Y0217078D01*
X0166967Y0217250D01*
X0166882Y0217423D01*
X0166802Y0217599D01*
X0166725Y0217777D01*
X0166654Y0217956D01*
X0166586Y0218137D01*
X0166523Y0218320D01*
X0166465Y0218504D01*
X0166411Y0218690D01*
X0166362Y0218877D01*
X0166317Y0219065D01*
X0166277Y0219254D01*
X0166242Y0219444D01*
X0166211Y0219635D01*
X0166185Y0219826D01*
X0166164Y0220018D01*
X0166147Y0220211D01*
X0166135Y0220404D01*
X0166128Y0220597D01*
X0166126Y0220790D01*
X0263500Y0205290D02*
X0263500Y0201290D01*
X0263500Y0197790D02*
X0263500Y0193790D01*
X0271350Y0197578D02*
X0271350Y0219231D01*
X0293791Y0219231D01*
X0293791Y0197578D01*
X0271350Y0197578D01*
X0306614Y0206213D02*
X0306614Y0178654D01*
X0328661Y0178654D01*
X0328661Y0206213D01*
X0306614Y0206213D01*
X0305922Y0214290D02*
X0305924Y0214400D01*
X0305930Y0214511D01*
X0305940Y0214621D01*
X0305954Y0214731D01*
X0305971Y0214840D01*
X0305993Y0214948D01*
X0306019Y0215055D01*
X0306048Y0215162D01*
X0306081Y0215267D01*
X0306118Y0215372D01*
X0306159Y0215474D01*
X0306203Y0215575D01*
X0306251Y0215675D01*
X0306303Y0215773D01*
X0306358Y0215869D01*
X0306416Y0215963D01*
X0306478Y0216054D01*
X0306543Y0216144D01*
X0306611Y0216231D01*
X0306682Y0216315D01*
X0306756Y0216397D01*
X0306833Y0216476D01*
X0306913Y0216553D01*
X0306996Y0216626D01*
X0307081Y0216696D01*
X0307169Y0216764D01*
X0307258Y0216828D01*
X0307351Y0216889D01*
X0307445Y0216946D01*
X0307541Y0217000D01*
X0307640Y0217051D01*
X0307740Y0217098D01*
X0307841Y0217142D01*
X0307944Y0217181D01*
X0308049Y0217217D01*
X0308155Y0217250D01*
X0308261Y0217278D01*
X0308369Y0217303D01*
X0308478Y0217323D01*
X0308587Y0217340D01*
X0308697Y0217353D01*
X0308807Y0217362D01*
X0308917Y0217367D01*
X0309028Y0217368D01*
X0309138Y0217365D01*
X0309248Y0217358D01*
X0309358Y0217347D01*
X0309468Y0217332D01*
X0309577Y0217313D01*
X0309685Y0217291D01*
X0309792Y0217264D01*
X0309898Y0217234D01*
X0310004Y0217200D01*
X0310107Y0217162D01*
X0310210Y0217120D01*
X0310311Y0217075D01*
X0310410Y0217026D01*
X0310507Y0216974D01*
X0310602Y0216918D01*
X0310696Y0216859D01*
X0310787Y0216796D01*
X0310876Y0216731D01*
X0310962Y0216662D01*
X0311046Y0216590D01*
X0311127Y0216515D01*
X0311206Y0216437D01*
X0311281Y0216356D01*
X0311354Y0216273D01*
X0311424Y0216187D01*
X0311490Y0216099D01*
X0311553Y0216009D01*
X0311614Y0215916D01*
X0311670Y0215821D01*
X0311723Y0215724D01*
X0311773Y0215625D01*
X0311819Y0215525D01*
X0311862Y0215423D01*
X0311901Y0215320D01*
X0311936Y0215215D01*
X0311967Y0215109D01*
X0311995Y0215002D01*
X0312018Y0214894D01*
X0312038Y0214785D01*
X0312054Y0214676D01*
X0312066Y0214566D01*
X0312074Y0214456D01*
X0312078Y0214345D01*
X0312078Y0214235D01*
X0312074Y0214124D01*
X0312066Y0214014D01*
X0312054Y0213904D01*
X0312038Y0213795D01*
X0312018Y0213686D01*
X0311995Y0213578D01*
X0311967Y0213471D01*
X0311936Y0213365D01*
X0311901Y0213260D01*
X0311862Y0213157D01*
X0311819Y0213055D01*
X0311773Y0212955D01*
X0311723Y0212856D01*
X0311670Y0212759D01*
X0311614Y0212664D01*
X0311553Y0212571D01*
X0311490Y0212481D01*
X0311424Y0212393D01*
X0311354Y0212307D01*
X0311281Y0212224D01*
X0311206Y0212143D01*
X0311127Y0212065D01*
X0311046Y0211990D01*
X0310962Y0211918D01*
X0310876Y0211849D01*
X0310787Y0211784D01*
X0310696Y0211721D01*
X0310602Y0211662D01*
X0310507Y0211606D01*
X0310410Y0211554D01*
X0310311Y0211505D01*
X0310210Y0211460D01*
X0310107Y0211418D01*
X0310004Y0211380D01*
X0309898Y0211346D01*
X0309792Y0211316D01*
X0309685Y0211289D01*
X0309577Y0211267D01*
X0309468Y0211248D01*
X0309358Y0211233D01*
X0309248Y0211222D01*
X0309138Y0211215D01*
X0309028Y0211212D01*
X0308917Y0211213D01*
X0308807Y0211218D01*
X0308697Y0211227D01*
X0308587Y0211240D01*
X0308478Y0211257D01*
X0308369Y0211277D01*
X0308261Y0211302D01*
X0308155Y0211330D01*
X0308049Y0211363D01*
X0307944Y0211399D01*
X0307841Y0211438D01*
X0307740Y0211482D01*
X0307640Y0211529D01*
X0307541Y0211580D01*
X0307445Y0211634D01*
X0307351Y0211691D01*
X0307258Y0211752D01*
X0307169Y0211816D01*
X0307081Y0211884D01*
X0306996Y0211954D01*
X0306913Y0212027D01*
X0306833Y0212104D01*
X0306756Y0212183D01*
X0306682Y0212265D01*
X0306611Y0212349D01*
X0306543Y0212436D01*
X0306478Y0212526D01*
X0306416Y0212617D01*
X0306358Y0212711D01*
X0306303Y0212807D01*
X0306251Y0212905D01*
X0306203Y0213005D01*
X0306159Y0213106D01*
X0306118Y0213208D01*
X0306081Y0213313D01*
X0306048Y0213418D01*
X0306019Y0213525D01*
X0305993Y0213632D01*
X0305971Y0213740D01*
X0305954Y0213849D01*
X0305940Y0213959D01*
X0305930Y0214069D01*
X0305924Y0214180D01*
X0305922Y0214290D01*
X0303819Y0221174D02*
X0303819Y0162906D01*
X0305922Y0170290D02*
X0305924Y0170400D01*
X0305930Y0170511D01*
X0305940Y0170621D01*
X0305954Y0170731D01*
X0305971Y0170840D01*
X0305993Y0170948D01*
X0306019Y0171055D01*
X0306048Y0171162D01*
X0306081Y0171267D01*
X0306118Y0171372D01*
X0306159Y0171474D01*
X0306203Y0171575D01*
X0306251Y0171675D01*
X0306303Y0171773D01*
X0306358Y0171869D01*
X0306416Y0171963D01*
X0306478Y0172054D01*
X0306543Y0172144D01*
X0306611Y0172231D01*
X0306682Y0172315D01*
X0306756Y0172397D01*
X0306833Y0172476D01*
X0306913Y0172553D01*
X0306996Y0172626D01*
X0307081Y0172696D01*
X0307169Y0172764D01*
X0307258Y0172828D01*
X0307351Y0172889D01*
X0307445Y0172946D01*
X0307541Y0173000D01*
X0307640Y0173051D01*
X0307740Y0173098D01*
X0307841Y0173142D01*
X0307944Y0173181D01*
X0308049Y0173217D01*
X0308155Y0173250D01*
X0308261Y0173278D01*
X0308369Y0173303D01*
X0308478Y0173323D01*
X0308587Y0173340D01*
X0308697Y0173353D01*
X0308807Y0173362D01*
X0308917Y0173367D01*
X0309028Y0173368D01*
X0309138Y0173365D01*
X0309248Y0173358D01*
X0309358Y0173347D01*
X0309468Y0173332D01*
X0309577Y0173313D01*
X0309685Y0173291D01*
X0309792Y0173264D01*
X0309898Y0173234D01*
X0310004Y0173200D01*
X0310107Y0173162D01*
X0310210Y0173120D01*
X0310311Y0173075D01*
X0310410Y0173026D01*
X0310507Y0172974D01*
X0310602Y0172918D01*
X0310696Y0172859D01*
X0310787Y0172796D01*
X0310876Y0172731D01*
X0310962Y0172662D01*
X0311046Y0172590D01*
X0311127Y0172515D01*
X0311206Y0172437D01*
X0311281Y0172356D01*
X0311354Y0172273D01*
X0311424Y0172187D01*
X0311490Y0172099D01*
X0311553Y0172009D01*
X0311614Y0171916D01*
X0311670Y0171821D01*
X0311723Y0171724D01*
X0311773Y0171625D01*
X0311819Y0171525D01*
X0311862Y0171423D01*
X0311901Y0171320D01*
X0311936Y0171215D01*
X0311967Y0171109D01*
X0311995Y0171002D01*
X0312018Y0170894D01*
X0312038Y0170785D01*
X0312054Y0170676D01*
X0312066Y0170566D01*
X0312074Y0170456D01*
X0312078Y0170345D01*
X0312078Y0170235D01*
X0312074Y0170124D01*
X0312066Y0170014D01*
X0312054Y0169904D01*
X0312038Y0169795D01*
X0312018Y0169686D01*
X0311995Y0169578D01*
X0311967Y0169471D01*
X0311936Y0169365D01*
X0311901Y0169260D01*
X0311862Y0169157D01*
X0311819Y0169055D01*
X0311773Y0168955D01*
X0311723Y0168856D01*
X0311670Y0168759D01*
X0311614Y0168664D01*
X0311553Y0168571D01*
X0311490Y0168481D01*
X0311424Y0168393D01*
X0311354Y0168307D01*
X0311281Y0168224D01*
X0311206Y0168143D01*
X0311127Y0168065D01*
X0311046Y0167990D01*
X0310962Y0167918D01*
X0310876Y0167849D01*
X0310787Y0167784D01*
X0310696Y0167721D01*
X0310602Y0167662D01*
X0310507Y0167606D01*
X0310410Y0167554D01*
X0310311Y0167505D01*
X0310210Y0167460D01*
X0310107Y0167418D01*
X0310004Y0167380D01*
X0309898Y0167346D01*
X0309792Y0167316D01*
X0309685Y0167289D01*
X0309577Y0167267D01*
X0309468Y0167248D01*
X0309358Y0167233D01*
X0309248Y0167222D01*
X0309138Y0167215D01*
X0309028Y0167212D01*
X0308917Y0167213D01*
X0308807Y0167218D01*
X0308697Y0167227D01*
X0308587Y0167240D01*
X0308478Y0167257D01*
X0308369Y0167277D01*
X0308261Y0167302D01*
X0308155Y0167330D01*
X0308049Y0167363D01*
X0307944Y0167399D01*
X0307841Y0167438D01*
X0307740Y0167482D01*
X0307640Y0167529D01*
X0307541Y0167580D01*
X0307445Y0167634D01*
X0307351Y0167691D01*
X0307258Y0167752D01*
X0307169Y0167816D01*
X0307081Y0167884D01*
X0306996Y0167954D01*
X0306913Y0168027D01*
X0306833Y0168104D01*
X0306756Y0168183D01*
X0306682Y0168265D01*
X0306611Y0168349D01*
X0306543Y0168436D01*
X0306478Y0168526D01*
X0306416Y0168617D01*
X0306358Y0168711D01*
X0306303Y0168807D01*
X0306251Y0168905D01*
X0306203Y0169005D01*
X0306159Y0169106D01*
X0306118Y0169208D01*
X0306081Y0169313D01*
X0306048Y0169418D01*
X0306019Y0169525D01*
X0305993Y0169632D01*
X0305971Y0169740D01*
X0305954Y0169849D01*
X0305940Y0169959D01*
X0305930Y0170069D01*
X0305924Y0170180D01*
X0305922Y0170290D01*
X0328661Y0178654D02*
X0334173Y0178654D01*
X0334173Y0206213D01*
X0328661Y0206213D01*
X0174937Y0128546D02*
X0168063Y0128546D01*
X0170319Y0127365D02*
X0172681Y0125790D01*
X0170319Y0124215D01*
X0170319Y0127365D01*
X0170713Y0126578D02*
X0171894Y0125790D01*
X0170713Y0125003D01*
X0170713Y0126578D01*
X0170713Y0125813D02*
X0171859Y0125813D01*
X0170730Y0125015D02*
X0170713Y0125015D01*
X0168063Y0123034D02*
X0174937Y0123034D01*
X0110256Y0119727D02*
X0110256Y0112853D01*
X0107500Y0115109D02*
X0109075Y0117471D01*
X0105925Y0117471D01*
X0107500Y0115109D01*
X0107500Y0115897D02*
X0108287Y0117078D01*
X0106713Y0117078D01*
X0107500Y0115897D01*
X0107277Y0116231D02*
X0107723Y0116231D01*
X0108255Y0117029D02*
X0106745Y0117029D01*
X0104744Y0119727D02*
X0104744Y0112853D01*
X0166126Y0045790D02*
X0166128Y0045983D01*
X0166135Y0046176D01*
X0166147Y0046369D01*
X0166164Y0046562D01*
X0166185Y0046754D01*
X0166211Y0046945D01*
X0166242Y0047136D01*
X0166277Y0047326D01*
X0166317Y0047515D01*
X0166362Y0047703D01*
X0166411Y0047890D01*
X0166465Y0048076D01*
X0166523Y0048260D01*
X0166586Y0048443D01*
X0166654Y0048624D01*
X0166725Y0048803D01*
X0166802Y0048981D01*
X0166882Y0049157D01*
X0166967Y0049330D01*
X0167056Y0049502D01*
X0167149Y0049671D01*
X0167246Y0049838D01*
X0167348Y0050003D01*
X0167453Y0050165D01*
X0167562Y0050324D01*
X0167676Y0050481D01*
X0167793Y0050634D01*
X0167913Y0050785D01*
X0168038Y0050933D01*
X0168166Y0051078D01*
X0168297Y0051219D01*
X0168432Y0051358D01*
X0168571Y0051493D01*
X0168712Y0051624D01*
X0168857Y0051752D01*
X0169005Y0051877D01*
X0169156Y0051997D01*
X0169309Y0052114D01*
X0169466Y0052228D01*
X0169625Y0052337D01*
X0169787Y0052442D01*
X0169952Y0052544D01*
X0170119Y0052641D01*
X0170288Y0052734D01*
X0170460Y0052823D01*
X0170633Y0052908D01*
X0170809Y0052988D01*
X0170987Y0053065D01*
X0171166Y0053136D01*
X0171347Y0053204D01*
X0171530Y0053267D01*
X0171714Y0053325D01*
X0171900Y0053379D01*
X0172087Y0053428D01*
X0172275Y0053473D01*
X0172464Y0053513D01*
X0172654Y0053548D01*
X0172845Y0053579D01*
X0173036Y0053605D01*
X0173228Y0053626D01*
X0173421Y0053643D01*
X0173614Y0053655D01*
X0173807Y0053662D01*
X0174000Y0053664D01*
X0174193Y0053662D01*
X0174386Y0053655D01*
X0174579Y0053643D01*
X0174772Y0053626D01*
X0174964Y0053605D01*
X0175155Y0053579D01*
X0175346Y0053548D01*
X0175536Y0053513D01*
X0175725Y0053473D01*
X0175913Y0053428D01*
X0176100Y0053379D01*
X0176286Y0053325D01*
X0176470Y0053267D01*
X0176653Y0053204D01*
X0176834Y0053136D01*
X0177013Y0053065D01*
X0177191Y0052988D01*
X0177367Y0052908D01*
X0177540Y0052823D01*
X0177712Y0052734D01*
X0177881Y0052641D01*
X0178048Y0052544D01*
X0178213Y0052442D01*
X0178375Y0052337D01*
X0178534Y0052228D01*
X0178691Y0052114D01*
X0178844Y0051997D01*
X0178995Y0051877D01*
X0179143Y0051752D01*
X0179288Y0051624D01*
X0179429Y0051493D01*
X0179568Y0051358D01*
X0179703Y0051219D01*
X0179834Y0051078D01*
X0179962Y0050933D01*
X0180087Y0050785D01*
X0180207Y0050634D01*
X0180324Y0050481D01*
X0180438Y0050324D01*
X0180547Y0050165D01*
X0180652Y0050003D01*
X0180754Y0049838D01*
X0180851Y0049671D01*
X0180944Y0049502D01*
X0181033Y0049330D01*
X0181118Y0049157D01*
X0181198Y0048981D01*
X0181275Y0048803D01*
X0181346Y0048624D01*
X0181414Y0048443D01*
X0181477Y0048260D01*
X0181535Y0048076D01*
X0181589Y0047890D01*
X0181638Y0047703D01*
X0181683Y0047515D01*
X0181723Y0047326D01*
X0181758Y0047136D01*
X0181789Y0046945D01*
X0181815Y0046754D01*
X0181836Y0046562D01*
X0181853Y0046369D01*
X0181865Y0046176D01*
X0181872Y0045983D01*
X0181874Y0045790D01*
X0181872Y0045597D01*
X0181865Y0045404D01*
X0181853Y0045211D01*
X0181836Y0045018D01*
X0181815Y0044826D01*
X0181789Y0044635D01*
X0181758Y0044444D01*
X0181723Y0044254D01*
X0181683Y0044065D01*
X0181638Y0043877D01*
X0181589Y0043690D01*
X0181535Y0043504D01*
X0181477Y0043320D01*
X0181414Y0043137D01*
X0181346Y0042956D01*
X0181275Y0042777D01*
X0181198Y0042599D01*
X0181118Y0042423D01*
X0181033Y0042250D01*
X0180944Y0042078D01*
X0180851Y0041909D01*
X0180754Y0041742D01*
X0180652Y0041577D01*
X0180547Y0041415D01*
X0180438Y0041256D01*
X0180324Y0041099D01*
X0180207Y0040946D01*
X0180087Y0040795D01*
X0179962Y0040647D01*
X0179834Y0040502D01*
X0179703Y0040361D01*
X0179568Y0040222D01*
X0179429Y0040087D01*
X0179288Y0039956D01*
X0179143Y0039828D01*
X0178995Y0039703D01*
X0178844Y0039583D01*
X0178691Y0039466D01*
X0178534Y0039352D01*
X0178375Y0039243D01*
X0178213Y0039138D01*
X0178048Y0039036D01*
X0177881Y0038939D01*
X0177712Y0038846D01*
X0177540Y0038757D01*
X0177367Y0038672D01*
X0177191Y0038592D01*
X0177013Y0038515D01*
X0176834Y0038444D01*
X0176653Y0038376D01*
X0176470Y0038313D01*
X0176286Y0038255D01*
X0176100Y0038201D01*
X0175913Y0038152D01*
X0175725Y0038107D01*
X0175536Y0038067D01*
X0175346Y0038032D01*
X0175155Y0038001D01*
X0174964Y0037975D01*
X0174772Y0037954D01*
X0174579Y0037937D01*
X0174386Y0037925D01*
X0174193Y0037918D01*
X0174000Y0037916D01*
X0173807Y0037918D01*
X0173614Y0037925D01*
X0173421Y0037937D01*
X0173228Y0037954D01*
X0173036Y0037975D01*
X0172845Y0038001D01*
X0172654Y0038032D01*
X0172464Y0038067D01*
X0172275Y0038107D01*
X0172087Y0038152D01*
X0171900Y0038201D01*
X0171714Y0038255D01*
X0171530Y0038313D01*
X0171347Y0038376D01*
X0171166Y0038444D01*
X0170987Y0038515D01*
X0170809Y0038592D01*
X0170633Y0038672D01*
X0170460Y0038757D01*
X0170288Y0038846D01*
X0170119Y0038939D01*
X0169952Y0039036D01*
X0169787Y0039138D01*
X0169625Y0039243D01*
X0169466Y0039352D01*
X0169309Y0039466D01*
X0169156Y0039583D01*
X0169005Y0039703D01*
X0168857Y0039828D01*
X0168712Y0039956D01*
X0168571Y0040087D01*
X0168432Y0040222D01*
X0168297Y0040361D01*
X0168166Y0040502D01*
X0168038Y0040647D01*
X0167913Y0040795D01*
X0167793Y0040946D01*
X0167676Y0041099D01*
X0167562Y0041256D01*
X0167453Y0041415D01*
X0167348Y0041577D01*
X0167246Y0041742D01*
X0167149Y0041909D01*
X0167056Y0042078D01*
X0166967Y0042250D01*
X0166882Y0042423D01*
X0166802Y0042599D01*
X0166725Y0042777D01*
X0166654Y0042956D01*
X0166586Y0043137D01*
X0166523Y0043320D01*
X0166465Y0043504D01*
X0166411Y0043690D01*
X0166362Y0043877D01*
X0166317Y0044065D01*
X0166277Y0044254D01*
X0166242Y0044444D01*
X0166211Y0044635D01*
X0166185Y0044826D01*
X0166164Y0045018D01*
X0166147Y0045211D01*
X0166135Y0045404D01*
X0166128Y0045597D01*
X0166126Y0045790D01*
X0013626Y0045790D02*
X0013628Y0045983D01*
X0013635Y0046176D01*
X0013647Y0046369D01*
X0013664Y0046562D01*
X0013685Y0046754D01*
X0013711Y0046945D01*
X0013742Y0047136D01*
X0013777Y0047326D01*
X0013817Y0047515D01*
X0013862Y0047703D01*
X0013911Y0047890D01*
X0013965Y0048076D01*
X0014023Y0048260D01*
X0014086Y0048443D01*
X0014154Y0048624D01*
X0014225Y0048803D01*
X0014302Y0048981D01*
X0014382Y0049157D01*
X0014467Y0049330D01*
X0014556Y0049502D01*
X0014649Y0049671D01*
X0014746Y0049838D01*
X0014848Y0050003D01*
X0014953Y0050165D01*
X0015062Y0050324D01*
X0015176Y0050481D01*
X0015293Y0050634D01*
X0015413Y0050785D01*
X0015538Y0050933D01*
X0015666Y0051078D01*
X0015797Y0051219D01*
X0015932Y0051358D01*
X0016071Y0051493D01*
X0016212Y0051624D01*
X0016357Y0051752D01*
X0016505Y0051877D01*
X0016656Y0051997D01*
X0016809Y0052114D01*
X0016966Y0052228D01*
X0017125Y0052337D01*
X0017287Y0052442D01*
X0017452Y0052544D01*
X0017619Y0052641D01*
X0017788Y0052734D01*
X0017960Y0052823D01*
X0018133Y0052908D01*
X0018309Y0052988D01*
X0018487Y0053065D01*
X0018666Y0053136D01*
X0018847Y0053204D01*
X0019030Y0053267D01*
X0019214Y0053325D01*
X0019400Y0053379D01*
X0019587Y0053428D01*
X0019775Y0053473D01*
X0019964Y0053513D01*
X0020154Y0053548D01*
X0020345Y0053579D01*
X0020536Y0053605D01*
X0020728Y0053626D01*
X0020921Y0053643D01*
X0021114Y0053655D01*
X0021307Y0053662D01*
X0021500Y0053664D01*
X0021693Y0053662D01*
X0021886Y0053655D01*
X0022079Y0053643D01*
X0022272Y0053626D01*
X0022464Y0053605D01*
X0022655Y0053579D01*
X0022846Y0053548D01*
X0023036Y0053513D01*
X0023225Y0053473D01*
X0023413Y0053428D01*
X0023600Y0053379D01*
X0023786Y0053325D01*
X0023970Y0053267D01*
X0024153Y0053204D01*
X0024334Y0053136D01*
X0024513Y0053065D01*
X0024691Y0052988D01*
X0024867Y0052908D01*
X0025040Y0052823D01*
X0025212Y0052734D01*
X0025381Y0052641D01*
X0025548Y0052544D01*
X0025713Y0052442D01*
X0025875Y0052337D01*
X0026034Y0052228D01*
X0026191Y0052114D01*
X0026344Y0051997D01*
X0026495Y0051877D01*
X0026643Y0051752D01*
X0026788Y0051624D01*
X0026929Y0051493D01*
X0027068Y0051358D01*
X0027203Y0051219D01*
X0027334Y0051078D01*
X0027462Y0050933D01*
X0027587Y0050785D01*
X0027707Y0050634D01*
X0027824Y0050481D01*
X0027938Y0050324D01*
X0028047Y0050165D01*
X0028152Y0050003D01*
X0028254Y0049838D01*
X0028351Y0049671D01*
X0028444Y0049502D01*
X0028533Y0049330D01*
X0028618Y0049157D01*
X0028698Y0048981D01*
X0028775Y0048803D01*
X0028846Y0048624D01*
X0028914Y0048443D01*
X0028977Y0048260D01*
X0029035Y0048076D01*
X0029089Y0047890D01*
X0029138Y0047703D01*
X0029183Y0047515D01*
X0029223Y0047326D01*
X0029258Y0047136D01*
X0029289Y0046945D01*
X0029315Y0046754D01*
X0029336Y0046562D01*
X0029353Y0046369D01*
X0029365Y0046176D01*
X0029372Y0045983D01*
X0029374Y0045790D01*
X0029372Y0045597D01*
X0029365Y0045404D01*
X0029353Y0045211D01*
X0029336Y0045018D01*
X0029315Y0044826D01*
X0029289Y0044635D01*
X0029258Y0044444D01*
X0029223Y0044254D01*
X0029183Y0044065D01*
X0029138Y0043877D01*
X0029089Y0043690D01*
X0029035Y0043504D01*
X0028977Y0043320D01*
X0028914Y0043137D01*
X0028846Y0042956D01*
X0028775Y0042777D01*
X0028698Y0042599D01*
X0028618Y0042423D01*
X0028533Y0042250D01*
X0028444Y0042078D01*
X0028351Y0041909D01*
X0028254Y0041742D01*
X0028152Y0041577D01*
X0028047Y0041415D01*
X0027938Y0041256D01*
X0027824Y0041099D01*
X0027707Y0040946D01*
X0027587Y0040795D01*
X0027462Y0040647D01*
X0027334Y0040502D01*
X0027203Y0040361D01*
X0027068Y0040222D01*
X0026929Y0040087D01*
X0026788Y0039956D01*
X0026643Y0039828D01*
X0026495Y0039703D01*
X0026344Y0039583D01*
X0026191Y0039466D01*
X0026034Y0039352D01*
X0025875Y0039243D01*
X0025713Y0039138D01*
X0025548Y0039036D01*
X0025381Y0038939D01*
X0025212Y0038846D01*
X0025040Y0038757D01*
X0024867Y0038672D01*
X0024691Y0038592D01*
X0024513Y0038515D01*
X0024334Y0038444D01*
X0024153Y0038376D01*
X0023970Y0038313D01*
X0023786Y0038255D01*
X0023600Y0038201D01*
X0023413Y0038152D01*
X0023225Y0038107D01*
X0023036Y0038067D01*
X0022846Y0038032D01*
X0022655Y0038001D01*
X0022464Y0037975D01*
X0022272Y0037954D01*
X0022079Y0037937D01*
X0021886Y0037925D01*
X0021693Y0037918D01*
X0021500Y0037916D01*
X0021307Y0037918D01*
X0021114Y0037925D01*
X0020921Y0037937D01*
X0020728Y0037954D01*
X0020536Y0037975D01*
X0020345Y0038001D01*
X0020154Y0038032D01*
X0019964Y0038067D01*
X0019775Y0038107D01*
X0019587Y0038152D01*
X0019400Y0038201D01*
X0019214Y0038255D01*
X0019030Y0038313D01*
X0018847Y0038376D01*
X0018666Y0038444D01*
X0018487Y0038515D01*
X0018309Y0038592D01*
X0018133Y0038672D01*
X0017960Y0038757D01*
X0017788Y0038846D01*
X0017619Y0038939D01*
X0017452Y0039036D01*
X0017287Y0039138D01*
X0017125Y0039243D01*
X0016966Y0039352D01*
X0016809Y0039466D01*
X0016656Y0039583D01*
X0016505Y0039703D01*
X0016357Y0039828D01*
X0016212Y0039956D01*
X0016071Y0040087D01*
X0015932Y0040222D01*
X0015797Y0040361D01*
X0015666Y0040502D01*
X0015538Y0040647D01*
X0015413Y0040795D01*
X0015293Y0040946D01*
X0015176Y0041099D01*
X0015062Y0041256D01*
X0014953Y0041415D01*
X0014848Y0041577D01*
X0014746Y0041742D01*
X0014649Y0041909D01*
X0014556Y0042078D01*
X0014467Y0042250D01*
X0014382Y0042423D01*
X0014302Y0042599D01*
X0014225Y0042777D01*
X0014154Y0042956D01*
X0014086Y0043137D01*
X0014023Y0043320D01*
X0013965Y0043504D01*
X0013911Y0043690D01*
X0013862Y0043877D01*
X0013817Y0044065D01*
X0013777Y0044254D01*
X0013742Y0044444D01*
X0013711Y0044635D01*
X0013685Y0044826D01*
X0013664Y0045018D01*
X0013647Y0045211D01*
X0013635Y0045404D01*
X0013628Y0045597D01*
X0013626Y0045790D01*
X0013626Y0220790D02*
X0013628Y0220983D01*
X0013635Y0221176D01*
X0013647Y0221369D01*
X0013664Y0221562D01*
X0013685Y0221754D01*
X0013711Y0221945D01*
X0013742Y0222136D01*
X0013777Y0222326D01*
X0013817Y0222515D01*
X0013862Y0222703D01*
X0013911Y0222890D01*
X0013965Y0223076D01*
X0014023Y0223260D01*
X0014086Y0223443D01*
X0014154Y0223624D01*
X0014225Y0223803D01*
X0014302Y0223981D01*
X0014382Y0224157D01*
X0014467Y0224330D01*
X0014556Y0224502D01*
X0014649Y0224671D01*
X0014746Y0224838D01*
X0014848Y0225003D01*
X0014953Y0225165D01*
X0015062Y0225324D01*
X0015176Y0225481D01*
X0015293Y0225634D01*
X0015413Y0225785D01*
X0015538Y0225933D01*
X0015666Y0226078D01*
X0015797Y0226219D01*
X0015932Y0226358D01*
X0016071Y0226493D01*
X0016212Y0226624D01*
X0016357Y0226752D01*
X0016505Y0226877D01*
X0016656Y0226997D01*
X0016809Y0227114D01*
X0016966Y0227228D01*
X0017125Y0227337D01*
X0017287Y0227442D01*
X0017452Y0227544D01*
X0017619Y0227641D01*
X0017788Y0227734D01*
X0017960Y0227823D01*
X0018133Y0227908D01*
X0018309Y0227988D01*
X0018487Y0228065D01*
X0018666Y0228136D01*
X0018847Y0228204D01*
X0019030Y0228267D01*
X0019214Y0228325D01*
X0019400Y0228379D01*
X0019587Y0228428D01*
X0019775Y0228473D01*
X0019964Y0228513D01*
X0020154Y0228548D01*
X0020345Y0228579D01*
X0020536Y0228605D01*
X0020728Y0228626D01*
X0020921Y0228643D01*
X0021114Y0228655D01*
X0021307Y0228662D01*
X0021500Y0228664D01*
X0021693Y0228662D01*
X0021886Y0228655D01*
X0022079Y0228643D01*
X0022272Y0228626D01*
X0022464Y0228605D01*
X0022655Y0228579D01*
X0022846Y0228548D01*
X0023036Y0228513D01*
X0023225Y0228473D01*
X0023413Y0228428D01*
X0023600Y0228379D01*
X0023786Y0228325D01*
X0023970Y0228267D01*
X0024153Y0228204D01*
X0024334Y0228136D01*
X0024513Y0228065D01*
X0024691Y0227988D01*
X0024867Y0227908D01*
X0025040Y0227823D01*
X0025212Y0227734D01*
X0025381Y0227641D01*
X0025548Y0227544D01*
X0025713Y0227442D01*
X0025875Y0227337D01*
X0026034Y0227228D01*
X0026191Y0227114D01*
X0026344Y0226997D01*
X0026495Y0226877D01*
X0026643Y0226752D01*
X0026788Y0226624D01*
X0026929Y0226493D01*
X0027068Y0226358D01*
X0027203Y0226219D01*
X0027334Y0226078D01*
X0027462Y0225933D01*
X0027587Y0225785D01*
X0027707Y0225634D01*
X0027824Y0225481D01*
X0027938Y0225324D01*
X0028047Y0225165D01*
X0028152Y0225003D01*
X0028254Y0224838D01*
X0028351Y0224671D01*
X0028444Y0224502D01*
X0028533Y0224330D01*
X0028618Y0224157D01*
X0028698Y0223981D01*
X0028775Y0223803D01*
X0028846Y0223624D01*
X0028914Y0223443D01*
X0028977Y0223260D01*
X0029035Y0223076D01*
X0029089Y0222890D01*
X0029138Y0222703D01*
X0029183Y0222515D01*
X0029223Y0222326D01*
X0029258Y0222136D01*
X0029289Y0221945D01*
X0029315Y0221754D01*
X0029336Y0221562D01*
X0029353Y0221369D01*
X0029365Y0221176D01*
X0029372Y0220983D01*
X0029374Y0220790D01*
X0029372Y0220597D01*
X0029365Y0220404D01*
X0029353Y0220211D01*
X0029336Y0220018D01*
X0029315Y0219826D01*
X0029289Y0219635D01*
X0029258Y0219444D01*
X0029223Y0219254D01*
X0029183Y0219065D01*
X0029138Y0218877D01*
X0029089Y0218690D01*
X0029035Y0218504D01*
X0028977Y0218320D01*
X0028914Y0218137D01*
X0028846Y0217956D01*
X0028775Y0217777D01*
X0028698Y0217599D01*
X0028618Y0217423D01*
X0028533Y0217250D01*
X0028444Y0217078D01*
X0028351Y0216909D01*
X0028254Y0216742D01*
X0028152Y0216577D01*
X0028047Y0216415D01*
X0027938Y0216256D01*
X0027824Y0216099D01*
X0027707Y0215946D01*
X0027587Y0215795D01*
X0027462Y0215647D01*
X0027334Y0215502D01*
X0027203Y0215361D01*
X0027068Y0215222D01*
X0026929Y0215087D01*
X0026788Y0214956D01*
X0026643Y0214828D01*
X0026495Y0214703D01*
X0026344Y0214583D01*
X0026191Y0214466D01*
X0026034Y0214352D01*
X0025875Y0214243D01*
X0025713Y0214138D01*
X0025548Y0214036D01*
X0025381Y0213939D01*
X0025212Y0213846D01*
X0025040Y0213757D01*
X0024867Y0213672D01*
X0024691Y0213592D01*
X0024513Y0213515D01*
X0024334Y0213444D01*
X0024153Y0213376D01*
X0023970Y0213313D01*
X0023786Y0213255D01*
X0023600Y0213201D01*
X0023413Y0213152D01*
X0023225Y0213107D01*
X0023036Y0213067D01*
X0022846Y0213032D01*
X0022655Y0213001D01*
X0022464Y0212975D01*
X0022272Y0212954D01*
X0022079Y0212937D01*
X0021886Y0212925D01*
X0021693Y0212918D01*
X0021500Y0212916D01*
X0021307Y0212918D01*
X0021114Y0212925D01*
X0020921Y0212937D01*
X0020728Y0212954D01*
X0020536Y0212975D01*
X0020345Y0213001D01*
X0020154Y0213032D01*
X0019964Y0213067D01*
X0019775Y0213107D01*
X0019587Y0213152D01*
X0019400Y0213201D01*
X0019214Y0213255D01*
X0019030Y0213313D01*
X0018847Y0213376D01*
X0018666Y0213444D01*
X0018487Y0213515D01*
X0018309Y0213592D01*
X0018133Y0213672D01*
X0017960Y0213757D01*
X0017788Y0213846D01*
X0017619Y0213939D01*
X0017452Y0214036D01*
X0017287Y0214138D01*
X0017125Y0214243D01*
X0016966Y0214352D01*
X0016809Y0214466D01*
X0016656Y0214583D01*
X0016505Y0214703D01*
X0016357Y0214828D01*
X0016212Y0214956D01*
X0016071Y0215087D01*
X0015932Y0215222D01*
X0015797Y0215361D01*
X0015666Y0215502D01*
X0015538Y0215647D01*
X0015413Y0215795D01*
X0015293Y0215946D01*
X0015176Y0216099D01*
X0015062Y0216256D01*
X0014953Y0216415D01*
X0014848Y0216577D01*
X0014746Y0216742D01*
X0014649Y0216909D01*
X0014556Y0217078D01*
X0014467Y0217250D01*
X0014382Y0217423D01*
X0014302Y0217599D01*
X0014225Y0217777D01*
X0014154Y0217956D01*
X0014086Y0218137D01*
X0014023Y0218320D01*
X0013965Y0218504D01*
X0013911Y0218690D01*
X0013862Y0218877D01*
X0013817Y0219065D01*
X0013777Y0219254D01*
X0013742Y0219444D01*
X0013711Y0219635D01*
X0013685Y0219826D01*
X0013664Y0220018D01*
X0013647Y0220211D01*
X0013635Y0220404D01*
X0013628Y0220597D01*
X0013626Y0220790D01*
X0318626Y0045790D02*
X0318628Y0045983D01*
X0318635Y0046176D01*
X0318647Y0046369D01*
X0318664Y0046562D01*
X0318685Y0046754D01*
X0318711Y0046945D01*
X0318742Y0047136D01*
X0318777Y0047326D01*
X0318817Y0047515D01*
X0318862Y0047703D01*
X0318911Y0047890D01*
X0318965Y0048076D01*
X0319023Y0048260D01*
X0319086Y0048443D01*
X0319154Y0048624D01*
X0319225Y0048803D01*
X0319302Y0048981D01*
X0319382Y0049157D01*
X0319467Y0049330D01*
X0319556Y0049502D01*
X0319649Y0049671D01*
X0319746Y0049838D01*
X0319848Y0050003D01*
X0319953Y0050165D01*
X0320062Y0050324D01*
X0320176Y0050481D01*
X0320293Y0050634D01*
X0320413Y0050785D01*
X0320538Y0050933D01*
X0320666Y0051078D01*
X0320797Y0051219D01*
X0320932Y0051358D01*
X0321071Y0051493D01*
X0321212Y0051624D01*
X0321357Y0051752D01*
X0321505Y0051877D01*
X0321656Y0051997D01*
X0321809Y0052114D01*
X0321966Y0052228D01*
X0322125Y0052337D01*
X0322287Y0052442D01*
X0322452Y0052544D01*
X0322619Y0052641D01*
X0322788Y0052734D01*
X0322960Y0052823D01*
X0323133Y0052908D01*
X0323309Y0052988D01*
X0323487Y0053065D01*
X0323666Y0053136D01*
X0323847Y0053204D01*
X0324030Y0053267D01*
X0324214Y0053325D01*
X0324400Y0053379D01*
X0324587Y0053428D01*
X0324775Y0053473D01*
X0324964Y0053513D01*
X0325154Y0053548D01*
X0325345Y0053579D01*
X0325536Y0053605D01*
X0325728Y0053626D01*
X0325921Y0053643D01*
X0326114Y0053655D01*
X0326307Y0053662D01*
X0326500Y0053664D01*
X0326693Y0053662D01*
X0326886Y0053655D01*
X0327079Y0053643D01*
X0327272Y0053626D01*
X0327464Y0053605D01*
X0327655Y0053579D01*
X0327846Y0053548D01*
X0328036Y0053513D01*
X0328225Y0053473D01*
X0328413Y0053428D01*
X0328600Y0053379D01*
X0328786Y0053325D01*
X0328970Y0053267D01*
X0329153Y0053204D01*
X0329334Y0053136D01*
X0329513Y0053065D01*
X0329691Y0052988D01*
X0329867Y0052908D01*
X0330040Y0052823D01*
X0330212Y0052734D01*
X0330381Y0052641D01*
X0330548Y0052544D01*
X0330713Y0052442D01*
X0330875Y0052337D01*
X0331034Y0052228D01*
X0331191Y0052114D01*
X0331344Y0051997D01*
X0331495Y0051877D01*
X0331643Y0051752D01*
X0331788Y0051624D01*
X0331929Y0051493D01*
X0332068Y0051358D01*
X0332203Y0051219D01*
X0332334Y0051078D01*
X0332462Y0050933D01*
X0332587Y0050785D01*
X0332707Y0050634D01*
X0332824Y0050481D01*
X0332938Y0050324D01*
X0333047Y0050165D01*
X0333152Y0050003D01*
X0333254Y0049838D01*
X0333351Y0049671D01*
X0333444Y0049502D01*
X0333533Y0049330D01*
X0333618Y0049157D01*
X0333698Y0048981D01*
X0333775Y0048803D01*
X0333846Y0048624D01*
X0333914Y0048443D01*
X0333977Y0048260D01*
X0334035Y0048076D01*
X0334089Y0047890D01*
X0334138Y0047703D01*
X0334183Y0047515D01*
X0334223Y0047326D01*
X0334258Y0047136D01*
X0334289Y0046945D01*
X0334315Y0046754D01*
X0334336Y0046562D01*
X0334353Y0046369D01*
X0334365Y0046176D01*
X0334372Y0045983D01*
X0334374Y0045790D01*
X0334372Y0045597D01*
X0334365Y0045404D01*
X0334353Y0045211D01*
X0334336Y0045018D01*
X0334315Y0044826D01*
X0334289Y0044635D01*
X0334258Y0044444D01*
X0334223Y0044254D01*
X0334183Y0044065D01*
X0334138Y0043877D01*
X0334089Y0043690D01*
X0334035Y0043504D01*
X0333977Y0043320D01*
X0333914Y0043137D01*
X0333846Y0042956D01*
X0333775Y0042777D01*
X0333698Y0042599D01*
X0333618Y0042423D01*
X0333533Y0042250D01*
X0333444Y0042078D01*
X0333351Y0041909D01*
X0333254Y0041742D01*
X0333152Y0041577D01*
X0333047Y0041415D01*
X0332938Y0041256D01*
X0332824Y0041099D01*
X0332707Y0040946D01*
X0332587Y0040795D01*
X0332462Y0040647D01*
X0332334Y0040502D01*
X0332203Y0040361D01*
X0332068Y0040222D01*
X0331929Y0040087D01*
X0331788Y0039956D01*
X0331643Y0039828D01*
X0331495Y0039703D01*
X0331344Y0039583D01*
X0331191Y0039466D01*
X0331034Y0039352D01*
X0330875Y0039243D01*
X0330713Y0039138D01*
X0330548Y0039036D01*
X0330381Y0038939D01*
X0330212Y0038846D01*
X0330040Y0038757D01*
X0329867Y0038672D01*
X0329691Y0038592D01*
X0329513Y0038515D01*
X0329334Y0038444D01*
X0329153Y0038376D01*
X0328970Y0038313D01*
X0328786Y0038255D01*
X0328600Y0038201D01*
X0328413Y0038152D01*
X0328225Y0038107D01*
X0328036Y0038067D01*
X0327846Y0038032D01*
X0327655Y0038001D01*
X0327464Y0037975D01*
X0327272Y0037954D01*
X0327079Y0037937D01*
X0326886Y0037925D01*
X0326693Y0037918D01*
X0326500Y0037916D01*
X0326307Y0037918D01*
X0326114Y0037925D01*
X0325921Y0037937D01*
X0325728Y0037954D01*
X0325536Y0037975D01*
X0325345Y0038001D01*
X0325154Y0038032D01*
X0324964Y0038067D01*
X0324775Y0038107D01*
X0324587Y0038152D01*
X0324400Y0038201D01*
X0324214Y0038255D01*
X0324030Y0038313D01*
X0323847Y0038376D01*
X0323666Y0038444D01*
X0323487Y0038515D01*
X0323309Y0038592D01*
X0323133Y0038672D01*
X0322960Y0038757D01*
X0322788Y0038846D01*
X0322619Y0038939D01*
X0322452Y0039036D01*
X0322287Y0039138D01*
X0322125Y0039243D01*
X0321966Y0039352D01*
X0321809Y0039466D01*
X0321656Y0039583D01*
X0321505Y0039703D01*
X0321357Y0039828D01*
X0321212Y0039956D01*
X0321071Y0040087D01*
X0320932Y0040222D01*
X0320797Y0040361D01*
X0320666Y0040502D01*
X0320538Y0040647D01*
X0320413Y0040795D01*
X0320293Y0040946D01*
X0320176Y0041099D01*
X0320062Y0041256D01*
X0319953Y0041415D01*
X0319848Y0041577D01*
X0319746Y0041742D01*
X0319649Y0041909D01*
X0319556Y0042078D01*
X0319467Y0042250D01*
X0319382Y0042423D01*
X0319302Y0042599D01*
X0319225Y0042777D01*
X0319154Y0042956D01*
X0319086Y0043137D01*
X0319023Y0043320D01*
X0318965Y0043504D01*
X0318911Y0043690D01*
X0318862Y0043877D01*
X0318817Y0044065D01*
X0318777Y0044254D01*
X0318742Y0044444D01*
X0318711Y0044635D01*
X0318685Y0044826D01*
X0318664Y0045018D01*
X0318647Y0045211D01*
X0318635Y0045404D01*
X0318628Y0045597D01*
X0318626Y0045790D01*
D22*
X0305500Y0093040D03*
X0140500Y0093040D03*
D23*
X0107500Y0114715D03*
D24*
X0173075Y0125790D03*
D25*
X0291898Y0178885D02*
X0291900Y0178941D01*
X0291906Y0178996D01*
X0291916Y0179050D01*
X0291929Y0179104D01*
X0291947Y0179157D01*
X0291968Y0179208D01*
X0291992Y0179258D01*
X0292020Y0179306D01*
X0292052Y0179352D01*
X0292086Y0179396D01*
X0292124Y0179437D01*
X0292164Y0179475D01*
X0292207Y0179510D01*
X0292252Y0179542D01*
X0292300Y0179571D01*
X0292349Y0179597D01*
X0292400Y0179619D01*
X0292452Y0179637D01*
X0292506Y0179651D01*
X0292561Y0179662D01*
X0292616Y0179669D01*
X0292671Y0179672D01*
X0292727Y0179671D01*
X0292782Y0179666D01*
X0292837Y0179657D01*
X0292891Y0179645D01*
X0292944Y0179628D01*
X0292996Y0179608D01*
X0293046Y0179584D01*
X0293094Y0179557D01*
X0293141Y0179527D01*
X0293185Y0179493D01*
X0293227Y0179456D01*
X0293265Y0179416D01*
X0293302Y0179374D01*
X0293335Y0179329D01*
X0293364Y0179283D01*
X0293391Y0179234D01*
X0293413Y0179183D01*
X0293433Y0179131D01*
X0293448Y0179077D01*
X0293460Y0179023D01*
X0293468Y0178968D01*
X0293472Y0178913D01*
X0293472Y0178857D01*
X0293468Y0178802D01*
X0293460Y0178747D01*
X0293448Y0178693D01*
X0293433Y0178639D01*
X0293413Y0178587D01*
X0293391Y0178536D01*
X0293364Y0178487D01*
X0293335Y0178441D01*
X0293302Y0178396D01*
X0293265Y0178354D01*
X0293227Y0178314D01*
X0293185Y0178277D01*
X0293141Y0178243D01*
X0293094Y0178213D01*
X0293046Y0178186D01*
X0292996Y0178162D01*
X0292944Y0178142D01*
X0292891Y0178125D01*
X0292837Y0178113D01*
X0292782Y0178104D01*
X0292727Y0178099D01*
X0292671Y0178098D01*
X0292616Y0178101D01*
X0292561Y0178108D01*
X0292506Y0178119D01*
X0292452Y0178133D01*
X0292400Y0178151D01*
X0292349Y0178173D01*
X0292300Y0178199D01*
X0292252Y0178228D01*
X0292207Y0178260D01*
X0292164Y0178295D01*
X0292124Y0178333D01*
X0292086Y0178374D01*
X0292052Y0178418D01*
X0292020Y0178464D01*
X0291992Y0178512D01*
X0291968Y0178562D01*
X0291947Y0178613D01*
X0291929Y0178666D01*
X0291916Y0178720D01*
X0291906Y0178774D01*
X0291900Y0178829D01*
X0291898Y0178885D01*
D26*
X0296697Y0184794D02*
X0300697Y0184794D01*
X0309000Y0171852D02*
X0309000Y0168728D01*
X0310562Y0170290D02*
X0307437Y0170290D01*
X0301500Y0169790D02*
X0297500Y0169790D01*
X0281000Y0167790D02*
X0277000Y0167790D01*
X0274000Y0169790D02*
X0270000Y0169790D01*
X0261500Y0165290D02*
X0261500Y0161290D01*
X0259870Y0180786D02*
X0263870Y0180786D01*
X0296626Y0199030D02*
X0300626Y0199030D01*
X0300500Y0213290D02*
X0296500Y0213290D01*
X0309000Y0212728D02*
X0309000Y0215852D01*
X0304500Y0224790D02*
X0304500Y0228790D01*
X0318000Y0227290D02*
X0318000Y0231290D01*
X0263500Y0212790D02*
X0263500Y0208790D01*
X0250874Y0211235D02*
X0246874Y0211235D01*
X0216500Y0196790D02*
X0212500Y0196790D01*
M02*
