G75*
%MOIN*%
%OFA0B0*%
%FSLAX25Y25*%
%IPPOS*%
%LPD*%
%AMOC8*
5,1,8,0,0,1.08239X$1,22.5*
%
%ADD10OC8,0.07100*%
%ADD11C,0.04437*%
%ADD12C,0.10500*%
%ADD13OC8,0.10500*%
%ADD14C,0.06799*%
%ADD15C,0.07587*%
%ADD16C,0.06406*%
%ADD17R,0.07100X0.07100*%
%ADD18C,0.07100*%
%ADD19C,0.14343*%
%ADD20C,0.03475*%
%ADD21C,0.09100*%
%ADD22C,0.06110*%
%ADD23C,0.13555*%
%ADD24C,0.03256*%
%ADD25R,0.10343X0.10343*%
%ADD26C,0.04656*%
%ADD27C,0.03869*%
%ADD28C,0.04500*%
%ADD29C,0.04262*%
%ADD30C,0.03450*%
%ADD31C,0.04459*%
D10*
X0024500Y0086790D03*
X0040500Y0086790D03*
X0040500Y0126790D03*
X0024500Y0126790D03*
X0189500Y0126790D03*
X0205500Y0126790D03*
X0205500Y0086790D03*
X0189500Y0086790D03*
D11*
X0087661Y0145853D03*
X0070339Y0145853D03*
D12*
X0140500Y0105290D03*
X0305500Y0105290D03*
D13*
X0305500Y0085290D03*
X0140500Y0085290D03*
D14*
X0128894Y0157526D03*
D15*
X0128894Y0139810D03*
D16*
X0052500Y0152838D02*
X0052500Y0158743D01*
X0042500Y0158743D02*
X0042500Y0152838D01*
X0207500Y0152838D02*
X0207500Y0158743D01*
X0217500Y0158743D02*
X0217500Y0152838D01*
D17*
X0186500Y0065790D03*
X0161500Y0065790D03*
X0021500Y0065790D03*
X0326500Y0065790D03*
D18*
X0326500Y0075790D03*
X0266500Y0045790D03*
X0256500Y0045790D03*
X0246500Y0045790D03*
X0186500Y0075790D03*
X0161500Y0075790D03*
X0101500Y0045790D03*
X0091500Y0045790D03*
X0081500Y0045790D03*
X0021500Y0075790D03*
X0237000Y0150790D03*
X0247000Y0150790D03*
X0257000Y0150790D03*
X0267000Y0150790D03*
X0277000Y0150790D03*
X0287000Y0150790D03*
X0297000Y0150790D03*
X0307000Y0150790D03*
D19*
X0021500Y0045790D03*
X0174000Y0045790D03*
X0326500Y0045790D03*
X0174000Y0220790D03*
X0021500Y0220790D03*
D20*
X0278512Y0189515D03*
X0282055Y0185971D03*
X0278512Y0182428D03*
X0285598Y0182428D03*
X0285598Y0189515D03*
D21*
X0320000Y0185347D03*
X0320000Y0199127D03*
X0135693Y0165290D03*
X0121913Y0165290D03*
D22*
X0306526Y0178261D02*
X0312136Y0178261D01*
X0312136Y0188103D02*
X0306526Y0188103D01*
X0306526Y0195977D02*
X0312136Y0195977D01*
X0312136Y0205820D02*
X0306526Y0205820D01*
D23*
X0320000Y0217906D03*
X0320000Y0166174D03*
D24*
X0203500Y0183113D03*
X0203500Y0198467D03*
D25*
X0196020Y0204963D03*
X0196020Y0176617D03*
D26*
X0207043Y0177798D02*
X0207043Y0173642D01*
X0207043Y0203782D02*
X0207043Y0207938D01*
D27*
X0214500Y0134790D03*
X0215500Y0121790D03*
X0231500Y0110290D03*
X0245000Y0106790D03*
X0248000Y0103790D03*
X0251000Y0106790D03*
X0248000Y0109790D03*
X0259500Y0114290D03*
X0264500Y0108790D03*
X0265500Y0101290D03*
X0265000Y0096290D03*
X0265000Y0091290D03*
X0255500Y0083790D03*
X0276000Y0080790D03*
X0231500Y0087790D03*
X0223500Y0089790D03*
X0227500Y0079790D03*
X0235500Y0119290D03*
X0111000Y0080790D03*
X0100000Y0091290D03*
X0100000Y0096290D03*
X0100500Y0101290D03*
X0099500Y0108790D03*
X0094500Y0114290D03*
X0086000Y0106790D03*
X0083000Y0103790D03*
X0080000Y0106790D03*
X0083000Y0109790D03*
X0070500Y0119290D03*
X0066500Y0110290D03*
X0050500Y0121790D03*
X0049500Y0134790D03*
X0058500Y0089790D03*
X0066500Y0087790D03*
X0062500Y0079790D03*
X0090500Y0083790D03*
D28*
X0123500Y0145290D03*
D29*
X0122500Y0066790D03*
X0042500Y0065790D03*
X0207500Y0065790D03*
D30*
X0254000Y0169790D03*
X0270000Y0179290D03*
X0254500Y0199290D03*
X0224000Y0194908D03*
X0304000Y0221290D03*
D31*
X0256500Y0140790D03*
X0256500Y0125290D03*
X0287500Y0066790D03*
M02*
