%
M48
M72
T01C0.01550
T02C0.01575
T03C0.01969
T04C0.02362
T05C0.02559
T06C0.02756
T07C0.03200
T08C0.03740
T09C0.03937
T10C0.04000
T11C0.06299
T12C0.07087
T13C0.09055
T14C0.09843
%
T01
X254000Y169790
X270000Y179290
X254500Y199290
X224000Y194908
X304000Y221290
T02
X285598Y189515
X282055Y185971
X278512Y182428
X285598Y182428
X278512Y189515
T03
X214500Y134790
X215500Y121790
X231500Y110290
X245000Y106790
X248000Y103790
X251000Y106790
X248000Y109790
X259500Y114290
X264500Y108790
X265500Y101290
X265000Y96290
X265000Y91290
X255500Y83790
X276000Y80790
X231500Y87790
X223500Y89790
X227500Y79790
X235500Y119290
X111000Y80790
X100000Y91290
X100000Y96290
X100500Y101290
X99500Y108790
X94500Y114290
X86000Y106790
X83000Y103790
X80000Y106790
X83000Y109790
X70500Y119290
X66500Y110290
X50500Y121790
X49500Y134790
X58500Y89790
X66500Y87790
X62500Y79790
X90500Y83790
T04
X122500Y66790
X42500Y65790
X123500Y145290
X196020Y176617
X196020Y204963
X207500Y65790
T05
X287500Y66790
X256500Y125290
X256500Y140790
T06
X207043Y177798
X203500Y183113
X203500Y198467
X207043Y203782
T07
X205500Y126790
X189500Y126790
X189500Y86790
X205500Y86790
X40500Y86790
X24500Y86790
X24500Y126790
X40500Y126790
T08
X309331Y178261
X309331Y188103
X309331Y195977
X309331Y205820
T09
X320000Y199127
X320000Y185347
X307000Y150790
X297000Y150790
X287000Y150790
X277000Y150790
X267000Y150790
X257000Y150790
X247000Y150790
X237000Y150790
X217500Y155790
X207500Y155790
X135693Y165290
X121913Y165290
X87661Y145853
X70339Y145853
X52500Y155790
X42500Y155790
X21500Y75790
X21500Y65790
X161500Y65790
X161500Y75790
X186500Y75790
X186500Y65790
X326500Y65790
X326500Y75790
T10
X305500Y85290
X305500Y105290
X266500Y45790
X256500Y45790
X246500Y45790
X140500Y85290
X140500Y105290
X101500Y45790
X91500Y45790
X81500Y45790
T11
X128894Y157526
T12
X128894Y139810
T13
X320000Y166174
X320000Y217906
T14
X21500Y45790
X174000Y45790
X326500Y45790
X174000Y220790
X21500Y220790
M30
