G75*
%MOIN*%
%OFA0B0*%
%FSLAX25Y25*%
%IPPOS*%
%LPD*%
%AMOC8*
5,1,8,0,0,1.08239X$1,22.5*
%
%ADD10R,0.03374X0.01602*%
%ADD11R,0.01602X0.03374*%
%ADD12R,0.10343X0.10343*%
%ADD13R,0.04831X0.06012*%
%ADD14R,0.05224X0.05224*%
%ADD15R,0.06012X0.04831*%
%ADD16R,0.04437X0.18610*%
%ADD17R,0.06799X0.13886*%
%ADD18OC8,0.07100*%
%ADD19R,0.06299X0.05512*%
%ADD20R,0.08374X0.09949*%
%ADD21R,0.02469X0.09587*%
%ADD22R,0.10500X0.15500*%
%ADD23C,0.04437*%
%ADD24C,0.10500*%
%ADD25OC8,0.10500*%
%ADD26C,0.06799*%
%ADD27C,0.07587*%
%ADD28C,0.06406*%
%ADD29R,0.06012X0.06012*%
%ADD30R,0.06799X0.05618*%
%ADD31R,0.07100X0.07100*%
%ADD32C,0.07100*%
%ADD33C,0.00500*%
%ADD34C,0.14343*%
%ADD35R,0.11130X0.11130*%
%ADD36C,0.01878*%
%ADD37C,0.03475*%
%ADD38R,0.08374X0.20185*%
%ADD39R,0.05618X0.06406*%
%ADD40R,0.06406X0.05618*%
%ADD41C,0.09100*%
%ADD42C,0.06110*%
%ADD43C,0.13555*%
%ADD44R,0.05224X0.06406*%
%ADD45R,0.05224X0.05618*%
%ADD46R,0.04437X0.06012*%
%ADD47R,0.11130X0.06799*%
%ADD48C,0.03256*%
%ADD49C,0.04656*%
%ADD50R,0.08374X0.04437*%
%ADD51R,0.05709X0.01969*%
%ADD52C,0.03869*%
%ADD53C,0.04500*%
%ADD54C,0.04262*%
%ADD55C,0.03450*%
%ADD56C,0.04459*%
D10*
X0075264Y0102853D03*
X0075264Y0104822D03*
X0075264Y0106790D03*
X0075264Y0108759D03*
X0075264Y0110727D03*
X0090736Y0110727D03*
X0090736Y0108759D03*
X0090736Y0106790D03*
X0090736Y0104822D03*
X0090736Y0102853D03*
X0240264Y0102853D03*
X0240264Y0104822D03*
X0240264Y0106790D03*
X0240264Y0108759D03*
X0240264Y0110727D03*
X0255736Y0110727D03*
X0255736Y0108759D03*
X0255736Y0106790D03*
X0255736Y0104822D03*
X0255736Y0102853D03*
D11*
X0251937Y0099054D03*
X0249969Y0099054D03*
X0248000Y0099054D03*
X0246031Y0099054D03*
X0244063Y0099054D03*
X0244063Y0114526D03*
X0246031Y0114526D03*
X0248000Y0114526D03*
X0249969Y0114526D03*
X0251937Y0114526D03*
X0086937Y0114526D03*
X0084969Y0114526D03*
X0083000Y0114526D03*
X0081031Y0114526D03*
X0079063Y0114526D03*
X0079063Y0099054D03*
X0081031Y0099054D03*
X0083000Y0099054D03*
X0084969Y0099054D03*
X0086937Y0099054D03*
D12*
X0083000Y0106790D03*
X0196020Y0176617D03*
X0196020Y0204963D03*
X0248000Y0106790D03*
D13*
X0220000Y0127034D03*
X0212126Y0127034D03*
X0213063Y0079790D03*
X0220937Y0079790D03*
X0242311Y0080601D03*
X0250185Y0080601D03*
X0260874Y0080601D03*
X0268748Y0080601D03*
X0287563Y0079790D03*
X0295437Y0079790D03*
X0130437Y0079790D03*
X0122563Y0079790D03*
X0103748Y0080601D03*
X0095874Y0080601D03*
X0085185Y0080601D03*
X0077311Y0080601D03*
X0055937Y0079790D03*
X0048063Y0079790D03*
X0084063Y0124790D03*
X0091937Y0124790D03*
X0055000Y0127034D03*
X0047126Y0127034D03*
D14*
X0040197Y0138534D03*
X0031929Y0138534D03*
X0077000Y0067424D03*
X0077000Y0059156D03*
X0106000Y0059156D03*
X0106000Y0067424D03*
X0196929Y0138534D03*
X0205197Y0138534D03*
X0242000Y0067424D03*
X0242000Y0059156D03*
X0271000Y0059156D03*
X0271000Y0067424D03*
X0315134Y0151916D03*
X0323402Y0151916D03*
D15*
X0273500Y0101538D03*
X0273500Y0093664D03*
X0261000Y0067227D03*
X0261000Y0059353D03*
X0251000Y0059353D03*
X0251000Y0067227D03*
X0225500Y0096475D03*
X0225500Y0104349D03*
X0108500Y0101538D03*
X0108500Y0093664D03*
X0096000Y0067227D03*
X0096000Y0059353D03*
X0086000Y0059353D03*
X0086000Y0067227D03*
X0060500Y0096475D03*
X0060500Y0104349D03*
D16*
X0055437Y0064357D03*
X0047563Y0064357D03*
X0127563Y0064357D03*
X0135437Y0064357D03*
X0212563Y0064357D03*
X0220437Y0064357D03*
X0292563Y0064357D03*
X0300437Y0064357D03*
D17*
X0038114Y0043885D03*
X0064886Y0043885D03*
X0118114Y0043885D03*
X0144886Y0043885D03*
X0203114Y0043885D03*
X0229886Y0043885D03*
X0283114Y0043885D03*
X0309886Y0043885D03*
D18*
X0205500Y0086790D03*
X0189500Y0086790D03*
X0189500Y0126790D03*
X0205500Y0126790D03*
X0040500Y0126790D03*
X0024500Y0126790D03*
X0024500Y0086790D03*
X0040500Y0086790D03*
D19*
X0040500Y0102753D03*
X0040500Y0110827D03*
X0024500Y0110827D03*
X0024500Y0102753D03*
X0189500Y0102753D03*
X0189500Y0110827D03*
X0205500Y0110827D03*
X0205500Y0102753D03*
D20*
X0150547Y0133117D03*
X0150547Y0157526D03*
X0107240Y0157526D03*
X0096323Y0136011D03*
X0107240Y0133117D03*
X0061677Y0136011D03*
D21*
X0072701Y0133790D03*
X0075850Y0133790D03*
X0079000Y0133790D03*
X0082150Y0133790D03*
X0085299Y0133790D03*
D22*
X0096323Y0157664D03*
X0061677Y0157664D03*
D23*
X0070339Y0145853D03*
X0087661Y0145853D03*
D24*
X0140500Y0105290D03*
X0305500Y0105290D03*
D25*
X0305500Y0085290D03*
X0140500Y0085290D03*
D26*
X0128894Y0157526D03*
D27*
X0128894Y0139810D03*
D28*
X0052500Y0152838D02*
X0052500Y0158743D01*
X0042500Y0158743D02*
X0042500Y0152838D01*
X0207500Y0152838D02*
X0207500Y0158743D01*
X0217500Y0158743D02*
X0217500Y0152838D01*
D29*
X0178783Y0125790D03*
X0164217Y0125790D03*
X0107500Y0123574D03*
X0107500Y0109007D03*
D30*
X0050500Y0108050D03*
X0050500Y0115530D03*
X0050500Y0096530D03*
X0050500Y0089050D03*
X0215500Y0089050D03*
X0215500Y0096530D03*
X0215500Y0108050D03*
X0215500Y0115530D03*
D31*
X0186500Y0065790D03*
X0161500Y0065790D03*
X0021500Y0065790D03*
X0326500Y0065790D03*
D32*
X0326500Y0075790D03*
X0266500Y0045790D03*
X0256500Y0045790D03*
X0246500Y0045790D03*
X0186500Y0075790D03*
X0161500Y0075790D03*
X0101500Y0045790D03*
X0091500Y0045790D03*
X0081500Y0045790D03*
X0021500Y0075790D03*
X0237000Y0150790D03*
X0247000Y0150790D03*
X0257000Y0150790D03*
X0267000Y0150790D03*
X0277000Y0150790D03*
X0287000Y0150790D03*
X0297000Y0150790D03*
X0307000Y0150790D03*
D33*
X0177937Y0159790D02*
X0177877Y0160474D01*
X0177700Y0161137D01*
X0177410Y0161759D01*
X0177016Y0162321D01*
X0176531Y0162806D01*
X0175969Y0163200D01*
X0175347Y0163490D01*
X0174684Y0163667D01*
X0174000Y0163727D01*
X0173316Y0163667D01*
X0172653Y0163490D01*
X0172031Y0163200D01*
X0171469Y0162806D01*
X0170984Y0162321D01*
X0170590Y0161759D01*
X0170300Y0161137D01*
X0170123Y0160474D01*
X0170063Y0159790D01*
X0170123Y0159107D01*
X0170300Y0158444D01*
X0170590Y0157822D01*
X0170984Y0157260D01*
X0171469Y0156774D01*
X0172031Y0156381D01*
X0172653Y0156091D01*
X0173316Y0155913D01*
X0174000Y0155853D01*
X0174684Y0155913D01*
X0175347Y0156091D01*
X0175969Y0156381D01*
X0176531Y0156774D01*
X0177016Y0157260D01*
X0177410Y0157822D01*
X0177700Y0158444D01*
X0177877Y0159107D01*
X0177937Y0159790D01*
X0177927Y0159905D02*
X0170073Y0159905D01*
X0170097Y0159406D02*
X0177903Y0159406D01*
X0177824Y0158908D02*
X0170176Y0158908D01*
X0170317Y0158409D02*
X0177683Y0158409D01*
X0177451Y0157911D02*
X0170549Y0157911D01*
X0170877Y0157412D02*
X0177123Y0157412D01*
X0176670Y0156914D02*
X0171330Y0156914D01*
X0171982Y0156415D02*
X0176018Y0156415D01*
X0174697Y0155917D02*
X0173303Y0155917D01*
X0170117Y0160403D02*
X0177883Y0160403D01*
X0177763Y0160902D02*
X0170237Y0160902D01*
X0170423Y0161400D02*
X0177577Y0161400D01*
X0177312Y0161899D02*
X0170688Y0161899D01*
X0171060Y0162397D02*
X0176940Y0162397D01*
X0176403Y0162896D02*
X0171597Y0162896D01*
X0172449Y0163394D02*
X0175551Y0163394D01*
X0153184Y0058667D02*
X0152500Y0058727D01*
X0151816Y0058667D01*
X0151153Y0058490D01*
X0150531Y0058200D01*
X0149969Y0057806D01*
X0149484Y0057321D01*
X0149090Y0056759D01*
X0148800Y0056137D01*
X0148623Y0055474D01*
X0148563Y0054790D01*
X0148623Y0054107D01*
X0148800Y0053444D01*
X0149090Y0052822D01*
X0149484Y0052260D01*
X0149969Y0051774D01*
X0150531Y0051381D01*
X0151153Y0051091D01*
X0151816Y0050913D01*
X0152500Y0050853D01*
X0153184Y0050913D01*
X0153847Y0051091D01*
X0154469Y0051381D01*
X0155031Y0051774D01*
X0155516Y0052260D01*
X0155910Y0052822D01*
X0156200Y0053444D01*
X0156377Y0054107D01*
X0156437Y0054790D01*
X0156377Y0055474D01*
X0156200Y0056137D01*
X0155910Y0056759D01*
X0155516Y0057321D01*
X0155031Y0057806D01*
X0154469Y0058200D01*
X0153847Y0058490D01*
X0153184Y0058667D01*
X0152733Y0058707D02*
X0152267Y0058707D01*
X0150550Y0058208D02*
X0154450Y0058208D01*
X0155127Y0057710D02*
X0149873Y0057710D01*
X0149407Y0057211D02*
X0155593Y0057211D01*
X0155931Y0056713D02*
X0149069Y0056713D01*
X0148837Y0056214D02*
X0156163Y0056214D01*
X0156312Y0055716D02*
X0148688Y0055716D01*
X0148600Y0055217D02*
X0156400Y0055217D01*
X0156431Y0054719D02*
X0148569Y0054719D01*
X0148613Y0054220D02*
X0156387Y0054220D01*
X0156274Y0053722D02*
X0148726Y0053722D01*
X0148903Y0053223D02*
X0156097Y0053223D01*
X0155842Y0052725D02*
X0149158Y0052725D01*
X0149517Y0052226D02*
X0155483Y0052226D01*
X0154964Y0051728D02*
X0150036Y0051728D01*
X0150856Y0051229D02*
X0154144Y0051229D01*
X0019910Y0131322D02*
X0020200Y0131944D01*
X0020377Y0132607D01*
X0020437Y0133290D01*
X0020377Y0133974D01*
X0020200Y0134637D01*
X0019910Y0135259D01*
X0019516Y0135821D01*
X0019031Y0136306D01*
X0018469Y0136700D01*
X0017847Y0136990D01*
X0017184Y0137167D01*
X0016500Y0137227D01*
X0015816Y0137167D01*
X0015153Y0136990D01*
X0014531Y0136700D01*
X0013969Y0136306D01*
X0013484Y0135821D01*
X0013090Y0135259D01*
X0012800Y0134637D01*
X0012623Y0133974D01*
X0012563Y0133290D01*
X0012623Y0132607D01*
X0012800Y0131944D01*
X0013090Y0131322D01*
X0013484Y0130760D01*
X0013969Y0130274D01*
X0014531Y0129881D01*
X0015153Y0129591D01*
X0015816Y0129413D01*
X0016500Y0129353D01*
X0017184Y0129413D01*
X0017847Y0129591D01*
X0018469Y0129881D01*
X0019031Y0130274D01*
X0019516Y0130760D01*
X0019910Y0131322D01*
X0019988Y0131490D02*
X0013012Y0131490D01*
X0012789Y0131988D02*
X0020211Y0131988D01*
X0020345Y0132487D02*
X0012655Y0132487D01*
X0012590Y0132985D02*
X0020410Y0132985D01*
X0020420Y0133484D02*
X0012580Y0133484D01*
X0012625Y0133982D02*
X0020375Y0133982D01*
X0020241Y0134481D02*
X0012759Y0134481D01*
X0012960Y0134979D02*
X0020040Y0134979D01*
X0019756Y0135478D02*
X0013244Y0135478D01*
X0013639Y0135976D02*
X0019361Y0135976D01*
X0018790Y0136475D02*
X0014210Y0136475D01*
X0015118Y0136973D02*
X0017882Y0136973D01*
X0019678Y0130991D02*
X0013322Y0130991D01*
X0013751Y0130493D02*
X0019249Y0130493D01*
X0018630Y0129994D02*
X0014370Y0129994D01*
X0015509Y0129496D02*
X0017491Y0129496D01*
X0313623Y0055474D02*
X0313563Y0054790D01*
X0313623Y0054107D01*
X0313800Y0053444D01*
X0314090Y0052822D01*
X0314484Y0052260D01*
X0314969Y0051774D01*
X0315531Y0051381D01*
X0316153Y0051091D01*
X0316816Y0050913D01*
X0317500Y0050853D01*
X0318184Y0050913D01*
X0318847Y0051091D01*
X0319469Y0051381D01*
X0320031Y0051774D01*
X0320516Y0052260D01*
X0320910Y0052822D01*
X0321200Y0053444D01*
X0321377Y0054107D01*
X0321437Y0054790D01*
X0321377Y0055474D01*
X0321200Y0056137D01*
X0320910Y0056759D01*
X0320516Y0057321D01*
X0320031Y0057806D01*
X0319469Y0058200D01*
X0318847Y0058490D01*
X0318184Y0058667D01*
X0317500Y0058727D01*
X0316816Y0058667D01*
X0316153Y0058490D01*
X0315531Y0058200D01*
X0314969Y0057806D01*
X0314484Y0057321D01*
X0314090Y0056759D01*
X0313800Y0056137D01*
X0313623Y0055474D01*
X0313688Y0055716D02*
X0321312Y0055716D01*
X0321400Y0055217D02*
X0313600Y0055217D01*
X0313569Y0054719D02*
X0321431Y0054719D01*
X0321387Y0054220D02*
X0313613Y0054220D01*
X0313726Y0053722D02*
X0321274Y0053722D01*
X0321097Y0053223D02*
X0313903Y0053223D01*
X0314158Y0052725D02*
X0320842Y0052725D01*
X0320483Y0052226D02*
X0314517Y0052226D01*
X0315036Y0051728D02*
X0319964Y0051728D01*
X0319144Y0051229D02*
X0315856Y0051229D01*
X0313837Y0056214D02*
X0321163Y0056214D01*
X0320931Y0056713D02*
X0314069Y0056713D01*
X0314407Y0057211D02*
X0320593Y0057211D01*
X0320127Y0057710D02*
X0314873Y0057710D01*
X0315550Y0058208D02*
X0319450Y0058208D01*
X0317733Y0058707D02*
X0317267Y0058707D01*
D34*
X0326500Y0045790D03*
X0174000Y0045790D03*
X0021500Y0045790D03*
X0021500Y0220790D03*
X0174000Y0220790D03*
D35*
X0282055Y0185971D03*
D36*
X0288945Y0184692D02*
X0291701Y0184692D01*
X0291701Y0187251D02*
X0288945Y0187251D01*
X0288945Y0189810D02*
X0291701Y0189810D01*
X0285894Y0192861D02*
X0285894Y0195617D01*
X0283335Y0195617D02*
X0283335Y0192861D01*
X0280776Y0192861D02*
X0280776Y0195617D01*
X0278217Y0195617D02*
X0278217Y0192861D01*
X0275165Y0189810D02*
X0272409Y0189810D01*
X0272409Y0187251D02*
X0275165Y0187251D01*
X0275165Y0184692D02*
X0272409Y0184692D01*
X0272409Y0182133D02*
X0275165Y0182133D01*
X0278217Y0179082D02*
X0278217Y0176326D01*
X0280776Y0176326D02*
X0280776Y0179082D01*
X0283335Y0179082D02*
X0283335Y0176326D01*
X0285894Y0176326D02*
X0285894Y0179082D01*
X0288945Y0182133D02*
X0291701Y0182133D01*
D37*
X0285598Y0182428D03*
X0282055Y0185971D03*
X0278512Y0182428D03*
X0278512Y0189515D03*
X0285598Y0189515D03*
D38*
X0288870Y0208404D03*
X0276272Y0208404D03*
D39*
X0267240Y0210790D03*
X0259760Y0210790D03*
X0300760Y0226790D03*
X0308240Y0226790D03*
X0314260Y0229290D03*
X0321740Y0229290D03*
D40*
X0298500Y0217030D03*
X0298500Y0209550D03*
X0298626Y0202771D03*
X0298626Y0195290D03*
X0298697Y0188534D03*
X0298697Y0181054D03*
X0299500Y0173530D03*
X0299500Y0166050D03*
X0279000Y0164050D03*
X0272000Y0166050D03*
X0279000Y0171530D03*
X0272000Y0173530D03*
X0261870Y0177046D03*
X0261870Y0184526D03*
X0248874Y0207495D03*
X0248874Y0214975D03*
X0214500Y0200530D03*
X0214500Y0193050D03*
D41*
X0135693Y0165290D03*
X0121913Y0165290D03*
X0320000Y0185347D03*
X0320000Y0199127D03*
D42*
X0312136Y0195977D02*
X0306526Y0195977D01*
X0306526Y0188103D02*
X0312136Y0188103D01*
X0312136Y0178261D02*
X0306526Y0178261D01*
X0306526Y0205820D02*
X0312136Y0205820D01*
D43*
X0320000Y0217906D03*
X0320000Y0166174D03*
D44*
X0265634Y0163290D03*
X0257366Y0163290D03*
D45*
X0259500Y0195790D03*
X0267500Y0195790D03*
X0267500Y0203290D03*
X0259500Y0203290D03*
D46*
X0248300Y0171515D03*
X0244560Y0162066D03*
X0252040Y0162066D03*
D47*
X0289500Y0160278D03*
X0289500Y0171302D03*
D48*
X0203500Y0183113D03*
X0203500Y0198467D03*
D49*
X0207043Y0203782D02*
X0207043Y0207938D01*
X0207043Y0177798D02*
X0207043Y0173642D01*
D50*
X0195626Y0187838D03*
X0195626Y0193743D03*
D51*
X0206551Y0193349D03*
X0206551Y0190790D03*
X0206551Y0188231D03*
X0206551Y0185672D03*
X0206551Y0195908D03*
D52*
X0214500Y0134790D03*
X0215500Y0121790D03*
X0231500Y0110290D03*
X0245000Y0106790D03*
X0248000Y0103790D03*
X0251000Y0106790D03*
X0248000Y0109790D03*
X0259500Y0114290D03*
X0264500Y0108790D03*
X0265500Y0101290D03*
X0265000Y0096290D03*
X0265000Y0091290D03*
X0255500Y0083790D03*
X0276000Y0080790D03*
X0231500Y0087790D03*
X0223500Y0089790D03*
X0227500Y0079790D03*
X0235500Y0119290D03*
X0111000Y0080790D03*
X0100000Y0091290D03*
X0100000Y0096290D03*
X0100500Y0101290D03*
X0099500Y0108790D03*
X0094500Y0114290D03*
X0086000Y0106790D03*
X0083000Y0103790D03*
X0080000Y0106790D03*
X0083000Y0109790D03*
X0070500Y0119290D03*
X0066500Y0110290D03*
X0050500Y0121790D03*
X0049500Y0134790D03*
X0058500Y0089790D03*
X0066500Y0087790D03*
X0062500Y0079790D03*
X0090500Y0083790D03*
D53*
X0123500Y0145290D03*
D54*
X0122500Y0066790D03*
X0042500Y0065790D03*
X0207500Y0065790D03*
D55*
X0254000Y0169790D03*
X0270000Y0179290D03*
X0254500Y0199290D03*
X0224000Y0194908D03*
X0304000Y0221290D03*
D56*
X0256500Y0140790D03*
X0256500Y0125290D03*
X0287500Y0066790D03*
M02*
