G75*
%MOIN*%
%OFA0B0*%
%FSLAX25Y25*%
%IPPOS*%
%LPD*%
%AMOC8*
5,1,8,0,0,1.08239X$1,22.5*
%
%ADD10C,0.00000*%
%ADD11R,0.02874X0.01102*%
%ADD12R,0.01102X0.02874*%
%ADD13R,0.09843X0.09843*%
%ADD14R,0.04331X0.05512*%
%ADD15R,0.04724X0.04724*%
%ADD16R,0.05512X0.04331*%
%ADD17R,0.03937X0.18110*%
%ADD18R,0.06299X0.13386*%
%ADD19C,0.01200*%
%ADD20OC8,0.06600*%
%ADD21R,0.05512X0.04724*%
%ADD22C,0.10000*%
%ADD23OC8,0.10000*%
%ADD24R,0.05512X0.05512*%
%ADD25R,0.06299X0.05118*%
%ADD26C,0.03937*%
%ADD27C,0.13843*%
%ADD28R,0.10630X0.10630*%
%ADD29C,0.01378*%
%ADD30C,0.02975*%
%ADD31R,0.07874X0.19685*%
%ADD32R,0.05118X0.05906*%
%ADD33R,0.05906X0.05118*%
%ADD34C,0.08600*%
%ADD35C,0.05610*%
%ADD36C,0.13055*%
%ADD37R,0.04724X0.05906*%
%ADD38R,0.04724X0.05118*%
%ADD39R,0.03937X0.05512*%
%ADD40R,0.10630X0.06299*%
%ADD41C,0.06600*%
%ADD42C,0.01000*%
%ADD43C,0.01600*%
%ADD44C,0.03369*%
%ADD45C,0.03200*%
%ADD46C,0.02400*%
%ADD47C,0.04000*%
%ADD48C,0.02000*%
%ADD49C,0.05000*%
%ADD50C,0.03762*%
%ADD51C,0.02950*%
%ADD52C,0.02778*%
%ADD53C,0.04134*%
D10*
X0023311Y0030790D02*
X0309854Y0030790D01*
X0309855Y0030790D02*
X0310259Y0030797D01*
X0310663Y0030814D01*
X0311066Y0030840D01*
X0311469Y0030876D01*
X0311871Y0030922D01*
X0312271Y0030978D01*
X0312670Y0031043D01*
X0313067Y0031118D01*
X0313463Y0031202D01*
X0313856Y0031296D01*
X0314247Y0031400D01*
X0314635Y0031512D01*
X0315020Y0031635D01*
X0315402Y0031766D01*
X0315781Y0031907D01*
X0316157Y0032056D01*
X0316529Y0032215D01*
X0316897Y0032383D01*
X0317260Y0032559D01*
X0317619Y0032745D01*
X0317974Y0032939D01*
X0318324Y0033141D01*
X0318669Y0033352D01*
X0319009Y0033571D01*
X0319343Y0033798D01*
X0319672Y0034034D01*
X0319995Y0034277D01*
X0320312Y0034528D01*
X0320623Y0034786D01*
X0320927Y0035052D01*
X0321225Y0035325D01*
X0321516Y0035606D01*
X0321801Y0035893D01*
X0322078Y0036187D01*
X0322349Y0036488D01*
X0322611Y0036795D01*
X0322867Y0037108D01*
X0323115Y0037428D01*
X0323354Y0037753D01*
X0323586Y0038084D01*
X0323810Y0038421D01*
X0324026Y0038762D01*
X0324234Y0039109D01*
X0324433Y0039461D01*
X0324623Y0039818D01*
X0324805Y0040179D01*
X0324978Y0040544D01*
X0325142Y0040914D01*
X0325297Y0041287D01*
X0325443Y0041664D01*
X0325580Y0042045D01*
X0325708Y0042428D01*
X0325826Y0042815D01*
X0325935Y0043204D01*
X0326034Y0043596D01*
X0326125Y0043990D01*
X0326205Y0044386D01*
X0326276Y0044784D01*
X0326337Y0045184D01*
X0326389Y0045585D01*
X0326431Y0045987D01*
X0326463Y0046390D01*
X0326485Y0046793D01*
X0326498Y0047197D01*
X0326501Y0047602D01*
X0326500Y0047601D02*
X0326665Y0144086D01*
X0326665Y0144085D02*
X0326657Y0144619D01*
X0326636Y0145153D01*
X0326602Y0145686D01*
X0326555Y0146218D01*
X0326495Y0146748D01*
X0326422Y0147277D01*
X0326336Y0147804D01*
X0326236Y0148329D01*
X0326125Y0148851D01*
X0326000Y0149370D01*
X0325863Y0149886D01*
X0325713Y0150399D01*
X0325550Y0150908D01*
X0325375Y0151412D01*
X0325188Y0151912D01*
X0324988Y0152408D01*
X0324777Y0152898D01*
X0324553Y0153383D01*
X0324318Y0153862D01*
X0324071Y0154335D01*
X0323812Y0154803D01*
X0323542Y0155263D01*
X0323261Y0155717D01*
X0322969Y0156164D01*
X0322665Y0156604D01*
X0322351Y0157036D01*
X0322027Y0157460D01*
X0321692Y0157876D01*
X0321348Y0158284D01*
X0320993Y0158683D01*
X0320628Y0159073D01*
X0320255Y0159455D01*
X0319871Y0159827D01*
X0319479Y0160189D01*
X0319078Y0160542D01*
X0318669Y0160885D01*
X0318251Y0161217D01*
X0317825Y0161540D01*
X0317392Y0161852D01*
X0316951Y0162153D01*
X0316503Y0162443D01*
X0316047Y0162722D01*
X0315585Y0162989D01*
X0315117Y0163246D01*
X0314642Y0163491D01*
X0314162Y0163724D01*
X0313676Y0163945D01*
X0313184Y0164154D01*
X0312688Y0164351D01*
X0312187Y0164536D01*
X0311682Y0164708D01*
X0311172Y0164868D01*
X0310659Y0165016D01*
X0310142Y0165151D01*
X0309622Y0165273D01*
X0309100Y0165382D01*
X0308574Y0165479D01*
X0308047Y0165562D01*
X0307518Y0165633D01*
X0306987Y0165690D01*
X0306455Y0165735D01*
X0305922Y0165766D01*
X0305388Y0165785D01*
X0304854Y0165790D01*
X0018311Y0165790D01*
X0017900Y0165786D01*
X0017489Y0165772D01*
X0017078Y0165748D01*
X0016668Y0165714D01*
X0016259Y0165670D01*
X0015852Y0165616D01*
X0015445Y0165552D01*
X0015041Y0165478D01*
X0014638Y0165394D01*
X0014238Y0165301D01*
X0013840Y0165197D01*
X0013444Y0165084D01*
X0013052Y0164961D01*
X0012662Y0164828D01*
X0012276Y0164686D01*
X0011894Y0164535D01*
X0011516Y0164374D01*
X0011141Y0164204D01*
X0010771Y0164024D01*
X0010405Y0163836D01*
X0010044Y0163639D01*
X0009688Y0163433D01*
X0009337Y0163218D01*
X0008992Y0162995D01*
X0008652Y0162764D01*
X0008318Y0162524D01*
X0007990Y0162276D01*
X0007668Y0162020D01*
X0007352Y0161756D01*
X0007043Y0161484D01*
X0006741Y0161206D01*
X0006446Y0160919D01*
X0006158Y0160626D01*
X0005877Y0160325D01*
X0005603Y0160018D01*
X0005338Y0159704D01*
X0005080Y0159384D01*
X0004830Y0159057D01*
X0004588Y0158725D01*
X0004354Y0158386D01*
X0004128Y0158042D01*
X0003912Y0157693D01*
X0003703Y0157338D01*
X0003504Y0156979D01*
X0003313Y0156614D01*
X0003132Y0156245D01*
X0002959Y0155872D01*
X0002796Y0155494D01*
X0002642Y0155113D01*
X0002498Y0154728D01*
X0002363Y0154339D01*
X0002237Y0153947D01*
X0002121Y0153553D01*
X0002015Y0153155D01*
X0001919Y0152756D01*
X0001832Y0152353D01*
X0001756Y0151949D01*
X0001689Y0151543D01*
X0001633Y0151136D01*
X0001586Y0150727D01*
X0001549Y0150318D01*
X0001523Y0149907D01*
X0001506Y0149496D01*
X0001500Y0149085D01*
X0001500Y0149086D02*
X0001500Y0047601D01*
X0001566Y0047135D01*
X0001643Y0046671D01*
X0001732Y0046209D01*
X0001832Y0045749D01*
X0001942Y0045292D01*
X0002064Y0044837D01*
X0002197Y0044386D01*
X0002340Y0043937D01*
X0002495Y0043493D01*
X0002660Y0043052D01*
X0002835Y0042616D01*
X0003021Y0042184D01*
X0003218Y0041756D01*
X0003425Y0041333D01*
X0003642Y0040916D01*
X0003869Y0040504D01*
X0004105Y0040097D01*
X0004352Y0039696D01*
X0004608Y0039302D01*
X0004874Y0038913D01*
X0005149Y0038531D01*
X0005433Y0038156D01*
X0005726Y0037788D01*
X0006028Y0037427D01*
X0006339Y0037074D01*
X0006658Y0036728D01*
X0006985Y0036390D01*
X0007320Y0036060D01*
X0007664Y0035738D01*
X0008014Y0035424D01*
X0008373Y0035119D01*
X0008738Y0034823D01*
X0009111Y0034536D01*
X0009491Y0034258D01*
X0009877Y0033989D01*
X0010269Y0033729D01*
X0010668Y0033479D01*
X0011073Y0033239D01*
X0011483Y0033009D01*
X0011899Y0032788D01*
X0012320Y0032578D01*
X0012745Y0032378D01*
X0013176Y0032188D01*
X0013611Y0032009D01*
X0014050Y0031840D01*
X0014494Y0031682D01*
X0014941Y0031535D01*
X0015391Y0031399D01*
X0015844Y0031273D01*
X0016301Y0031159D01*
X0016760Y0031055D01*
X0017221Y0030963D01*
X0017685Y0030882D01*
X0018150Y0030812D01*
X0018617Y0030753D01*
X0019085Y0030706D01*
X0019554Y0030670D01*
X0020024Y0030645D01*
X0020495Y0030632D01*
X0020965Y0030630D01*
X0021436Y0030639D01*
X0021906Y0030660D01*
X0022375Y0030692D01*
X0022844Y0030735D01*
X0023311Y0030790D01*
D11*
X0075264Y0102853D03*
X0075264Y0104822D03*
X0075264Y0106790D03*
X0075264Y0108759D03*
X0075264Y0110727D03*
X0090736Y0110727D03*
X0090736Y0108759D03*
X0090736Y0106790D03*
X0090736Y0104822D03*
X0090736Y0102853D03*
X0180264Y0102853D03*
X0180264Y0104822D03*
X0180264Y0106790D03*
X0180264Y0108759D03*
X0180264Y0110727D03*
X0195736Y0110727D03*
X0195736Y0108759D03*
X0195736Y0106790D03*
X0195736Y0104822D03*
X0195736Y0102853D03*
D12*
X0191937Y0099054D03*
X0189969Y0099054D03*
X0188000Y0099054D03*
X0186031Y0099054D03*
X0184063Y0099054D03*
X0184063Y0114526D03*
X0186031Y0114526D03*
X0188000Y0114526D03*
X0189969Y0114526D03*
X0191937Y0114526D03*
X0086937Y0114526D03*
X0084969Y0114526D03*
X0083000Y0114526D03*
X0081031Y0114526D03*
X0079063Y0114526D03*
X0079063Y0099054D03*
X0081031Y0099054D03*
X0083000Y0099054D03*
X0084969Y0099054D03*
X0086937Y0099054D03*
D13*
X0083000Y0106790D03*
X0188000Y0106790D03*
D14*
X0190185Y0080601D03*
X0182311Y0080601D03*
X0200874Y0080601D03*
X0208748Y0080601D03*
X0160937Y0079790D03*
X0153063Y0079790D03*
X0103748Y0080601D03*
X0095874Y0080601D03*
X0085185Y0080601D03*
X0077311Y0080601D03*
X0055937Y0079790D03*
X0048063Y0079790D03*
X0047126Y0127034D03*
X0055000Y0127034D03*
D15*
X0040197Y0138534D03*
X0031929Y0138534D03*
X0146929Y0138490D03*
X0155197Y0138490D03*
X0182000Y0067424D03*
X0182000Y0059156D03*
X0211000Y0059156D03*
X0211000Y0067424D03*
X0293134Y0062916D03*
X0301402Y0062916D03*
X0106000Y0059156D03*
X0106000Y0067424D03*
X0077000Y0067424D03*
X0077000Y0059156D03*
D16*
X0086000Y0059353D03*
X0096000Y0059353D03*
X0096000Y0067227D03*
X0086000Y0067227D03*
X0112100Y0044127D03*
X0112100Y0036253D03*
X0191000Y0059353D03*
X0201000Y0059353D03*
X0201000Y0067227D03*
X0191000Y0067227D03*
X0229700Y0085053D03*
X0229700Y0092927D03*
X0213500Y0093664D03*
X0213500Y0101538D03*
X0165500Y0104349D03*
X0165500Y0096475D03*
X0108500Y0093664D03*
X0108500Y0101538D03*
X0060500Y0104349D03*
X0060500Y0096475D03*
X0139044Y0130790D03*
X0139044Y0138664D03*
D17*
X0152563Y0064357D03*
X0160437Y0064357D03*
X0055437Y0064357D03*
X0047563Y0064357D03*
D18*
X0038114Y0043885D03*
X0064886Y0043885D03*
X0143114Y0043885D03*
X0169886Y0043885D03*
D19*
X0142900Y0076712D02*
X0142900Y0092853D01*
X0129500Y0092853D02*
X0129500Y0076712D01*
X0129500Y0101121D02*
X0129500Y0114507D01*
X0142900Y0114507D02*
X0142900Y0101121D01*
X0037700Y0101121D02*
X0037700Y0114507D01*
X0024500Y0114507D02*
X0024500Y0101121D01*
X0024500Y0092853D02*
X0024500Y0076712D01*
X0037700Y0076712D02*
X0037700Y0092853D01*
X0260000Y0087133D02*
X0260000Y0084290D01*
X0260000Y0087133D02*
X0263787Y0087133D01*
D20*
X0142900Y0076790D03*
X0129500Y0076790D03*
X0129500Y0116790D03*
X0142900Y0116790D03*
X0037700Y0116790D03*
X0024500Y0116790D03*
X0024500Y0076790D03*
X0037700Y0076790D03*
D21*
X0037700Y0092753D03*
X0024500Y0092753D03*
X0024500Y0100827D03*
X0037700Y0100827D03*
X0129500Y0100827D03*
X0142900Y0100827D03*
X0142900Y0092753D03*
X0129500Y0092753D03*
D22*
X0102000Y0141790D03*
X0177000Y0141790D03*
D23*
X0197000Y0141790D03*
X0122000Y0141790D03*
D24*
X0087500Y0138574D03*
X0087500Y0124007D03*
X0228800Y0065374D03*
X0228800Y0050807D03*
X0203783Y0050790D03*
X0189217Y0050790D03*
D25*
X0155500Y0089050D03*
X0155500Y0096530D03*
X0155500Y0106450D03*
X0155500Y0113930D03*
X0050500Y0115530D03*
X0050500Y0108050D03*
X0050500Y0096530D03*
X0050500Y0089050D03*
D26*
X0026500Y0060790D03*
X0286500Y0154790D03*
D27*
X0311500Y0150790D03*
X0311500Y0045790D03*
X0016500Y0045790D03*
X0016500Y0150790D03*
D28*
X0272055Y0090971D03*
D29*
X0265165Y0089692D02*
X0262409Y0089692D01*
X0262409Y0087133D02*
X0265165Y0087133D01*
X0265165Y0092251D02*
X0262409Y0092251D01*
X0262409Y0094810D02*
X0265165Y0094810D01*
X0268217Y0097861D02*
X0268217Y0100617D01*
X0270776Y0100617D02*
X0270776Y0097861D01*
X0273335Y0097861D02*
X0273335Y0100617D01*
X0275894Y0100617D02*
X0275894Y0097861D01*
X0278945Y0094810D02*
X0281701Y0094810D01*
X0281701Y0092251D02*
X0278945Y0092251D01*
X0278945Y0089692D02*
X0281701Y0089692D01*
X0281701Y0087133D02*
X0278945Y0087133D01*
X0275894Y0084082D02*
X0275894Y0081326D01*
X0273335Y0081326D02*
X0273335Y0084082D01*
X0270776Y0084082D02*
X0270776Y0081326D01*
X0268217Y0081326D02*
X0268217Y0084082D01*
D30*
X0268512Y0087428D03*
X0272055Y0090971D03*
X0275598Y0087428D03*
X0275598Y0094515D03*
X0268512Y0094515D03*
D31*
X0266272Y0113404D03*
X0278870Y0113404D03*
D32*
X0257240Y0115790D03*
X0249760Y0115790D03*
X0290760Y0131790D03*
X0298240Y0131790D03*
X0304260Y0134290D03*
X0311740Y0134290D03*
D33*
X0288500Y0122030D03*
X0288500Y0114550D03*
X0288626Y0107771D03*
X0288626Y0100290D03*
X0288697Y0093534D03*
X0288697Y0086054D03*
X0289500Y0078530D03*
X0289500Y0071050D03*
X0269000Y0069050D03*
X0262000Y0071050D03*
X0269000Y0076530D03*
X0262000Y0078530D03*
X0251870Y0082046D03*
X0251870Y0089526D03*
X0238874Y0117495D03*
X0238874Y0124975D03*
D34*
X0310000Y0104127D03*
X0310000Y0090347D03*
X0071303Y0144963D03*
X0057524Y0144963D03*
D35*
X0296526Y0110820D02*
X0302136Y0110820D01*
X0302136Y0100977D02*
X0296526Y0100977D01*
X0296526Y0093103D02*
X0302136Y0093103D01*
X0302136Y0083261D02*
X0296526Y0083261D01*
D36*
X0310000Y0071174D03*
X0310000Y0122906D03*
D37*
X0255634Y0068290D03*
X0247366Y0068290D03*
D38*
X0249500Y0100790D03*
X0257500Y0100790D03*
X0257500Y0108290D03*
X0249500Y0108290D03*
D39*
X0238340Y0102066D03*
X0230860Y0102066D03*
X0234600Y0111515D03*
D40*
X0279500Y0076302D03*
X0279500Y0065278D03*
D41*
X0282000Y0035790D03*
X0272000Y0035790D03*
X0262000Y0035790D03*
X0252000Y0035790D03*
X0242000Y0035790D03*
X0232000Y0035790D03*
X0222000Y0035790D03*
X0292000Y0035790D03*
D42*
X0296800Y0035783D02*
X0318632Y0035783D01*
X0318795Y0035878D02*
X0315475Y0033939D01*
X0311766Y0032926D01*
X0309845Y0032790D01*
X0295788Y0032790D01*
X0296069Y0033071D01*
X0296800Y0034835D01*
X0296800Y0036745D01*
X0296069Y0038509D01*
X0294719Y0039859D01*
X0292955Y0040590D01*
X0291045Y0040590D01*
X0289281Y0039859D01*
X0287931Y0038509D01*
X0287200Y0036745D01*
X0287200Y0034835D01*
X0287931Y0033071D01*
X0288212Y0032790D01*
X0285753Y0032790D01*
X0286105Y0033275D01*
X0286448Y0033948D01*
X0286682Y0034666D01*
X0286783Y0035306D01*
X0282484Y0035306D01*
X0282484Y0036275D01*
X0281516Y0036275D01*
X0281516Y0040573D01*
X0280876Y0040472D01*
X0280157Y0040239D01*
X0279484Y0039896D01*
X0278873Y0039451D01*
X0278339Y0038917D01*
X0277895Y0038306D01*
X0277552Y0037633D01*
X0277318Y0036914D01*
X0277217Y0036275D01*
X0281516Y0036275D01*
X0281516Y0035306D01*
X0277217Y0035306D01*
X0277318Y0034666D01*
X0277552Y0033948D01*
X0277895Y0033275D01*
X0278247Y0032790D01*
X0275788Y0032790D01*
X0276069Y0033071D01*
X0276800Y0034835D01*
X0276800Y0036745D01*
X0276069Y0038509D01*
X0274719Y0039859D01*
X0272955Y0040590D01*
X0271045Y0040590D01*
X0269281Y0039859D01*
X0267931Y0038509D01*
X0267200Y0036745D01*
X0267200Y0034835D01*
X0267931Y0033071D01*
X0268212Y0032790D01*
X0265753Y0032790D01*
X0266105Y0033275D01*
X0266448Y0033948D01*
X0266682Y0034666D01*
X0266783Y0035306D01*
X0262484Y0035306D01*
X0262484Y0036275D01*
X0261516Y0036275D01*
X0261516Y0040573D01*
X0260876Y0040472D01*
X0260157Y0040239D01*
X0259484Y0039896D01*
X0258873Y0039451D01*
X0258339Y0038917D01*
X0257895Y0038306D01*
X0257552Y0037633D01*
X0257318Y0036914D01*
X0257217Y0036275D01*
X0261516Y0036275D01*
X0261516Y0035306D01*
X0257217Y0035306D01*
X0257318Y0034666D01*
X0257552Y0033948D01*
X0257895Y0033275D01*
X0258247Y0032790D01*
X0255788Y0032790D01*
X0256069Y0033071D01*
X0256800Y0034835D01*
X0256800Y0036745D01*
X0256069Y0038509D01*
X0254719Y0039859D01*
X0253884Y0040205D01*
X0253500Y0054816D01*
X0253500Y0063838D01*
X0255134Y0063837D01*
X0255134Y0067790D01*
X0256134Y0067790D01*
X0256134Y0063838D01*
X0258194Y0063838D01*
X0258575Y0063940D01*
X0258917Y0064137D01*
X0259196Y0064416D01*
X0259394Y0064759D01*
X0259496Y0065140D01*
X0259496Y0066991D01*
X0261500Y0066991D01*
X0261500Y0070550D01*
X0262500Y0070550D01*
X0262500Y0066991D01*
X0264547Y0066991D01*
X0264547Y0065870D01*
X0265426Y0064991D01*
X0272574Y0064991D01*
X0273361Y0065778D01*
X0279000Y0065778D01*
X0279000Y0064778D01*
X0280000Y0064778D01*
X0280000Y0060629D01*
X0285012Y0060629D01*
X0285394Y0060731D01*
X0285736Y0060929D01*
X0286015Y0061208D01*
X0286213Y0061550D01*
X0286315Y0061931D01*
X0286315Y0064778D01*
X0280000Y0064778D01*
X0280000Y0065778D01*
X0286315Y0065778D01*
X0286315Y0066991D01*
X0289997Y0066991D01*
X0290073Y0066701D01*
X0289272Y0065900D01*
X0289272Y0059933D01*
X0290150Y0059054D01*
X0296117Y0059054D01*
X0296996Y0059933D01*
X0296996Y0065900D01*
X0296117Y0066778D01*
X0294188Y0066778D01*
X0293913Y0067830D01*
X0293953Y0067870D01*
X0293953Y0073790D01*
X0300380Y0073790D01*
X0301084Y0073706D01*
X0301192Y0073790D01*
X0301328Y0073790D01*
X0301830Y0074291D01*
X0302975Y0075191D01*
X0301972Y0072771D01*
X0301972Y0069577D01*
X0303132Y0066778D01*
X0301902Y0066778D01*
X0301902Y0063416D01*
X0305264Y0063416D01*
X0305264Y0064558D01*
X0305453Y0064369D01*
X0308403Y0063147D01*
X0311597Y0063147D01*
X0314547Y0064369D01*
X0316805Y0066627D01*
X0318028Y0069577D01*
X0318028Y0072771D01*
X0316805Y0075721D01*
X0314547Y0077980D01*
X0311597Y0079202D01*
X0308403Y0079202D01*
X0307717Y0078918D01*
X0308192Y0079290D01*
X0316328Y0079290D01*
X0317500Y0080462D01*
X0317500Y0095119D01*
X0316328Y0096290D01*
X0307972Y0096290D01*
X0307653Y0096450D01*
X0307175Y0096290D01*
X0306672Y0096290D01*
X0306420Y0096038D01*
X0306082Y0095926D01*
X0305856Y0095475D01*
X0305826Y0095445D01*
X0305786Y0095542D01*
X0304574Y0096753D01*
X0303881Y0097040D01*
X0304574Y0097328D01*
X0305786Y0098539D01*
X0306257Y0099677D01*
X0306960Y0099166D01*
X0307774Y0098752D01*
X0308642Y0098470D01*
X0309516Y0098331D01*
X0309516Y0103643D01*
X0310484Y0103643D01*
X0310484Y0104611D01*
X0309516Y0104611D01*
X0309516Y0109922D01*
X0309500Y0109920D01*
X0309500Y0114119D01*
X0308740Y0114879D01*
X0311597Y0114879D01*
X0314547Y0116101D01*
X0316805Y0118359D01*
X0318028Y0121310D01*
X0318028Y0124503D01*
X0316805Y0127454D01*
X0314547Y0129712D01*
X0314244Y0129838D01*
X0314497Y0129838D01*
X0314878Y0129940D01*
X0315220Y0130137D01*
X0315499Y0130416D01*
X0315697Y0130759D01*
X0315799Y0131140D01*
X0315799Y0133790D01*
X0312240Y0133790D01*
X0312240Y0134790D01*
X0315799Y0134790D01*
X0315799Y0137441D01*
X0315697Y0137822D01*
X0315499Y0138164D01*
X0315220Y0138443D01*
X0314878Y0138641D01*
X0314497Y0138743D01*
X0312240Y0138743D01*
X0312240Y0134790D01*
X0311240Y0134790D01*
X0311240Y0138743D01*
X0308984Y0138743D01*
X0308602Y0138641D01*
X0308260Y0138443D01*
X0308000Y0138183D01*
X0307440Y0138743D01*
X0301079Y0138743D01*
X0300201Y0137864D01*
X0300201Y0136243D01*
X0295060Y0136243D01*
X0294500Y0135683D01*
X0293940Y0136243D01*
X0287579Y0136243D01*
X0286701Y0135364D01*
X0286701Y0128216D01*
X0287579Y0127338D01*
X0290124Y0127338D01*
X0291025Y0126437D01*
X0291025Y0126144D01*
X0290971Y0126089D01*
X0284926Y0126089D01*
X0284047Y0125211D01*
X0284047Y0125071D01*
X0283828Y0125290D01*
X0274672Y0125290D01*
X0273500Y0124119D01*
X0273500Y0123935D01*
X0273433Y0123868D01*
X0273433Y0102941D01*
X0273568Y0102806D01*
X0273335Y0102806D01*
X0273335Y0099239D01*
X0273335Y0099239D01*
X0275894Y0099239D01*
X0275894Y0094810D01*
X0275598Y0094515D01*
X0274000Y0093290D02*
X0273335Y0093956D01*
X0273335Y0099239D01*
X0273705Y0099239D01*
X0275894Y0099239D01*
X0275894Y0099239D01*
X0273335Y0099239D02*
X0273335Y0099239D01*
X0273335Y0102806D01*
X0273046Y0102806D01*
X0272490Y0102657D01*
X0272055Y0102406D01*
X0271620Y0102657D01*
X0271466Y0102698D01*
X0271709Y0102941D01*
X0271709Y0103735D01*
X0272144Y0104606D01*
X0272500Y0104962D01*
X0272500Y0105318D01*
X0272659Y0105637D01*
X0272500Y0106115D01*
X0272500Y0124619D01*
X0271328Y0125790D01*
X0261172Y0125790D01*
X0260000Y0124619D01*
X0260000Y0121790D01*
X0252672Y0121790D01*
X0251500Y0120619D01*
X0251500Y0120243D01*
X0250260Y0120243D01*
X0250260Y0116290D01*
X0249260Y0116290D01*
X0249260Y0115290D01*
X0245701Y0115290D01*
X0245701Y0113319D01*
X0245000Y0112619D01*
X0245000Y0110131D01*
X0242348Y0107479D01*
X0241364Y0106495D01*
X0241186Y0106066D01*
X0240930Y0106322D01*
X0235750Y0106322D01*
X0234872Y0105443D01*
X0234872Y0100937D01*
X0234328Y0101469D01*
X0234328Y0105443D01*
X0233450Y0106322D01*
X0228270Y0106322D01*
X0227391Y0105443D01*
X0227391Y0098689D01*
X0225900Y0098689D01*
X0225900Y0097691D02*
X0232470Y0097691D01*
X0232348Y0097810D02*
X0237501Y0092765D01*
X0237514Y0075712D01*
X0237378Y0075575D01*
X0236925Y0074482D01*
X0236925Y0073298D01*
X0237378Y0072205D01*
X0238215Y0071368D01*
X0239308Y0070915D01*
X0240492Y0070915D01*
X0241585Y0071368D01*
X0242422Y0072205D01*
X0242875Y0073298D01*
X0242875Y0074482D01*
X0242422Y0075575D01*
X0241585Y0076412D01*
X0241514Y0076442D01*
X0241506Y0085459D01*
X0242348Y0084617D01*
X0243000Y0083965D01*
X0243000Y0054307D01*
X0232933Y0054307D01*
X0232177Y0055063D01*
X0225423Y0055063D01*
X0224660Y0054300D01*
X0218511Y0054290D01*
X0212628Y0054290D01*
X0213000Y0054662D01*
X0213000Y0055294D01*
X0213984Y0055294D01*
X0214862Y0056173D01*
X0214862Y0062140D01*
X0213984Y0063019D01*
X0208016Y0063019D01*
X0207138Y0062140D01*
X0207138Y0057490D01*
X0205256Y0057490D01*
X0205256Y0062140D01*
X0204377Y0063019D01*
X0197623Y0063019D01*
X0197500Y0062896D01*
X0197500Y0063685D01*
X0197623Y0063562D01*
X0204377Y0063562D01*
X0205256Y0064441D01*
X0205256Y0065227D01*
X0207138Y0065227D01*
X0207138Y0064441D01*
X0208016Y0063562D01*
X0213984Y0063562D01*
X0214862Y0064441D01*
X0214862Y0070408D01*
X0214616Y0070654D01*
X0221938Y0077976D01*
X0222522Y0078338D01*
X0222590Y0078627D01*
X0222800Y0078838D01*
X0222800Y0079524D01*
X0224032Y0084778D01*
X0224383Y0084923D01*
X0225367Y0085908D01*
X0225444Y0086093D01*
X0225444Y0082267D01*
X0226200Y0081511D01*
X0226200Y0079473D01*
X0225640Y0077483D01*
X0225233Y0076500D01*
X0225233Y0075081D01*
X0225300Y0074919D01*
X0225300Y0069507D01*
X0224544Y0068751D01*
X0224544Y0061996D01*
X0225423Y0061118D01*
X0232177Y0061118D01*
X0233056Y0061996D01*
X0233056Y0068751D01*
X0232300Y0069507D01*
X0232300Y0074919D01*
X0232367Y0075081D01*
X0232367Y0075545D01*
X0233013Y0077843D01*
X0233200Y0078294D01*
X0233200Y0078507D01*
X0233258Y0078713D01*
X0233200Y0079198D01*
X0233200Y0081511D01*
X0233956Y0082267D01*
X0233956Y0087840D01*
X0233077Y0088719D01*
X0226323Y0088719D01*
X0225900Y0088296D01*
X0225900Y0089685D01*
X0226023Y0089562D01*
X0226365Y0089364D01*
X0226747Y0089262D01*
X0229200Y0089262D01*
X0229200Y0092427D01*
X0230200Y0092427D01*
X0230200Y0089262D01*
X0232653Y0089262D01*
X0233035Y0089364D01*
X0233377Y0089562D01*
X0233656Y0089841D01*
X0233854Y0090183D01*
X0233956Y0090564D01*
X0233956Y0092427D01*
X0230200Y0092427D01*
X0230200Y0093427D01*
X0233956Y0093427D01*
X0233956Y0095290D01*
X0233854Y0095672D01*
X0233656Y0096014D01*
X0233377Y0096293D01*
X0233035Y0096490D01*
X0232653Y0096593D01*
X0230200Y0096593D01*
X0230200Y0093427D01*
X0229200Y0093427D01*
X0229200Y0096593D01*
X0226747Y0096593D01*
X0226365Y0096490D01*
X0226023Y0096293D01*
X0225900Y0096170D01*
X0225900Y0108429D01*
X0225907Y0108445D01*
X0225900Y0109124D01*
X0225900Y0109803D01*
X0225893Y0109820D01*
X0225893Y0109838D01*
X0225627Y0110462D01*
X0225367Y0111089D01*
X0225354Y0111102D01*
X0225347Y0111119D01*
X0224863Y0111594D01*
X0224383Y0112074D01*
X0224366Y0112081D01*
X0224353Y0112093D01*
X0223723Y0112347D01*
X0223096Y0112607D01*
X0223078Y0112607D01*
X0223062Y0112613D01*
X0222383Y0112607D01*
X0221704Y0112607D01*
X0221687Y0112600D01*
X0213719Y0112521D01*
X0209600Y0116640D01*
X0209600Y0119407D01*
X0209128Y0120546D01*
X0208256Y0121418D01*
X0207117Y0121890D01*
X0192000Y0121890D01*
X0192000Y0130119D01*
X0190828Y0131290D01*
X0185172Y0131290D01*
X0184000Y0130119D01*
X0184000Y0128014D01*
X0181000Y0128014D01*
X0181000Y0136598D01*
X0182510Y0138108D01*
X0183500Y0140497D01*
X0183500Y0143083D01*
X0182510Y0145472D01*
X0180682Y0147301D01*
X0178293Y0148290D01*
X0175707Y0148290D01*
X0173318Y0147301D01*
X0171490Y0145472D01*
X0170500Y0143083D01*
X0170500Y0140497D01*
X0171490Y0138108D01*
X0173000Y0136598D01*
X0173000Y0128022D01*
X0172228Y0128021D01*
X0172227Y0128021D01*
X0169022Y0128017D01*
X0166368Y0128017D01*
X0166361Y0128014D01*
X0165706Y0128014D01*
X0165704Y0128013D01*
X0165702Y0128013D01*
X0157944Y0128004D01*
X0143300Y0128004D01*
X0143300Y0133577D01*
X0142421Y0134456D01*
X0135667Y0134456D01*
X0134788Y0133577D01*
X0134788Y0128005D01*
X0128796Y0128007D01*
X0128020Y0128007D01*
X0127206Y0128007D01*
X0127205Y0128007D01*
X0105500Y0128007D01*
X0105500Y0136204D01*
X0105682Y0136280D01*
X0107510Y0138108D01*
X0108500Y0140497D01*
X0108500Y0143083D01*
X0107510Y0145472D01*
X0105682Y0147301D01*
X0103293Y0148290D01*
X0100707Y0148290D01*
X0098318Y0147301D01*
X0096490Y0145472D01*
X0095500Y0143083D01*
X0095500Y0140497D01*
X0096490Y0138108D01*
X0097500Y0137098D01*
X0097500Y0128007D01*
X0091133Y0128007D01*
X0090877Y0128263D01*
X0087000Y0128263D01*
X0087000Y0130119D01*
X0085828Y0131290D01*
X0080172Y0131290D01*
X0079000Y0130119D01*
X0079000Y0126490D01*
X0063684Y0126490D01*
X0060512Y0129662D01*
X0059373Y0130134D01*
X0058665Y0130134D01*
X0058665Y0130412D01*
X0057787Y0131290D01*
X0052213Y0131290D01*
X0051335Y0130412D01*
X0051335Y0123657D01*
X0052213Y0122778D01*
X0057787Y0122778D01*
X0058207Y0123199D01*
X0058837Y0122569D01*
X0058837Y0108015D01*
X0057123Y0108015D01*
X0056244Y0107136D01*
X0056244Y0101563D01*
X0057123Y0100684D01*
X0063877Y0100684D01*
X0064756Y0101563D01*
X0064756Y0102690D01*
X0072272Y0102690D01*
X0064756Y0095174D01*
X0064756Y0095975D01*
X0061000Y0095975D01*
X0061000Y0092810D01*
X0062392Y0092810D01*
X0061672Y0092089D01*
X0060500Y0090918D01*
X0060500Y0087790D01*
X0055150Y0087790D01*
X0055150Y0092230D01*
X0054590Y0092790D01*
X0055150Y0093350D01*
X0055150Y0099711D01*
X0054271Y0100589D01*
X0052500Y0100589D01*
X0052500Y0103991D01*
X0054271Y0103991D01*
X0055150Y0104870D01*
X0055150Y0111230D01*
X0054590Y0111790D01*
X0054850Y0112050D01*
X0055047Y0112392D01*
X0055150Y0112774D01*
X0055150Y0115030D01*
X0051000Y0115030D01*
X0051000Y0116030D01*
X0055150Y0116030D01*
X0055150Y0118287D01*
X0055047Y0118668D01*
X0054850Y0119010D01*
X0054571Y0119290D01*
X0054229Y0119487D01*
X0053847Y0119589D01*
X0051000Y0119589D01*
X0051000Y0116030D01*
X0050000Y0116030D01*
X0050000Y0115030D01*
X0045850Y0115030D01*
X0045850Y0112774D01*
X0045953Y0112392D01*
X0046150Y0112050D01*
X0046410Y0111790D01*
X0045850Y0111230D01*
X0045850Y0104870D01*
X0046729Y0103991D01*
X0048500Y0103991D01*
X0048500Y0100589D01*
X0046729Y0100589D01*
X0045850Y0099711D01*
X0045850Y0098542D01*
X0045464Y0098695D01*
X0045085Y0098530D01*
X0044672Y0098530D01*
X0044355Y0098214D01*
X0043944Y0098036D01*
X0043792Y0097651D01*
X0043500Y0097359D01*
X0043500Y0096911D01*
X0041956Y0093003D01*
X0041956Y0095737D01*
X0041077Y0096615D01*
X0034323Y0096615D01*
X0033444Y0095737D01*
X0033444Y0089770D01*
X0034323Y0088891D01*
X0035600Y0088891D01*
X0035600Y0081478D01*
X0032900Y0078778D01*
X0032900Y0074802D01*
X0035712Y0071990D01*
X0039688Y0071990D01*
X0042500Y0074802D01*
X0042500Y0078778D01*
X0041164Y0080114D01*
X0045850Y0091975D01*
X0045850Y0085870D01*
X0046729Y0084991D01*
X0051471Y0084991D01*
X0052672Y0083790D01*
X0052927Y0083790D01*
X0052851Y0083746D01*
X0052571Y0083467D01*
X0052374Y0083125D01*
X0052272Y0082744D01*
X0052272Y0080290D01*
X0055437Y0080290D01*
X0055437Y0079290D01*
X0056437Y0079290D01*
X0056437Y0075534D01*
X0058300Y0075534D01*
X0058681Y0075637D01*
X0059023Y0075834D01*
X0059303Y0076113D01*
X0059500Y0076455D01*
X0059602Y0076837D01*
X0059602Y0079290D01*
X0056437Y0079290D01*
X0056437Y0080290D01*
X0059602Y0080290D01*
X0059602Y0082744D01*
X0059500Y0083125D01*
X0059303Y0083467D01*
X0059023Y0083746D01*
X0058947Y0083790D01*
X0062328Y0083790D01*
X0063500Y0084962D01*
X0064163Y0085624D01*
X0064696Y0085091D01*
X0065867Y0084606D01*
X0067133Y0084606D01*
X0068304Y0085091D01*
X0068500Y0085287D01*
X0068500Y0058462D01*
X0069000Y0057962D01*
X0069000Y0051734D01*
X0068657Y0052078D01*
X0061115Y0052078D01*
X0060236Y0051199D01*
X0060236Y0036571D01*
X0061115Y0035692D01*
X0068657Y0035692D01*
X0069535Y0036571D01*
X0069535Y0038426D01*
X0070172Y0037790D01*
X0070500Y0037462D01*
X0071672Y0036290D01*
X0094828Y0036290D01*
X0108000Y0049462D01*
X0108000Y0055294D01*
X0108984Y0055294D01*
X0109862Y0056173D01*
X0109862Y0062140D01*
X0108984Y0063019D01*
X0103016Y0063019D01*
X0102138Y0062140D01*
X0102138Y0056173D01*
X0103016Y0055294D01*
X0104000Y0055294D01*
X0104000Y0051119D01*
X0093172Y0040290D01*
X0073328Y0040290D01*
X0073000Y0040619D01*
X0073000Y0057290D01*
X0073138Y0057290D01*
X0073138Y0056173D01*
X0074016Y0055294D01*
X0079984Y0055294D01*
X0080862Y0056173D01*
X0080862Y0062140D01*
X0079984Y0063019D01*
X0075000Y0063019D01*
X0075000Y0063562D01*
X0079984Y0063562D01*
X0080862Y0064441D01*
X0080862Y0065424D01*
X0081744Y0065424D01*
X0081744Y0064441D01*
X0082623Y0063562D01*
X0088500Y0063562D01*
X0088500Y0063019D01*
X0082623Y0063019D01*
X0081744Y0062140D01*
X0081744Y0056567D01*
X0082623Y0055688D01*
X0089377Y0055688D01*
X0090256Y0056567D01*
X0090256Y0057353D01*
X0091744Y0057353D01*
X0091744Y0056567D01*
X0092623Y0055688D01*
X0099377Y0055688D01*
X0100256Y0056567D01*
X0100256Y0062140D01*
X0099377Y0063019D01*
X0092623Y0063019D01*
X0092500Y0062896D01*
X0092500Y0063685D01*
X0092623Y0063562D01*
X0099377Y0063562D01*
X0100256Y0064441D01*
X0100256Y0065227D01*
X0102138Y0065227D01*
X0102138Y0064441D01*
X0103016Y0063562D01*
X0108984Y0063562D01*
X0109862Y0064441D01*
X0109862Y0069790D01*
X0111247Y0069790D01*
X0111547Y0069490D01*
X0113453Y0069490D01*
X0116453Y0072490D01*
X0117800Y0073838D01*
X0117800Y0084690D01*
X0121117Y0084690D01*
X0122256Y0085162D01*
X0123128Y0086034D01*
X0123600Y0087174D01*
X0123600Y0109623D01*
X0123128Y0110763D01*
X0122256Y0111635D01*
X0121117Y0112107D01*
X0108568Y0112107D01*
X0104600Y0116074D01*
X0104600Y0119407D01*
X0104351Y0120007D01*
X0125928Y0120007D01*
X0124700Y0118778D01*
X0124700Y0117090D01*
X0129200Y0117090D01*
X0129200Y0116607D01*
X0128630Y0116607D01*
X0128514Y0116490D01*
X0124700Y0116490D01*
X0124700Y0114802D01*
X0127400Y0112102D01*
X0127400Y0104689D01*
X0126123Y0104689D01*
X0125244Y0103811D01*
X0125244Y0097844D01*
X0126123Y0096965D01*
X0132877Y0096965D01*
X0133756Y0097844D01*
X0133756Y0103811D01*
X0132877Y0104689D01*
X0131600Y0104689D01*
X0131600Y0112102D01*
X0134300Y0114802D01*
X0134300Y0116490D01*
X0130486Y0116490D01*
X0130370Y0116607D01*
X0129800Y0116607D01*
X0129800Y0117090D01*
X0134300Y0117090D01*
X0134300Y0118778D01*
X0133073Y0120005D01*
X0138201Y0120004D01*
X0138201Y0120004D01*
X0138975Y0120004D01*
X0139325Y0120004D01*
X0138100Y0118778D01*
X0138100Y0117090D01*
X0142600Y0117090D01*
X0142600Y0116607D01*
X0142030Y0116607D01*
X0141914Y0116490D01*
X0138100Y0116490D01*
X0138100Y0114802D01*
X0140800Y0112102D01*
X0140800Y0104689D01*
X0139523Y0104689D01*
X0138644Y0103811D01*
X0138644Y0097844D01*
X0139523Y0096965D01*
X0146277Y0096965D01*
X0147156Y0097844D01*
X0147156Y0103811D01*
X0146277Y0104689D01*
X0145000Y0104689D01*
X0145000Y0112102D01*
X0147700Y0114802D01*
X0147700Y0116490D01*
X0143886Y0116490D01*
X0143770Y0116607D01*
X0143200Y0116607D01*
X0143200Y0117090D01*
X0147700Y0117090D01*
X0147700Y0118778D01*
X0146475Y0120004D01*
X0157152Y0120004D01*
X0157155Y0120003D01*
X0157944Y0120004D01*
X0158741Y0120004D01*
X0158743Y0120005D01*
X0163837Y0120011D01*
X0163837Y0108015D01*
X0162123Y0108015D01*
X0161244Y0107136D01*
X0161244Y0101563D01*
X0162123Y0100684D01*
X0168877Y0100684D01*
X0169756Y0101563D01*
X0169756Y0102690D01*
X0177272Y0102690D01*
X0169756Y0095174D01*
X0169756Y0095975D01*
X0166000Y0095975D01*
X0166000Y0092810D01*
X0167392Y0092810D01*
X0166672Y0092089D01*
X0165500Y0090918D01*
X0165500Y0087790D01*
X0160150Y0087790D01*
X0160150Y0092230D01*
X0159590Y0092790D01*
X0160150Y0093350D01*
X0160150Y0099711D01*
X0159271Y0100589D01*
X0157500Y0100589D01*
X0157500Y0102391D01*
X0159271Y0102391D01*
X0160150Y0103270D01*
X0160150Y0109630D01*
X0159590Y0110190D01*
X0159850Y0110450D01*
X0160047Y0110792D01*
X0160150Y0111174D01*
X0160150Y0113430D01*
X0156000Y0113430D01*
X0156000Y0114430D01*
X0160150Y0114430D01*
X0160150Y0116687D01*
X0160047Y0117068D01*
X0159850Y0117410D01*
X0159571Y0117690D01*
X0159229Y0117887D01*
X0158847Y0117989D01*
X0156000Y0117989D01*
X0156000Y0114430D01*
X0155000Y0114430D01*
X0155000Y0113430D01*
X0150850Y0113430D01*
X0150850Y0111174D01*
X0150953Y0110792D01*
X0151150Y0110450D01*
X0151410Y0110190D01*
X0150850Y0109630D01*
X0150850Y0103270D01*
X0151729Y0102391D01*
X0153500Y0102391D01*
X0153500Y0100589D01*
X0151729Y0100589D01*
X0150850Y0099711D01*
X0150850Y0098539D01*
X0150445Y0098695D01*
X0150076Y0098530D01*
X0149672Y0098530D01*
X0149349Y0098207D01*
X0148931Y0098022D01*
X0148786Y0097645D01*
X0148500Y0097359D01*
X0148500Y0096902D01*
X0147156Y0093411D01*
X0147156Y0095737D01*
X0146277Y0096615D01*
X0139523Y0096615D01*
X0138644Y0095737D01*
X0138644Y0089770D01*
X0139523Y0088891D01*
X0140800Y0088891D01*
X0140800Y0081478D01*
X0138100Y0078778D01*
X0138100Y0074802D01*
X0140912Y0071990D01*
X0144888Y0071990D01*
X0147700Y0074802D01*
X0147700Y0078778D01*
X0146334Y0080144D01*
X0150850Y0091874D01*
X0150850Y0085870D01*
X0151729Y0084991D01*
X0156471Y0084991D01*
X0157672Y0083790D01*
X0157927Y0083790D01*
X0157851Y0083746D01*
X0157571Y0083467D01*
X0157374Y0083125D01*
X0157272Y0082744D01*
X0157272Y0080290D01*
X0160437Y0080290D01*
X0160437Y0079290D01*
X0161437Y0079290D01*
X0161437Y0075534D01*
X0163300Y0075534D01*
X0163681Y0075637D01*
X0164023Y0075834D01*
X0164303Y0076113D01*
X0164500Y0076455D01*
X0164602Y0076837D01*
X0164602Y0079290D01*
X0161437Y0079290D01*
X0161437Y0080290D01*
X0164602Y0080290D01*
X0164602Y0082744D01*
X0164500Y0083125D01*
X0164303Y0083467D01*
X0164023Y0083746D01*
X0163947Y0083790D01*
X0167328Y0083790D01*
X0168500Y0084962D01*
X0169163Y0085624D01*
X0169696Y0085091D01*
X0170867Y0084606D01*
X0172133Y0084606D01*
X0173304Y0085091D01*
X0173500Y0085287D01*
X0173500Y0084798D01*
X0173306Y0056324D01*
X0173300Y0056319D01*
X0173300Y0055497D01*
X0173294Y0054676D01*
X0173300Y0054670D01*
X0173300Y0054662D01*
X0173881Y0054081D01*
X0174458Y0053496D01*
X0174466Y0053496D01*
X0174472Y0053490D01*
X0175293Y0053490D01*
X0176115Y0053485D01*
X0176120Y0053490D01*
X0179250Y0053490D01*
X0178533Y0052773D01*
X0178000Y0051486D01*
X0178000Y0050094D01*
X0178533Y0048808D01*
X0179517Y0047823D01*
X0180804Y0047290D01*
X0185083Y0047290D01*
X0185839Y0046534D01*
X0192594Y0046534D01*
X0193472Y0047413D01*
X0193472Y0053490D01*
X0199528Y0053490D01*
X0199528Y0047413D01*
X0200406Y0046534D01*
X0207161Y0046534D01*
X0207917Y0047290D01*
X0217823Y0047290D01*
X0217826Y0047289D01*
X0218522Y0047290D01*
X0219213Y0047290D01*
X0219215Y0047291D01*
X0224674Y0047300D01*
X0225423Y0046551D01*
X0232177Y0046551D01*
X0232933Y0047307D01*
X0243000Y0047307D01*
X0243000Y0041740D01*
X0241850Y0040590D01*
X0241045Y0040590D01*
X0239281Y0039859D01*
X0237931Y0038509D01*
X0237200Y0036745D01*
X0237200Y0034835D01*
X0237931Y0033071D01*
X0238212Y0032790D01*
X0235788Y0032790D01*
X0236069Y0033071D01*
X0236800Y0034835D01*
X0236800Y0036745D01*
X0236069Y0038509D01*
X0234719Y0039859D01*
X0232955Y0040590D01*
X0231045Y0040590D01*
X0229281Y0039859D01*
X0227931Y0038509D01*
X0227200Y0036745D01*
X0227200Y0034835D01*
X0227931Y0033071D01*
X0228212Y0032790D01*
X0225788Y0032790D01*
X0226069Y0033071D01*
X0226800Y0034835D01*
X0226800Y0036745D01*
X0226069Y0038509D01*
X0224719Y0039859D01*
X0222955Y0040590D01*
X0221045Y0040590D01*
X0219281Y0039859D01*
X0217931Y0038509D01*
X0217200Y0036745D01*
X0217200Y0034835D01*
X0217931Y0033071D01*
X0218212Y0032790D01*
X0115608Y0032790D01*
X0115777Y0032888D01*
X0116056Y0033167D01*
X0116254Y0033509D01*
X0116356Y0033890D01*
X0116356Y0035753D01*
X0112600Y0035753D01*
X0112600Y0036753D01*
X0116356Y0036753D01*
X0116356Y0038616D01*
X0116254Y0038998D01*
X0116056Y0039340D01*
X0115777Y0039619D01*
X0115435Y0039816D01*
X0115053Y0039919D01*
X0112600Y0039919D01*
X0112600Y0036753D01*
X0111600Y0036753D01*
X0111600Y0035753D01*
X0107844Y0035753D01*
X0107844Y0033890D01*
X0107946Y0033509D01*
X0108144Y0033167D01*
X0108423Y0032888D01*
X0108592Y0032790D01*
X0023992Y0032790D01*
X0023876Y0032880D01*
X0023182Y0032790D01*
X0022483Y0032790D01*
X0022420Y0032728D01*
X0021100Y0032631D01*
X0017205Y0033005D01*
X0013492Y0034236D01*
X0010145Y0036263D01*
X0007333Y0038983D01*
X0005197Y0042261D01*
X0003844Y0045932D01*
X0003500Y0047770D01*
X0003500Y0149079D01*
X0003632Y0151005D01*
X0004641Y0154723D01*
X0006578Y0158054D01*
X0009311Y0160769D01*
X0012654Y0162685D01*
X0016378Y0163670D01*
X0018304Y0163790D01*
X0018309Y0163790D01*
X0019133Y0163788D01*
X0019136Y0163790D01*
X0304029Y0163790D01*
X0304031Y0163788D01*
X0304859Y0163790D01*
X0307072Y0163671D01*
X0311388Y0162697D01*
X0315378Y0160788D01*
X0318844Y0158037D01*
X0321611Y0154585D01*
X0323541Y0150604D01*
X0324536Y0146293D01*
X0324665Y0144081D01*
X0324501Y0048425D01*
X0324496Y0048420D01*
X0324500Y0047598D01*
X0324500Y0047591D01*
X0324384Y0045668D01*
X0323407Y0041950D01*
X0323407Y0041950D01*
X0321501Y0038610D01*
X0318795Y0035878D01*
X0319690Y0036781D02*
X0313652Y0036781D01*
X0315111Y0037072D02*
X0318173Y0039117D01*
X0320219Y0042179D01*
X0320937Y0045790D01*
X0320219Y0049402D01*
X0318173Y0052463D01*
X0315111Y0054509D01*
X0311500Y0055227D01*
X0307889Y0054509D01*
X0304827Y0052463D01*
X0302781Y0049402D01*
X0302063Y0045790D01*
X0302781Y0042179D01*
X0304827Y0039117D01*
X0307889Y0037072D01*
X0311500Y0036353D01*
X0315111Y0037072D01*
X0316171Y0037780D02*
X0320678Y0037780D01*
X0321597Y0038778D02*
X0317666Y0038778D01*
X0318614Y0039777D02*
X0322167Y0039777D01*
X0322737Y0040775D02*
X0319281Y0040775D01*
X0319948Y0041774D02*
X0323306Y0041774D01*
X0323623Y0042772D02*
X0320337Y0042772D01*
X0320535Y0043771D02*
X0323885Y0043771D01*
X0324147Y0044769D02*
X0320734Y0044769D01*
X0320933Y0045768D02*
X0324390Y0045768D01*
X0324450Y0046766D02*
X0320743Y0046766D01*
X0320544Y0047765D02*
X0324499Y0047765D01*
X0324502Y0048763D02*
X0320346Y0048763D01*
X0319978Y0049762D02*
X0324504Y0049762D01*
X0324505Y0050760D02*
X0319311Y0050760D01*
X0318644Y0051759D02*
X0324507Y0051759D01*
X0324509Y0052758D02*
X0317733Y0052758D01*
X0316238Y0053756D02*
X0324511Y0053756D01*
X0324512Y0054755D02*
X0313877Y0054755D01*
X0309123Y0054755D02*
X0253502Y0054755D01*
X0253500Y0055753D02*
X0324514Y0055753D01*
X0324516Y0056752D02*
X0253500Y0056752D01*
X0253500Y0057750D02*
X0324517Y0057750D01*
X0324519Y0058749D02*
X0253500Y0058749D01*
X0253500Y0059747D02*
X0289457Y0059747D01*
X0289272Y0060746D02*
X0285419Y0060746D01*
X0286265Y0061744D02*
X0289272Y0061744D01*
X0289272Y0062743D02*
X0286315Y0062743D01*
X0286315Y0063741D02*
X0289272Y0063741D01*
X0289272Y0064740D02*
X0286315Y0064740D01*
X0289272Y0065738D02*
X0280000Y0065738D01*
X0280000Y0065778D02*
X0279000Y0065778D01*
X0279000Y0069928D01*
X0273988Y0069928D01*
X0273958Y0069920D01*
X0275691Y0071652D01*
X0285047Y0071652D01*
X0285047Y0069919D01*
X0285012Y0069928D01*
X0280000Y0069928D01*
X0280000Y0065778D01*
X0280000Y0066737D02*
X0279000Y0066737D01*
X0279000Y0067735D02*
X0280000Y0067735D01*
X0280000Y0068734D02*
X0279000Y0068734D01*
X0279000Y0069732D02*
X0280000Y0069732D01*
X0285047Y0070731D02*
X0274769Y0070731D01*
X0275000Y0073790D02*
X0276988Y0073790D01*
X0279500Y0076302D01*
X0275000Y0073790D02*
X0270260Y0069050D01*
X0269000Y0069050D01*
X0264547Y0066737D02*
X0259496Y0066737D01*
X0259496Y0065738D02*
X0264679Y0065738D01*
X0262500Y0067735D02*
X0261500Y0067735D01*
X0261500Y0068734D02*
X0262500Y0068734D01*
X0262500Y0069732D02*
X0261500Y0069732D01*
X0257547Y0072743D02*
X0256134Y0072743D01*
X0256134Y0068790D01*
X0255134Y0068790D01*
X0255134Y0072743D01*
X0253500Y0072743D01*
X0253500Y0074462D01*
X0253828Y0074790D01*
X0256828Y0074790D01*
X0257328Y0075290D01*
X0257547Y0075509D01*
X0257547Y0075350D01*
X0258107Y0074790D01*
X0257847Y0074530D01*
X0257649Y0074188D01*
X0257547Y0073807D01*
X0257547Y0072743D01*
X0257547Y0073726D02*
X0253500Y0073726D01*
X0253763Y0074725D02*
X0258042Y0074725D01*
X0256134Y0072728D02*
X0255134Y0072728D01*
X0255134Y0071729D02*
X0256134Y0071729D01*
X0256134Y0070731D02*
X0255134Y0070731D01*
X0255134Y0069732D02*
X0256134Y0069732D01*
X0256134Y0067735D02*
X0255134Y0067735D01*
X0255134Y0066737D02*
X0256134Y0066737D01*
X0256134Y0065738D02*
X0255134Y0065738D01*
X0255134Y0064740D02*
X0256134Y0064740D01*
X0253500Y0063741D02*
X0272685Y0063741D01*
X0272685Y0062743D02*
X0253500Y0062743D01*
X0253500Y0061744D02*
X0272735Y0061744D01*
X0272685Y0061931D02*
X0272787Y0061550D01*
X0272985Y0061208D01*
X0273264Y0060929D01*
X0273606Y0060731D01*
X0273988Y0060629D01*
X0279000Y0060629D01*
X0279000Y0064778D01*
X0272685Y0064778D01*
X0272685Y0061931D01*
X0273581Y0060746D02*
X0253500Y0060746D01*
X0259383Y0064740D02*
X0272685Y0064740D01*
X0273321Y0065738D02*
X0279000Y0065738D01*
X0279000Y0064740D02*
X0280000Y0064740D01*
X0280000Y0063741D02*
X0279000Y0063741D01*
X0279000Y0062743D02*
X0280000Y0062743D01*
X0280000Y0061744D02*
X0279000Y0061744D01*
X0279000Y0060746D02*
X0280000Y0060746D01*
X0286315Y0066737D02*
X0290064Y0066737D01*
X0293937Y0067735D02*
X0302735Y0067735D01*
X0302322Y0068734D02*
X0293953Y0068734D01*
X0293953Y0069732D02*
X0301972Y0069732D01*
X0301972Y0070731D02*
X0293953Y0070731D01*
X0293953Y0071729D02*
X0301972Y0071729D01*
X0301972Y0072728D02*
X0293953Y0072728D01*
X0293953Y0073726D02*
X0300914Y0073726D01*
X0301110Y0073726D02*
X0302368Y0073726D01*
X0302381Y0074725D02*
X0302782Y0074725D01*
X0301686Y0076722D02*
X0273500Y0076722D01*
X0273500Y0075790D02*
X0300500Y0075790D01*
X0307500Y0081290D01*
X0315500Y0081290D01*
X0315500Y0094290D01*
X0307500Y0094290D01*
X0306260Y0091811D01*
X0305786Y0090665D01*
X0305589Y0090468D01*
X0304000Y0087290D01*
X0302500Y0087290D01*
X0299000Y0083790D01*
X0287500Y0083790D01*
X0282000Y0087290D01*
X0279000Y0087290D01*
X0279000Y0084290D01*
X0278125Y0084290D01*
X0277991Y0084156D01*
X0273500Y0084156D01*
X0273500Y0075790D01*
X0273500Y0077720D02*
X0302956Y0077720D01*
X0304227Y0078719D02*
X0273500Y0078719D01*
X0273500Y0079717D02*
X0305498Y0079717D01*
X0306769Y0080716D02*
X0273500Y0080716D01*
X0273500Y0081714D02*
X0315500Y0081714D01*
X0315500Y0082713D02*
X0273500Y0082713D01*
X0273500Y0083711D02*
X0315500Y0083711D01*
X0315500Y0084710D02*
X0299920Y0084710D01*
X0300918Y0085708D02*
X0315500Y0085708D01*
X0315500Y0086707D02*
X0301917Y0086707D01*
X0304208Y0087705D02*
X0315500Y0087705D01*
X0315500Y0088704D02*
X0304707Y0088704D01*
X0305206Y0089702D02*
X0315500Y0089702D01*
X0315500Y0090701D02*
X0305801Y0090701D01*
X0306214Y0091699D02*
X0315500Y0091699D01*
X0315500Y0092698D02*
X0306704Y0092698D01*
X0307203Y0093696D02*
X0315500Y0093696D01*
X0317500Y0093696D02*
X0324579Y0093696D01*
X0324577Y0092698D02*
X0317500Y0092698D01*
X0317500Y0091699D02*
X0324576Y0091699D01*
X0324574Y0090701D02*
X0317500Y0090701D01*
X0317500Y0089702D02*
X0324572Y0089702D01*
X0324570Y0088704D02*
X0317500Y0088704D01*
X0317500Y0087705D02*
X0324569Y0087705D01*
X0324567Y0086707D02*
X0317500Y0086707D01*
X0317500Y0085708D02*
X0324565Y0085708D01*
X0324564Y0084710D02*
X0317500Y0084710D01*
X0317500Y0083711D02*
X0324562Y0083711D01*
X0324560Y0082713D02*
X0317500Y0082713D01*
X0317500Y0081714D02*
X0324558Y0081714D01*
X0324557Y0080716D02*
X0317500Y0080716D01*
X0316755Y0079717D02*
X0324555Y0079717D01*
X0324553Y0078719D02*
X0312763Y0078719D01*
X0314806Y0077720D02*
X0324552Y0077720D01*
X0324550Y0076722D02*
X0315805Y0076722D01*
X0316804Y0075723D02*
X0324548Y0075723D01*
X0324546Y0074725D02*
X0317218Y0074725D01*
X0317632Y0073726D02*
X0324545Y0073726D01*
X0324543Y0072728D02*
X0318028Y0072728D01*
X0318028Y0071729D02*
X0324541Y0071729D01*
X0324540Y0070731D02*
X0318028Y0070731D01*
X0318028Y0069732D02*
X0324538Y0069732D01*
X0324536Y0068734D02*
X0317678Y0068734D01*
X0317264Y0067735D02*
X0324535Y0067735D01*
X0324533Y0066737D02*
X0316851Y0066737D01*
X0315917Y0065738D02*
X0324531Y0065738D01*
X0324529Y0064740D02*
X0314918Y0064740D01*
X0313032Y0063741D02*
X0324528Y0063741D01*
X0324526Y0062743D02*
X0301902Y0062743D01*
X0301902Y0062416D02*
X0301902Y0063416D01*
X0300902Y0063416D01*
X0300902Y0066778D01*
X0298842Y0066778D01*
X0298460Y0066676D01*
X0298118Y0066479D01*
X0297839Y0066199D01*
X0297642Y0065857D01*
X0297539Y0065476D01*
X0297539Y0063416D01*
X0300902Y0063416D01*
X0300902Y0062416D01*
X0301902Y0062416D01*
X0305264Y0062416D01*
X0305264Y0060357D01*
X0305162Y0059975D01*
X0304964Y0059633D01*
X0304685Y0059354D01*
X0304343Y0059156D01*
X0303961Y0059054D01*
X0301902Y0059054D01*
X0301902Y0062416D01*
X0301902Y0061744D02*
X0300902Y0061744D01*
X0300902Y0062416D02*
X0300902Y0059054D01*
X0298842Y0059054D01*
X0298460Y0059156D01*
X0298118Y0059354D01*
X0297839Y0059633D01*
X0297642Y0059975D01*
X0297539Y0060357D01*
X0297539Y0062416D01*
X0300902Y0062416D01*
X0300902Y0062743D02*
X0296996Y0062743D01*
X0296996Y0063741D02*
X0297539Y0063741D01*
X0297539Y0064740D02*
X0296996Y0064740D01*
X0296996Y0065738D02*
X0297610Y0065738D01*
X0298686Y0066737D02*
X0296159Y0066737D01*
X0300902Y0066737D02*
X0301902Y0066737D01*
X0301902Y0065738D02*
X0300902Y0065738D01*
X0300902Y0064740D02*
X0301902Y0064740D01*
X0301902Y0063741D02*
X0300902Y0063741D01*
X0297539Y0061744D02*
X0296996Y0061744D01*
X0296996Y0060746D02*
X0297539Y0060746D01*
X0297773Y0059747D02*
X0296810Y0059747D01*
X0300902Y0059747D02*
X0301902Y0059747D01*
X0301902Y0060746D02*
X0300902Y0060746D01*
X0305030Y0059747D02*
X0324521Y0059747D01*
X0324523Y0060746D02*
X0305264Y0060746D01*
X0305264Y0061744D02*
X0324524Y0061744D01*
X0306968Y0063741D02*
X0305264Y0063741D01*
X0293134Y0062916D02*
X0291000Y0071050D01*
X0289500Y0071050D01*
X0271000Y0079790D02*
X0271000Y0082479D01*
X0270776Y0082704D01*
X0268217Y0082704D02*
X0268217Y0086507D01*
X0269000Y0087290D01*
X0268650Y0087290D01*
X0268512Y0087428D01*
X0271555Y0087705D02*
X0272555Y0087705D01*
X0272555Y0086707D02*
X0271555Y0086707D01*
X0271555Y0086271D02*
X0271555Y0090471D01*
X0272555Y0090471D01*
X0272555Y0086271D01*
X0272428Y0086271D01*
X0272055Y0085898D01*
X0271682Y0086271D01*
X0271555Y0086271D01*
X0271555Y0088704D02*
X0272555Y0088704D01*
X0272555Y0089702D02*
X0271555Y0089702D01*
X0271555Y0090471D02*
X0267354Y0090471D01*
X0267354Y0090599D01*
X0266964Y0090989D01*
X0267205Y0091406D01*
X0267223Y0091471D01*
X0271555Y0091471D01*
X0271555Y0090471D01*
X0271555Y0090701D02*
X0267252Y0090701D01*
X0269461Y0092251D02*
X0263787Y0092251D01*
X0263787Y0092251D01*
X0260220Y0092251D01*
X0260220Y0092539D01*
X0260370Y0093096D01*
X0260611Y0093513D01*
X0260220Y0093903D01*
X0260220Y0095548D01*
X0259038Y0096731D01*
X0254516Y0096731D01*
X0253638Y0097610D01*
X0253638Y0103790D01*
X0253297Y0103790D01*
X0253362Y0103547D01*
X0253362Y0101290D01*
X0250000Y0101290D01*
X0250000Y0100290D01*
X0250000Y0096731D01*
X0252060Y0096731D01*
X0252441Y0096833D01*
X0252783Y0097031D01*
X0253062Y0097310D01*
X0253260Y0097652D01*
X0253362Y0098034D01*
X0253362Y0100290D01*
X0250000Y0100290D01*
X0249000Y0100290D01*
X0249000Y0096731D01*
X0247831Y0096731D01*
X0247831Y0093120D01*
X0248296Y0093586D01*
X0255444Y0093586D01*
X0256323Y0092707D01*
X0256323Y0091692D01*
X0260293Y0091692D01*
X0260220Y0091963D01*
X0260220Y0092251D01*
X0263787Y0092251D01*
X0263787Y0094810D02*
X0259240Y0099357D01*
X0258933Y0099357D01*
X0257500Y0100790D01*
X0257500Y0108290D01*
X0261169Y0108674D02*
X0261603Y0108674D01*
X0262000Y0108674D02*
X0270500Y0108674D01*
X0270500Y0107676D02*
X0262000Y0107676D01*
X0261567Y0107676D02*
X0261169Y0107676D01*
X0261169Y0106677D02*
X0261532Y0106677D01*
X0262000Y0106677D02*
X0270500Y0106677D01*
X0270500Y0105790D02*
X0268500Y0101790D01*
X0268500Y0097790D01*
X0263635Y0097790D01*
X0262000Y0099426D01*
X0262000Y0123790D01*
X0270500Y0123790D01*
X0270500Y0105790D01*
X0270444Y0105679D02*
X0262000Y0105679D01*
X0261500Y0105790D02*
X0261169Y0105790D01*
X0261169Y0111391D01*
X0260404Y0112156D01*
X0254596Y0112156D01*
X0253831Y0111391D01*
X0253831Y0105790D01*
X0247000Y0105790D01*
X0247000Y0111530D01*
X0252860Y0111530D01*
X0253120Y0111790D01*
X0253500Y0111790D01*
X0253500Y0112170D01*
X0253626Y0112296D01*
X0253626Y0119284D01*
X0253500Y0119410D01*
X0253500Y0119790D01*
X0262000Y0119790D01*
X0261500Y0105790D01*
X0262000Y0104680D02*
X0269945Y0104680D01*
X0269446Y0103682D02*
X0262000Y0103682D01*
X0262000Y0102683D02*
X0268946Y0102683D01*
X0268500Y0101685D02*
X0262000Y0101685D01*
X0262000Y0100686D02*
X0268500Y0100686D01*
X0268500Y0099688D02*
X0262000Y0099688D01*
X0262737Y0098689D02*
X0268500Y0098689D01*
X0270776Y0099239D02*
X0270776Y0095066D01*
X0270500Y0094790D01*
X0268787Y0094790D01*
X0268512Y0094515D01*
X0268512Y0093278D01*
X0269500Y0092290D01*
X0269461Y0092251D01*
X0271555Y0092698D02*
X0272555Y0092698D01*
X0272555Y0093696D02*
X0271555Y0093696D01*
X0271555Y0094695D02*
X0272555Y0094695D01*
X0272555Y0095694D02*
X0271555Y0095694D01*
X0271555Y0095804D02*
X0271620Y0095821D01*
X0272055Y0096072D01*
X0272490Y0095821D01*
X0272555Y0095804D01*
X0272555Y0091471D01*
X0276756Y0091471D01*
X0276756Y0091344D01*
X0277129Y0090971D01*
X0276756Y0090599D01*
X0276756Y0090471D01*
X0272555Y0090471D01*
X0272555Y0091471D01*
X0271555Y0091471D01*
X0271555Y0095804D01*
X0271146Y0099239D02*
X0270776Y0099239D01*
X0270776Y0099239D01*
X0273335Y0099239D01*
X0273335Y0099239D01*
X0271146Y0099239D01*
X0273335Y0099688D02*
X0273335Y0099688D01*
X0273335Y0100686D02*
X0273335Y0100686D01*
X0273335Y0101685D02*
X0273335Y0101685D01*
X0273335Y0102683D02*
X0273335Y0102683D01*
X0272588Y0102683D02*
X0271523Y0102683D01*
X0271709Y0103682D02*
X0273433Y0103682D01*
X0273433Y0104680D02*
X0272218Y0104680D01*
X0272645Y0105679D02*
X0273433Y0105679D01*
X0273433Y0106677D02*
X0272500Y0106677D01*
X0272500Y0107676D02*
X0273433Y0107676D01*
X0273433Y0108674D02*
X0272500Y0108674D01*
X0272500Y0109673D02*
X0273433Y0109673D01*
X0273433Y0110671D02*
X0272500Y0110671D01*
X0272500Y0111670D02*
X0273433Y0111670D01*
X0273433Y0112668D02*
X0272500Y0112668D01*
X0272500Y0113667D02*
X0273433Y0113667D01*
X0273433Y0114665D02*
X0272500Y0114665D01*
X0272500Y0115664D02*
X0273433Y0115664D01*
X0273433Y0116662D02*
X0272500Y0116662D01*
X0272500Y0117661D02*
X0273433Y0117661D01*
X0273433Y0118659D02*
X0272500Y0118659D01*
X0272500Y0119658D02*
X0273433Y0119658D01*
X0273433Y0120656D02*
X0272500Y0120656D01*
X0272500Y0121655D02*
X0273433Y0121655D01*
X0273433Y0122653D02*
X0272500Y0122653D01*
X0272500Y0123652D02*
X0273433Y0123652D01*
X0274032Y0124650D02*
X0272468Y0124650D01*
X0271470Y0125649D02*
X0284485Y0125649D01*
X0283000Y0123290D02*
X0283000Y0105290D01*
X0282000Y0103790D01*
X0282000Y0092290D01*
X0279000Y0092290D01*
X0279000Y0103790D01*
X0275500Y0103790D01*
X0275500Y0123290D01*
X0283000Y0123290D01*
X0283000Y0122653D02*
X0275500Y0122653D01*
X0275500Y0121655D02*
X0283000Y0121655D01*
X0283000Y0120656D02*
X0275500Y0120656D01*
X0275500Y0119658D02*
X0283000Y0119658D01*
X0283000Y0118659D02*
X0275500Y0118659D01*
X0275500Y0117661D02*
X0283000Y0117661D01*
X0283000Y0116662D02*
X0275500Y0116662D01*
X0275500Y0115664D02*
X0283000Y0115664D01*
X0283000Y0114665D02*
X0275500Y0114665D01*
X0275500Y0113667D02*
X0283000Y0113667D01*
X0283000Y0112668D02*
X0275500Y0112668D01*
X0275500Y0111670D02*
X0283000Y0111670D01*
X0283000Y0110671D02*
X0275500Y0110671D01*
X0275500Y0109673D02*
X0283000Y0109673D01*
X0283000Y0108674D02*
X0275500Y0108674D01*
X0275500Y0107676D02*
X0283000Y0107676D01*
X0283000Y0106677D02*
X0275500Y0106677D01*
X0275500Y0105679D02*
X0283000Y0105679D01*
X0282593Y0104680D02*
X0275500Y0104680D01*
X0279000Y0103682D02*
X0282000Y0103682D01*
X0282000Y0102683D02*
X0279000Y0102683D01*
X0279000Y0101685D02*
X0282000Y0101685D01*
X0282000Y0100686D02*
X0279000Y0100686D01*
X0279000Y0099688D02*
X0282000Y0099688D01*
X0282000Y0098689D02*
X0279000Y0098689D01*
X0279000Y0097691D02*
X0282000Y0097691D01*
X0282000Y0096692D02*
X0279000Y0096692D01*
X0279000Y0095694D02*
X0282000Y0095694D01*
X0282000Y0094695D02*
X0279000Y0094695D01*
X0279000Y0093696D02*
X0282000Y0093696D01*
X0282000Y0092698D02*
X0279000Y0092698D01*
X0276858Y0090701D02*
X0272555Y0090701D01*
X0272555Y0091699D02*
X0271555Y0091699D01*
X0263787Y0089692D02*
X0256500Y0089692D01*
X0256500Y0077290D01*
X0256000Y0076790D01*
X0253000Y0076790D01*
X0251500Y0075290D01*
X0251500Y0054790D01*
X0252000Y0035790D01*
X0256365Y0033786D02*
X0257634Y0033786D01*
X0257299Y0034784D02*
X0256779Y0034784D01*
X0256800Y0035783D02*
X0261516Y0035783D01*
X0262484Y0035783D02*
X0267200Y0035783D01*
X0266783Y0036275D02*
X0266682Y0036914D01*
X0266448Y0037633D01*
X0266105Y0038306D01*
X0265661Y0038917D01*
X0265127Y0039451D01*
X0264516Y0039896D01*
X0263843Y0040239D01*
X0263124Y0040472D01*
X0262484Y0040573D01*
X0262484Y0036275D01*
X0266783Y0036275D01*
X0266703Y0036781D02*
X0267215Y0036781D01*
X0267629Y0037780D02*
X0266373Y0037780D01*
X0265762Y0038778D02*
X0268200Y0038778D01*
X0269198Y0039777D02*
X0264679Y0039777D01*
X0262484Y0039777D02*
X0261516Y0039777D01*
X0261516Y0038778D02*
X0262484Y0038778D01*
X0262484Y0037780D02*
X0261516Y0037780D01*
X0261516Y0036781D02*
X0262484Y0036781D01*
X0266700Y0034784D02*
X0267221Y0034784D01*
X0267635Y0033786D02*
X0266366Y0033786D01*
X0257297Y0036781D02*
X0256785Y0036781D01*
X0256371Y0037780D02*
X0257627Y0037780D01*
X0258238Y0038778D02*
X0255800Y0038778D01*
X0254802Y0039777D02*
X0259321Y0039777D01*
X0253870Y0040775D02*
X0303719Y0040775D01*
X0304386Y0039777D02*
X0294802Y0039777D01*
X0295800Y0038778D02*
X0305334Y0038778D01*
X0306829Y0037780D02*
X0296371Y0037780D01*
X0296785Y0036781D02*
X0309348Y0036781D01*
X0314914Y0033786D02*
X0296365Y0033786D01*
X0296779Y0034784D02*
X0316922Y0034784D01*
X0303052Y0041774D02*
X0253843Y0041774D01*
X0253817Y0042772D02*
X0302663Y0042772D01*
X0302465Y0043771D02*
X0253791Y0043771D01*
X0253764Y0044769D02*
X0302266Y0044769D01*
X0302067Y0045768D02*
X0253738Y0045768D01*
X0253712Y0046766D02*
X0302257Y0046766D01*
X0302456Y0047765D02*
X0253686Y0047765D01*
X0253659Y0048763D02*
X0302654Y0048763D01*
X0303022Y0049762D02*
X0253633Y0049762D01*
X0253607Y0050760D02*
X0303689Y0050760D01*
X0304356Y0051759D02*
X0253580Y0051759D01*
X0253554Y0052758D02*
X0305267Y0052758D01*
X0306762Y0053756D02*
X0253528Y0053756D01*
X0243000Y0054755D02*
X0232485Y0054755D01*
X0225115Y0054755D02*
X0213000Y0054755D01*
X0214442Y0055753D02*
X0243000Y0055753D01*
X0243000Y0056752D02*
X0214862Y0056752D01*
X0214862Y0057750D02*
X0243000Y0057750D01*
X0243000Y0058749D02*
X0214862Y0058749D01*
X0214862Y0059747D02*
X0243000Y0059747D01*
X0243000Y0060746D02*
X0214862Y0060746D01*
X0214862Y0061744D02*
X0224796Y0061744D01*
X0224544Y0062743D02*
X0214259Y0062743D01*
X0214163Y0063741D02*
X0224544Y0063741D01*
X0224544Y0064740D02*
X0214862Y0064740D01*
X0214862Y0065738D02*
X0224544Y0065738D01*
X0224544Y0066737D02*
X0214862Y0066737D01*
X0214862Y0067735D02*
X0224544Y0067735D01*
X0224544Y0068734D02*
X0214862Y0068734D01*
X0214862Y0069732D02*
X0225300Y0069732D01*
X0225300Y0070731D02*
X0214693Y0070731D01*
X0215692Y0071729D02*
X0225300Y0071729D01*
X0225300Y0072728D02*
X0216690Y0072728D01*
X0217689Y0073726D02*
X0225300Y0073726D01*
X0225300Y0074725D02*
X0218687Y0074725D01*
X0219686Y0075723D02*
X0225233Y0075723D01*
X0225325Y0076722D02*
X0220684Y0076722D01*
X0221683Y0077720D02*
X0225707Y0077720D01*
X0225988Y0078719D02*
X0222681Y0078719D01*
X0222845Y0079717D02*
X0226200Y0079717D01*
X0226200Y0080716D02*
X0223080Y0080716D01*
X0223314Y0081714D02*
X0225996Y0081714D01*
X0225444Y0082713D02*
X0223548Y0082713D01*
X0223782Y0083711D02*
X0225444Y0083711D01*
X0225444Y0084710D02*
X0224016Y0084710D01*
X0225168Y0085708D02*
X0225444Y0085708D01*
X0225900Y0088704D02*
X0226308Y0088704D01*
X0229200Y0089702D02*
X0230200Y0089702D01*
X0230200Y0090701D02*
X0229200Y0090701D01*
X0229200Y0091699D02*
X0230200Y0091699D01*
X0230200Y0092698D02*
X0237501Y0092698D01*
X0237502Y0091699D02*
X0233956Y0091699D01*
X0233956Y0090701D02*
X0237502Y0090701D01*
X0237503Y0089702D02*
X0233518Y0089702D01*
X0233092Y0088704D02*
X0237504Y0088704D01*
X0237505Y0087705D02*
X0233956Y0087705D01*
X0233956Y0086707D02*
X0237506Y0086707D01*
X0237506Y0085708D02*
X0233956Y0085708D01*
X0233956Y0084710D02*
X0237507Y0084710D01*
X0237508Y0083711D02*
X0233956Y0083711D01*
X0233956Y0082713D02*
X0237509Y0082713D01*
X0237509Y0081714D02*
X0233404Y0081714D01*
X0233200Y0080716D02*
X0237510Y0080716D01*
X0237511Y0079717D02*
X0233200Y0079717D01*
X0233257Y0078719D02*
X0237512Y0078719D01*
X0237513Y0077720D02*
X0232979Y0077720D01*
X0232698Y0076722D02*
X0237513Y0076722D01*
X0237514Y0075723D02*
X0232417Y0075723D01*
X0232300Y0074725D02*
X0237026Y0074725D01*
X0236925Y0073726D02*
X0232300Y0073726D01*
X0232300Y0072728D02*
X0237161Y0072728D01*
X0237854Y0071729D02*
X0232300Y0071729D01*
X0232300Y0070731D02*
X0243000Y0070731D01*
X0243000Y0071729D02*
X0241946Y0071729D01*
X0242639Y0072728D02*
X0243000Y0072728D01*
X0243000Y0073726D02*
X0242875Y0073726D01*
X0242774Y0074725D02*
X0243000Y0074725D01*
X0243000Y0075723D02*
X0242274Y0075723D01*
X0243000Y0076722D02*
X0241513Y0076722D01*
X0241513Y0077720D02*
X0243000Y0077720D01*
X0243000Y0078719D02*
X0241512Y0078719D01*
X0241511Y0079717D02*
X0243000Y0079717D01*
X0243000Y0080716D02*
X0241510Y0080716D01*
X0241509Y0081714D02*
X0243000Y0081714D01*
X0243000Y0082713D02*
X0241509Y0082713D01*
X0241508Y0083711D02*
X0243000Y0083711D01*
X0242255Y0084710D02*
X0241507Y0084710D01*
X0251870Y0089526D02*
X0252035Y0089692D01*
X0256500Y0089692D01*
X0256323Y0091699D02*
X0260291Y0091699D01*
X0260263Y0092698D02*
X0256323Y0092698D01*
X0260427Y0093696D02*
X0247831Y0093696D01*
X0247831Y0094695D02*
X0260220Y0094695D01*
X0260075Y0095694D02*
X0247831Y0095694D01*
X0247831Y0096692D02*
X0259077Y0096692D01*
X0253638Y0097691D02*
X0253270Y0097691D01*
X0253362Y0098689D02*
X0253638Y0098689D01*
X0253638Y0099688D02*
X0253362Y0099688D01*
X0253638Y0100686D02*
X0250000Y0100686D01*
X0250000Y0099688D02*
X0249000Y0099688D01*
X0249000Y0098689D02*
X0250000Y0098689D01*
X0250000Y0097691D02*
X0249000Y0097691D01*
X0253362Y0101685D02*
X0253638Y0101685D01*
X0253638Y0102683D02*
X0253362Y0102683D01*
X0253326Y0103682D02*
X0253638Y0103682D01*
X0253831Y0106677D02*
X0247000Y0106677D01*
X0247000Y0107676D02*
X0253831Y0107676D01*
X0253831Y0108674D02*
X0247000Y0108674D01*
X0247000Y0109673D02*
X0253831Y0109673D01*
X0253831Y0110671D02*
X0247000Y0110671D01*
X0245000Y0110671D02*
X0238162Y0110671D01*
X0238068Y0110578D02*
X0240717Y0113226D01*
X0240981Y0113436D01*
X0242448Y0113436D01*
X0243327Y0114315D01*
X0243327Y0120675D01*
X0242767Y0121235D01*
X0243027Y0121495D01*
X0243225Y0121837D01*
X0243327Y0122219D01*
X0243327Y0124475D01*
X0239374Y0124475D01*
X0239374Y0125475D01*
X0243327Y0125475D01*
X0243327Y0127732D01*
X0243225Y0128113D01*
X0243027Y0128455D01*
X0242748Y0128735D01*
X0242406Y0128932D01*
X0242024Y0129034D01*
X0239374Y0129034D01*
X0239374Y0125475D01*
X0238374Y0125475D01*
X0238374Y0124475D01*
X0234421Y0124475D01*
X0234421Y0122219D01*
X0234523Y0121837D01*
X0234721Y0121495D01*
X0234981Y0121235D01*
X0234421Y0120675D01*
X0234421Y0115771D01*
X0232010Y0115771D01*
X0231131Y0114892D01*
X0231131Y0108137D01*
X0232010Y0107259D01*
X0237190Y0107259D01*
X0238068Y0108137D01*
X0238068Y0110578D01*
X0238068Y0109673D02*
X0244542Y0109673D01*
X0243543Y0108674D02*
X0238068Y0108674D01*
X0237607Y0107676D02*
X0242545Y0107676D01*
X0241546Y0106677D02*
X0225900Y0106677D01*
X0225900Y0105679D02*
X0227627Y0105679D01*
X0227391Y0104680D02*
X0225900Y0104680D01*
X0225900Y0103682D02*
X0227391Y0103682D01*
X0227391Y0102683D02*
X0225900Y0102683D01*
X0225900Y0101685D02*
X0227391Y0101685D01*
X0227391Y0100686D02*
X0225900Y0100686D01*
X0225900Y0099688D02*
X0227391Y0099688D01*
X0227391Y0098689D02*
X0228270Y0097810D01*
X0232348Y0097810D01*
X0233489Y0096692D02*
X0225900Y0096692D01*
X0229200Y0095694D02*
X0230200Y0095694D01*
X0230200Y0094695D02*
X0229200Y0094695D01*
X0229200Y0093696D02*
X0230200Y0093696D01*
X0233956Y0093696D02*
X0236549Y0093696D01*
X0235529Y0094695D02*
X0233956Y0094695D01*
X0233841Y0095694D02*
X0234509Y0095694D01*
X0239500Y0093606D02*
X0230860Y0102066D01*
X0234328Y0101685D02*
X0234872Y0101685D01*
X0234872Y0102683D02*
X0234328Y0102683D01*
X0234328Y0103682D02*
X0234872Y0103682D01*
X0234872Y0104680D02*
X0234328Y0104680D01*
X0234093Y0105679D02*
X0235107Y0105679D01*
X0231593Y0107676D02*
X0225900Y0107676D01*
X0225904Y0108674D02*
X0231131Y0108674D01*
X0231131Y0109673D02*
X0225900Y0109673D01*
X0225540Y0110671D02*
X0231131Y0110671D01*
X0231131Y0111670D02*
X0224787Y0111670D01*
X0231131Y0112668D02*
X0213572Y0112668D01*
X0212573Y0113667D02*
X0231131Y0113667D01*
X0231131Y0114665D02*
X0211575Y0114665D01*
X0210576Y0115664D02*
X0231903Y0115664D01*
X0234421Y0116662D02*
X0209600Y0116662D01*
X0209600Y0117661D02*
X0234421Y0117661D01*
X0234421Y0118659D02*
X0209600Y0118659D01*
X0209496Y0119658D02*
X0234421Y0119658D01*
X0234421Y0120656D02*
X0209018Y0120656D01*
X0207685Y0121655D02*
X0234629Y0121655D01*
X0234421Y0122653D02*
X0192000Y0122653D01*
X0192000Y0123652D02*
X0234421Y0123652D01*
X0234421Y0125475D02*
X0238374Y0125475D01*
X0238374Y0129034D01*
X0235724Y0129034D01*
X0235342Y0128932D01*
X0235000Y0128735D01*
X0234721Y0128455D01*
X0234523Y0128113D01*
X0234421Y0127732D01*
X0234421Y0125475D01*
X0234421Y0125649D02*
X0192000Y0125649D01*
X0192000Y0126647D02*
X0234421Y0126647D01*
X0234421Y0127646D02*
X0192000Y0127646D01*
X0192000Y0128644D02*
X0234910Y0128644D01*
X0238374Y0128644D02*
X0239374Y0128644D01*
X0239374Y0127646D02*
X0238374Y0127646D01*
X0238374Y0126647D02*
X0239374Y0126647D01*
X0239374Y0125649D02*
X0238374Y0125649D01*
X0238374Y0124650D02*
X0192000Y0124650D01*
X0190000Y0124650D02*
X0186000Y0124650D01*
X0186500Y0123790D02*
X0186031Y0123322D01*
X0186031Y0114526D01*
X0186031Y0119790D01*
X0187500Y0119790D01*
X0187500Y0118790D01*
X0188000Y0118790D02*
X0190000Y0118790D01*
X0190000Y0114526D01*
X0190000Y0114527D01*
X0189969Y0114527D01*
X0189969Y0114526D01*
X0190000Y0114526D01*
X0189969Y0114526D01*
X0189969Y0116469D02*
X0189968Y0116470D01*
X0189968Y0117463D01*
X0189220Y0117463D01*
X0188984Y0117400D01*
X0188749Y0117463D01*
X0188000Y0117463D01*
X0187251Y0117463D01*
X0187016Y0117400D01*
X0186780Y0117463D01*
X0186032Y0117463D01*
X0186032Y0116470D01*
X0186031Y0116469D01*
X0186031Y0117463D01*
X0186000Y0117463D01*
X0186000Y0129290D01*
X0190000Y0129290D01*
X0190000Y0117463D01*
X0189969Y0117463D01*
X0189969Y0116469D01*
X0189968Y0116662D02*
X0189969Y0116662D01*
X0190000Y0117661D02*
X0186000Y0117661D01*
X0186000Y0118659D02*
X0190000Y0118659D01*
X0190000Y0119658D02*
X0186000Y0119658D01*
X0186000Y0120656D02*
X0190000Y0120656D01*
X0190000Y0121655D02*
X0186000Y0121655D01*
X0186000Y0122653D02*
X0190000Y0122653D01*
X0190000Y0123652D02*
X0186000Y0123652D01*
X0186000Y0125649D02*
X0190000Y0125649D01*
X0190000Y0126647D02*
X0186000Y0126647D01*
X0186000Y0127646D02*
X0190000Y0127646D01*
X0190000Y0128644D02*
X0186000Y0128644D01*
X0184000Y0128644D02*
X0181000Y0128644D01*
X0181000Y0129643D02*
X0184000Y0129643D01*
X0184523Y0130641D02*
X0181000Y0130641D01*
X0181000Y0131640D02*
X0286701Y0131640D01*
X0286701Y0132638D02*
X0181000Y0132638D01*
X0181000Y0133637D02*
X0286701Y0133637D01*
X0286701Y0134635D02*
X0181000Y0134635D01*
X0181000Y0135634D02*
X0193964Y0135634D01*
X0194308Y0135290D02*
X0196500Y0135290D01*
X0196500Y0141290D01*
X0197500Y0141290D01*
X0197500Y0135290D01*
X0199692Y0135290D01*
X0203500Y0139098D01*
X0203500Y0141290D01*
X0197500Y0141290D01*
X0197500Y0142290D01*
X0203500Y0142290D01*
X0203500Y0144483D01*
X0199692Y0148290D01*
X0197500Y0148290D01*
X0197500Y0142290D01*
X0196500Y0142290D01*
X0196500Y0141290D01*
X0190500Y0141290D01*
X0190500Y0139098D01*
X0194308Y0135290D01*
X0192965Y0136632D02*
X0181035Y0136632D01*
X0182033Y0137631D02*
X0191967Y0137631D01*
X0190968Y0138629D02*
X0182726Y0138629D01*
X0183140Y0139628D02*
X0190500Y0139628D01*
X0190500Y0140627D02*
X0183500Y0140627D01*
X0183500Y0141625D02*
X0196500Y0141625D01*
X0196500Y0142290D02*
X0190500Y0142290D01*
X0190500Y0144483D01*
X0194308Y0148290D01*
X0196500Y0148290D01*
X0196500Y0142290D01*
X0196500Y0142624D02*
X0197500Y0142624D01*
X0197500Y0143622D02*
X0196500Y0143622D01*
X0196500Y0144621D02*
X0197500Y0144621D01*
X0197500Y0145619D02*
X0196500Y0145619D01*
X0196500Y0146618D02*
X0197500Y0146618D01*
X0197500Y0147616D02*
X0196500Y0147616D01*
X0193633Y0147616D02*
X0179921Y0147616D01*
X0181365Y0146618D02*
X0192635Y0146618D01*
X0191636Y0145619D02*
X0182364Y0145619D01*
X0182863Y0144621D02*
X0190638Y0144621D01*
X0190500Y0143622D02*
X0183277Y0143622D01*
X0183500Y0142624D02*
X0190500Y0142624D01*
X0196500Y0140627D02*
X0197500Y0140627D01*
X0197500Y0141625D02*
X0310134Y0141625D01*
X0311500Y0141353D02*
X0315111Y0142072D01*
X0318173Y0144117D01*
X0320219Y0147179D01*
X0320937Y0150790D01*
X0320219Y0154402D01*
X0318173Y0157463D01*
X0315111Y0159509D01*
X0311500Y0160227D01*
X0307889Y0159509D01*
X0304827Y0157463D01*
X0302781Y0154402D01*
X0302063Y0150790D01*
X0302781Y0147179D01*
X0304827Y0144117D01*
X0307889Y0142072D01*
X0311500Y0141353D01*
X0312866Y0141625D02*
X0324661Y0141625D01*
X0324659Y0140627D02*
X0203500Y0140627D01*
X0203500Y0139628D02*
X0324658Y0139628D01*
X0324656Y0138629D02*
X0314898Y0138629D01*
X0315748Y0137631D02*
X0324654Y0137631D01*
X0324653Y0136632D02*
X0315799Y0136632D01*
X0315799Y0135634D02*
X0324651Y0135634D01*
X0324649Y0134635D02*
X0312240Y0134635D01*
X0312240Y0135634D02*
X0311240Y0135634D01*
X0311240Y0136632D02*
X0312240Y0136632D01*
X0312240Y0137631D02*
X0311240Y0137631D01*
X0311240Y0138629D02*
X0312240Y0138629D01*
X0308583Y0138629D02*
X0307554Y0138629D01*
X0307063Y0142624D02*
X0203500Y0142624D01*
X0203500Y0143622D02*
X0305568Y0143622D01*
X0304491Y0144621D02*
X0203362Y0144621D01*
X0202364Y0145619D02*
X0303824Y0145619D01*
X0303156Y0146618D02*
X0201365Y0146618D01*
X0200367Y0147616D02*
X0302694Y0147616D01*
X0302496Y0148615D02*
X0082748Y0148615D01*
X0083376Y0148355D02*
X0081906Y0148963D01*
X0075506Y0148963D01*
X0074589Y0149880D01*
X0072457Y0150763D01*
X0070149Y0150763D01*
X0068018Y0149880D01*
X0066386Y0148249D01*
X0065503Y0146117D01*
X0065503Y0143810D01*
X0066386Y0141678D01*
X0068018Y0140046D01*
X0070149Y0139163D01*
X0072457Y0139163D01*
X0074589Y0140046D01*
X0075506Y0140963D01*
X0079453Y0140963D01*
X0083244Y0137173D01*
X0083244Y0135196D01*
X0084123Y0134318D01*
X0090877Y0134318D01*
X0091756Y0135196D01*
X0091756Y0141951D01*
X0090877Y0142830D01*
X0088901Y0142830D01*
X0083376Y0148355D01*
X0084114Y0147616D02*
X0099079Y0147616D01*
X0097635Y0146618D02*
X0085113Y0146618D01*
X0086112Y0145619D02*
X0096636Y0145619D01*
X0096137Y0144621D02*
X0087110Y0144621D01*
X0088109Y0143622D02*
X0095723Y0143622D01*
X0095500Y0142624D02*
X0091083Y0142624D01*
X0091756Y0141625D02*
X0095500Y0141625D01*
X0095500Y0140627D02*
X0091756Y0140627D01*
X0091756Y0139628D02*
X0095860Y0139628D01*
X0096274Y0138629D02*
X0091756Y0138629D01*
X0091756Y0137631D02*
X0096967Y0137631D01*
X0097500Y0136632D02*
X0091756Y0136632D01*
X0091756Y0135634D02*
X0097500Y0135634D01*
X0097500Y0134635D02*
X0091195Y0134635D01*
X0086477Y0130641D02*
X0097500Y0130641D01*
X0097500Y0129643D02*
X0087000Y0129643D01*
X0087000Y0128644D02*
X0097500Y0128644D01*
X0097500Y0131640D02*
X0050215Y0131640D01*
X0050133Y0131606D02*
X0051304Y0132091D01*
X0052199Y0132987D01*
X0052684Y0134157D01*
X0052684Y0135424D01*
X0052199Y0136594D01*
X0051304Y0137490D01*
X0050133Y0137975D01*
X0049144Y0137975D01*
X0047756Y0139363D01*
X0046584Y0140534D01*
X0044059Y0140534D01*
X0044059Y0141518D01*
X0043180Y0142397D01*
X0037213Y0142397D01*
X0036335Y0141518D01*
X0036335Y0135551D01*
X0037095Y0134790D01*
X0035031Y0134790D01*
X0035791Y0135551D01*
X0035791Y0141518D01*
X0034913Y0142397D01*
X0028946Y0142397D01*
X0028067Y0141518D01*
X0028067Y0135551D01*
X0028946Y0134672D01*
X0029929Y0134672D01*
X0029929Y0133533D01*
X0031101Y0132361D01*
X0032672Y0130790D01*
X0040542Y0130790D01*
X0043461Y0127871D01*
X0043461Y0123657D01*
X0044339Y0122778D01*
X0049913Y0122778D01*
X0050791Y0123657D01*
X0050791Y0130412D01*
X0049913Y0131290D01*
X0045698Y0131290D01*
X0043370Y0133619D01*
X0042317Y0134672D01*
X0043180Y0134672D01*
X0044059Y0135551D01*
X0044059Y0136534D01*
X0044927Y0136534D01*
X0046316Y0135146D01*
X0046316Y0134157D01*
X0046801Y0132987D01*
X0047696Y0132091D01*
X0048867Y0131606D01*
X0050133Y0131606D01*
X0050562Y0130641D02*
X0051564Y0130641D01*
X0051335Y0129643D02*
X0050791Y0129643D01*
X0050791Y0128644D02*
X0051335Y0128644D01*
X0051335Y0127646D02*
X0050791Y0127646D01*
X0050791Y0126647D02*
X0051335Y0126647D01*
X0051335Y0125649D02*
X0050791Y0125649D01*
X0050791Y0124650D02*
X0051335Y0124650D01*
X0051340Y0123652D02*
X0050786Y0123652D01*
X0050500Y0121790D02*
X0050500Y0115530D01*
X0051000Y0115664D02*
X0058837Y0115664D01*
X0058837Y0116662D02*
X0055150Y0116662D01*
X0055150Y0117661D02*
X0058837Y0117661D01*
X0058837Y0118659D02*
X0055050Y0118659D01*
X0058837Y0119658D02*
X0041621Y0119658D01*
X0042500Y0118778D02*
X0039688Y0121590D01*
X0038000Y0121590D01*
X0038000Y0117090D01*
X0042500Y0117090D01*
X0042500Y0118778D01*
X0042500Y0118659D02*
X0045950Y0118659D01*
X0045953Y0118668D02*
X0045850Y0118287D01*
X0045850Y0116030D01*
X0050000Y0116030D01*
X0050000Y0119589D01*
X0047153Y0119589D01*
X0046771Y0119487D01*
X0046429Y0119290D01*
X0046150Y0119010D01*
X0045953Y0118668D01*
X0045850Y0117661D02*
X0042500Y0117661D01*
X0042500Y0116490D02*
X0038686Y0116490D01*
X0038570Y0116607D01*
X0038000Y0116607D01*
X0038000Y0117090D01*
X0037400Y0117090D01*
X0037400Y0116607D01*
X0036830Y0116607D01*
X0036714Y0116490D01*
X0032900Y0116490D01*
X0032900Y0114802D01*
X0035600Y0112102D01*
X0035600Y0104689D01*
X0034323Y0104689D01*
X0033444Y0103811D01*
X0033444Y0097844D01*
X0034323Y0096965D01*
X0041077Y0096965D01*
X0041956Y0097844D01*
X0041956Y0103811D01*
X0041077Y0104689D01*
X0039800Y0104689D01*
X0039800Y0112102D01*
X0042500Y0114802D01*
X0042500Y0116490D01*
X0042500Y0115664D02*
X0050000Y0115664D01*
X0050000Y0116662D02*
X0051000Y0116662D01*
X0051000Y0117661D02*
X0050000Y0117661D01*
X0050000Y0118659D02*
X0051000Y0118659D01*
X0045850Y0116662D02*
X0038000Y0116662D01*
X0037400Y0116662D02*
X0024800Y0116662D01*
X0024800Y0116607D02*
X0024800Y0117090D01*
X0029300Y0117090D01*
X0029300Y0118778D01*
X0026488Y0121590D01*
X0024800Y0121590D01*
X0024800Y0117090D01*
X0024200Y0117090D01*
X0024200Y0116607D01*
X0023630Y0116607D01*
X0023514Y0116490D01*
X0019700Y0116490D01*
X0019700Y0114802D01*
X0022400Y0112102D01*
X0022400Y0104689D01*
X0021123Y0104689D01*
X0020244Y0103811D01*
X0020244Y0097844D01*
X0021123Y0096965D01*
X0027877Y0096965D01*
X0028756Y0097844D01*
X0028756Y0103811D01*
X0027877Y0104689D01*
X0026600Y0104689D01*
X0026600Y0112102D01*
X0029300Y0114802D01*
X0029300Y0116490D01*
X0025486Y0116490D01*
X0025370Y0116607D01*
X0024800Y0116607D01*
X0024200Y0116662D02*
X0003500Y0116662D01*
X0003500Y0115664D02*
X0019700Y0115664D01*
X0019837Y0114665D02*
X0003500Y0114665D01*
X0003500Y0113667D02*
X0020835Y0113667D01*
X0021834Y0112668D02*
X0003500Y0112668D01*
X0003500Y0111670D02*
X0022400Y0111670D01*
X0022400Y0110671D02*
X0003500Y0110671D01*
X0003500Y0109673D02*
X0022400Y0109673D01*
X0022400Y0108674D02*
X0003500Y0108674D01*
X0003500Y0107676D02*
X0022400Y0107676D01*
X0022400Y0106677D02*
X0003500Y0106677D01*
X0003500Y0105679D02*
X0022400Y0105679D01*
X0021113Y0104680D02*
X0003500Y0104680D01*
X0003500Y0103682D02*
X0020244Y0103682D01*
X0020244Y0102683D02*
X0003500Y0102683D01*
X0003500Y0101685D02*
X0020244Y0101685D01*
X0020244Y0100686D02*
X0003500Y0100686D01*
X0003500Y0099688D02*
X0020244Y0099688D01*
X0020244Y0098689D02*
X0003500Y0098689D01*
X0003500Y0097691D02*
X0020397Y0097691D01*
X0021123Y0096615D02*
X0020244Y0095737D01*
X0020244Y0089770D01*
X0021123Y0088891D01*
X0022400Y0088891D01*
X0022400Y0081478D01*
X0019700Y0078778D01*
X0019700Y0074802D01*
X0022512Y0071990D01*
X0026488Y0071990D01*
X0029300Y0074802D01*
X0029300Y0078778D01*
X0026600Y0081478D01*
X0026600Y0088891D01*
X0027877Y0088891D01*
X0028756Y0089770D01*
X0028756Y0095737D01*
X0027877Y0096615D01*
X0021123Y0096615D01*
X0020244Y0095694D02*
X0003500Y0095694D01*
X0003500Y0096692D02*
X0043413Y0096692D01*
X0043019Y0095694D02*
X0041956Y0095694D01*
X0041956Y0094695D02*
X0042624Y0094695D01*
X0042230Y0093696D02*
X0041956Y0093696D01*
X0045347Y0090701D02*
X0045850Y0090701D01*
X0045850Y0091699D02*
X0045742Y0091699D01*
X0045850Y0089702D02*
X0044952Y0089702D01*
X0044558Y0088704D02*
X0045850Y0088704D01*
X0045850Y0087705D02*
X0044163Y0087705D01*
X0043769Y0086707D02*
X0045850Y0086707D01*
X0046012Y0085708D02*
X0043374Y0085708D01*
X0042980Y0084710D02*
X0051752Y0084710D01*
X0050850Y0084046D02*
X0045276Y0084046D01*
X0044398Y0083167D01*
X0044398Y0076413D01*
X0044463Y0076348D01*
X0044463Y0074402D01*
X0044094Y0074034D01*
X0044094Y0069290D01*
X0041804Y0069290D01*
X0040517Y0068757D01*
X0039533Y0067773D01*
X0039000Y0066486D01*
X0039000Y0065094D01*
X0039533Y0063808D01*
X0040517Y0062823D01*
X0041804Y0062290D01*
X0044094Y0062290D01*
X0044094Y0054681D01*
X0044973Y0053802D01*
X0050153Y0053802D01*
X0051031Y0054681D01*
X0051031Y0063585D01*
X0051063Y0063661D01*
X0051063Y0065053D01*
X0051031Y0065129D01*
X0051031Y0074034D01*
X0050663Y0074402D01*
X0050663Y0075534D01*
X0050850Y0075534D01*
X0051728Y0076413D01*
X0051728Y0083167D01*
X0050850Y0084046D01*
X0051184Y0083711D02*
X0052816Y0083711D01*
X0052272Y0082713D02*
X0051728Y0082713D01*
X0051728Y0081714D02*
X0052272Y0081714D01*
X0052272Y0080716D02*
X0051728Y0080716D01*
X0051728Y0079717D02*
X0055437Y0079717D01*
X0055437Y0079290D02*
X0052272Y0079290D01*
X0052272Y0076837D01*
X0052374Y0076455D01*
X0052571Y0076113D01*
X0052851Y0075834D01*
X0053193Y0075637D01*
X0053574Y0075534D01*
X0055437Y0075534D01*
X0055437Y0079290D01*
X0055437Y0078719D02*
X0056437Y0078719D01*
X0056437Y0079717D02*
X0068500Y0079717D01*
X0068500Y0078719D02*
X0059602Y0078719D01*
X0059602Y0077720D02*
X0068500Y0077720D01*
X0068500Y0076722D02*
X0059572Y0076722D01*
X0058831Y0075723D02*
X0068500Y0075723D01*
X0068500Y0074725D02*
X0058132Y0074725D01*
X0057984Y0074810D02*
X0057603Y0074912D01*
X0055921Y0074912D01*
X0055921Y0064842D01*
X0054953Y0064842D01*
X0054953Y0074912D01*
X0053271Y0074912D01*
X0052890Y0074810D01*
X0052547Y0074613D01*
X0052268Y0074333D01*
X0052071Y0073991D01*
X0051969Y0073610D01*
X0051969Y0064841D01*
X0054953Y0064841D01*
X0054953Y0063873D01*
X0055921Y0063873D01*
X0055921Y0053802D01*
X0057603Y0053802D01*
X0057984Y0053904D01*
X0058327Y0054102D01*
X0058606Y0054381D01*
X0058803Y0054723D01*
X0058905Y0055105D01*
X0058905Y0063873D01*
X0055921Y0063873D01*
X0055921Y0064841D01*
X0058905Y0064841D01*
X0058905Y0073610D01*
X0058803Y0073991D01*
X0058606Y0074333D01*
X0058327Y0074613D01*
X0057984Y0074810D01*
X0058874Y0073726D02*
X0068500Y0073726D01*
X0068500Y0072728D02*
X0058905Y0072728D01*
X0058905Y0071729D02*
X0068500Y0071729D01*
X0068500Y0070731D02*
X0058905Y0070731D01*
X0058905Y0069732D02*
X0068500Y0069732D01*
X0068500Y0068734D02*
X0058905Y0068734D01*
X0058905Y0067735D02*
X0068500Y0067735D01*
X0068500Y0066737D02*
X0058905Y0066737D01*
X0058905Y0065738D02*
X0068500Y0065738D01*
X0068500Y0064740D02*
X0055921Y0064740D01*
X0054953Y0064740D02*
X0051063Y0064740D01*
X0051031Y0065738D02*
X0051969Y0065738D01*
X0051969Y0066737D02*
X0051031Y0066737D01*
X0051031Y0067735D02*
X0051969Y0067735D01*
X0051969Y0068734D02*
X0051031Y0068734D01*
X0051031Y0069732D02*
X0051969Y0069732D01*
X0051969Y0070731D02*
X0051031Y0070731D01*
X0051031Y0071729D02*
X0051969Y0071729D01*
X0051969Y0072728D02*
X0051031Y0072728D01*
X0051031Y0073726D02*
X0052000Y0073726D01*
X0052742Y0074725D02*
X0050663Y0074725D01*
X0051039Y0075723D02*
X0053043Y0075723D01*
X0052302Y0076722D02*
X0051728Y0076722D01*
X0051728Y0077720D02*
X0052272Y0077720D01*
X0052272Y0078719D02*
X0051728Y0078719D01*
X0055437Y0077720D02*
X0056437Y0077720D01*
X0056437Y0076722D02*
X0055437Y0076722D01*
X0055437Y0075723D02*
X0056437Y0075723D01*
X0055921Y0074725D02*
X0054953Y0074725D01*
X0054953Y0073726D02*
X0055921Y0073726D01*
X0055921Y0072728D02*
X0054953Y0072728D01*
X0054953Y0071729D02*
X0055921Y0071729D01*
X0055921Y0070731D02*
X0054953Y0070731D01*
X0054953Y0069732D02*
X0055921Y0069732D01*
X0055921Y0068734D02*
X0054953Y0068734D01*
X0054953Y0067735D02*
X0055921Y0067735D01*
X0055921Y0066737D02*
X0054953Y0066737D01*
X0054953Y0065738D02*
X0055921Y0065738D01*
X0055921Y0063741D02*
X0054953Y0063741D01*
X0054953Y0063873D02*
X0054953Y0053802D01*
X0053271Y0053802D01*
X0052890Y0053904D01*
X0052547Y0054102D01*
X0052268Y0054381D01*
X0052071Y0054723D01*
X0051969Y0055105D01*
X0051969Y0063873D01*
X0054953Y0063873D01*
X0054953Y0062743D02*
X0055921Y0062743D01*
X0055921Y0061744D02*
X0054953Y0061744D01*
X0054953Y0060746D02*
X0055921Y0060746D01*
X0055921Y0059747D02*
X0054953Y0059747D01*
X0054953Y0058749D02*
X0055921Y0058749D01*
X0055921Y0057750D02*
X0054953Y0057750D01*
X0054953Y0056752D02*
X0055921Y0056752D01*
X0055921Y0055753D02*
X0054953Y0055753D01*
X0054953Y0054755D02*
X0055921Y0054755D01*
X0058812Y0054755D02*
X0069000Y0054755D01*
X0069000Y0055753D02*
X0058905Y0055753D01*
X0058905Y0056752D02*
X0069000Y0056752D01*
X0069000Y0057750D02*
X0058905Y0057750D01*
X0058905Y0058749D02*
X0068500Y0058749D01*
X0068500Y0059747D02*
X0058905Y0059747D01*
X0058905Y0060746D02*
X0068500Y0060746D01*
X0068500Y0061744D02*
X0058905Y0061744D01*
X0058905Y0062743D02*
X0068500Y0062743D01*
X0068500Y0063741D02*
X0058905Y0063741D01*
X0051969Y0063741D02*
X0051063Y0063741D01*
X0051031Y0062743D02*
X0051969Y0062743D01*
X0051969Y0061744D02*
X0051031Y0061744D01*
X0051031Y0060746D02*
X0051969Y0060746D01*
X0051969Y0059747D02*
X0051031Y0059747D01*
X0051031Y0058749D02*
X0051969Y0058749D01*
X0051969Y0057750D02*
X0051031Y0057750D01*
X0051031Y0056752D02*
X0051969Y0056752D01*
X0051969Y0055753D02*
X0051031Y0055753D01*
X0051031Y0054755D02*
X0052062Y0054755D01*
X0044094Y0054755D02*
X0018877Y0054755D01*
X0020111Y0054509D02*
X0016500Y0055227D01*
X0012889Y0054509D01*
X0009827Y0052463D01*
X0007781Y0049402D01*
X0007063Y0045790D01*
X0007781Y0042179D01*
X0009827Y0039117D01*
X0012889Y0037072D01*
X0016500Y0036353D01*
X0020111Y0037072D01*
X0023173Y0039117D01*
X0025219Y0042179D01*
X0025937Y0045790D01*
X0025219Y0049402D01*
X0023173Y0052463D01*
X0020111Y0054509D01*
X0021238Y0053756D02*
X0069000Y0053756D01*
X0069000Y0052758D02*
X0022733Y0052758D01*
X0023644Y0051759D02*
X0034025Y0051759D01*
X0034343Y0052078D02*
X0033465Y0051199D01*
X0033465Y0036571D01*
X0034343Y0035692D01*
X0041885Y0035692D01*
X0042764Y0036571D01*
X0042764Y0051199D01*
X0041885Y0052078D01*
X0034343Y0052078D01*
X0033465Y0050760D02*
X0024311Y0050760D01*
X0024978Y0049762D02*
X0033465Y0049762D01*
X0033465Y0048763D02*
X0025346Y0048763D01*
X0025544Y0047765D02*
X0033465Y0047765D01*
X0033465Y0046766D02*
X0025743Y0046766D01*
X0025933Y0045768D02*
X0033465Y0045768D01*
X0033465Y0044769D02*
X0025734Y0044769D01*
X0025535Y0043771D02*
X0033465Y0043771D01*
X0033465Y0042772D02*
X0025337Y0042772D01*
X0024948Y0041774D02*
X0033465Y0041774D01*
X0033465Y0040775D02*
X0024281Y0040775D01*
X0023614Y0039777D02*
X0033465Y0039777D01*
X0033465Y0038778D02*
X0022666Y0038778D01*
X0021171Y0037780D02*
X0033465Y0037780D01*
X0033465Y0036781D02*
X0018652Y0036781D01*
X0014348Y0036781D02*
X0009609Y0036781D01*
X0008577Y0037780D02*
X0011829Y0037780D01*
X0010334Y0038778D02*
X0007544Y0038778D01*
X0006816Y0039777D02*
X0009386Y0039777D01*
X0008719Y0040775D02*
X0006165Y0040775D01*
X0005514Y0041774D02*
X0008052Y0041774D01*
X0007663Y0042772D02*
X0005008Y0042772D01*
X0004640Y0043771D02*
X0007465Y0043771D01*
X0007266Y0044769D02*
X0004272Y0044769D01*
X0003904Y0045768D02*
X0007067Y0045768D01*
X0007257Y0046766D02*
X0003688Y0046766D01*
X0003501Y0047765D02*
X0007456Y0047765D01*
X0007654Y0048763D02*
X0003500Y0048763D01*
X0003500Y0049762D02*
X0008022Y0049762D01*
X0008689Y0050760D02*
X0003500Y0050760D01*
X0003500Y0051759D02*
X0009356Y0051759D01*
X0010267Y0052758D02*
X0003500Y0052758D01*
X0003500Y0053756D02*
X0011762Y0053756D01*
X0014123Y0054755D02*
X0003500Y0054755D01*
X0003500Y0055753D02*
X0023805Y0055753D01*
X0023653Y0055859D02*
X0023973Y0055635D01*
X0024000Y0055588D01*
X0024066Y0055570D01*
X0024122Y0055531D01*
X0024176Y0055541D01*
X0024553Y0055440D01*
X0024906Y0055275D01*
X0024942Y0055233D01*
X0025009Y0055227D01*
X0025071Y0055198D01*
X0025122Y0055217D01*
X0025511Y0055183D01*
X0025888Y0055082D01*
X0025930Y0055047D01*
X0025998Y0055053D01*
X0026064Y0055035D01*
X0026111Y0055063D01*
X0026500Y0055097D01*
X0026889Y0055063D01*
X0026936Y0055035D01*
X0027002Y0055053D01*
X0027070Y0055047D01*
X0027112Y0055082D01*
X0027489Y0055183D01*
X0027877Y0055217D01*
X0027929Y0055198D01*
X0027991Y0055227D01*
X0028058Y0055233D01*
X0028094Y0055275D01*
X0028447Y0055440D01*
X0028824Y0055541D01*
X0028878Y0055531D01*
X0028934Y0055570D01*
X0029000Y0055588D01*
X0029027Y0055635D01*
X0029347Y0055859D01*
X0029701Y0056024D01*
X0029756Y0056024D01*
X0029804Y0056072D01*
X0029865Y0056101D01*
X0029884Y0056153D01*
X0030160Y0056429D01*
X0030480Y0056653D01*
X0030534Y0056662D01*
X0030573Y0056718D01*
X0030628Y0056757D01*
X0030638Y0056811D01*
X0030862Y0057130D01*
X0031138Y0057406D01*
X0031189Y0057425D01*
X0031218Y0057487D01*
X0031266Y0057535D01*
X0031266Y0057590D01*
X0031431Y0057943D01*
X0031655Y0058263D01*
X0031702Y0058291D01*
X0031720Y0058356D01*
X0031759Y0058412D01*
X0031749Y0058466D01*
X0031850Y0058843D01*
X0032015Y0059197D01*
X0032057Y0059232D01*
X0032063Y0059300D01*
X0032092Y0059361D01*
X0032073Y0059413D01*
X0032107Y0059802D01*
X0032208Y0060179D01*
X0032244Y0060221D01*
X0032238Y0060288D01*
X0032255Y0060354D01*
X0032228Y0060401D01*
X0032194Y0060790D01*
X0032228Y0061179D01*
X0032255Y0061227D01*
X0032238Y0061292D01*
X0032244Y0061360D01*
X0032208Y0061402D01*
X0032107Y0061779D01*
X0032073Y0062168D01*
X0032092Y0062219D01*
X0032063Y0062281D01*
X0032057Y0062349D01*
X0032015Y0062384D01*
X0031850Y0062738D01*
X0031749Y0063115D01*
X0031759Y0063169D01*
X0031720Y0063224D01*
X0031702Y0063290D01*
X0031655Y0063317D01*
X0031431Y0063637D01*
X0031266Y0063991D01*
X0031266Y0064046D01*
X0031218Y0064094D01*
X0031189Y0064155D01*
X0031138Y0064174D01*
X0030862Y0064450D01*
X0030638Y0064770D01*
X0030628Y0064824D01*
X0030573Y0064863D01*
X0030534Y0064918D01*
X0030480Y0064928D01*
X0030160Y0065152D01*
X0029884Y0065428D01*
X0029865Y0065479D01*
X0029804Y0065508D01*
X0029756Y0065556D01*
X0029701Y0065556D01*
X0029347Y0065721D01*
X0029027Y0065945D01*
X0029000Y0065993D01*
X0028934Y0066010D01*
X0028878Y0066049D01*
X0028824Y0066040D01*
X0028447Y0066141D01*
X0028094Y0066306D01*
X0028058Y0066348D01*
X0027991Y0066354D01*
X0027929Y0066382D01*
X0027877Y0066363D01*
X0027489Y0066397D01*
X0027112Y0066498D01*
X0027070Y0066534D01*
X0027002Y0066528D01*
X0026936Y0066545D01*
X0026889Y0066518D01*
X0026500Y0066484D01*
X0026111Y0066518D01*
X0026064Y0066545D01*
X0025998Y0066528D01*
X0025930Y0066534D01*
X0025888Y0066498D01*
X0025511Y0066397D01*
X0025122Y0066363D01*
X0025071Y0066382D01*
X0025009Y0066354D01*
X0024942Y0066348D01*
X0024906Y0066306D01*
X0024553Y0066141D01*
X0024176Y0066040D01*
X0024122Y0066049D01*
X0024066Y0066010D01*
X0024000Y0065993D01*
X0023973Y0065945D01*
X0023653Y0065721D01*
X0023299Y0065556D01*
X0023244Y0065556D01*
X0023196Y0065508D01*
X0023135Y0065479D01*
X0023116Y0065428D01*
X0022840Y0065152D01*
X0022520Y0064928D01*
X0022466Y0064918D01*
X0022427Y0064863D01*
X0022372Y0064824D01*
X0022362Y0064770D01*
X0022138Y0064450D01*
X0021862Y0064174D01*
X0021811Y0064155D01*
X0021782Y0064094D01*
X0021734Y0064046D01*
X0021734Y0063991D01*
X0021569Y0063637D01*
X0021345Y0063317D01*
X0021298Y0063290D01*
X0021280Y0063224D01*
X0021241Y0063169D01*
X0021251Y0063115D01*
X0021150Y0062738D01*
X0020985Y0062384D01*
X0020943Y0062349D01*
X0020937Y0062281D01*
X0020908Y0062219D01*
X0020927Y0062168D01*
X0020893Y0061779D01*
X0020792Y0061402D01*
X0020756Y0061360D01*
X0020762Y0061292D01*
X0020745Y0061227D01*
X0020772Y0061179D01*
X0020806Y0060790D01*
X0020772Y0060401D01*
X0020745Y0060354D01*
X0020762Y0060288D01*
X0020756Y0060221D01*
X0020792Y0060179D01*
X0020893Y0059802D01*
X0020927Y0059413D01*
X0020908Y0059361D01*
X0020937Y0059300D01*
X0020943Y0059232D01*
X0020985Y0059197D01*
X0021150Y0058843D01*
X0021251Y0058466D01*
X0021241Y0058412D01*
X0021280Y0058356D01*
X0021298Y0058291D01*
X0021345Y0058263D01*
X0021569Y0057943D01*
X0021734Y0057590D01*
X0021734Y0057535D01*
X0021782Y0057487D01*
X0021811Y0057425D01*
X0021862Y0057406D01*
X0022138Y0057130D01*
X0022362Y0056811D01*
X0022372Y0056757D01*
X0022427Y0056718D01*
X0022466Y0056662D01*
X0022520Y0056653D01*
X0022840Y0056429D01*
X0023116Y0056153D01*
X0023135Y0056101D01*
X0023196Y0056072D01*
X0023244Y0056024D01*
X0023299Y0056024D01*
X0023653Y0055859D01*
X0022379Y0056752D02*
X0003500Y0056752D01*
X0003500Y0057750D02*
X0021659Y0057750D01*
X0021175Y0058749D02*
X0003500Y0058749D01*
X0003500Y0059747D02*
X0020898Y0059747D01*
X0020802Y0060746D02*
X0003500Y0060746D01*
X0003500Y0061744D02*
X0020884Y0061744D01*
X0021151Y0062743D02*
X0003500Y0062743D01*
X0003500Y0063741D02*
X0021618Y0063741D01*
X0022341Y0064740D02*
X0003500Y0064740D01*
X0003500Y0065738D02*
X0023677Y0065738D01*
X0029323Y0065738D02*
X0039000Y0065738D01*
X0039104Y0066737D02*
X0003500Y0066737D01*
X0003500Y0067735D02*
X0039517Y0067735D01*
X0040494Y0068734D02*
X0003500Y0068734D01*
X0003500Y0069732D02*
X0044094Y0069732D01*
X0044094Y0070731D02*
X0003500Y0070731D01*
X0003500Y0071729D02*
X0044094Y0071729D01*
X0044094Y0072728D02*
X0040426Y0072728D01*
X0041424Y0073726D02*
X0044094Y0073726D01*
X0044463Y0074725D02*
X0042423Y0074725D01*
X0042500Y0075723D02*
X0044463Y0075723D01*
X0044398Y0076722D02*
X0042500Y0076722D01*
X0042500Y0077720D02*
X0044398Y0077720D01*
X0044398Y0078719D02*
X0042500Y0078719D01*
X0041561Y0079717D02*
X0044398Y0079717D01*
X0044398Y0080716D02*
X0041402Y0080716D01*
X0041796Y0081714D02*
X0044398Y0081714D01*
X0044398Y0082713D02*
X0042191Y0082713D01*
X0042585Y0083711D02*
X0044942Y0083711D01*
X0035600Y0083711D02*
X0026600Y0083711D01*
X0026600Y0082713D02*
X0035600Y0082713D01*
X0035600Y0081714D02*
X0026600Y0081714D01*
X0027363Y0080716D02*
X0034837Y0080716D01*
X0033839Y0079717D02*
X0028361Y0079717D01*
X0029300Y0078719D02*
X0032900Y0078719D01*
X0032900Y0077720D02*
X0029300Y0077720D01*
X0029300Y0076722D02*
X0032900Y0076722D01*
X0032900Y0075723D02*
X0029300Y0075723D01*
X0029223Y0074725D02*
X0032977Y0074725D01*
X0033976Y0073726D02*
X0028224Y0073726D01*
X0027226Y0072728D02*
X0034974Y0072728D01*
X0037700Y0076790D02*
X0045500Y0096530D01*
X0050500Y0096530D01*
X0050500Y0108050D01*
X0055150Y0107676D02*
X0056784Y0107676D01*
X0056244Y0106677D02*
X0055150Y0106677D01*
X0055150Y0105679D02*
X0056244Y0105679D01*
X0056244Y0104680D02*
X0054960Y0104680D01*
X0056244Y0103682D02*
X0052500Y0103682D01*
X0052500Y0102683D02*
X0056244Y0102683D01*
X0056244Y0101685D02*
X0052500Y0101685D01*
X0052500Y0100686D02*
X0057121Y0100686D01*
X0057165Y0100038D02*
X0056823Y0099841D01*
X0056544Y0099562D01*
X0056346Y0099220D01*
X0056244Y0098838D01*
X0056244Y0096975D01*
X0060000Y0096975D01*
X0060000Y0095975D01*
X0061000Y0095975D01*
X0061000Y0096975D01*
X0064756Y0096975D01*
X0064756Y0098838D01*
X0064654Y0099220D01*
X0064456Y0099562D01*
X0064177Y0099841D01*
X0063835Y0100038D01*
X0063453Y0100141D01*
X0061000Y0100141D01*
X0061000Y0096975D01*
X0060000Y0096975D01*
X0060000Y0100141D01*
X0057547Y0100141D01*
X0057165Y0100038D01*
X0056670Y0099688D02*
X0055150Y0099688D01*
X0055150Y0098689D02*
X0056244Y0098689D01*
X0056244Y0097691D02*
X0055150Y0097691D01*
X0055150Y0096692D02*
X0060000Y0096692D01*
X0060500Y0096475D02*
X0060500Y0091790D01*
X0058500Y0089790D01*
X0060500Y0089702D02*
X0055150Y0089702D01*
X0055150Y0088704D02*
X0060500Y0088704D01*
X0062500Y0090089D02*
X0062500Y0086790D01*
X0061500Y0085790D01*
X0053500Y0085790D01*
X0050500Y0088790D01*
X0050500Y0089050D01*
X0055150Y0090701D02*
X0060500Y0090701D01*
X0061282Y0091699D02*
X0055150Y0091699D01*
X0054682Y0092698D02*
X0062280Y0092698D01*
X0061000Y0093696D02*
X0060000Y0093696D01*
X0060000Y0092810D02*
X0060000Y0095975D01*
X0056244Y0095975D01*
X0056244Y0094112D01*
X0056346Y0093731D01*
X0056544Y0093389D01*
X0056823Y0093110D01*
X0057165Y0092912D01*
X0057547Y0092810D01*
X0060000Y0092810D01*
X0060000Y0094695D02*
X0061000Y0094695D01*
X0061000Y0095694D02*
X0060000Y0095694D01*
X0061000Y0096692D02*
X0066274Y0096692D01*
X0065276Y0095694D02*
X0064756Y0095694D01*
X0064756Y0097691D02*
X0067273Y0097691D01*
X0068271Y0098689D02*
X0064756Y0098689D01*
X0064330Y0099688D02*
X0069270Y0099688D01*
X0070268Y0100686D02*
X0063879Y0100686D01*
X0064756Y0101685D02*
X0071267Y0101685D01*
X0072265Y0102683D02*
X0064756Y0102683D01*
X0065000Y0104790D02*
X0065000Y0106790D01*
X0073321Y0106790D01*
X0073321Y0106790D01*
X0072327Y0106790D01*
X0072327Y0106042D01*
X0072390Y0105806D01*
X0072327Y0105570D01*
X0072327Y0104822D01*
X0073321Y0104822D01*
X0072327Y0104822D01*
X0072327Y0104790D01*
X0065000Y0104790D01*
X0065000Y0105679D02*
X0072356Y0105679D01*
X0072000Y0105790D02*
X0072000Y0106790D01*
X0075264Y0106790D01*
X0075264Y0104822D02*
X0069969Y0104822D01*
X0069969Y0104821D02*
X0069908Y0104823D01*
X0069848Y0104829D01*
X0069787Y0104838D01*
X0069728Y0104851D01*
X0069670Y0104868D01*
X0069612Y0104889D01*
X0069556Y0104913D01*
X0069502Y0104941D01*
X0069450Y0104972D01*
X0069399Y0105006D01*
X0069351Y0105043D01*
X0069306Y0105084D01*
X0069263Y0105127D01*
X0069222Y0105172D01*
X0069185Y0105220D01*
X0069151Y0105271D01*
X0069120Y0105323D01*
X0069092Y0105377D01*
X0069068Y0105433D01*
X0069047Y0105491D01*
X0069030Y0105549D01*
X0069017Y0105608D01*
X0069008Y0105669D01*
X0069002Y0105729D01*
X0069000Y0105790D01*
X0068031Y0108759D02*
X0066500Y0110290D01*
X0068031Y0108759D02*
X0075264Y0108759D01*
X0075264Y0110790D02*
X0075264Y0112778D01*
X0075264Y0110790D01*
X0075264Y0110790D01*
X0075264Y0111670D02*
X0075264Y0111670D01*
X0075264Y0112668D02*
X0075264Y0112668D01*
X0075264Y0112778D02*
X0073629Y0112778D01*
X0073248Y0112676D01*
X0072906Y0112479D01*
X0072626Y0112199D01*
X0072429Y0111857D01*
X0072327Y0111476D01*
X0072327Y0110790D01*
X0069491Y0110790D01*
X0069491Y0110885D01*
X0069036Y0111985D01*
X0069000Y0112021D01*
X0069000Y0121283D01*
X0079000Y0121283D01*
X0079000Y0117463D01*
X0078314Y0117463D01*
X0077933Y0117361D01*
X0077591Y0117164D01*
X0077312Y0116885D01*
X0077114Y0116542D01*
X0077012Y0116161D01*
X0077012Y0114527D01*
X0079000Y0114527D01*
X0079000Y0114526D01*
X0077012Y0114526D01*
X0077012Y0113790D01*
X0076500Y0113790D01*
X0076500Y0112778D01*
X0075264Y0112778D01*
X0076500Y0113667D02*
X0069000Y0113667D01*
X0069000Y0114665D02*
X0077012Y0114665D01*
X0077012Y0115664D02*
X0069000Y0115664D01*
X0069000Y0116662D02*
X0077183Y0116662D01*
X0079000Y0117661D02*
X0069000Y0117661D01*
X0069000Y0118659D02*
X0079000Y0118659D01*
X0079000Y0119658D02*
X0069000Y0119658D01*
X0069000Y0120656D02*
X0079000Y0120656D01*
X0081000Y0120656D02*
X0083355Y0120656D01*
X0083346Y0120672D02*
X0083544Y0120330D01*
X0083823Y0120051D01*
X0084165Y0119853D01*
X0084547Y0119751D01*
X0085000Y0119751D01*
X0085000Y0117463D01*
X0084969Y0117463D01*
X0084969Y0116469D01*
X0084968Y0116470D01*
X0084968Y0117463D01*
X0084220Y0117463D01*
X0083984Y0117400D01*
X0083749Y0117463D01*
X0083000Y0117463D01*
X0082251Y0117463D01*
X0082016Y0117400D01*
X0081780Y0117463D01*
X0081032Y0117463D01*
X0081032Y0116470D01*
X0081031Y0116469D01*
X0081031Y0117463D01*
X0081000Y0117463D01*
X0081000Y0129290D01*
X0085000Y0129290D01*
X0085000Y0128263D01*
X0084547Y0128263D01*
X0084165Y0128160D01*
X0083823Y0127963D01*
X0083544Y0127684D01*
X0083346Y0127342D01*
X0083244Y0126960D01*
X0083244Y0124507D01*
X0085000Y0124507D01*
X0085000Y0123507D01*
X0083244Y0123507D01*
X0083244Y0121053D01*
X0083346Y0120672D01*
X0083244Y0121655D02*
X0081000Y0121655D01*
X0081000Y0122653D02*
X0083244Y0122653D01*
X0085000Y0123652D02*
X0081000Y0123652D01*
X0081031Y0123322D02*
X0081500Y0123790D01*
X0081031Y0123322D02*
X0081031Y0114526D01*
X0081031Y0119790D01*
X0082500Y0119790D01*
X0082500Y0118790D01*
X0083000Y0118790D02*
X0085000Y0118790D01*
X0085000Y0114526D01*
X0085000Y0114527D01*
X0084969Y0114527D01*
X0084969Y0114526D01*
X0085000Y0114526D01*
X0084969Y0114526D01*
X0083000Y0114526D02*
X0083000Y0118790D01*
X0083000Y0117463D02*
X0083000Y0116470D01*
X0083000Y0116469D01*
X0083000Y0116470D01*
X0083000Y0117463D01*
X0083000Y0116662D02*
X0083000Y0116662D01*
X0084968Y0116662D02*
X0084969Y0116662D01*
X0085000Y0117661D02*
X0081000Y0117661D01*
X0081000Y0118659D02*
X0085000Y0118659D01*
X0085000Y0119658D02*
X0081000Y0119658D01*
X0081031Y0116662D02*
X0081032Y0116662D01*
X0087000Y0114527D02*
X0088988Y0114527D01*
X0088988Y0115883D01*
X0097500Y0115883D01*
X0097500Y0111021D01*
X0096964Y0110485D01*
X0096509Y0109385D01*
X0096509Y0108790D01*
X0093673Y0108790D01*
X0093673Y0109507D01*
X0093610Y0109743D01*
X0093673Y0109979D01*
X0093673Y0110727D01*
X0092679Y0110727D01*
X0093673Y0110727D01*
X0093673Y0111476D01*
X0093571Y0111857D01*
X0093374Y0112199D01*
X0093094Y0112479D01*
X0092752Y0112676D01*
X0092371Y0112778D01*
X0090736Y0112778D01*
X0090736Y0110727D01*
X0090799Y0110790D01*
X0094500Y0110790D01*
X0094500Y0108790D01*
X0094469Y0108759D01*
X0090736Y0108759D01*
X0090736Y0110727D02*
X0090736Y0110727D01*
X0090736Y0112778D01*
X0089500Y0112778D01*
X0089500Y0114290D01*
X0088988Y0114290D01*
X0088988Y0114526D01*
X0087000Y0114526D01*
X0087000Y0114527D01*
X0088988Y0114665D02*
X0097500Y0114665D01*
X0097500Y0113667D02*
X0089500Y0113667D01*
X0090736Y0112668D02*
X0090736Y0112668D01*
X0090736Y0111670D02*
X0090736Y0111670D01*
X0092679Y0110727D02*
X0092679Y0110727D01*
X0093673Y0110671D02*
X0097151Y0110671D01*
X0097500Y0111670D02*
X0093621Y0111670D01*
X0092766Y0112668D02*
X0097500Y0112668D01*
X0097500Y0115664D02*
X0088988Y0115664D01*
X0094500Y0115290D02*
X0094500Y0114290D01*
X0093629Y0109673D02*
X0096628Y0109673D01*
X0099500Y0108790D02*
X0097500Y0106790D01*
X0090736Y0106790D01*
X0090736Y0104822D02*
X0104531Y0104822D01*
X0107815Y0101538D01*
X0108500Y0101538D01*
X0104437Y0101685D02*
X0093549Y0101685D01*
X0104244Y0101685D01*
X0104244Y0102281D02*
X0104244Y0098752D01*
X0105123Y0097873D01*
X0111877Y0097873D01*
X0112756Y0098752D01*
X0112756Y0104325D01*
X0111877Y0105204D01*
X0106978Y0105204D01*
X0105998Y0106184D01*
X0106667Y0105907D01*
X0117400Y0105907D01*
X0117400Y0090890D01*
X0112637Y0090890D01*
X0112654Y0090920D01*
X0112756Y0091301D01*
X0112756Y0093164D01*
X0109000Y0093164D01*
X0109000Y0094164D01*
X0112756Y0094164D01*
X0112756Y0096027D01*
X0112654Y0096409D01*
X0112456Y0096751D01*
X0112177Y0097030D01*
X0111835Y0097227D01*
X0111453Y0097330D01*
X0109000Y0097330D01*
X0109000Y0094164D01*
X0108000Y0094164D01*
X0108000Y0093164D01*
X0104244Y0093164D01*
X0104244Y0091301D01*
X0104346Y0090920D01*
X0104544Y0090578D01*
X0104823Y0090299D01*
X0105165Y0090101D01*
X0105206Y0090090D01*
X0086968Y0090090D01*
X0086968Y0096117D01*
X0087686Y0096117D01*
X0088067Y0096219D01*
X0088409Y0096417D01*
X0088688Y0096696D01*
X0088886Y0097038D01*
X0088988Y0097420D01*
X0088988Y0099054D01*
X0087020Y0099054D01*
X0087020Y0099054D01*
X0088988Y0099054D01*
X0087000Y0099054D01*
X0087000Y0099054D01*
X0088988Y0099054D01*
X0088988Y0097420D01*
X0088886Y0097038D01*
X0088688Y0096696D01*
X0088409Y0096417D01*
X0088067Y0096219D01*
X0087686Y0096117D01*
X0087000Y0096117D01*
X0087000Y0090290D01*
X0104838Y0090290D01*
X0104823Y0090299D01*
X0104544Y0090578D01*
X0104346Y0090920D01*
X0104244Y0091301D01*
X0104244Y0093164D01*
X0108000Y0093164D01*
X0108000Y0094164D01*
X0104244Y0094164D01*
X0104244Y0096027D01*
X0104346Y0096409D01*
X0104544Y0096751D01*
X0104823Y0097030D01*
X0105165Y0097227D01*
X0105547Y0097330D01*
X0108000Y0097330D01*
X0108000Y0094164D01*
X0104244Y0094164D01*
X0104244Y0096027D01*
X0104346Y0096409D01*
X0104544Y0096751D01*
X0104823Y0097030D01*
X0105165Y0097227D01*
X0105547Y0097330D01*
X0108000Y0097330D01*
X0108000Y0094164D01*
X0109000Y0094164D01*
X0109000Y0097330D01*
X0111000Y0097330D01*
X0111000Y0098066D01*
X0105203Y0098066D01*
X0104437Y0098832D01*
X0104437Y0102361D01*
X0104007Y0102790D01*
X0093673Y0102790D01*
X0093673Y0102105D01*
X0093673Y0102822D01*
X0103703Y0102822D01*
X0104244Y0102281D01*
X0104115Y0102683D02*
X0093673Y0102683D01*
X0103842Y0102683D01*
X0104244Y0100686D02*
X0088988Y0100686D01*
X0104437Y0100686D01*
X0104437Y0099688D02*
X0088988Y0099688D01*
X0104244Y0099688D01*
X0104307Y0098689D02*
X0088988Y0098689D01*
X0104579Y0098689D01*
X0104510Y0096692D02*
X0088684Y0096692D01*
X0104510Y0096692D01*
X0104244Y0095694D02*
X0086968Y0095694D01*
X0087000Y0095694D02*
X0104244Y0095694D01*
X0104244Y0094695D02*
X0086968Y0094695D01*
X0087000Y0094695D02*
X0104244Y0094695D01*
X0104244Y0092698D02*
X0086968Y0092698D01*
X0087000Y0092698D02*
X0104244Y0092698D01*
X0104244Y0091699D02*
X0086968Y0091699D01*
X0087000Y0091699D02*
X0104244Y0091699D01*
X0104473Y0090701D02*
X0086968Y0090701D01*
X0087000Y0090701D02*
X0104473Y0090701D01*
X0108000Y0093696D02*
X0086968Y0093696D01*
X0087000Y0093696D02*
X0108000Y0093696D01*
X0108000Y0094695D02*
X0109000Y0094695D01*
X0108000Y0094695D01*
X0108000Y0095694D02*
X0109000Y0095694D01*
X0108000Y0095694D01*
X0108000Y0096692D02*
X0109000Y0096692D01*
X0108000Y0096692D01*
X0111000Y0097691D02*
X0088988Y0097691D01*
X0117400Y0097691D01*
X0117400Y0098689D02*
X0112693Y0098689D01*
X0112756Y0099688D02*
X0117400Y0099688D01*
X0117400Y0100686D02*
X0112756Y0100686D01*
X0112756Y0101685D02*
X0117400Y0101685D01*
X0117400Y0102683D02*
X0112756Y0102683D01*
X0112756Y0103682D02*
X0117400Y0103682D01*
X0117400Y0104680D02*
X0112401Y0104680D01*
X0117400Y0105679D02*
X0106503Y0105679D01*
X0093673Y0102105D02*
X0093571Y0101723D01*
X0093374Y0101381D01*
X0093094Y0101102D01*
X0092752Y0100904D01*
X0092371Y0100802D01*
X0090736Y0100802D01*
X0090736Y0102771D01*
X0090736Y0102771D01*
X0090736Y0100802D01*
X0089102Y0100802D01*
X0089002Y0100829D01*
X0088962Y0100788D01*
X0088988Y0100689D01*
X0088988Y0099054D01*
X0088988Y0100689D01*
X0088962Y0100788D01*
X0089002Y0100829D01*
X0089102Y0100802D01*
X0090736Y0100802D01*
X0090736Y0102790D01*
X0090736Y0102790D01*
X0090736Y0100802D01*
X0092371Y0100802D01*
X0092752Y0100904D01*
X0093094Y0101102D01*
X0093374Y0101381D01*
X0093571Y0101723D01*
X0093673Y0102105D01*
X0090736Y0101685D02*
X0090736Y0101685D01*
X0090736Y0101685D01*
X0090736Y0102683D02*
X0090736Y0102683D01*
X0090736Y0102683D01*
X0090736Y0102853D02*
X0086937Y0102853D01*
X0087000Y0102790D02*
X0086937Y0102727D01*
X0085874Y0103790D01*
X0083000Y0103790D01*
X0082500Y0103682D02*
X0083500Y0103682D01*
X0083500Y0104680D02*
X0082500Y0104680D01*
X0082500Y0105679D02*
X0083500Y0105679D01*
X0083500Y0106290D02*
X0083500Y0101991D01*
X0082500Y0101991D01*
X0082500Y0106290D01*
X0083500Y0106290D01*
X0083500Y0107290D01*
X0087799Y0107290D01*
X0087799Y0106290D01*
X0083500Y0106290D01*
X0083500Y0106677D02*
X0087799Y0106677D01*
X0083500Y0107290D02*
X0082500Y0107290D01*
X0082500Y0106290D01*
X0078201Y0106290D01*
X0078201Y0107290D01*
X0082500Y0107290D01*
X0082500Y0111589D01*
X0083500Y0111589D01*
X0083500Y0107290D01*
X0083500Y0107676D02*
X0082500Y0107676D01*
X0082500Y0108674D02*
X0083500Y0108674D01*
X0083500Y0109673D02*
X0082500Y0109673D01*
X0082500Y0110671D02*
X0083500Y0110671D01*
X0082500Y0106677D02*
X0078201Y0106677D01*
X0075264Y0102853D02*
X0062500Y0090089D01*
X0066500Y0087790D02*
X0070500Y0087790D01*
X0075500Y0092790D01*
X0077500Y0092790D01*
X0079063Y0094353D01*
X0079063Y0099054D01*
X0081031Y0099054D02*
X0081031Y0092322D01*
X0079500Y0090790D01*
X0076500Y0090790D01*
X0070500Y0084790D01*
X0070500Y0059290D01*
X0071000Y0058790D01*
X0071000Y0039790D01*
X0072500Y0038290D01*
X0091500Y0038290D01*
X0093500Y0038290D01*
X0094000Y0038290D01*
X0106000Y0050290D01*
X0106000Y0059156D01*
X0109862Y0058749D02*
X0149094Y0058749D01*
X0149094Y0059747D02*
X0109862Y0059747D01*
X0109862Y0060746D02*
X0149094Y0060746D01*
X0149094Y0061744D02*
X0109862Y0061744D01*
X0109259Y0062743D02*
X0145712Y0062743D01*
X0145517Y0062823D02*
X0146804Y0062290D01*
X0149094Y0062290D01*
X0149094Y0054681D01*
X0149973Y0053802D01*
X0155153Y0053802D01*
X0156031Y0054681D01*
X0156031Y0063585D01*
X0156063Y0063661D01*
X0156063Y0065053D01*
X0156031Y0065129D01*
X0156031Y0074034D01*
X0155663Y0074402D01*
X0155663Y0075534D01*
X0155850Y0075534D01*
X0156728Y0076413D01*
X0156728Y0083167D01*
X0155850Y0084046D01*
X0150276Y0084046D01*
X0149398Y0083167D01*
X0149398Y0076413D01*
X0149463Y0076348D01*
X0149463Y0074402D01*
X0149094Y0074034D01*
X0149094Y0069290D01*
X0146804Y0069290D01*
X0145517Y0068757D01*
X0144533Y0067773D01*
X0144000Y0066486D01*
X0144000Y0065094D01*
X0144533Y0063808D01*
X0145517Y0062823D01*
X0144599Y0063741D02*
X0109163Y0063741D01*
X0109862Y0064740D02*
X0144147Y0064740D01*
X0144000Y0065738D02*
X0109862Y0065738D01*
X0109862Y0066737D02*
X0144104Y0066737D01*
X0144517Y0067735D02*
X0109862Y0067735D01*
X0109862Y0068734D02*
X0145494Y0068734D01*
X0149094Y0069732D02*
X0113695Y0069732D01*
X0114693Y0070731D02*
X0149094Y0070731D01*
X0149094Y0071729D02*
X0115692Y0071729D01*
X0116690Y0072728D02*
X0126774Y0072728D01*
X0127512Y0071990D02*
X0131488Y0071990D01*
X0134300Y0074802D01*
X0134300Y0078778D01*
X0131600Y0081478D01*
X0131600Y0088891D01*
X0132877Y0088891D01*
X0133756Y0089770D01*
X0133756Y0095737D01*
X0132877Y0096615D01*
X0126123Y0096615D01*
X0125244Y0095737D01*
X0125244Y0089770D01*
X0126123Y0088891D01*
X0127400Y0088891D01*
X0127400Y0081478D01*
X0124700Y0078778D01*
X0124700Y0074802D01*
X0127512Y0071990D01*
X0125776Y0073726D02*
X0117689Y0073726D01*
X0117800Y0074725D02*
X0124777Y0074725D01*
X0124700Y0075723D02*
X0117800Y0075723D01*
X0117800Y0076722D02*
X0124700Y0076722D01*
X0124700Y0077720D02*
X0117800Y0077720D01*
X0117800Y0078719D02*
X0124700Y0078719D01*
X0125639Y0079717D02*
X0117800Y0079717D01*
X0117800Y0080716D02*
X0126637Y0080716D01*
X0127400Y0081714D02*
X0117800Y0081714D01*
X0117800Y0082713D02*
X0127400Y0082713D01*
X0127400Y0083711D02*
X0117800Y0083711D01*
X0121164Y0084710D02*
X0127400Y0084710D01*
X0127400Y0085708D02*
X0122802Y0085708D01*
X0123407Y0086707D02*
X0127400Y0086707D01*
X0127400Y0087705D02*
X0123600Y0087705D01*
X0123600Y0088704D02*
X0127400Y0088704D01*
X0125311Y0089702D02*
X0123600Y0089702D01*
X0123600Y0090701D02*
X0125244Y0090701D01*
X0125244Y0091699D02*
X0123600Y0091699D01*
X0123600Y0092698D02*
X0125244Y0092698D01*
X0125244Y0093696D02*
X0123600Y0093696D01*
X0123600Y0094695D02*
X0125244Y0094695D01*
X0125244Y0095694D02*
X0123600Y0095694D01*
X0123600Y0096692D02*
X0148419Y0096692D01*
X0148035Y0095694D02*
X0147156Y0095694D01*
X0147156Y0094695D02*
X0147650Y0094695D01*
X0147266Y0093696D02*
X0147156Y0093696D01*
X0150783Y0091699D02*
X0150850Y0091699D01*
X0150850Y0090701D02*
X0150399Y0090701D01*
X0150014Y0089702D02*
X0150850Y0089702D01*
X0150850Y0088704D02*
X0149630Y0088704D01*
X0149245Y0087705D02*
X0150850Y0087705D01*
X0150850Y0086707D02*
X0148861Y0086707D01*
X0148477Y0085708D02*
X0151012Y0085708D01*
X0149942Y0083711D02*
X0147708Y0083711D01*
X0147323Y0082713D02*
X0149398Y0082713D01*
X0149398Y0081714D02*
X0146939Y0081714D01*
X0146554Y0080716D02*
X0149398Y0080716D01*
X0149398Y0079717D02*
X0146761Y0079717D01*
X0147700Y0078719D02*
X0149398Y0078719D01*
X0149398Y0077720D02*
X0147700Y0077720D01*
X0147700Y0076722D02*
X0149398Y0076722D01*
X0149463Y0075723D02*
X0147700Y0075723D01*
X0147623Y0074725D02*
X0149463Y0074725D01*
X0149094Y0073726D02*
X0146624Y0073726D01*
X0145626Y0072728D02*
X0149094Y0072728D01*
X0155663Y0074725D02*
X0157742Y0074725D01*
X0157890Y0074810D02*
X0157547Y0074613D01*
X0157268Y0074333D01*
X0157071Y0073991D01*
X0156969Y0073610D01*
X0156969Y0064841D01*
X0159953Y0064841D01*
X0159953Y0063873D01*
X0160921Y0063873D01*
X0160921Y0053802D01*
X0162603Y0053802D01*
X0162984Y0053904D01*
X0163327Y0054102D01*
X0163606Y0054381D01*
X0163803Y0054723D01*
X0163905Y0055105D01*
X0163905Y0063873D01*
X0160921Y0063873D01*
X0160921Y0064841D01*
X0163905Y0064841D01*
X0163905Y0073610D01*
X0163803Y0073991D01*
X0163606Y0074333D01*
X0163327Y0074613D01*
X0162984Y0074810D01*
X0162603Y0074912D01*
X0160921Y0074912D01*
X0160921Y0064842D01*
X0159953Y0064842D01*
X0159953Y0074912D01*
X0158271Y0074912D01*
X0157890Y0074810D01*
X0158193Y0075637D02*
X0157851Y0075834D01*
X0157571Y0076113D01*
X0157374Y0076455D01*
X0157272Y0076837D01*
X0157272Y0079290D01*
X0160437Y0079290D01*
X0160437Y0075534D01*
X0158574Y0075534D01*
X0158193Y0075637D01*
X0158043Y0075723D02*
X0156039Y0075723D01*
X0156728Y0076722D02*
X0157302Y0076722D01*
X0157272Y0077720D02*
X0156728Y0077720D01*
X0156728Y0078719D02*
X0157272Y0078719D01*
X0156728Y0079717D02*
X0160437Y0079717D01*
X0160437Y0078719D02*
X0161437Y0078719D01*
X0161437Y0079717D02*
X0173465Y0079717D01*
X0173459Y0078719D02*
X0164602Y0078719D01*
X0164602Y0077720D02*
X0173452Y0077720D01*
X0173445Y0076722D02*
X0164572Y0076722D01*
X0163831Y0075723D02*
X0173438Y0075723D01*
X0173431Y0074725D02*
X0163132Y0074725D01*
X0163874Y0073726D02*
X0173424Y0073726D01*
X0173418Y0072728D02*
X0163905Y0072728D01*
X0163905Y0071729D02*
X0173411Y0071729D01*
X0173404Y0070731D02*
X0163905Y0070731D01*
X0163905Y0069732D02*
X0173397Y0069732D01*
X0173390Y0068734D02*
X0163905Y0068734D01*
X0163905Y0067735D02*
X0173384Y0067735D01*
X0173377Y0066737D02*
X0163905Y0066737D01*
X0163905Y0065738D02*
X0173370Y0065738D01*
X0173363Y0064740D02*
X0160921Y0064740D01*
X0159953Y0064740D02*
X0156063Y0064740D01*
X0156031Y0065738D02*
X0156969Y0065738D01*
X0156969Y0066737D02*
X0156031Y0066737D01*
X0156031Y0067735D02*
X0156969Y0067735D01*
X0156969Y0068734D02*
X0156031Y0068734D01*
X0156031Y0069732D02*
X0156969Y0069732D01*
X0156969Y0070731D02*
X0156031Y0070731D01*
X0156031Y0071729D02*
X0156969Y0071729D01*
X0156969Y0072728D02*
X0156031Y0072728D01*
X0156031Y0073726D02*
X0157000Y0073726D01*
X0159953Y0073726D02*
X0160921Y0073726D01*
X0160921Y0072728D02*
X0159953Y0072728D01*
X0159953Y0071729D02*
X0160921Y0071729D01*
X0160921Y0070731D02*
X0159953Y0070731D01*
X0159953Y0069732D02*
X0160921Y0069732D01*
X0160921Y0068734D02*
X0159953Y0068734D01*
X0159953Y0067735D02*
X0160921Y0067735D01*
X0160921Y0066737D02*
X0159953Y0066737D01*
X0159953Y0065738D02*
X0160921Y0065738D01*
X0160921Y0063741D02*
X0159953Y0063741D01*
X0159953Y0063873D02*
X0159953Y0053802D01*
X0158271Y0053802D01*
X0157890Y0053904D01*
X0157547Y0054102D01*
X0157268Y0054381D01*
X0157071Y0054723D01*
X0156969Y0055105D01*
X0156969Y0063873D01*
X0159953Y0063873D01*
X0159953Y0062743D02*
X0160921Y0062743D01*
X0160921Y0061744D02*
X0159953Y0061744D01*
X0159953Y0060746D02*
X0160921Y0060746D01*
X0160921Y0059747D02*
X0159953Y0059747D01*
X0159953Y0058749D02*
X0160921Y0058749D01*
X0160921Y0057750D02*
X0159953Y0057750D01*
X0159953Y0056752D02*
X0160921Y0056752D01*
X0160921Y0055753D02*
X0159953Y0055753D01*
X0159953Y0054755D02*
X0160921Y0054755D01*
X0163812Y0054755D02*
X0173295Y0054755D01*
X0173300Y0055753D02*
X0163905Y0055753D01*
X0163905Y0056752D02*
X0173309Y0056752D01*
X0173315Y0057750D02*
X0163905Y0057750D01*
X0163905Y0058749D02*
X0173322Y0058749D01*
X0173329Y0059747D02*
X0163905Y0059747D01*
X0163905Y0060746D02*
X0173336Y0060746D01*
X0173343Y0061744D02*
X0163905Y0061744D01*
X0163905Y0062743D02*
X0173349Y0062743D01*
X0173356Y0063741D02*
X0163905Y0063741D01*
X0156969Y0063741D02*
X0156063Y0063741D01*
X0156031Y0062743D02*
X0156969Y0062743D01*
X0156969Y0061744D02*
X0156031Y0061744D01*
X0156031Y0060746D02*
X0156969Y0060746D01*
X0156969Y0059747D02*
X0156031Y0059747D01*
X0156031Y0058749D02*
X0156969Y0058749D01*
X0156969Y0057750D02*
X0156031Y0057750D01*
X0156031Y0056752D02*
X0156969Y0056752D01*
X0156969Y0055753D02*
X0156031Y0055753D01*
X0156031Y0054755D02*
X0157062Y0054755D01*
X0149094Y0054755D02*
X0108000Y0054755D01*
X0108000Y0053756D02*
X0109516Y0053756D01*
X0109517Y0053757D02*
X0108533Y0052773D01*
X0108000Y0051486D01*
X0108000Y0047070D01*
X0107844Y0046914D01*
X0107844Y0041341D01*
X0108723Y0040462D01*
X0115477Y0040462D01*
X0116356Y0041341D01*
X0116356Y0046914D01*
X0115477Y0047793D01*
X0115000Y0047793D01*
X0115000Y0051486D01*
X0114467Y0052773D01*
X0113483Y0053757D01*
X0112196Y0054290D01*
X0110804Y0054290D01*
X0109517Y0053757D01*
X0108526Y0052758D02*
X0108000Y0052758D01*
X0108000Y0051759D02*
X0108113Y0051759D01*
X0108000Y0050760D02*
X0108000Y0050760D01*
X0108000Y0049762D02*
X0108000Y0049762D01*
X0108000Y0048763D02*
X0107302Y0048763D01*
X0108000Y0047765D02*
X0106303Y0047765D01*
X0105305Y0046766D02*
X0107844Y0046766D01*
X0107844Y0045768D02*
X0104306Y0045768D01*
X0103308Y0044769D02*
X0107844Y0044769D01*
X0107844Y0043771D02*
X0102309Y0043771D01*
X0101311Y0042772D02*
X0107844Y0042772D01*
X0107844Y0041774D02*
X0100312Y0041774D01*
X0099314Y0040775D02*
X0108409Y0040775D01*
X0108765Y0039816D02*
X0108423Y0039619D01*
X0108144Y0039340D01*
X0107946Y0038998D01*
X0107844Y0038616D01*
X0107844Y0036753D01*
X0111600Y0036753D01*
X0111600Y0039919D01*
X0109147Y0039919D01*
X0108765Y0039816D01*
X0108697Y0039777D02*
X0098315Y0039777D01*
X0097317Y0038778D02*
X0107888Y0038778D01*
X0107844Y0037780D02*
X0096318Y0037780D01*
X0095319Y0036781D02*
X0107844Y0036781D01*
X0107844Y0034784D02*
X0012586Y0034784D01*
X0010937Y0035783D02*
X0034252Y0035783D01*
X0041976Y0035783D02*
X0061024Y0035783D01*
X0060236Y0036781D02*
X0042764Y0036781D01*
X0042764Y0037780D02*
X0060236Y0037780D01*
X0060236Y0038778D02*
X0042764Y0038778D01*
X0042764Y0039777D02*
X0060236Y0039777D01*
X0060236Y0040775D02*
X0042764Y0040775D01*
X0042764Y0041774D02*
X0060236Y0041774D01*
X0060236Y0042772D02*
X0042764Y0042772D01*
X0042764Y0043771D02*
X0060236Y0043771D01*
X0060236Y0044769D02*
X0042764Y0044769D01*
X0042764Y0045768D02*
X0060236Y0045768D01*
X0060236Y0046766D02*
X0042764Y0046766D01*
X0042764Y0047765D02*
X0060236Y0047765D01*
X0060236Y0048763D02*
X0042764Y0048763D01*
X0042764Y0049762D02*
X0060236Y0049762D01*
X0060236Y0050760D02*
X0042764Y0050760D01*
X0042204Y0051759D02*
X0060796Y0051759D01*
X0068975Y0051759D02*
X0069000Y0051759D01*
X0073000Y0051759D02*
X0104000Y0051759D01*
X0104000Y0052758D02*
X0073000Y0052758D01*
X0073000Y0053756D02*
X0104000Y0053756D01*
X0104000Y0054755D02*
X0073000Y0054755D01*
X0073000Y0055753D02*
X0073558Y0055753D01*
X0073138Y0056752D02*
X0073000Y0056752D01*
X0073500Y0059290D02*
X0076866Y0059290D01*
X0077000Y0059156D01*
X0076366Y0058523D01*
X0073500Y0059290D02*
X0073000Y0059790D01*
X0073000Y0070790D01*
X0072500Y0071290D01*
X0072500Y0083790D01*
X0077500Y0088790D01*
X0081500Y0088790D01*
X0083000Y0090290D01*
X0083000Y0099054D01*
X0084969Y0099054D02*
X0084969Y0080818D01*
X0085185Y0080601D01*
X0081520Y0080716D02*
X0080976Y0080716D01*
X0080976Y0081714D02*
X0081520Y0081714D01*
X0081520Y0082713D02*
X0080976Y0082713D01*
X0080976Y0083711D02*
X0081520Y0083711D01*
X0081520Y0083979D02*
X0081520Y0077224D01*
X0082398Y0076345D01*
X0087972Y0076345D01*
X0088850Y0077224D01*
X0088850Y0083979D01*
X0087972Y0084857D01*
X0087485Y0084857D01*
X0087485Y0085490D01*
X0109416Y0085490D01*
X0109744Y0085162D01*
X0110883Y0084690D01*
X0113200Y0084690D01*
X0113200Y0083093D01*
X0112804Y0083490D01*
X0111633Y0083975D01*
X0110367Y0083975D01*
X0109196Y0083490D01*
X0108497Y0082790D01*
X0107413Y0082790D01*
X0107413Y0083979D01*
X0106535Y0084857D01*
X0100961Y0084857D01*
X0100083Y0083979D01*
X0100083Y0077224D01*
X0100961Y0076345D01*
X0102500Y0076345D01*
X0102500Y0075790D01*
X0079311Y0075790D01*
X0079311Y0076345D01*
X0080098Y0076345D01*
X0080976Y0077224D01*
X0080976Y0083979D01*
X0080098Y0084857D01*
X0076395Y0084857D01*
X0078328Y0086790D01*
X0082328Y0086790D01*
X0082885Y0087347D01*
X0082885Y0084857D01*
X0082398Y0084857D01*
X0081520Y0083979D01*
X0082251Y0084710D02*
X0080245Y0084710D01*
X0082885Y0085708D02*
X0077247Y0085708D01*
X0078245Y0086707D02*
X0082885Y0086707D01*
X0088119Y0084710D02*
X0093052Y0084710D01*
X0093130Y0084755D02*
X0092788Y0084557D01*
X0092508Y0084278D01*
X0092311Y0083936D01*
X0092209Y0083555D01*
X0092209Y0081101D01*
X0095374Y0081101D01*
X0095374Y0080101D01*
X0096374Y0080101D01*
X0096374Y0076345D01*
X0098237Y0076345D01*
X0098618Y0076448D01*
X0098960Y0076645D01*
X0099240Y0076924D01*
X0099437Y0077266D01*
X0099539Y0077648D01*
X0099539Y0080101D01*
X0096374Y0080101D01*
X0096374Y0081101D01*
X0099539Y0081101D01*
X0099539Y0083555D01*
X0099437Y0083936D01*
X0099240Y0084278D01*
X0098960Y0084557D01*
X0098618Y0084755D01*
X0098237Y0084857D01*
X0096374Y0084857D01*
X0096374Y0081101D01*
X0095374Y0081101D01*
X0095374Y0084857D01*
X0093511Y0084857D01*
X0093130Y0084755D01*
X0092251Y0083711D02*
X0088850Y0083711D01*
X0088850Y0082713D02*
X0092209Y0082713D01*
X0092209Y0081714D02*
X0088850Y0081714D01*
X0088850Y0080716D02*
X0095374Y0080716D01*
X0095874Y0080601D02*
X0093689Y0080601D01*
X0090500Y0083790D01*
X0090689Y0083601D01*
X0095374Y0083711D02*
X0096374Y0083711D01*
X0096374Y0082713D02*
X0095374Y0082713D01*
X0095374Y0081714D02*
X0096374Y0081714D01*
X0096374Y0080716D02*
X0100083Y0080716D01*
X0100083Y0081714D02*
X0099539Y0081714D01*
X0099539Y0082713D02*
X0100083Y0082713D01*
X0100083Y0083711D02*
X0099497Y0083711D01*
X0098696Y0084710D02*
X0100814Y0084710D01*
X0096374Y0084710D02*
X0095374Y0084710D01*
X0103748Y0080790D02*
X0111000Y0080790D01*
X0109937Y0080790D01*
X0109731Y0083711D02*
X0107413Y0083711D01*
X0106682Y0084710D02*
X0110836Y0084710D01*
X0112269Y0083711D02*
X0113200Y0083711D01*
X0104500Y0080601D02*
X0103748Y0080601D01*
X0103748Y0080790D01*
X0104500Y0080601D02*
X0104500Y0073790D01*
X0077311Y0073790D01*
X0077311Y0080601D01*
X0080976Y0079717D02*
X0081520Y0079717D01*
X0081520Y0078719D02*
X0080976Y0078719D01*
X0080976Y0077720D02*
X0081520Y0077720D01*
X0082022Y0076722D02*
X0080474Y0076722D01*
X0088348Y0076722D02*
X0092711Y0076722D01*
X0092788Y0076645D02*
X0093130Y0076448D01*
X0093511Y0076345D01*
X0095374Y0076345D01*
X0095374Y0080101D01*
X0092209Y0080101D01*
X0092209Y0077648D01*
X0092311Y0077266D01*
X0092508Y0076924D01*
X0092788Y0076645D01*
X0092209Y0077720D02*
X0088850Y0077720D01*
X0088850Y0078719D02*
X0092209Y0078719D01*
X0092209Y0079717D02*
X0088850Y0079717D01*
X0095374Y0079717D02*
X0096374Y0079717D01*
X0096374Y0078719D02*
X0095374Y0078719D01*
X0095374Y0077720D02*
X0096374Y0077720D01*
X0096374Y0076722D02*
X0095374Y0076722D01*
X0099037Y0076722D02*
X0100585Y0076722D01*
X0100083Y0077720D02*
X0099539Y0077720D01*
X0099539Y0078719D02*
X0100083Y0078719D01*
X0100083Y0079717D02*
X0099539Y0079717D01*
X0090500Y0071790D02*
X0112500Y0071790D01*
X0111305Y0069732D02*
X0109862Y0069732D01*
X0106000Y0067424D02*
X0105803Y0067227D01*
X0096000Y0067227D01*
X0100256Y0064740D02*
X0102138Y0064740D01*
X0102837Y0063741D02*
X0099556Y0063741D01*
X0099653Y0062743D02*
X0102740Y0062743D01*
X0102138Y0061744D02*
X0100256Y0061744D01*
X0100256Y0060746D02*
X0102138Y0060746D01*
X0102138Y0059747D02*
X0100256Y0059747D01*
X0100256Y0058749D02*
X0102138Y0058749D01*
X0102138Y0057750D02*
X0100256Y0057750D01*
X0100256Y0056752D02*
X0102138Y0056752D01*
X0102558Y0055753D02*
X0099442Y0055753D01*
X0096000Y0059353D02*
X0086000Y0059353D01*
X0090500Y0059353D01*
X0090500Y0071790D01*
X0086000Y0067227D02*
X0085803Y0067424D01*
X0077000Y0067424D01*
X0080862Y0064740D02*
X0081744Y0064740D01*
X0082444Y0063741D02*
X0080163Y0063741D01*
X0080259Y0062743D02*
X0082347Y0062743D01*
X0081744Y0061744D02*
X0080862Y0061744D01*
X0080862Y0060746D02*
X0081744Y0060746D01*
X0081744Y0059747D02*
X0080862Y0059747D01*
X0080862Y0058749D02*
X0081744Y0058749D01*
X0081744Y0057750D02*
X0080862Y0057750D01*
X0080862Y0056752D02*
X0081744Y0056752D01*
X0082558Y0055753D02*
X0080442Y0055753D01*
X0073000Y0050760D02*
X0103642Y0050760D01*
X0102643Y0049762D02*
X0073000Y0049762D01*
X0073000Y0048763D02*
X0101645Y0048763D01*
X0100646Y0047765D02*
X0073000Y0047765D01*
X0073000Y0046766D02*
X0099648Y0046766D01*
X0098649Y0045768D02*
X0073000Y0045768D01*
X0073000Y0044769D02*
X0097651Y0044769D01*
X0096652Y0043771D02*
X0073000Y0043771D01*
X0073000Y0042772D02*
X0095654Y0042772D01*
X0094655Y0041774D02*
X0073000Y0041774D01*
X0073000Y0040775D02*
X0093657Y0040775D01*
X0107872Y0033786D02*
X0014850Y0033786D01*
X0019476Y0032787D02*
X0022480Y0032787D01*
X0029195Y0055753D02*
X0044094Y0055753D01*
X0044094Y0056752D02*
X0030621Y0056752D01*
X0031341Y0057750D02*
X0044094Y0057750D01*
X0044094Y0058749D02*
X0031825Y0058749D01*
X0032102Y0059747D02*
X0044094Y0059747D01*
X0044094Y0060746D02*
X0032198Y0060746D01*
X0032117Y0061744D02*
X0044094Y0061744D01*
X0040712Y0062743D02*
X0031849Y0062743D01*
X0031382Y0063741D02*
X0039599Y0063741D01*
X0039147Y0064740D02*
X0030659Y0064740D01*
X0021774Y0072728D02*
X0003500Y0072728D01*
X0003500Y0073726D02*
X0020776Y0073726D01*
X0019777Y0074725D02*
X0003500Y0074725D01*
X0003500Y0075723D02*
X0019700Y0075723D01*
X0019700Y0076722D02*
X0003500Y0076722D01*
X0003500Y0077720D02*
X0019700Y0077720D01*
X0019700Y0078719D02*
X0003500Y0078719D01*
X0003500Y0079717D02*
X0020639Y0079717D01*
X0021637Y0080716D02*
X0003500Y0080716D01*
X0003500Y0081714D02*
X0022400Y0081714D01*
X0022400Y0082713D02*
X0003500Y0082713D01*
X0003500Y0083711D02*
X0022400Y0083711D01*
X0022400Y0084710D02*
X0003500Y0084710D01*
X0003500Y0085708D02*
X0022400Y0085708D01*
X0022400Y0086707D02*
X0003500Y0086707D01*
X0003500Y0087705D02*
X0022400Y0087705D01*
X0022400Y0088704D02*
X0003500Y0088704D01*
X0003500Y0089702D02*
X0020311Y0089702D01*
X0020244Y0090701D02*
X0003500Y0090701D01*
X0003500Y0091699D02*
X0020244Y0091699D01*
X0020244Y0092698D02*
X0003500Y0092698D01*
X0003500Y0093696D02*
X0020244Y0093696D01*
X0020244Y0094695D02*
X0003500Y0094695D01*
X0026600Y0088704D02*
X0035600Y0088704D01*
X0035600Y0087705D02*
X0026600Y0087705D01*
X0026600Y0086707D02*
X0035600Y0086707D01*
X0035600Y0085708D02*
X0026600Y0085708D01*
X0026600Y0084710D02*
X0035600Y0084710D01*
X0033511Y0089702D02*
X0028689Y0089702D01*
X0028756Y0090701D02*
X0033444Y0090701D01*
X0033444Y0091699D02*
X0028756Y0091699D01*
X0028756Y0092698D02*
X0033444Y0092698D01*
X0033444Y0093696D02*
X0028756Y0093696D01*
X0028756Y0094695D02*
X0033444Y0094695D01*
X0033444Y0095694D02*
X0028756Y0095694D01*
X0028603Y0097691D02*
X0033597Y0097691D01*
X0033444Y0098689D02*
X0028756Y0098689D01*
X0028756Y0099688D02*
X0033444Y0099688D01*
X0033444Y0100686D02*
X0028756Y0100686D01*
X0028756Y0101685D02*
X0033444Y0101685D01*
X0033444Y0102683D02*
X0028756Y0102683D01*
X0028756Y0103682D02*
X0033444Y0103682D01*
X0034313Y0104680D02*
X0027887Y0104680D01*
X0026600Y0105679D02*
X0035600Y0105679D01*
X0035600Y0106677D02*
X0026600Y0106677D01*
X0026600Y0107676D02*
X0035600Y0107676D01*
X0035600Y0108674D02*
X0026600Y0108674D01*
X0026600Y0109673D02*
X0035600Y0109673D01*
X0035600Y0110671D02*
X0026600Y0110671D01*
X0026600Y0111670D02*
X0035600Y0111670D01*
X0035034Y0112668D02*
X0027166Y0112668D01*
X0028165Y0113667D02*
X0034035Y0113667D01*
X0033037Y0114665D02*
X0029163Y0114665D01*
X0029300Y0115664D02*
X0032900Y0115664D01*
X0032900Y0117090D02*
X0037400Y0117090D01*
X0037400Y0121590D01*
X0035712Y0121590D01*
X0032900Y0118778D01*
X0032900Y0117090D01*
X0032900Y0117661D02*
X0029300Y0117661D01*
X0029300Y0118659D02*
X0032900Y0118659D01*
X0033779Y0119658D02*
X0028421Y0119658D01*
X0027422Y0120656D02*
X0034778Y0120656D01*
X0037400Y0120656D02*
X0038000Y0120656D01*
X0038000Y0119658D02*
X0037400Y0119658D01*
X0037400Y0118659D02*
X0038000Y0118659D01*
X0038000Y0117661D02*
X0037400Y0117661D01*
X0040622Y0120656D02*
X0058837Y0120656D01*
X0058837Y0121655D02*
X0003500Y0121655D01*
X0003500Y0122653D02*
X0058753Y0122653D01*
X0063527Y0126647D02*
X0079000Y0126647D01*
X0079000Y0127646D02*
X0062528Y0127646D01*
X0061530Y0128644D02*
X0079000Y0128644D01*
X0079000Y0129643D02*
X0060531Y0129643D01*
X0058436Y0130641D02*
X0079523Y0130641D01*
X0081000Y0128644D02*
X0085000Y0128644D01*
X0083522Y0127646D02*
X0081000Y0127646D01*
X0081000Y0126647D02*
X0083244Y0126647D01*
X0083244Y0125649D02*
X0081000Y0125649D01*
X0081000Y0124650D02*
X0083244Y0124650D01*
X0097500Y0132638D02*
X0051851Y0132638D01*
X0052469Y0133637D02*
X0097500Y0133637D01*
X0105500Y0133637D02*
X0134848Y0133637D01*
X0134788Y0132638D02*
X0105500Y0132638D01*
X0105500Y0131640D02*
X0134788Y0131640D01*
X0134788Y0130641D02*
X0105500Y0130641D01*
X0105500Y0129643D02*
X0134788Y0129643D01*
X0134788Y0128644D02*
X0105500Y0128644D01*
X0105500Y0134635D02*
X0143938Y0134635D01*
X0143946Y0134628D02*
X0143409Y0135164D01*
X0142587Y0135164D01*
X0142421Y0134999D01*
X0135667Y0134999D01*
X0134788Y0135878D01*
X0134788Y0141451D01*
X0135667Y0142330D01*
X0142421Y0142330D01*
X0142587Y0142164D01*
X0143757Y0142164D01*
X0143946Y0142352D01*
X0149913Y0142352D01*
X0150791Y0141474D01*
X0150791Y0135507D01*
X0149913Y0134628D01*
X0143946Y0134628D01*
X0143240Y0133637D02*
X0173000Y0133637D01*
X0173000Y0134635D02*
X0158188Y0134635D01*
X0158180Y0134628D02*
X0159059Y0135507D01*
X0159059Y0136428D01*
X0159696Y0135791D01*
X0160867Y0135306D01*
X0162133Y0135306D01*
X0163304Y0135791D01*
X0164199Y0136687D01*
X0164684Y0137857D01*
X0164684Y0139124D01*
X0164199Y0140294D01*
X0163304Y0141190D01*
X0162133Y0141675D01*
X0160867Y0141675D01*
X0159696Y0141190D01*
X0159059Y0140553D01*
X0159059Y0141474D01*
X0158180Y0142352D01*
X0152213Y0142352D01*
X0151335Y0141474D01*
X0151335Y0135507D01*
X0152213Y0134628D01*
X0158180Y0134628D01*
X0159059Y0135634D02*
X0160075Y0135634D01*
X0162925Y0135634D02*
X0173000Y0135634D01*
X0172965Y0136632D02*
X0164145Y0136632D01*
X0164591Y0137631D02*
X0171967Y0137631D01*
X0171274Y0138629D02*
X0164684Y0138629D01*
X0164475Y0139628D02*
X0170860Y0139628D01*
X0170500Y0140627D02*
X0163867Y0140627D01*
X0162253Y0141625D02*
X0170500Y0141625D01*
X0170500Y0142624D02*
X0128500Y0142624D01*
X0128500Y0142290D02*
X0128500Y0144483D01*
X0124692Y0148290D01*
X0122500Y0148290D01*
X0122500Y0142290D01*
X0128500Y0142290D01*
X0128500Y0141290D02*
X0122500Y0141290D01*
X0122500Y0135290D01*
X0124692Y0135290D01*
X0128500Y0139098D01*
X0128500Y0141290D01*
X0128500Y0140627D02*
X0134788Y0140627D01*
X0134788Y0139628D02*
X0128500Y0139628D01*
X0128032Y0138629D02*
X0134788Y0138629D01*
X0134788Y0137631D02*
X0127033Y0137631D01*
X0126035Y0136632D02*
X0134788Y0136632D01*
X0135032Y0135634D02*
X0125036Y0135634D01*
X0122500Y0135634D02*
X0121500Y0135634D01*
X0121500Y0135290D02*
X0121500Y0141290D01*
X0122500Y0141290D01*
X0122500Y0142290D01*
X0121500Y0142290D01*
X0121500Y0141290D01*
X0115500Y0141290D01*
X0115500Y0139098D01*
X0119308Y0135290D01*
X0121500Y0135290D01*
X0121500Y0136632D02*
X0122500Y0136632D01*
X0122500Y0137631D02*
X0121500Y0137631D01*
X0121500Y0138629D02*
X0122500Y0138629D01*
X0122500Y0139628D02*
X0121500Y0139628D01*
X0121500Y0140627D02*
X0122500Y0140627D01*
X0122500Y0141625D02*
X0134962Y0141625D01*
X0128500Y0143622D02*
X0170723Y0143622D01*
X0171137Y0144621D02*
X0128362Y0144621D01*
X0127364Y0145619D02*
X0171636Y0145619D01*
X0172635Y0146618D02*
X0126365Y0146618D01*
X0125367Y0147616D02*
X0174079Y0147616D01*
X0160747Y0141625D02*
X0158908Y0141625D01*
X0159059Y0140627D02*
X0159133Y0140627D01*
X0161500Y0138490D02*
X0155197Y0138490D01*
X0151335Y0138629D02*
X0150791Y0138629D01*
X0150791Y0137631D02*
X0151335Y0137631D01*
X0151335Y0136632D02*
X0150791Y0136632D01*
X0150791Y0135634D02*
X0151335Y0135634D01*
X0152206Y0134635D02*
X0149920Y0134635D01*
X0143300Y0132638D02*
X0173000Y0132638D01*
X0173000Y0131640D02*
X0143300Y0131640D01*
X0143300Y0130641D02*
X0173000Y0130641D01*
X0173000Y0129643D02*
X0143300Y0129643D01*
X0143300Y0128644D02*
X0173000Y0128644D01*
X0165702Y0128013D02*
X0165702Y0128013D01*
X0163837Y0119658D02*
X0146821Y0119658D01*
X0147700Y0118659D02*
X0163837Y0118659D01*
X0163837Y0117661D02*
X0159600Y0117661D01*
X0160150Y0116662D02*
X0163837Y0116662D01*
X0163837Y0115664D02*
X0160150Y0115664D01*
X0160150Y0114665D02*
X0163837Y0114665D01*
X0163837Y0113667D02*
X0156000Y0113667D01*
X0155500Y0113930D02*
X0148000Y0113890D01*
X0147563Y0114665D02*
X0150850Y0114665D01*
X0150850Y0114430D02*
X0155000Y0114430D01*
X0155000Y0117989D01*
X0152153Y0117989D01*
X0151771Y0117887D01*
X0151429Y0117690D01*
X0151150Y0117410D01*
X0150953Y0117068D01*
X0150850Y0116687D01*
X0150850Y0114430D01*
X0150850Y0115664D02*
X0147700Y0115664D01*
X0147700Y0117661D02*
X0151400Y0117661D01*
X0150850Y0116662D02*
X0143200Y0116662D01*
X0142600Y0116662D02*
X0129800Y0116662D01*
X0129200Y0116662D02*
X0104600Y0116662D01*
X0104600Y0117661D02*
X0124700Y0117661D01*
X0124700Y0118659D02*
X0104600Y0118659D01*
X0104496Y0119658D02*
X0125579Y0119658D01*
X0133421Y0119658D02*
X0138979Y0119658D01*
X0138100Y0118659D02*
X0134300Y0118659D01*
X0134300Y0117661D02*
X0138100Y0117661D01*
X0138100Y0115664D02*
X0134300Y0115664D01*
X0134163Y0114665D02*
X0138237Y0114665D01*
X0139235Y0113667D02*
X0133165Y0113667D01*
X0132166Y0112668D02*
X0140234Y0112668D01*
X0140800Y0111670D02*
X0131600Y0111670D01*
X0131600Y0110671D02*
X0140800Y0110671D01*
X0140800Y0109673D02*
X0131600Y0109673D01*
X0131600Y0108674D02*
X0140800Y0108674D01*
X0140800Y0107676D02*
X0131600Y0107676D01*
X0131600Y0106677D02*
X0140800Y0106677D01*
X0140800Y0105679D02*
X0131600Y0105679D01*
X0132887Y0104680D02*
X0139513Y0104680D01*
X0138644Y0103682D02*
X0133756Y0103682D01*
X0133756Y0102683D02*
X0138644Y0102683D01*
X0138644Y0101685D02*
X0133756Y0101685D01*
X0133756Y0100686D02*
X0138644Y0100686D01*
X0138644Y0099688D02*
X0133756Y0099688D01*
X0133756Y0098689D02*
X0138644Y0098689D01*
X0138797Y0097691D02*
X0133603Y0097691D01*
X0133756Y0095694D02*
X0138644Y0095694D01*
X0138644Y0094695D02*
X0133756Y0094695D01*
X0133756Y0093696D02*
X0138644Y0093696D01*
X0138644Y0092698D02*
X0133756Y0092698D01*
X0133756Y0091699D02*
X0138644Y0091699D01*
X0138644Y0090701D02*
X0133756Y0090701D01*
X0133689Y0089702D02*
X0138711Y0089702D01*
X0140800Y0088704D02*
X0131600Y0088704D01*
X0131600Y0087705D02*
X0140800Y0087705D01*
X0140800Y0086707D02*
X0131600Y0086707D01*
X0131600Y0085708D02*
X0140800Y0085708D01*
X0140800Y0084710D02*
X0131600Y0084710D01*
X0131600Y0083711D02*
X0140800Y0083711D01*
X0140800Y0082713D02*
X0131600Y0082713D01*
X0131600Y0081714D02*
X0140800Y0081714D01*
X0140037Y0080716D02*
X0132363Y0080716D01*
X0133361Y0079717D02*
X0139039Y0079717D01*
X0138100Y0078719D02*
X0134300Y0078719D01*
X0134300Y0077720D02*
X0138100Y0077720D01*
X0138100Y0076722D02*
X0134300Y0076722D01*
X0134300Y0075723D02*
X0138100Y0075723D01*
X0138177Y0074725D02*
X0134223Y0074725D01*
X0133224Y0073726D02*
X0139176Y0073726D01*
X0140174Y0072728D02*
X0132226Y0072728D01*
X0142900Y0076790D02*
X0150500Y0096530D01*
X0155500Y0096530D01*
X0155500Y0106450D01*
X0160150Y0106677D02*
X0161244Y0106677D01*
X0161244Y0105679D02*
X0160150Y0105679D01*
X0160150Y0104680D02*
X0161244Y0104680D01*
X0161244Y0103682D02*
X0160150Y0103682D01*
X0159563Y0102683D02*
X0161244Y0102683D01*
X0161244Y0101685D02*
X0157500Y0101685D01*
X0157500Y0100686D02*
X0162121Y0100686D01*
X0162165Y0100038D02*
X0161823Y0099841D01*
X0161544Y0099562D01*
X0161346Y0099220D01*
X0161244Y0098838D01*
X0161244Y0096975D01*
X0165000Y0096975D01*
X0165000Y0095975D01*
X0166000Y0095975D01*
X0166000Y0096975D01*
X0169756Y0096975D01*
X0169756Y0098838D01*
X0169654Y0099220D01*
X0169456Y0099562D01*
X0169177Y0099841D01*
X0168835Y0100038D01*
X0168453Y0100141D01*
X0166000Y0100141D01*
X0166000Y0096975D01*
X0165000Y0096975D01*
X0165000Y0100141D01*
X0162547Y0100141D01*
X0162165Y0100038D01*
X0161670Y0099688D02*
X0160150Y0099688D01*
X0160150Y0098689D02*
X0161244Y0098689D01*
X0161244Y0097691D02*
X0160150Y0097691D01*
X0160150Y0096692D02*
X0165000Y0096692D01*
X0165500Y0096475D02*
X0165500Y0091790D01*
X0163500Y0089790D01*
X0165500Y0089702D02*
X0160150Y0089702D01*
X0160150Y0088704D02*
X0165500Y0088704D01*
X0167500Y0090089D02*
X0167500Y0086790D01*
X0166500Y0085790D01*
X0158500Y0085790D01*
X0155500Y0088790D01*
X0155500Y0089050D01*
X0160150Y0090701D02*
X0165500Y0090701D01*
X0166282Y0091699D02*
X0160150Y0091699D01*
X0159682Y0092698D02*
X0167280Y0092698D01*
X0166000Y0093696D02*
X0165000Y0093696D01*
X0165000Y0092810D02*
X0165000Y0095975D01*
X0161244Y0095975D01*
X0161244Y0094112D01*
X0161346Y0093731D01*
X0161544Y0093389D01*
X0161823Y0093110D01*
X0162165Y0092912D01*
X0162547Y0092810D01*
X0165000Y0092810D01*
X0165000Y0094695D02*
X0166000Y0094695D01*
X0166000Y0095694D02*
X0165000Y0095694D01*
X0166000Y0096692D02*
X0171274Y0096692D01*
X0170276Y0095694D02*
X0169756Y0095694D01*
X0169756Y0097691D02*
X0172273Y0097691D01*
X0173271Y0098689D02*
X0169756Y0098689D01*
X0169330Y0099688D02*
X0174270Y0099688D01*
X0175268Y0100686D02*
X0168879Y0100686D01*
X0169756Y0101685D02*
X0176267Y0101685D01*
X0177265Y0102683D02*
X0169756Y0102683D01*
X0170000Y0104790D02*
X0170000Y0106790D01*
X0178321Y0106790D01*
X0178321Y0106790D01*
X0177327Y0106790D01*
X0177327Y0106042D01*
X0177390Y0105806D01*
X0177327Y0105570D01*
X0177327Y0104822D01*
X0178321Y0104822D01*
X0177327Y0104822D01*
X0177327Y0104790D01*
X0170000Y0104790D01*
X0170000Y0105679D02*
X0177356Y0105679D01*
X0177000Y0105790D02*
X0177000Y0106790D01*
X0180264Y0106790D01*
X0180264Y0104822D02*
X0174969Y0104822D01*
X0174969Y0104821D02*
X0174908Y0104823D01*
X0174848Y0104829D01*
X0174787Y0104838D01*
X0174728Y0104851D01*
X0174670Y0104868D01*
X0174612Y0104889D01*
X0174556Y0104913D01*
X0174502Y0104941D01*
X0174450Y0104972D01*
X0174399Y0105006D01*
X0174351Y0105043D01*
X0174306Y0105084D01*
X0174263Y0105127D01*
X0174222Y0105172D01*
X0174185Y0105220D01*
X0174151Y0105271D01*
X0174120Y0105323D01*
X0174092Y0105377D01*
X0174068Y0105433D01*
X0174047Y0105491D01*
X0174030Y0105549D01*
X0174017Y0105608D01*
X0174008Y0105669D01*
X0174002Y0105729D01*
X0174000Y0105790D01*
X0173031Y0108759D02*
X0171500Y0110290D01*
X0173031Y0108759D02*
X0180264Y0108759D01*
X0180264Y0110790D02*
X0180264Y0112778D01*
X0180264Y0110790D01*
X0180264Y0110790D01*
X0180264Y0111670D02*
X0180264Y0111670D01*
X0180264Y0112668D02*
X0180264Y0112668D01*
X0180264Y0112778D02*
X0178629Y0112778D01*
X0178248Y0112676D01*
X0177906Y0112479D01*
X0177626Y0112199D01*
X0177429Y0111857D01*
X0177327Y0111476D01*
X0177327Y0110790D01*
X0174491Y0110790D01*
X0174491Y0110885D01*
X0174036Y0111985D01*
X0173194Y0112826D01*
X0172600Y0113072D01*
X0172600Y0120207D01*
X0172755Y0120207D01*
X0173149Y0120132D01*
X0173505Y0120207D01*
X0184000Y0120207D01*
X0184000Y0117463D01*
X0183314Y0117463D01*
X0182933Y0117361D01*
X0182591Y0117164D01*
X0182312Y0116885D01*
X0182114Y0116542D01*
X0182012Y0116161D01*
X0182012Y0114527D01*
X0184000Y0114527D01*
X0184000Y0114526D01*
X0182012Y0114526D01*
X0182012Y0113790D01*
X0181500Y0113790D01*
X0181500Y0112778D01*
X0180264Y0112778D01*
X0181500Y0113667D02*
X0172600Y0113667D01*
X0172600Y0114665D02*
X0182012Y0114665D01*
X0182012Y0115664D02*
X0172600Y0115664D01*
X0172600Y0116662D02*
X0182183Y0116662D01*
X0184000Y0117661D02*
X0172600Y0117661D01*
X0172600Y0118659D02*
X0184000Y0118659D01*
X0184000Y0119658D02*
X0172600Y0119658D01*
X0186031Y0116662D02*
X0186032Y0116662D01*
X0188000Y0116662D02*
X0188000Y0116662D01*
X0188000Y0116470D02*
X0188000Y0117463D01*
X0188000Y0116470D01*
X0188000Y0116469D01*
X0188000Y0116470D01*
X0188000Y0114526D02*
X0188000Y0118790D01*
X0192000Y0114527D02*
X0193988Y0114527D01*
X0193988Y0115883D01*
X0202500Y0115883D01*
X0202500Y0111021D01*
X0201964Y0110485D01*
X0201509Y0109385D01*
X0201509Y0108790D01*
X0198673Y0108790D01*
X0198673Y0109507D01*
X0198610Y0109743D01*
X0198673Y0109979D01*
X0198673Y0110727D01*
X0197679Y0110727D01*
X0198673Y0110727D01*
X0198673Y0111476D01*
X0198571Y0111857D01*
X0198374Y0112199D01*
X0198094Y0112479D01*
X0197752Y0112676D01*
X0197371Y0112778D01*
X0195736Y0112778D01*
X0195736Y0110727D01*
X0195799Y0110790D01*
X0199500Y0110790D01*
X0199500Y0108790D01*
X0199469Y0108759D01*
X0195736Y0108759D01*
X0195736Y0110727D02*
X0195736Y0110727D01*
X0195736Y0112778D01*
X0194500Y0112778D01*
X0194500Y0114290D01*
X0193988Y0114290D01*
X0193988Y0114526D01*
X0192000Y0114526D01*
X0192000Y0114527D01*
X0193988Y0114665D02*
X0202500Y0114665D01*
X0202500Y0113667D02*
X0194500Y0113667D01*
X0195736Y0112668D02*
X0195736Y0112668D01*
X0195736Y0111670D02*
X0195736Y0111670D01*
X0197679Y0110727D02*
X0197679Y0110727D01*
X0198673Y0110671D02*
X0202151Y0110671D01*
X0202500Y0111670D02*
X0198621Y0111670D01*
X0197766Y0112668D02*
X0202500Y0112668D01*
X0202500Y0115664D02*
X0193988Y0115664D01*
X0199500Y0115290D02*
X0199500Y0114290D01*
X0198629Y0109673D02*
X0201628Y0109673D01*
X0204500Y0108790D02*
X0202500Y0106790D01*
X0195736Y0106790D01*
X0195736Y0104822D02*
X0209531Y0104822D01*
X0212815Y0101538D01*
X0213500Y0101538D01*
X0209437Y0101685D02*
X0198549Y0101685D01*
X0209244Y0101685D01*
X0209244Y0102281D02*
X0209244Y0098752D01*
X0210123Y0097873D01*
X0216877Y0097873D01*
X0217756Y0098752D01*
X0217756Y0104325D01*
X0216877Y0105204D01*
X0211978Y0105204D01*
X0211681Y0105501D01*
X0212300Y0105507D01*
X0212980Y0105507D01*
X0212996Y0105514D01*
X0218900Y0105572D01*
X0218900Y0090931D01*
X0217648Y0090910D01*
X0217654Y0090920D01*
X0217756Y0091301D01*
X0217756Y0093164D01*
X0214000Y0093164D01*
X0214000Y0094164D01*
X0217756Y0094164D01*
X0217756Y0096027D01*
X0217654Y0096409D01*
X0217456Y0096751D01*
X0217177Y0097030D01*
X0216835Y0097227D01*
X0216453Y0097330D01*
X0214000Y0097330D01*
X0214000Y0094164D01*
X0213000Y0094164D01*
X0213000Y0093164D01*
X0209244Y0093164D01*
X0209244Y0091301D01*
X0209346Y0090920D01*
X0209544Y0090578D01*
X0209823Y0090299D01*
X0210165Y0090101D01*
X0210206Y0090090D01*
X0191968Y0090090D01*
X0191968Y0096117D01*
X0192686Y0096117D01*
X0193067Y0096219D01*
X0193409Y0096417D01*
X0193688Y0096696D01*
X0193886Y0097038D01*
X0193988Y0097420D01*
X0193988Y0099054D01*
X0192020Y0099054D01*
X0192020Y0099054D01*
X0193988Y0099054D01*
X0192000Y0099054D01*
X0192000Y0099054D01*
X0193988Y0099054D01*
X0193988Y0097420D01*
X0193886Y0097038D01*
X0193688Y0096696D01*
X0193409Y0096417D01*
X0193067Y0096219D01*
X0192686Y0096117D01*
X0192000Y0096117D01*
X0192000Y0090290D01*
X0209838Y0090290D01*
X0209823Y0090299D01*
X0209544Y0090578D01*
X0209346Y0090920D01*
X0209244Y0091301D01*
X0209244Y0093164D01*
X0213000Y0093164D01*
X0213000Y0094164D01*
X0209244Y0094164D01*
X0209244Y0096027D01*
X0209346Y0096409D01*
X0209544Y0096751D01*
X0209823Y0097030D01*
X0210165Y0097227D01*
X0210547Y0097330D01*
X0213000Y0097330D01*
X0213000Y0094164D01*
X0209244Y0094164D01*
X0209244Y0096027D01*
X0209346Y0096409D01*
X0209544Y0096751D01*
X0209823Y0097030D01*
X0210165Y0097227D01*
X0210547Y0097330D01*
X0213000Y0097330D01*
X0213000Y0094164D01*
X0214000Y0094164D01*
X0214000Y0097330D01*
X0216000Y0097330D01*
X0216000Y0098066D01*
X0210203Y0098066D01*
X0209437Y0098832D01*
X0209437Y0102361D01*
X0209007Y0102790D01*
X0198673Y0102790D01*
X0198673Y0102105D01*
X0198673Y0102822D01*
X0208703Y0102822D01*
X0209244Y0102281D01*
X0209115Y0102683D02*
X0198673Y0102683D01*
X0208842Y0102683D01*
X0209244Y0100686D02*
X0193988Y0100686D01*
X0209437Y0100686D01*
X0209437Y0099688D02*
X0193988Y0099688D01*
X0209244Y0099688D01*
X0209307Y0098689D02*
X0193988Y0098689D01*
X0209579Y0098689D01*
X0209510Y0096692D02*
X0193684Y0096692D01*
X0209510Y0096692D01*
X0209244Y0095694D02*
X0191968Y0095694D01*
X0192000Y0095694D02*
X0209244Y0095694D01*
X0209244Y0094695D02*
X0191968Y0094695D01*
X0192000Y0094695D02*
X0209244Y0094695D01*
X0209244Y0092698D02*
X0191968Y0092698D01*
X0192000Y0092698D02*
X0209244Y0092698D01*
X0209244Y0091699D02*
X0191968Y0091699D01*
X0192000Y0091699D02*
X0209244Y0091699D01*
X0209473Y0090701D02*
X0191968Y0090701D01*
X0192000Y0090701D02*
X0209473Y0090701D01*
X0213000Y0093696D02*
X0191968Y0093696D01*
X0192000Y0093696D02*
X0213000Y0093696D01*
X0213000Y0094695D02*
X0214000Y0094695D01*
X0213000Y0094695D01*
X0213000Y0095694D02*
X0214000Y0095694D01*
X0213000Y0095694D01*
X0213000Y0096692D02*
X0214000Y0096692D01*
X0213000Y0096692D01*
X0216000Y0097691D02*
X0193988Y0097691D01*
X0218900Y0097691D01*
X0218900Y0098689D02*
X0217693Y0098689D01*
X0217756Y0099688D02*
X0218900Y0099688D01*
X0218900Y0100686D02*
X0217756Y0100686D01*
X0217756Y0101685D02*
X0218900Y0101685D01*
X0218900Y0102683D02*
X0217756Y0102683D01*
X0217756Y0103682D02*
X0218900Y0103682D01*
X0218900Y0104680D02*
X0217401Y0104680D01*
X0217490Y0096692D02*
X0218900Y0096692D01*
X0218900Y0095694D02*
X0217756Y0095694D01*
X0217756Y0094695D02*
X0218900Y0094695D01*
X0218900Y0093696D02*
X0214000Y0093696D01*
X0217756Y0092698D02*
X0218900Y0092698D01*
X0218900Y0091699D02*
X0217756Y0091699D01*
X0214419Y0085490D02*
X0214789Y0085133D01*
X0215936Y0084680D01*
X0219298Y0084737D01*
X0218761Y0082446D01*
X0218699Y0082594D01*
X0217804Y0083490D01*
X0216633Y0083975D01*
X0215367Y0083975D01*
X0214196Y0083490D01*
X0213497Y0082790D01*
X0212413Y0082790D01*
X0212413Y0083979D01*
X0211535Y0084857D01*
X0205961Y0084857D01*
X0205083Y0083979D01*
X0205083Y0077224D01*
X0205961Y0076345D01*
X0207500Y0076345D01*
X0207500Y0075790D01*
X0184311Y0075790D01*
X0184311Y0076345D01*
X0185098Y0076345D01*
X0185976Y0077224D01*
X0185976Y0083979D01*
X0185098Y0084857D01*
X0181395Y0084857D01*
X0183328Y0086790D01*
X0187328Y0086790D01*
X0187885Y0087347D01*
X0187885Y0084857D01*
X0187398Y0084857D01*
X0186520Y0083979D01*
X0186520Y0077224D01*
X0187398Y0076345D01*
X0192972Y0076345D01*
X0193850Y0077224D01*
X0193850Y0083979D01*
X0192972Y0084857D01*
X0192485Y0084857D01*
X0192485Y0085490D01*
X0214419Y0085490D01*
X0215861Y0084710D02*
X0211682Y0084710D01*
X0212413Y0083711D02*
X0214731Y0083711D01*
X0217269Y0083711D02*
X0219057Y0083711D01*
X0218823Y0082713D02*
X0218581Y0082713D01*
X0219292Y0084710D02*
X0217683Y0084710D01*
X0216000Y0080790D02*
X0208748Y0080790D01*
X0208748Y0080601D01*
X0209500Y0080601D01*
X0209500Y0073790D01*
X0182311Y0073790D01*
X0182311Y0080601D01*
X0185976Y0080716D02*
X0186520Y0080716D01*
X0186520Y0081714D02*
X0185976Y0081714D01*
X0185976Y0082713D02*
X0186520Y0082713D01*
X0186520Y0083711D02*
X0185976Y0083711D01*
X0185245Y0084710D02*
X0187251Y0084710D01*
X0187885Y0085708D02*
X0182247Y0085708D01*
X0183245Y0086707D02*
X0187885Y0086707D01*
X0193119Y0084710D02*
X0198052Y0084710D01*
X0198130Y0084755D02*
X0197788Y0084557D01*
X0197508Y0084278D01*
X0197311Y0083936D01*
X0197209Y0083555D01*
X0197209Y0081101D01*
X0200374Y0081101D01*
X0200374Y0080101D01*
X0201374Y0080101D01*
X0201374Y0076345D01*
X0203237Y0076345D01*
X0203618Y0076448D01*
X0203960Y0076645D01*
X0204240Y0076924D01*
X0204437Y0077266D01*
X0204539Y0077648D01*
X0204539Y0080101D01*
X0201374Y0080101D01*
X0201374Y0081101D01*
X0204539Y0081101D01*
X0204539Y0083555D01*
X0204437Y0083936D01*
X0204240Y0084278D01*
X0203960Y0084557D01*
X0203618Y0084755D01*
X0203237Y0084857D01*
X0201374Y0084857D01*
X0201374Y0081101D01*
X0200374Y0081101D01*
X0200374Y0084857D01*
X0198511Y0084857D01*
X0198130Y0084755D01*
X0197251Y0083711D02*
X0193850Y0083711D01*
X0193850Y0082713D02*
X0197209Y0082713D01*
X0197209Y0081714D02*
X0193850Y0081714D01*
X0193850Y0080716D02*
X0200374Y0080716D01*
X0200874Y0080601D02*
X0198689Y0080601D01*
X0195500Y0083790D01*
X0195689Y0083601D01*
X0200374Y0083711D02*
X0201374Y0083711D01*
X0201374Y0082713D02*
X0200374Y0082713D01*
X0200374Y0081714D02*
X0201374Y0081714D01*
X0201374Y0080716D02*
X0205083Y0080716D01*
X0205083Y0081714D02*
X0204539Y0081714D01*
X0204539Y0082713D02*
X0205083Y0082713D01*
X0205083Y0083711D02*
X0204497Y0083711D01*
X0203696Y0084710D02*
X0205814Y0084710D01*
X0201374Y0084710D02*
X0200374Y0084710D01*
X0200374Y0080101D02*
X0197209Y0080101D01*
X0197209Y0077648D01*
X0197311Y0077266D01*
X0197508Y0076924D01*
X0197788Y0076645D01*
X0198130Y0076448D01*
X0198511Y0076345D01*
X0200374Y0076345D01*
X0200374Y0080101D01*
X0200374Y0079717D02*
X0201374Y0079717D01*
X0201374Y0078719D02*
X0200374Y0078719D01*
X0200374Y0077720D02*
X0201374Y0077720D01*
X0201374Y0076722D02*
X0200374Y0076722D01*
X0197711Y0076722D02*
X0193348Y0076722D01*
X0193850Y0077720D02*
X0197209Y0077720D01*
X0197209Y0078719D02*
X0193850Y0078719D01*
X0193850Y0079717D02*
X0197209Y0079717D01*
X0190185Y0080601D02*
X0189969Y0080818D01*
X0189969Y0099054D01*
X0191937Y0099054D02*
X0191937Y0102727D01*
X0190874Y0103790D01*
X0188000Y0103790D01*
X0187500Y0103682D02*
X0188500Y0103682D01*
X0188500Y0104680D02*
X0187500Y0104680D01*
X0187500Y0105679D02*
X0188500Y0105679D01*
X0188500Y0106290D02*
X0188500Y0101991D01*
X0187500Y0101991D01*
X0187500Y0106290D01*
X0188500Y0106290D01*
X0188500Y0107290D01*
X0192799Y0107290D01*
X0192799Y0106290D01*
X0188500Y0106290D01*
X0188500Y0106677D02*
X0192799Y0106677D01*
X0188500Y0107290D02*
X0187500Y0107290D01*
X0187500Y0106290D01*
X0183201Y0106290D01*
X0183201Y0107290D01*
X0187500Y0107290D01*
X0187500Y0111589D01*
X0188500Y0111589D01*
X0188500Y0107290D01*
X0188500Y0107676D02*
X0187500Y0107676D01*
X0187500Y0108674D02*
X0188500Y0108674D01*
X0188500Y0109673D02*
X0187500Y0109673D01*
X0187500Y0110671D02*
X0188500Y0110671D01*
X0187500Y0106677D02*
X0183201Y0106677D01*
X0180264Y0102853D02*
X0167500Y0090089D01*
X0171500Y0087790D02*
X0175500Y0087790D01*
X0180500Y0092790D01*
X0182500Y0092790D01*
X0184063Y0094353D01*
X0184063Y0099054D01*
X0186031Y0099054D02*
X0186031Y0092322D01*
X0184500Y0090790D01*
X0181500Y0090790D01*
X0175500Y0084790D01*
X0175300Y0055490D01*
X0211000Y0055490D01*
X0211000Y0059156D01*
X0207138Y0058749D02*
X0205256Y0058749D01*
X0205256Y0059747D02*
X0207138Y0059747D01*
X0207138Y0060746D02*
X0205256Y0060746D01*
X0205256Y0061744D02*
X0207138Y0061744D01*
X0207740Y0062743D02*
X0204653Y0062743D01*
X0204556Y0063741D02*
X0207837Y0063741D01*
X0207138Y0064740D02*
X0205256Y0064740D01*
X0201000Y0067227D02*
X0210803Y0067227D01*
X0211000Y0067424D01*
X0212500Y0071790D02*
X0195500Y0071790D01*
X0195500Y0059353D01*
X0191000Y0059353D01*
X0201000Y0059353D01*
X0205256Y0057750D02*
X0207138Y0057750D01*
X0199528Y0052758D02*
X0193472Y0052758D01*
X0193472Y0051759D02*
X0199528Y0051759D01*
X0199528Y0050760D02*
X0193472Y0050760D01*
X0193472Y0049762D02*
X0199528Y0049762D01*
X0199528Y0048763D02*
X0193472Y0048763D01*
X0193472Y0047765D02*
X0199528Y0047765D01*
X0200174Y0046766D02*
X0192826Y0046766D01*
X0185607Y0046766D02*
X0174535Y0046766D01*
X0174535Y0045768D02*
X0243000Y0045768D01*
X0243000Y0046766D02*
X0232393Y0046766D01*
X0225207Y0046766D02*
X0207393Y0046766D01*
X0219198Y0039777D02*
X0174535Y0039777D01*
X0174535Y0040775D02*
X0242035Y0040775D01*
X0243000Y0041774D02*
X0174535Y0041774D01*
X0174535Y0042772D02*
X0243000Y0042772D01*
X0243000Y0043771D02*
X0174535Y0043771D01*
X0174535Y0044769D02*
X0243000Y0044769D01*
X0239198Y0039777D02*
X0234802Y0039777D01*
X0235800Y0038778D02*
X0238200Y0038778D01*
X0237629Y0037780D02*
X0236371Y0037780D01*
X0236785Y0036781D02*
X0237215Y0036781D01*
X0237200Y0035783D02*
X0236800Y0035783D01*
X0236779Y0034784D02*
X0237221Y0034784D01*
X0237635Y0033786D02*
X0236365Y0033786D01*
X0227635Y0033786D02*
X0226365Y0033786D01*
X0226779Y0034784D02*
X0227221Y0034784D01*
X0227200Y0035783D02*
X0226800Y0035783D01*
X0226785Y0036781D02*
X0227215Y0036781D01*
X0227629Y0037780D02*
X0226371Y0037780D01*
X0225800Y0038778D02*
X0228200Y0038778D01*
X0229198Y0039777D02*
X0224802Y0039777D01*
X0218200Y0038778D02*
X0174535Y0038778D01*
X0174535Y0037780D02*
X0217629Y0037780D01*
X0217215Y0036781D02*
X0174535Y0036781D01*
X0174535Y0036571D02*
X0174535Y0051199D01*
X0173657Y0052078D01*
X0166115Y0052078D01*
X0165236Y0051199D01*
X0165236Y0036571D01*
X0166115Y0035692D01*
X0173657Y0035692D01*
X0174535Y0036571D01*
X0173748Y0035783D02*
X0217200Y0035783D01*
X0217221Y0034784D02*
X0116356Y0034784D01*
X0116328Y0033786D02*
X0217635Y0033786D01*
X0179658Y0047765D02*
X0174535Y0047765D01*
X0174535Y0048763D02*
X0178577Y0048763D01*
X0178138Y0049762D02*
X0174535Y0049762D01*
X0174535Y0050760D02*
X0178000Y0050760D01*
X0178113Y0051759D02*
X0173975Y0051759D01*
X0174201Y0053756D02*
X0113484Y0053756D01*
X0114474Y0052758D02*
X0178526Y0052758D01*
X0165796Y0051759D02*
X0147204Y0051759D01*
X0146885Y0052078D02*
X0139343Y0052078D01*
X0138465Y0051199D01*
X0138465Y0036571D01*
X0139343Y0035692D01*
X0146885Y0035692D01*
X0147764Y0036571D01*
X0147764Y0051199D01*
X0146885Y0052078D01*
X0147764Y0050760D02*
X0165236Y0050760D01*
X0165236Y0049762D02*
X0147764Y0049762D01*
X0147764Y0048763D02*
X0165236Y0048763D01*
X0165236Y0047765D02*
X0147764Y0047765D01*
X0147764Y0046766D02*
X0165236Y0046766D01*
X0165236Y0045768D02*
X0147764Y0045768D01*
X0147764Y0044769D02*
X0165236Y0044769D01*
X0165236Y0043771D02*
X0147764Y0043771D01*
X0147764Y0042772D02*
X0165236Y0042772D01*
X0165236Y0041774D02*
X0147764Y0041774D01*
X0147764Y0040775D02*
X0165236Y0040775D01*
X0165236Y0039777D02*
X0147764Y0039777D01*
X0147764Y0038778D02*
X0165236Y0038778D01*
X0165236Y0037780D02*
X0147764Y0037780D01*
X0147764Y0036781D02*
X0165236Y0036781D01*
X0166024Y0035783D02*
X0146976Y0035783D01*
X0139252Y0035783D02*
X0112600Y0035783D01*
X0112600Y0036781D02*
X0111600Y0036781D01*
X0111600Y0035783D02*
X0068748Y0035783D01*
X0069535Y0036781D02*
X0071180Y0036781D01*
X0070182Y0037780D02*
X0069535Y0037780D01*
X0089442Y0055753D02*
X0092558Y0055753D01*
X0091744Y0056752D02*
X0090256Y0056752D01*
X0109442Y0055753D02*
X0149094Y0055753D01*
X0149094Y0056752D02*
X0109862Y0056752D01*
X0109862Y0057750D02*
X0149094Y0057750D01*
X0139025Y0051759D02*
X0114887Y0051759D01*
X0115000Y0050760D02*
X0138465Y0050760D01*
X0138465Y0049762D02*
X0115000Y0049762D01*
X0115000Y0048763D02*
X0138465Y0048763D01*
X0138465Y0047765D02*
X0115505Y0047765D01*
X0116356Y0046766D02*
X0138465Y0046766D01*
X0138465Y0045768D02*
X0116356Y0045768D01*
X0116356Y0044769D02*
X0138465Y0044769D01*
X0138465Y0043771D02*
X0116356Y0043771D01*
X0116356Y0042772D02*
X0138465Y0042772D01*
X0138465Y0041774D02*
X0116356Y0041774D01*
X0115791Y0040775D02*
X0138465Y0040775D01*
X0138465Y0039777D02*
X0115503Y0039777D01*
X0116312Y0038778D02*
X0138465Y0038778D01*
X0138465Y0037780D02*
X0116356Y0037780D01*
X0116356Y0036781D02*
X0138465Y0036781D01*
X0112600Y0037780D02*
X0111600Y0037780D01*
X0111600Y0038778D02*
X0112600Y0038778D01*
X0112600Y0039777D02*
X0111600Y0039777D01*
X0178000Y0059790D02*
X0178500Y0059290D01*
X0181866Y0059290D01*
X0182000Y0059156D01*
X0181366Y0058523D01*
X0178000Y0059790D02*
X0178000Y0070790D01*
X0177500Y0071290D01*
X0177500Y0083790D01*
X0182500Y0088790D01*
X0186500Y0088790D01*
X0188000Y0090290D01*
X0188000Y0099054D01*
X0187500Y0102683D02*
X0188500Y0102683D01*
X0191937Y0102727D02*
X0192000Y0102790D01*
X0191937Y0102853D02*
X0195736Y0102853D01*
X0195736Y0102790D02*
X0195736Y0100802D01*
X0195736Y0102771D01*
X0195736Y0102771D01*
X0195736Y0100802D01*
X0194102Y0100802D01*
X0194002Y0100829D01*
X0193962Y0100788D01*
X0193988Y0100689D01*
X0193988Y0099054D01*
X0193988Y0100689D01*
X0193962Y0100788D01*
X0194002Y0100829D01*
X0194102Y0100802D01*
X0195736Y0100802D01*
X0195736Y0102790D01*
X0195736Y0102790D01*
X0195736Y0102683D02*
X0195736Y0102683D01*
X0195736Y0102683D01*
X0195736Y0101685D02*
X0195736Y0101685D01*
X0195736Y0101685D01*
X0195736Y0100802D02*
X0197371Y0100802D01*
X0197752Y0100904D01*
X0198094Y0101102D01*
X0198374Y0101381D01*
X0198571Y0101723D01*
X0198673Y0102105D01*
X0198571Y0101723D01*
X0198374Y0101381D01*
X0198094Y0101102D01*
X0197752Y0100904D01*
X0197371Y0100802D01*
X0195736Y0100802D01*
X0178321Y0104822D02*
X0178321Y0104822D01*
X0177327Y0106677D02*
X0170000Y0106677D01*
X0163837Y0108674D02*
X0160150Y0108674D01*
X0160150Y0107676D02*
X0161784Y0107676D01*
X0160107Y0109673D02*
X0163837Y0109673D01*
X0163837Y0110671D02*
X0159977Y0110671D01*
X0160150Y0111670D02*
X0163837Y0111670D01*
X0163837Y0112668D02*
X0160150Y0112668D01*
X0156000Y0114665D02*
X0155000Y0114665D01*
X0155000Y0113667D02*
X0146565Y0113667D01*
X0145566Y0112668D02*
X0150850Y0112668D01*
X0150850Y0111670D02*
X0145000Y0111670D01*
X0145000Y0110671D02*
X0151023Y0110671D01*
X0150893Y0109673D02*
X0145000Y0109673D01*
X0145000Y0108674D02*
X0150850Y0108674D01*
X0150850Y0107676D02*
X0145000Y0107676D01*
X0145000Y0106677D02*
X0150850Y0106677D01*
X0150850Y0105679D02*
X0145000Y0105679D01*
X0146287Y0104680D02*
X0150850Y0104680D01*
X0150850Y0103682D02*
X0147156Y0103682D01*
X0147156Y0102683D02*
X0151437Y0102683D01*
X0153500Y0101685D02*
X0147156Y0101685D01*
X0147156Y0100686D02*
X0153500Y0100686D01*
X0150850Y0099688D02*
X0147156Y0099688D01*
X0147156Y0098689D02*
X0150433Y0098689D01*
X0150460Y0098689D02*
X0150850Y0098689D01*
X0148804Y0097691D02*
X0147003Y0097691D01*
X0160150Y0095694D02*
X0161244Y0095694D01*
X0161244Y0094695D02*
X0160150Y0094695D01*
X0160150Y0093696D02*
X0161366Y0093696D01*
X0165000Y0097691D02*
X0166000Y0097691D01*
X0166000Y0098689D02*
X0165000Y0098689D01*
X0165000Y0099688D02*
X0166000Y0099688D01*
X0174166Y0111670D02*
X0177379Y0111670D01*
X0178234Y0112668D02*
X0173352Y0112668D01*
X0156000Y0115664D02*
X0155000Y0115664D01*
X0155000Y0116662D02*
X0156000Y0116662D01*
X0156000Y0117661D02*
X0155000Y0117661D01*
X0128796Y0128007D02*
X0128796Y0128007D01*
X0118964Y0135634D02*
X0105500Y0135634D01*
X0106035Y0136632D02*
X0117965Y0136632D01*
X0116967Y0137631D02*
X0107033Y0137631D01*
X0107726Y0138629D02*
X0115968Y0138629D01*
X0115500Y0139628D02*
X0108140Y0139628D01*
X0108500Y0140627D02*
X0115500Y0140627D01*
X0115500Y0142290D02*
X0121500Y0142290D01*
X0121500Y0148290D01*
X0119308Y0148290D01*
X0115500Y0144483D01*
X0115500Y0142290D01*
X0115500Y0142624D02*
X0108500Y0142624D01*
X0108500Y0141625D02*
X0121500Y0141625D01*
X0121500Y0142624D02*
X0122500Y0142624D01*
X0122500Y0143622D02*
X0121500Y0143622D01*
X0121500Y0144621D02*
X0122500Y0144621D01*
X0122500Y0145619D02*
X0121500Y0145619D01*
X0121500Y0146618D02*
X0122500Y0146618D01*
X0122500Y0147616D02*
X0121500Y0147616D01*
X0118633Y0147616D02*
X0104921Y0147616D01*
X0106365Y0146618D02*
X0117635Y0146618D01*
X0116636Y0145619D02*
X0107364Y0145619D01*
X0107863Y0144621D02*
X0115638Y0144621D01*
X0115500Y0143622D02*
X0108277Y0143622D01*
X0083244Y0136632D02*
X0052161Y0136632D01*
X0052597Y0135634D02*
X0083244Y0135634D01*
X0083805Y0134635D02*
X0052684Y0134635D01*
X0049500Y0134790D02*
X0045756Y0138534D01*
X0040197Y0138534D01*
X0036335Y0138629D02*
X0035791Y0138629D01*
X0035791Y0137631D02*
X0036335Y0137631D01*
X0036335Y0136632D02*
X0035791Y0136632D01*
X0035791Y0135634D02*
X0036335Y0135634D01*
X0033500Y0132790D02*
X0031929Y0134361D01*
X0031929Y0138534D01*
X0035791Y0139628D02*
X0036335Y0139628D01*
X0036335Y0140627D02*
X0035791Y0140627D01*
X0035684Y0141625D02*
X0036442Y0141625D01*
X0043952Y0141625D02*
X0052780Y0141625D01*
X0052563Y0141924D02*
X0053100Y0141185D01*
X0053745Y0140540D01*
X0054484Y0140003D01*
X0055297Y0139588D01*
X0056165Y0139306D01*
X0057039Y0139168D01*
X0057039Y0144479D01*
X0051728Y0144479D01*
X0051866Y0143605D01*
X0052149Y0142737D01*
X0052563Y0141924D01*
X0052206Y0142624D02*
X0020937Y0142624D01*
X0020111Y0142072D02*
X0023173Y0144117D01*
X0025219Y0147179D01*
X0025937Y0150790D01*
X0025219Y0154402D01*
X0023173Y0157463D01*
X0020111Y0159509D01*
X0016500Y0160227D01*
X0012889Y0159509D01*
X0009827Y0157463D01*
X0007781Y0154402D01*
X0007063Y0150790D01*
X0007781Y0147179D01*
X0009827Y0144117D01*
X0012889Y0142072D01*
X0016500Y0141353D01*
X0020111Y0142072D01*
X0017866Y0141625D02*
X0028174Y0141625D01*
X0028067Y0140627D02*
X0003500Y0140627D01*
X0003500Y0141625D02*
X0015134Y0141625D01*
X0012063Y0142624D02*
X0003500Y0142624D01*
X0003500Y0143622D02*
X0010568Y0143622D01*
X0009491Y0144621D02*
X0003500Y0144621D01*
X0003500Y0145619D02*
X0008824Y0145619D01*
X0008156Y0146618D02*
X0003500Y0146618D01*
X0003500Y0147616D02*
X0007694Y0147616D01*
X0007496Y0148615D02*
X0003500Y0148615D01*
X0003537Y0149613D02*
X0007297Y0149613D01*
X0007099Y0150612D02*
X0003605Y0150612D01*
X0003797Y0151610D02*
X0007226Y0151610D01*
X0007425Y0152609D02*
X0004067Y0152609D01*
X0004338Y0153607D02*
X0007623Y0153607D01*
X0007918Y0154606D02*
X0004609Y0154606D01*
X0005154Y0155604D02*
X0008585Y0155604D01*
X0009252Y0156603D02*
X0005734Y0156603D01*
X0006315Y0157601D02*
X0010034Y0157601D01*
X0011528Y0158600D02*
X0007128Y0158600D01*
X0008133Y0159598D02*
X0013338Y0159598D01*
X0010752Y0161595D02*
X0313691Y0161595D01*
X0315619Y0160597D02*
X0009138Y0160597D01*
X0012495Y0162594D02*
X0311604Y0162594D01*
X0307423Y0163592D02*
X0016084Y0163592D01*
X0019662Y0159598D02*
X0283390Y0159598D01*
X0283299Y0159556D02*
X0283244Y0159556D01*
X0283196Y0159508D01*
X0283135Y0159479D01*
X0283116Y0159428D01*
X0282840Y0159152D01*
X0282520Y0158928D01*
X0282466Y0158918D01*
X0282427Y0158863D01*
X0282372Y0158824D01*
X0282362Y0158770D01*
X0282138Y0158450D01*
X0281862Y0158174D01*
X0281811Y0158155D01*
X0281782Y0158094D01*
X0281734Y0158046D01*
X0281734Y0157991D01*
X0281569Y0157637D01*
X0281345Y0157317D01*
X0281298Y0157290D01*
X0281280Y0157224D01*
X0281241Y0157169D01*
X0281251Y0157115D01*
X0281150Y0156738D01*
X0280985Y0156384D01*
X0280943Y0156349D01*
X0280937Y0156281D01*
X0280908Y0156219D01*
X0280927Y0156168D01*
X0280893Y0155779D01*
X0280792Y0155402D01*
X0280756Y0155360D01*
X0280762Y0155292D01*
X0280745Y0155227D01*
X0280772Y0155179D01*
X0280806Y0154790D01*
X0280772Y0154401D01*
X0280745Y0154354D01*
X0280762Y0154288D01*
X0280756Y0154221D01*
X0280792Y0154179D01*
X0280893Y0153802D01*
X0280927Y0153413D01*
X0280908Y0153361D01*
X0280937Y0153300D01*
X0280943Y0153232D01*
X0280985Y0153197D01*
X0281150Y0152843D01*
X0281251Y0152466D01*
X0281241Y0152412D01*
X0281280Y0152356D01*
X0281298Y0152291D01*
X0281345Y0152263D01*
X0281569Y0151943D01*
X0281734Y0151590D01*
X0281734Y0151535D01*
X0281782Y0151487D01*
X0281811Y0151425D01*
X0281862Y0151406D01*
X0282138Y0151130D01*
X0282362Y0150811D01*
X0282372Y0150757D01*
X0282427Y0150718D01*
X0282466Y0150662D01*
X0282520Y0150653D01*
X0282840Y0150429D01*
X0283116Y0150153D01*
X0283135Y0150101D01*
X0283196Y0150072D01*
X0283244Y0150024D01*
X0283299Y0150024D01*
X0283653Y0149859D01*
X0283973Y0149635D01*
X0284000Y0149588D01*
X0284066Y0149570D01*
X0284122Y0149531D01*
X0284176Y0149541D01*
X0284553Y0149440D01*
X0284906Y0149275D01*
X0284942Y0149233D01*
X0285009Y0149227D01*
X0285071Y0149198D01*
X0285122Y0149217D01*
X0285511Y0149183D01*
X0285888Y0149082D01*
X0285930Y0149047D01*
X0285998Y0149053D01*
X0286064Y0149035D01*
X0286111Y0149063D01*
X0286500Y0149097D01*
X0286889Y0149063D01*
X0286936Y0149035D01*
X0287002Y0149053D01*
X0287070Y0149047D01*
X0287112Y0149082D01*
X0287489Y0149183D01*
X0287877Y0149217D01*
X0287929Y0149198D01*
X0287991Y0149227D01*
X0288058Y0149233D01*
X0288094Y0149275D01*
X0288447Y0149440D01*
X0288824Y0149541D01*
X0288878Y0149531D01*
X0288934Y0149570D01*
X0289000Y0149588D01*
X0289027Y0149635D01*
X0289347Y0149859D01*
X0289701Y0150024D01*
X0289756Y0150024D01*
X0289804Y0150072D01*
X0289865Y0150101D01*
X0289884Y0150153D01*
X0290160Y0150429D01*
X0290480Y0150653D01*
X0290534Y0150662D01*
X0290573Y0150718D01*
X0290628Y0150757D01*
X0290638Y0150811D01*
X0290862Y0151130D01*
X0291138Y0151406D01*
X0291189Y0151425D01*
X0291218Y0151487D01*
X0291266Y0151535D01*
X0291266Y0151590D01*
X0291431Y0151943D01*
X0291655Y0152263D01*
X0291702Y0152291D01*
X0291720Y0152356D01*
X0291759Y0152412D01*
X0291749Y0152466D01*
X0291850Y0152843D01*
X0292015Y0153197D01*
X0292057Y0153232D01*
X0292063Y0153300D01*
X0292092Y0153361D01*
X0292073Y0153413D01*
X0292107Y0153802D01*
X0292208Y0154179D01*
X0292244Y0154221D01*
X0292238Y0154288D01*
X0292255Y0154354D01*
X0292228Y0154401D01*
X0292194Y0154790D01*
X0292228Y0155179D01*
X0292255Y0155227D01*
X0292238Y0155292D01*
X0292244Y0155360D01*
X0292208Y0155402D01*
X0292107Y0155779D01*
X0292073Y0156168D01*
X0292092Y0156219D01*
X0292063Y0156281D01*
X0292057Y0156349D01*
X0292015Y0156384D01*
X0291850Y0156738D01*
X0291749Y0157115D01*
X0291759Y0157169D01*
X0291720Y0157224D01*
X0291702Y0157290D01*
X0291655Y0157317D01*
X0291431Y0157637D01*
X0291266Y0157991D01*
X0291266Y0158046D01*
X0291218Y0158094D01*
X0291189Y0158155D01*
X0291138Y0158174D01*
X0290862Y0158450D01*
X0290638Y0158770D01*
X0290628Y0158824D01*
X0290573Y0158863D01*
X0290534Y0158918D01*
X0290480Y0158928D01*
X0290160Y0159152D01*
X0289884Y0159428D01*
X0289865Y0159479D01*
X0289804Y0159508D01*
X0289756Y0159556D01*
X0289701Y0159556D01*
X0289347Y0159721D01*
X0289027Y0159945D01*
X0289000Y0159993D01*
X0288934Y0160010D01*
X0288878Y0160049D01*
X0288824Y0160040D01*
X0288447Y0160141D01*
X0288094Y0160306D01*
X0288058Y0160348D01*
X0287991Y0160354D01*
X0287929Y0160382D01*
X0287877Y0160363D01*
X0287489Y0160397D01*
X0287112Y0160498D01*
X0287070Y0160534D01*
X0287002Y0160528D01*
X0286936Y0160545D01*
X0286889Y0160518D01*
X0286500Y0160484D01*
X0286111Y0160518D01*
X0286064Y0160545D01*
X0285998Y0160528D01*
X0285930Y0160534D01*
X0285888Y0160498D01*
X0285511Y0160397D01*
X0285122Y0160363D01*
X0285071Y0160382D01*
X0285009Y0160354D01*
X0284942Y0160348D01*
X0284906Y0160306D01*
X0284553Y0160141D01*
X0284176Y0160040D01*
X0284122Y0160049D01*
X0284066Y0160010D01*
X0284000Y0159993D01*
X0283973Y0159945D01*
X0283653Y0159721D01*
X0283299Y0159556D01*
X0282243Y0158600D02*
X0021472Y0158600D01*
X0022966Y0157601D02*
X0281544Y0157601D01*
X0281087Y0156603D02*
X0023748Y0156603D01*
X0024415Y0155604D02*
X0280846Y0155604D01*
X0280790Y0154606D02*
X0025082Y0154606D01*
X0025377Y0153607D02*
X0280910Y0153607D01*
X0281212Y0152609D02*
X0025575Y0152609D01*
X0025774Y0151610D02*
X0281725Y0151610D01*
X0282579Y0150612D02*
X0072823Y0150612D01*
X0074856Y0149613D02*
X0283986Y0149613D01*
X0289014Y0149613D02*
X0302297Y0149613D01*
X0302099Y0150612D02*
X0290421Y0150612D01*
X0291275Y0151610D02*
X0302226Y0151610D01*
X0302425Y0152609D02*
X0291788Y0152609D01*
X0292090Y0153607D02*
X0302623Y0153607D01*
X0302918Y0154606D02*
X0292210Y0154606D01*
X0292154Y0155604D02*
X0303585Y0155604D01*
X0304252Y0156603D02*
X0291913Y0156603D01*
X0291456Y0157601D02*
X0305034Y0157601D01*
X0306528Y0158600D02*
X0290757Y0158600D01*
X0289610Y0159598D02*
X0308338Y0159598D01*
X0314662Y0159598D02*
X0316877Y0159598D01*
X0316472Y0158600D02*
X0318136Y0158600D01*
X0317966Y0157601D02*
X0319194Y0157601D01*
X0318748Y0156603D02*
X0319994Y0156603D01*
X0319415Y0155604D02*
X0320794Y0155604D01*
X0320082Y0154606D02*
X0321595Y0154606D01*
X0322085Y0153607D02*
X0320377Y0153607D01*
X0320575Y0152609D02*
X0322569Y0152609D01*
X0323053Y0151610D02*
X0320774Y0151610D01*
X0320901Y0150612D02*
X0323537Y0150612D01*
X0323769Y0149613D02*
X0320703Y0149613D01*
X0320504Y0148615D02*
X0324000Y0148615D01*
X0324230Y0147616D02*
X0320306Y0147616D01*
X0319844Y0146618D02*
X0324461Y0146618D01*
X0324575Y0145619D02*
X0319176Y0145619D01*
X0318509Y0144621D02*
X0324634Y0144621D01*
X0324665Y0143622D02*
X0317432Y0143622D01*
X0315937Y0142624D02*
X0324663Y0142624D01*
X0324647Y0133637D02*
X0315799Y0133637D01*
X0315799Y0132638D02*
X0324646Y0132638D01*
X0324644Y0131640D02*
X0315799Y0131640D01*
X0315629Y0130641D02*
X0324642Y0130641D01*
X0324641Y0129643D02*
X0314616Y0129643D01*
X0315615Y0128644D02*
X0324639Y0128644D01*
X0324637Y0127646D02*
X0316613Y0127646D01*
X0317139Y0126647D02*
X0324635Y0126647D01*
X0324634Y0125649D02*
X0317553Y0125649D01*
X0317967Y0124650D02*
X0324632Y0124650D01*
X0324630Y0123652D02*
X0318028Y0123652D01*
X0318028Y0122653D02*
X0324629Y0122653D01*
X0324627Y0121655D02*
X0318028Y0121655D01*
X0317757Y0120656D02*
X0324625Y0120656D01*
X0324623Y0119658D02*
X0317343Y0119658D01*
X0316930Y0118659D02*
X0324622Y0118659D01*
X0324620Y0117661D02*
X0316107Y0117661D01*
X0315109Y0116662D02*
X0324618Y0116662D01*
X0324617Y0115664D02*
X0313492Y0115664D01*
X0309500Y0113667D02*
X0324613Y0113667D01*
X0324615Y0114665D02*
X0308953Y0114665D01*
X0307500Y0113290D02*
X0307500Y0109790D01*
X0299331Y0101621D01*
X0299331Y0100977D01*
X0300164Y0105282D02*
X0295669Y0105282D01*
X0294087Y0104627D01*
X0293005Y0103545D01*
X0292519Y0104030D01*
X0292779Y0104291D01*
X0292977Y0104633D01*
X0293079Y0105014D01*
X0293079Y0107271D01*
X0289126Y0107271D01*
X0289126Y0108271D01*
X0288126Y0108271D01*
X0288126Y0111830D01*
X0288000Y0111830D01*
X0288000Y0114050D01*
X0289000Y0114050D01*
X0289000Y0110491D01*
X0289126Y0110491D01*
X0289126Y0108271D01*
X0293056Y0108271D01*
X0293242Y0108015D01*
X0293721Y0107536D01*
X0294269Y0107138D01*
X0294873Y0106830D01*
X0295517Y0106621D01*
X0296187Y0106515D01*
X0298896Y0106515D01*
X0298896Y0110385D01*
X0299766Y0110385D01*
X0299766Y0106515D01*
X0301396Y0106515D01*
X0300164Y0105282D01*
X0300560Y0105679D02*
X0293079Y0105679D01*
X0293079Y0106677D02*
X0295344Y0106677D01*
X0293581Y0107676D02*
X0289126Y0107676D01*
X0289126Y0108674D02*
X0288126Y0108674D01*
X0288126Y0109673D02*
X0289126Y0109673D01*
X0289000Y0110671D02*
X0288126Y0110671D01*
X0288126Y0111670D02*
X0289000Y0111670D01*
X0289000Y0112668D02*
X0288000Y0112668D01*
X0288000Y0113667D02*
X0289000Y0113667D01*
X0289000Y0114050D02*
X0289000Y0115050D01*
X0292953Y0115050D01*
X0292953Y0117307D01*
X0292851Y0117688D01*
X0292653Y0118030D01*
X0292393Y0118290D01*
X0292953Y0118850D01*
X0292953Y0122415D01*
X0293853Y0123315D01*
X0294592Y0123315D01*
X0295685Y0123768D01*
X0296522Y0124605D01*
X0296975Y0125698D01*
X0296975Y0126882D01*
X0296786Y0127338D01*
X0299000Y0127338D01*
X0299000Y0118962D01*
X0300172Y0117790D01*
X0302905Y0115057D01*
X0302475Y0115125D01*
X0299766Y0115125D01*
X0299766Y0111255D01*
X0298896Y0111255D01*
X0298896Y0115125D01*
X0296187Y0115125D01*
X0295517Y0115019D01*
X0294873Y0114809D01*
X0294269Y0114502D01*
X0293721Y0114104D01*
X0293242Y0113624D01*
X0292953Y0113226D01*
X0292953Y0114050D01*
X0289000Y0114050D01*
X0289000Y0114665D02*
X0294590Y0114665D01*
X0293284Y0113667D02*
X0292953Y0113667D01*
X0292953Y0115664D02*
X0302298Y0115664D01*
X0301300Y0116662D02*
X0292953Y0116662D01*
X0292858Y0117661D02*
X0300301Y0117661D01*
X0299303Y0118659D02*
X0292762Y0118659D01*
X0292953Y0119658D02*
X0299000Y0119658D01*
X0299000Y0120656D02*
X0292953Y0120656D01*
X0292953Y0121655D02*
X0299000Y0121655D01*
X0299000Y0122653D02*
X0293191Y0122653D01*
X0295404Y0123652D02*
X0299000Y0123652D01*
X0299000Y0124650D02*
X0296541Y0124650D01*
X0296954Y0125649D02*
X0299000Y0125649D01*
X0299000Y0126647D02*
X0296975Y0126647D01*
X0294000Y0126290D02*
X0289740Y0122030D01*
X0288500Y0122030D01*
X0290814Y0126647D02*
X0243327Y0126647D01*
X0243327Y0125649D02*
X0261030Y0125649D01*
X0260032Y0124650D02*
X0239374Y0124650D01*
X0243327Y0123652D02*
X0260000Y0123652D01*
X0260000Y0122653D02*
X0243327Y0122653D01*
X0243119Y0121655D02*
X0252536Y0121655D01*
X0251538Y0120656D02*
X0243327Y0120656D01*
X0243327Y0119658D02*
X0245997Y0119658D01*
X0246000Y0119664D02*
X0245803Y0119322D01*
X0245701Y0118941D01*
X0245701Y0116290D01*
X0249260Y0116290D01*
X0249260Y0120243D01*
X0247003Y0120243D01*
X0246622Y0120141D01*
X0246280Y0119943D01*
X0246000Y0119664D01*
X0245701Y0118659D02*
X0243327Y0118659D01*
X0243327Y0117661D02*
X0245701Y0117661D01*
X0245701Y0116662D02*
X0243327Y0116662D01*
X0243327Y0115664D02*
X0249260Y0115664D01*
X0249260Y0116662D02*
X0250260Y0116662D01*
X0250260Y0117661D02*
X0249260Y0117661D01*
X0249260Y0118659D02*
X0250260Y0118659D01*
X0250260Y0119658D02*
X0249260Y0119658D01*
X0253500Y0119658D02*
X0261995Y0119658D01*
X0262000Y0119658D02*
X0270500Y0119658D01*
X0270500Y0120656D02*
X0262000Y0120656D01*
X0262000Y0121655D02*
X0270500Y0121655D01*
X0270500Y0122653D02*
X0262000Y0122653D01*
X0262000Y0123652D02*
X0270500Y0123652D01*
X0270500Y0118659D02*
X0262000Y0118659D01*
X0261960Y0118659D02*
X0253626Y0118659D01*
X0253626Y0117661D02*
X0261924Y0117661D01*
X0262000Y0117661D02*
X0270500Y0117661D01*
X0270500Y0116662D02*
X0262000Y0116662D01*
X0261888Y0116662D02*
X0253626Y0116662D01*
X0253626Y0115664D02*
X0261853Y0115664D01*
X0262000Y0115664D02*
X0270500Y0115664D01*
X0270500Y0114665D02*
X0262000Y0114665D01*
X0261817Y0114665D02*
X0253626Y0114665D01*
X0253626Y0113667D02*
X0261781Y0113667D01*
X0262000Y0113667D02*
X0270500Y0113667D01*
X0270500Y0112668D02*
X0262000Y0112668D01*
X0261746Y0112668D02*
X0253626Y0112668D01*
X0254110Y0111670D02*
X0253000Y0111670D01*
X0245701Y0113667D02*
X0242679Y0113667D01*
X0243327Y0114665D02*
X0245701Y0114665D01*
X0245050Y0112668D02*
X0240159Y0112668D01*
X0239160Y0111670D02*
X0245000Y0111670D01*
X0260890Y0111670D02*
X0261710Y0111670D01*
X0262000Y0111670D02*
X0270500Y0111670D01*
X0270500Y0110671D02*
X0262000Y0110671D01*
X0261674Y0110671D02*
X0261169Y0110671D01*
X0261169Y0109673D02*
X0261639Y0109673D01*
X0262000Y0109673D02*
X0270500Y0109673D01*
X0288626Y0100290D02*
X0288626Y0093605D01*
X0288697Y0093534D01*
X0298900Y0093534D01*
X0299331Y0093103D01*
X0304635Y0096692D02*
X0324584Y0096692D01*
X0324582Y0095694D02*
X0316925Y0095694D01*
X0317500Y0094695D02*
X0324581Y0094695D01*
X0324586Y0097691D02*
X0304937Y0097691D01*
X0305848Y0098689D02*
X0307967Y0098689D01*
X0309516Y0098689D02*
X0310484Y0098689D01*
X0310484Y0098331D02*
X0311358Y0098470D01*
X0312226Y0098752D01*
X0313040Y0099166D01*
X0313778Y0099703D01*
X0314424Y0100348D01*
X0314961Y0101087D01*
X0315375Y0101900D01*
X0315657Y0102769D01*
X0315796Y0103643D01*
X0310484Y0103643D01*
X0310484Y0098331D01*
X0310484Y0099688D02*
X0309516Y0099688D01*
X0309516Y0100686D02*
X0310484Y0100686D01*
X0310484Y0101685D02*
X0309516Y0101685D01*
X0309516Y0102683D02*
X0310484Y0102683D01*
X0310484Y0103682D02*
X0324596Y0103682D01*
X0324598Y0104680D02*
X0315785Y0104680D01*
X0315796Y0104611D02*
X0315657Y0105485D01*
X0315375Y0106353D01*
X0314961Y0107167D01*
X0314424Y0107905D01*
X0313778Y0108551D01*
X0313040Y0109087D01*
X0312226Y0109502D01*
X0311358Y0109784D01*
X0310484Y0109922D01*
X0310484Y0104611D01*
X0315796Y0104611D01*
X0315594Y0105679D02*
X0324600Y0105679D01*
X0324601Y0106677D02*
X0315210Y0106677D01*
X0314591Y0107676D02*
X0324603Y0107676D01*
X0324605Y0108674D02*
X0313609Y0108674D01*
X0311701Y0109673D02*
X0324606Y0109673D01*
X0324608Y0110671D02*
X0309500Y0110671D01*
X0309516Y0109673D02*
X0310484Y0109673D01*
X0310484Y0108674D02*
X0309516Y0108674D01*
X0309516Y0107676D02*
X0310484Y0107676D01*
X0310484Y0106677D02*
X0309516Y0106677D01*
X0309516Y0105679D02*
X0310484Y0105679D01*
X0310484Y0104680D02*
X0309516Y0104680D01*
X0315629Y0102683D02*
X0324594Y0102683D01*
X0324593Y0101685D02*
X0315265Y0101685D01*
X0314669Y0100686D02*
X0324591Y0100686D01*
X0324589Y0099688D02*
X0313757Y0099688D01*
X0312033Y0098689D02*
X0324588Y0098689D01*
X0305966Y0095694D02*
X0305634Y0095694D01*
X0293142Y0103682D02*
X0292868Y0103682D01*
X0292989Y0104680D02*
X0294215Y0104680D01*
X0298896Y0106677D02*
X0299766Y0106677D01*
X0299766Y0107676D02*
X0298896Y0107676D01*
X0298896Y0108674D02*
X0299766Y0108674D01*
X0299766Y0109673D02*
X0298896Y0109673D01*
X0298896Y0111670D02*
X0299766Y0111670D01*
X0299766Y0112668D02*
X0298896Y0112668D01*
X0298896Y0113667D02*
X0299766Y0113667D01*
X0299766Y0114665D02*
X0298896Y0114665D01*
X0301000Y0119790D02*
X0307500Y0113290D01*
X0309500Y0112668D02*
X0324612Y0112668D01*
X0324610Y0111670D02*
X0309500Y0111670D01*
X0301000Y0119790D02*
X0301000Y0129030D01*
X0304260Y0132290D01*
X0304260Y0134290D01*
X0300201Y0136632D02*
X0201035Y0136632D01*
X0200036Y0135634D02*
X0286970Y0135634D01*
X0290760Y0131790D02*
X0290760Y0129530D01*
X0294000Y0126290D01*
X0287271Y0127646D02*
X0243327Y0127646D01*
X0242838Y0128644D02*
X0286701Y0128644D01*
X0286701Y0129643D02*
X0192000Y0129643D01*
X0191477Y0130641D02*
X0286701Y0130641D01*
X0298240Y0131790D02*
X0301000Y0129030D01*
X0300201Y0137631D02*
X0202033Y0137631D01*
X0203032Y0138629D02*
X0300966Y0138629D01*
X0239500Y0093606D02*
X0239516Y0073906D01*
X0239900Y0073890D01*
X0243000Y0069732D02*
X0232300Y0069732D01*
X0233056Y0068734D02*
X0243000Y0068734D01*
X0243000Y0067735D02*
X0233056Y0067735D01*
X0233056Y0066737D02*
X0243000Y0066737D01*
X0243000Y0065738D02*
X0233056Y0065738D01*
X0233056Y0064740D02*
X0243000Y0064740D01*
X0243000Y0063741D02*
X0233056Y0063741D01*
X0233056Y0062743D02*
X0243000Y0062743D01*
X0243000Y0061744D02*
X0232804Y0061744D01*
X0205585Y0076722D02*
X0204037Y0076722D01*
X0204539Y0077720D02*
X0205083Y0077720D01*
X0205083Y0078719D02*
X0204539Y0078719D01*
X0204539Y0079717D02*
X0205083Y0079717D01*
X0214937Y0080790D02*
X0216000Y0080790D01*
X0191000Y0067227D02*
X0190803Y0067424D01*
X0182000Y0067424D01*
X0185474Y0076722D02*
X0187022Y0076722D01*
X0186520Y0077720D02*
X0185976Y0077720D01*
X0185976Y0078719D02*
X0186520Y0078719D01*
X0186520Y0079717D02*
X0185976Y0079717D01*
X0173472Y0080716D02*
X0164602Y0080716D01*
X0164602Y0081714D02*
X0173479Y0081714D01*
X0173486Y0082713D02*
X0164602Y0082713D01*
X0164058Y0083711D02*
X0173493Y0083711D01*
X0173499Y0084710D02*
X0172384Y0084710D01*
X0170616Y0084710D02*
X0168248Y0084710D01*
X0157816Y0083711D02*
X0156184Y0083711D01*
X0156728Y0082713D02*
X0157272Y0082713D01*
X0157272Y0081714D02*
X0156728Y0081714D01*
X0156728Y0080716D02*
X0157272Y0080716D01*
X0156752Y0084710D02*
X0148092Y0084710D01*
X0160437Y0077720D02*
X0161437Y0077720D01*
X0161437Y0076722D02*
X0160437Y0076722D01*
X0160437Y0075723D02*
X0161437Y0075723D01*
X0160921Y0074725D02*
X0159953Y0074725D01*
X0117400Y0091699D02*
X0112756Y0091699D01*
X0112756Y0092698D02*
X0117400Y0092698D01*
X0117400Y0093696D02*
X0109000Y0093696D01*
X0112756Y0094695D02*
X0117400Y0094695D01*
X0117400Y0095694D02*
X0112756Y0095694D01*
X0112490Y0096692D02*
X0117400Y0096692D01*
X0123600Y0097691D02*
X0125397Y0097691D01*
X0125244Y0098689D02*
X0123600Y0098689D01*
X0123600Y0099688D02*
X0125244Y0099688D01*
X0125244Y0100686D02*
X0123600Y0100686D01*
X0123600Y0101685D02*
X0125244Y0101685D01*
X0125244Y0102683D02*
X0123600Y0102683D01*
X0123600Y0103682D02*
X0125244Y0103682D01*
X0126113Y0104680D02*
X0123600Y0104680D01*
X0123600Y0105679D02*
X0127400Y0105679D01*
X0127400Y0106677D02*
X0123600Y0106677D01*
X0123600Y0107676D02*
X0127400Y0107676D01*
X0127400Y0108674D02*
X0123600Y0108674D01*
X0123580Y0109673D02*
X0127400Y0109673D01*
X0127400Y0110671D02*
X0123166Y0110671D01*
X0122172Y0111670D02*
X0127400Y0111670D01*
X0126834Y0112668D02*
X0108006Y0112668D01*
X0107008Y0113667D02*
X0125835Y0113667D01*
X0124837Y0114665D02*
X0106009Y0114665D01*
X0105011Y0115664D02*
X0124700Y0115664D01*
X0086937Y0102727D02*
X0086937Y0099054D01*
X0083500Y0102683D02*
X0082500Y0102683D01*
X0073321Y0104822D02*
X0073321Y0104822D01*
X0072327Y0106677D02*
X0065000Y0106677D01*
X0058837Y0108674D02*
X0055150Y0108674D01*
X0055150Y0109673D02*
X0058837Y0109673D01*
X0058837Y0110671D02*
X0055150Y0110671D01*
X0054710Y0111670D02*
X0058837Y0111670D01*
X0058837Y0112668D02*
X0055121Y0112668D01*
X0055150Y0113667D02*
X0058837Y0113667D01*
X0058837Y0114665D02*
X0055150Y0114665D01*
X0045850Y0114665D02*
X0042363Y0114665D01*
X0041365Y0113667D02*
X0045850Y0113667D01*
X0045879Y0112668D02*
X0040366Y0112668D01*
X0039800Y0111670D02*
X0046290Y0111670D01*
X0045850Y0110671D02*
X0039800Y0110671D01*
X0039800Y0109673D02*
X0045850Y0109673D01*
X0045850Y0108674D02*
X0039800Y0108674D01*
X0039800Y0107676D02*
X0045850Y0107676D01*
X0045850Y0106677D02*
X0039800Y0106677D01*
X0039800Y0105679D02*
X0045850Y0105679D01*
X0046040Y0104680D02*
X0041087Y0104680D01*
X0041956Y0103682D02*
X0048500Y0103682D01*
X0048500Y0102683D02*
X0041956Y0102683D01*
X0041956Y0101685D02*
X0048500Y0101685D01*
X0048500Y0100686D02*
X0041956Y0100686D01*
X0041956Y0099688D02*
X0045850Y0099688D01*
X0045850Y0098689D02*
X0045479Y0098689D01*
X0045451Y0098689D02*
X0041956Y0098689D01*
X0041803Y0097691D02*
X0043808Y0097691D01*
X0055150Y0095694D02*
X0056244Y0095694D01*
X0056244Y0094695D02*
X0055150Y0094695D01*
X0055150Y0093696D02*
X0056366Y0093696D01*
X0060000Y0097691D02*
X0061000Y0097691D01*
X0061000Y0098689D02*
X0060000Y0098689D01*
X0060000Y0099688D02*
X0061000Y0099688D01*
X0069166Y0111670D02*
X0072379Y0111670D01*
X0073234Y0112668D02*
X0069000Y0112668D01*
X0043466Y0123652D02*
X0003500Y0123652D01*
X0003500Y0124650D02*
X0043461Y0124650D01*
X0043461Y0125649D02*
X0003500Y0125649D01*
X0003500Y0126647D02*
X0043461Y0126647D01*
X0043461Y0127646D02*
X0003500Y0127646D01*
X0003500Y0128644D02*
X0042688Y0128644D01*
X0041689Y0129643D02*
X0003500Y0129643D01*
X0003500Y0130641D02*
X0040691Y0130641D01*
X0041370Y0132790D02*
X0033500Y0132790D01*
X0031822Y0131640D02*
X0003500Y0131640D01*
X0003500Y0132638D02*
X0030823Y0132638D01*
X0029929Y0133637D02*
X0003500Y0133637D01*
X0003500Y0134635D02*
X0029929Y0134635D01*
X0028067Y0135634D02*
X0003500Y0135634D01*
X0003500Y0136632D02*
X0028067Y0136632D01*
X0028067Y0137631D02*
X0003500Y0137631D01*
X0003500Y0138629D02*
X0028067Y0138629D01*
X0028067Y0139628D02*
X0003500Y0139628D01*
X0022432Y0143622D02*
X0051864Y0143622D01*
X0051728Y0145448D02*
X0057039Y0145448D01*
X0057039Y0144479D01*
X0058008Y0144479D01*
X0058008Y0139168D01*
X0058882Y0139306D01*
X0059750Y0139588D01*
X0060563Y0140003D01*
X0061302Y0140540D01*
X0061948Y0141185D01*
X0062484Y0141924D01*
X0062899Y0142737D01*
X0063181Y0143605D01*
X0063319Y0144479D01*
X0058008Y0144479D01*
X0058008Y0145448D01*
X0057039Y0145448D01*
X0057039Y0150759D01*
X0056165Y0150621D01*
X0055297Y0150339D01*
X0054484Y0149924D01*
X0053745Y0149387D01*
X0053100Y0148742D01*
X0052563Y0148003D01*
X0052149Y0147190D01*
X0051866Y0146322D01*
X0051728Y0145448D01*
X0051755Y0145619D02*
X0024176Y0145619D01*
X0023509Y0144621D02*
X0057039Y0144621D01*
X0058008Y0144621D02*
X0065503Y0144621D01*
X0065503Y0145619D02*
X0063292Y0145619D01*
X0063319Y0145448D02*
X0063181Y0146322D01*
X0062899Y0147190D01*
X0062484Y0148003D01*
X0061948Y0148742D01*
X0061302Y0149387D01*
X0060563Y0149924D01*
X0059750Y0150339D01*
X0058882Y0150621D01*
X0058008Y0150759D01*
X0058008Y0145448D01*
X0063319Y0145448D01*
X0063085Y0146618D02*
X0065710Y0146618D01*
X0066124Y0147616D02*
X0062682Y0147616D01*
X0062040Y0148615D02*
X0066752Y0148615D01*
X0067750Y0149613D02*
X0060991Y0149613D01*
X0058910Y0150612D02*
X0069783Y0150612D01*
X0058008Y0150612D02*
X0057039Y0150612D01*
X0056138Y0150612D02*
X0025901Y0150612D01*
X0025703Y0149613D02*
X0054056Y0149613D01*
X0053007Y0148615D02*
X0025504Y0148615D01*
X0025306Y0147616D02*
X0052366Y0147616D01*
X0051963Y0146618D02*
X0024844Y0146618D01*
X0044059Y0140627D02*
X0053658Y0140627D01*
X0055220Y0139628D02*
X0047491Y0139628D01*
X0048489Y0138629D02*
X0081787Y0138629D01*
X0082786Y0137631D02*
X0050963Y0137631D01*
X0045828Y0135634D02*
X0044059Y0135634D01*
X0042353Y0134635D02*
X0046316Y0134635D01*
X0046531Y0133637D02*
X0043352Y0133637D01*
X0044350Y0132638D02*
X0047149Y0132638D01*
X0048785Y0131640D02*
X0045349Y0131640D01*
X0041370Y0132790D02*
X0047126Y0127034D01*
X0024800Y0120656D02*
X0024200Y0120656D01*
X0024200Y0121590D02*
X0022512Y0121590D01*
X0019700Y0118778D01*
X0019700Y0117090D01*
X0024200Y0117090D01*
X0024200Y0121590D01*
X0024200Y0119658D02*
X0024800Y0119658D01*
X0024800Y0118659D02*
X0024200Y0118659D01*
X0024200Y0117661D02*
X0024800Y0117661D01*
X0021578Y0120656D02*
X0003500Y0120656D01*
X0003500Y0119658D02*
X0020579Y0119658D01*
X0019700Y0118659D02*
X0003500Y0118659D01*
X0003500Y0117661D02*
X0019700Y0117661D01*
X0057039Y0139628D02*
X0058008Y0139628D01*
X0058008Y0140627D02*
X0057039Y0140627D01*
X0057039Y0141625D02*
X0058008Y0141625D01*
X0058008Y0142624D02*
X0057039Y0142624D01*
X0057039Y0143622D02*
X0058008Y0143622D01*
X0058008Y0145619D02*
X0057039Y0145619D01*
X0057039Y0146618D02*
X0058008Y0146618D01*
X0058008Y0147616D02*
X0057039Y0147616D01*
X0057039Y0148615D02*
X0058008Y0148615D01*
X0058008Y0149613D02*
X0057039Y0149613D01*
X0063183Y0143622D02*
X0065581Y0143622D01*
X0065995Y0142624D02*
X0062841Y0142624D01*
X0062267Y0141625D02*
X0066439Y0141625D01*
X0067438Y0140627D02*
X0061389Y0140627D01*
X0059828Y0139628D02*
X0069028Y0139628D01*
X0073578Y0139628D02*
X0080789Y0139628D01*
X0079790Y0140627D02*
X0075169Y0140627D01*
X0150640Y0141625D02*
X0151486Y0141625D01*
X0151335Y0140627D02*
X0150791Y0140627D01*
X0150791Y0139628D02*
X0151335Y0139628D01*
X0196500Y0139628D02*
X0197500Y0139628D01*
X0197500Y0138629D02*
X0196500Y0138629D01*
X0196500Y0137631D02*
X0197500Y0137631D01*
X0197500Y0136632D02*
X0196500Y0136632D01*
X0196500Y0135634D02*
X0197500Y0135634D01*
X0279000Y0086707D02*
X0282917Y0086707D01*
X0284486Y0085708D02*
X0279000Y0085708D01*
X0279000Y0084710D02*
X0286055Y0084710D01*
X0299331Y0083261D02*
X0302470Y0083261D01*
X0303000Y0083790D01*
X0304000Y0083790D01*
X0271000Y0079790D02*
X0270000Y0078790D01*
X0269000Y0077790D01*
X0269000Y0076530D01*
X0270000Y0078790D02*
X0262000Y0078790D01*
X0262000Y0078530D01*
X0262506Y0082589D02*
X0262522Y0082605D01*
X0262829Y0083346D01*
X0262945Y0083462D01*
X0262945Y0083626D01*
X0262975Y0083698D01*
X0262975Y0084882D01*
X0262949Y0084944D01*
X0265420Y0084944D01*
X0265540Y0084735D01*
X0265819Y0084456D01*
X0266028Y0084336D01*
X0266028Y0082704D01*
X0268216Y0082704D01*
X0268216Y0082704D01*
X0266028Y0082704D01*
X0266028Y0082136D01*
X0265574Y0082589D01*
X0262506Y0082589D01*
X0262567Y0082713D02*
X0266028Y0082713D01*
X0266028Y0083711D02*
X0262975Y0083711D01*
X0262975Y0084710D02*
X0265565Y0084710D01*
X0260945Y0084290D02*
X0260000Y0084290D01*
X0274802Y0039777D02*
X0279321Y0039777D01*
X0278238Y0038778D02*
X0275800Y0038778D01*
X0276371Y0037780D02*
X0277627Y0037780D01*
X0277297Y0036781D02*
X0276785Y0036781D01*
X0276800Y0035783D02*
X0281516Y0035783D01*
X0282484Y0035783D02*
X0287200Y0035783D01*
X0286783Y0036275D02*
X0282484Y0036275D01*
X0282484Y0040573D01*
X0283124Y0040472D01*
X0283843Y0040239D01*
X0284516Y0039896D01*
X0285127Y0039451D01*
X0285661Y0038917D01*
X0286105Y0038306D01*
X0286448Y0037633D01*
X0286682Y0036914D01*
X0286783Y0036275D01*
X0286703Y0036781D02*
X0287215Y0036781D01*
X0287629Y0037780D02*
X0286373Y0037780D01*
X0285762Y0038778D02*
X0288200Y0038778D01*
X0289198Y0039777D02*
X0284679Y0039777D01*
X0282484Y0039777D02*
X0281516Y0039777D01*
X0281516Y0038778D02*
X0282484Y0038778D01*
X0282484Y0037780D02*
X0281516Y0037780D01*
X0281516Y0036781D02*
X0282484Y0036781D01*
X0286700Y0034784D02*
X0287221Y0034784D01*
X0287635Y0033786D02*
X0286366Y0033786D01*
X0277634Y0033786D02*
X0276365Y0033786D01*
X0276779Y0034784D02*
X0277299Y0034784D01*
X0068500Y0080716D02*
X0059602Y0080716D01*
X0059602Y0081714D02*
X0068500Y0081714D01*
X0068500Y0082713D02*
X0059602Y0082713D01*
X0059058Y0083711D02*
X0068500Y0083711D01*
X0068500Y0084710D02*
X0067384Y0084710D01*
X0065616Y0084710D02*
X0063248Y0084710D01*
D43*
X0085185Y0087790D02*
X0085185Y0080601D01*
X0085185Y0087790D02*
X0111500Y0087790D01*
X0115500Y0087790D02*
X0115500Y0074790D01*
X0112500Y0071790D01*
X0086000Y0106790D02*
X0083000Y0106790D01*
X0188000Y0106790D02*
X0191000Y0106790D01*
X0190185Y0087790D02*
X0216500Y0087790D01*
X0222400Y0087890D02*
X0220500Y0079790D01*
X0212500Y0071790D01*
X0190185Y0080601D02*
X0190185Y0087790D01*
D44*
X0195500Y0083790D03*
X0205000Y0091290D03*
X0205000Y0096290D03*
X0188000Y0103790D03*
X0185000Y0106790D03*
X0188000Y0109790D03*
X0191000Y0106790D03*
X0199500Y0114290D03*
X0204500Y0108790D03*
X0171500Y0110290D03*
X0148000Y0113890D03*
X0163500Y0089790D03*
X0171500Y0087790D03*
X0167500Y0079790D03*
X0170500Y0071290D03*
X0181500Y0050790D03*
X0216000Y0080790D03*
X0111000Y0080790D03*
X0100000Y0091290D03*
X0100000Y0096290D03*
X0100500Y0101290D03*
X0099500Y0108790D03*
X0094500Y0114290D03*
X0083000Y0109790D03*
X0080000Y0106790D03*
X0083000Y0103790D03*
X0086000Y0106790D03*
X0066500Y0110290D03*
X0071400Y0119490D03*
X0050500Y0121790D03*
X0049500Y0134790D03*
X0058500Y0089790D03*
X0066500Y0087790D03*
X0062500Y0079790D03*
X0090500Y0083790D03*
X0111500Y0050790D03*
X0161500Y0138490D03*
D45*
X0166937Y0123790D02*
X0166937Y0105786D01*
X0168000Y0105790D02*
X0174000Y0105790D01*
X0177000Y0105790D01*
X0188000Y0118790D02*
X0206500Y0118790D01*
X0206500Y0114790D01*
X0234600Y0111515D02*
X0234621Y0111515D01*
X0238650Y0115543D01*
X0238874Y0117495D01*
X0238340Y0102066D02*
X0243055Y0102066D01*
X0244331Y0100790D01*
X0222400Y0087890D02*
X0216500Y0087790D01*
X0229700Y0085053D02*
X0229600Y0083653D01*
X0246417Y0050807D02*
X0246500Y0050790D01*
X0160437Y0064357D02*
X0160437Y0079790D01*
X0160937Y0079790D01*
X0153063Y0079790D02*
X0152563Y0079790D01*
X0152563Y0064357D01*
X0120500Y0087790D02*
X0115500Y0087790D01*
X0111500Y0087790D01*
X0120500Y0087790D02*
X0120500Y0109007D01*
X0107283Y0109007D01*
X0101500Y0114790D01*
X0101500Y0118790D01*
X0086500Y0118790D01*
X0086500Y0123007D01*
X0087500Y0124007D01*
X0086500Y0118790D02*
X0083000Y0118790D01*
X0061937Y0123790D02*
X0061937Y0105786D01*
X0060500Y0104349D01*
X0061559Y0104349D01*
X0063000Y0105790D01*
X0069000Y0105790D01*
X0072000Y0105790D01*
X0061937Y0123790D02*
X0061937Y0123853D01*
X0058756Y0127034D01*
X0055000Y0127034D01*
X0055437Y0079790D02*
X0055937Y0079790D01*
X0055437Y0079790D02*
X0055437Y0064357D01*
X0047563Y0064357D02*
X0047563Y0079790D01*
X0048063Y0079790D01*
X0166937Y0123790D02*
X0171524Y0123848D01*
X0171937Y0123853D01*
D46*
X0171524Y0123848D02*
X0177233Y0124014D01*
X0177232Y0124014D02*
X0177200Y0124022D01*
X0177170Y0124033D01*
X0177141Y0124047D01*
X0177113Y0124065D01*
X0177088Y0124086D01*
X0177066Y0124110D01*
X0177046Y0124136D01*
X0177030Y0124164D01*
X0177017Y0124194D01*
X0177008Y0124225D01*
X0177002Y0124257D01*
X0177000Y0124290D01*
X0167500Y0079790D02*
X0160937Y0079790D01*
X0081500Y0123790D02*
X0061937Y0123790D01*
X0062500Y0079790D02*
X0055937Y0079790D01*
X0302000Y0078290D02*
X0302500Y0078790D01*
D47*
X0251870Y0082046D02*
X0247756Y0082046D01*
X0246500Y0080790D01*
X0246500Y0085415D01*
X0244331Y0087584D01*
X0244331Y0100790D01*
X0244331Y0104512D01*
X0248109Y0108290D01*
X0249500Y0108290D01*
X0222400Y0109107D02*
X0222400Y0087890D01*
X0229700Y0085053D02*
X0229700Y0078990D01*
X0228800Y0075790D01*
X0228800Y0065374D01*
X0246500Y0065790D02*
X0247366Y0066656D01*
X0247366Y0068290D01*
X0247366Y0069924D01*
X0246500Y0070790D01*
X0246500Y0065790D01*
X0246500Y0050790D01*
X0246500Y0040290D01*
X0242000Y0035790D01*
X0246417Y0050807D02*
X0228800Y0050807D01*
X0218517Y0050790D01*
X0203783Y0050790D01*
X0189217Y0050790D02*
X0181500Y0050790D01*
X0152563Y0064357D02*
X0151130Y0065790D01*
X0147500Y0065790D01*
X0111500Y0050790D02*
X0111500Y0045927D01*
X0112100Y0044127D01*
X0047563Y0064357D02*
X0046130Y0065790D01*
X0042500Y0065790D01*
X0138997Y0124004D02*
X0139044Y0130051D01*
X0139044Y0130790D01*
X0139044Y0138664D02*
X0146755Y0138664D01*
X0146929Y0138490D01*
X0206500Y0114790D02*
X0212283Y0109007D01*
X0211500Y0109007D01*
X0212283Y0109007D02*
X0222400Y0109107D01*
X0246500Y0080790D02*
X0246500Y0070790D01*
D48*
X0168000Y0105790D02*
X0166559Y0104349D01*
X0165500Y0104349D01*
X0166937Y0105786D01*
D49*
X0166937Y0123790D02*
X0167164Y0124017D01*
X0169021Y0124017D01*
X0173027Y0124022D01*
X0173112Y0124014D02*
X0177233Y0124014D01*
X0186276Y0124014D01*
X0186500Y0123790D01*
X0177000Y0124290D02*
X0177000Y0141790D01*
X0173112Y0124014D02*
X0166502Y0124014D01*
X0169021Y0124017D01*
X0166502Y0124014D02*
X0157945Y0124004D01*
X0138997Y0124004D01*
X0128000Y0124007D01*
X0101500Y0124007D01*
X0101500Y0139290D01*
X0102000Y0141790D01*
X0087500Y0138574D02*
X0081110Y0144963D01*
X0071303Y0144963D01*
X0087500Y0124007D02*
X0101500Y0124007D01*
X0173028Y0124022D02*
X0173056Y0124021D01*
X0173084Y0124019D01*
X0173112Y0124014D01*
D50*
X0147500Y0065790D03*
X0042500Y0065790D03*
D51*
X0239900Y0073890D03*
X0260000Y0084290D03*
X0294000Y0126290D03*
D52*
X0175000Y0118090D03*
D53*
X0228800Y0075790D03*
M02*
