G75*
%MOIN*%
%OFA0B0*%
%FSLAX25Y25*%
%IPPOS*%
%LPD*%
%AMOC8*
5,1,8,0,0,1.08239X$1,22.5*
%
%ADD10C,0.00600*%
%ADD11C,0.00400*%
%ADD12C,0.00300*%
%ADD13C,0.00500*%
%ADD14C,0.00984*%
%ADD15R,0.02559X0.05512*%
%ADD16R,0.00750X0.03500*%
%ADD17R,0.03500X0.00750*%
%ADD18R,0.05512X0.02559*%
%ADD19C,0.00700*%
%ADD20R,0.02400X0.03400*%
%ADD21R,0.02500X0.10000*%
%ADD22C,0.00800*%
%ADD23R,0.03937X0.00787*%
%ADD24C,0.01600*%
%ADD25C,0.01200*%
%ADD26R,0.00787X0.03937*%
D10*
X0077000Y0062290D02*
X0075500Y0064290D01*
X0078500Y0064290D01*
X0077000Y0062290D01*
X0076834Y0062511D02*
X0077166Y0062511D01*
X0077615Y0063110D02*
X0076385Y0063110D01*
X0075936Y0063708D02*
X0078064Y0063708D01*
X0104500Y0064290D02*
X0106000Y0062290D01*
X0107500Y0064290D01*
X0104500Y0064290D01*
X0104936Y0063708D02*
X0107064Y0063708D01*
X0106615Y0063110D02*
X0105385Y0063110D01*
X0105834Y0062511D02*
X0106166Y0062511D01*
X0126000Y0084290D02*
X0133000Y0084290D01*
X0133060Y0084292D01*
X0133121Y0084297D01*
X0133180Y0084306D01*
X0133239Y0084319D01*
X0133298Y0084335D01*
X0133355Y0084355D01*
X0133410Y0084378D01*
X0133465Y0084405D01*
X0133517Y0084434D01*
X0133568Y0084467D01*
X0133617Y0084503D01*
X0133663Y0084541D01*
X0133707Y0084583D01*
X0133749Y0084627D01*
X0133787Y0084673D01*
X0133823Y0084722D01*
X0133856Y0084773D01*
X0133885Y0084825D01*
X0133912Y0084880D01*
X0133935Y0084935D01*
X0133955Y0084992D01*
X0133971Y0085051D01*
X0133984Y0085110D01*
X0133993Y0085169D01*
X0133998Y0085230D01*
X0134000Y0085290D01*
X0134000Y0086790D01*
X0133500Y0087290D01*
X0133500Y0106290D01*
X0134000Y0106790D01*
X0134000Y0108290D01*
X0133998Y0108350D01*
X0133993Y0108411D01*
X0133984Y0108470D01*
X0133971Y0108529D01*
X0133955Y0108588D01*
X0133935Y0108645D01*
X0133912Y0108700D01*
X0133885Y0108755D01*
X0133856Y0108807D01*
X0133823Y0108858D01*
X0133787Y0108907D01*
X0133749Y0108953D01*
X0133707Y0108997D01*
X0133663Y0109039D01*
X0133617Y0109077D01*
X0133568Y0109113D01*
X0133517Y0109146D01*
X0133465Y0109175D01*
X0133410Y0109202D01*
X0133355Y0109225D01*
X0133298Y0109245D01*
X0133239Y0109261D01*
X0133180Y0109274D01*
X0133121Y0109283D01*
X0133060Y0109288D01*
X0133000Y0109290D01*
X0126000Y0109290D01*
X0125940Y0109288D01*
X0125879Y0109283D01*
X0125820Y0109274D01*
X0125761Y0109261D01*
X0125702Y0109245D01*
X0125645Y0109225D01*
X0125590Y0109202D01*
X0125535Y0109175D01*
X0125483Y0109146D01*
X0125432Y0109113D01*
X0125383Y0109077D01*
X0125337Y0109039D01*
X0125293Y0108997D01*
X0125251Y0108953D01*
X0125213Y0108907D01*
X0125177Y0108858D01*
X0125144Y0108807D01*
X0125115Y0108755D01*
X0125088Y0108700D01*
X0125065Y0108645D01*
X0125045Y0108588D01*
X0125029Y0108529D01*
X0125016Y0108470D01*
X0125007Y0108411D01*
X0125002Y0108350D01*
X0125000Y0108290D01*
X0125000Y0106790D01*
X0125500Y0106290D01*
X0125500Y0087290D01*
X0125000Y0086790D01*
X0125000Y0085290D01*
X0125002Y0085230D01*
X0125007Y0085169D01*
X0125016Y0085110D01*
X0125029Y0085051D01*
X0125045Y0084992D01*
X0125065Y0084935D01*
X0125088Y0084880D01*
X0125115Y0084825D01*
X0125144Y0084773D01*
X0125177Y0084722D01*
X0125213Y0084673D01*
X0125251Y0084627D01*
X0125293Y0084583D01*
X0125337Y0084541D01*
X0125383Y0084503D01*
X0125432Y0084467D01*
X0125483Y0084434D01*
X0125535Y0084405D01*
X0125590Y0084378D01*
X0125645Y0084355D01*
X0125702Y0084335D01*
X0125761Y0084319D01*
X0125820Y0084306D01*
X0125879Y0084297D01*
X0125940Y0084292D01*
X0126000Y0084290D01*
X0138400Y0085290D02*
X0138400Y0086790D01*
X0138900Y0087290D01*
X0138900Y0106290D01*
X0138400Y0106790D01*
X0138400Y0108290D01*
X0138402Y0108350D01*
X0138407Y0108411D01*
X0138416Y0108470D01*
X0138429Y0108529D01*
X0138445Y0108588D01*
X0138465Y0108645D01*
X0138488Y0108700D01*
X0138515Y0108755D01*
X0138544Y0108807D01*
X0138577Y0108858D01*
X0138613Y0108907D01*
X0138651Y0108953D01*
X0138693Y0108997D01*
X0138737Y0109039D01*
X0138783Y0109077D01*
X0138832Y0109113D01*
X0138883Y0109146D01*
X0138935Y0109175D01*
X0138990Y0109202D01*
X0139045Y0109225D01*
X0139102Y0109245D01*
X0139161Y0109261D01*
X0139220Y0109274D01*
X0139279Y0109283D01*
X0139340Y0109288D01*
X0139400Y0109290D01*
X0146400Y0109290D01*
X0146460Y0109288D01*
X0146521Y0109283D01*
X0146580Y0109274D01*
X0146639Y0109261D01*
X0146698Y0109245D01*
X0146755Y0109225D01*
X0146810Y0109202D01*
X0146865Y0109175D01*
X0146917Y0109146D01*
X0146968Y0109113D01*
X0147017Y0109077D01*
X0147063Y0109039D01*
X0147107Y0108997D01*
X0147149Y0108953D01*
X0147187Y0108907D01*
X0147223Y0108858D01*
X0147256Y0108807D01*
X0147285Y0108755D01*
X0147312Y0108700D01*
X0147335Y0108645D01*
X0147355Y0108588D01*
X0147371Y0108529D01*
X0147384Y0108470D01*
X0147393Y0108411D01*
X0147398Y0108350D01*
X0147400Y0108290D01*
X0147400Y0106790D01*
X0146900Y0106290D01*
X0146900Y0087290D01*
X0147400Y0086790D01*
X0147400Y0085290D01*
X0147398Y0085230D01*
X0147393Y0085169D01*
X0147384Y0085110D01*
X0147371Y0085051D01*
X0147355Y0084992D01*
X0147335Y0084935D01*
X0147312Y0084880D01*
X0147285Y0084825D01*
X0147256Y0084773D01*
X0147223Y0084722D01*
X0147187Y0084673D01*
X0147149Y0084627D01*
X0147107Y0084583D01*
X0147063Y0084541D01*
X0147017Y0084503D01*
X0146968Y0084467D01*
X0146917Y0084434D01*
X0146865Y0084405D01*
X0146810Y0084378D01*
X0146755Y0084355D01*
X0146698Y0084335D01*
X0146639Y0084319D01*
X0146580Y0084306D01*
X0146521Y0084297D01*
X0146460Y0084292D01*
X0146400Y0084290D01*
X0139400Y0084290D01*
X0139340Y0084292D01*
X0139279Y0084297D01*
X0139220Y0084306D01*
X0139161Y0084319D01*
X0139102Y0084335D01*
X0139045Y0084355D01*
X0138990Y0084378D01*
X0138935Y0084405D01*
X0138883Y0084434D01*
X0138832Y0084467D01*
X0138783Y0084503D01*
X0138737Y0084541D01*
X0138693Y0084583D01*
X0138651Y0084627D01*
X0138613Y0084673D01*
X0138577Y0084722D01*
X0138544Y0084773D01*
X0138515Y0084825D01*
X0138488Y0084880D01*
X0138465Y0084935D01*
X0138445Y0084992D01*
X0138429Y0085051D01*
X0138416Y0085110D01*
X0138407Y0085169D01*
X0138402Y0085230D01*
X0138400Y0085290D01*
X0180500Y0064290D02*
X0182000Y0062290D01*
X0183500Y0064290D01*
X0180500Y0064290D01*
X0180936Y0063708D02*
X0183064Y0063708D01*
X0182615Y0063110D02*
X0181385Y0063110D01*
X0181834Y0062511D02*
X0182166Y0062511D01*
X0209500Y0064290D02*
X0211000Y0062290D01*
X0212500Y0064290D01*
X0209500Y0064290D01*
X0209936Y0063708D02*
X0212064Y0063708D01*
X0211615Y0063110D02*
X0210385Y0063110D01*
X0210834Y0062511D02*
X0211166Y0062511D01*
X0296268Y0062511D02*
X0297728Y0062511D01*
X0298010Y0063110D02*
X0296268Y0063110D01*
X0296268Y0063708D02*
X0297212Y0063708D01*
X0296414Y0064307D02*
X0296268Y0064307D01*
X0296268Y0064416D02*
X0296268Y0061416D01*
X0298268Y0062916D01*
X0296268Y0064416D01*
X0296268Y0061913D02*
X0296930Y0061913D01*
X0186000Y0136790D02*
X0186000Y0146790D01*
X0183500Y0146790D01*
X0183500Y0141790D01*
X0183500Y0136790D01*
X0186000Y0136790D01*
X0159500Y0141790D02*
X0159508Y0142465D01*
X0159533Y0143139D01*
X0159575Y0143813D01*
X0159632Y0144485D01*
X0159707Y0145156D01*
X0159798Y0145825D01*
X0159905Y0146491D01*
X0160028Y0147155D01*
X0160168Y0147815D01*
X0160324Y0148472D01*
X0160496Y0149125D01*
X0160684Y0149773D01*
X0160888Y0150416D01*
X0161108Y0151054D01*
X0161343Y0151687D01*
X0161593Y0152314D01*
X0161859Y0152934D01*
X0162140Y0153548D01*
X0162436Y0154154D01*
X0162747Y0154753D01*
X0163073Y0155345D01*
X0163412Y0155928D01*
X0163767Y0156502D01*
X0164135Y0157068D01*
X0164516Y0157625D01*
X0164912Y0158172D01*
X0165320Y0158709D01*
X0165742Y0159236D01*
X0166177Y0159752D01*
X0166624Y0160258D01*
X0167083Y0160752D01*
X0167555Y0161235D01*
X0168038Y0161707D01*
X0168532Y0162166D01*
X0169038Y0162613D01*
X0169554Y0163048D01*
X0170081Y0163470D01*
X0170618Y0163878D01*
X0171165Y0164274D01*
X0171722Y0164655D01*
X0172288Y0165023D01*
X0172862Y0165378D01*
X0173445Y0165717D01*
X0174037Y0166043D01*
X0174636Y0166354D01*
X0175242Y0166650D01*
X0175856Y0166931D01*
X0176476Y0167197D01*
X0177103Y0167447D01*
X0177736Y0167682D01*
X0178374Y0167902D01*
X0179017Y0168106D01*
X0179665Y0168294D01*
X0180318Y0168466D01*
X0180975Y0168622D01*
X0181635Y0168762D01*
X0182299Y0168885D01*
X0182965Y0168992D01*
X0183634Y0169083D01*
X0184305Y0169158D01*
X0184977Y0169215D01*
X0185651Y0169257D01*
X0186325Y0169282D01*
X0187000Y0169290D01*
X0187675Y0169282D01*
X0188349Y0169257D01*
X0189023Y0169215D01*
X0189695Y0169158D01*
X0190366Y0169083D01*
X0191035Y0168992D01*
X0191701Y0168885D01*
X0192365Y0168762D01*
X0193025Y0168622D01*
X0193682Y0168466D01*
X0194335Y0168294D01*
X0194983Y0168106D01*
X0195626Y0167902D01*
X0196264Y0167682D01*
X0196897Y0167447D01*
X0197524Y0167197D01*
X0198144Y0166931D01*
X0198758Y0166650D01*
X0199364Y0166354D01*
X0199963Y0166043D01*
X0200555Y0165717D01*
X0201138Y0165378D01*
X0201712Y0165023D01*
X0202278Y0164655D01*
X0202835Y0164274D01*
X0203382Y0163878D01*
X0203919Y0163470D01*
X0204446Y0163048D01*
X0204962Y0162613D01*
X0205468Y0162166D01*
X0205962Y0161707D01*
X0206445Y0161235D01*
X0206917Y0160752D01*
X0207376Y0160258D01*
X0207823Y0159752D01*
X0208258Y0159236D01*
X0208680Y0158709D01*
X0209088Y0158172D01*
X0209484Y0157625D01*
X0209865Y0157068D01*
X0210233Y0156502D01*
X0210588Y0155928D01*
X0210927Y0155345D01*
X0211253Y0154753D01*
X0211564Y0154154D01*
X0211860Y0153548D01*
X0212141Y0152934D01*
X0212407Y0152314D01*
X0212657Y0151687D01*
X0212892Y0151054D01*
X0213112Y0150416D01*
X0213316Y0149773D01*
X0213504Y0149125D01*
X0213676Y0148472D01*
X0213832Y0147815D01*
X0213972Y0147155D01*
X0214095Y0146491D01*
X0214202Y0145825D01*
X0214293Y0145156D01*
X0214368Y0144485D01*
X0214425Y0143813D01*
X0214467Y0143139D01*
X0214492Y0142465D01*
X0214500Y0141790D01*
X0214492Y0141115D01*
X0214467Y0140441D01*
X0214425Y0139767D01*
X0214368Y0139095D01*
X0214293Y0138424D01*
X0214202Y0137755D01*
X0214095Y0137089D01*
X0213972Y0136425D01*
X0213832Y0135765D01*
X0213676Y0135108D01*
X0213504Y0134455D01*
X0213316Y0133807D01*
X0213112Y0133164D01*
X0212892Y0132526D01*
X0212657Y0131893D01*
X0212407Y0131266D01*
X0212141Y0130646D01*
X0211860Y0130032D01*
X0211564Y0129426D01*
X0211253Y0128827D01*
X0210927Y0128235D01*
X0210588Y0127652D01*
X0210233Y0127078D01*
X0209865Y0126512D01*
X0209484Y0125955D01*
X0209088Y0125408D01*
X0208680Y0124871D01*
X0208258Y0124344D01*
X0207823Y0123828D01*
X0207376Y0123322D01*
X0206917Y0122828D01*
X0206445Y0122345D01*
X0205962Y0121873D01*
X0205468Y0121414D01*
X0204962Y0120967D01*
X0204446Y0120532D01*
X0203919Y0120110D01*
X0203382Y0119702D01*
X0202835Y0119306D01*
X0202278Y0118925D01*
X0201712Y0118557D01*
X0201138Y0118202D01*
X0200555Y0117863D01*
X0199963Y0117537D01*
X0199364Y0117226D01*
X0198758Y0116930D01*
X0198144Y0116649D01*
X0197524Y0116383D01*
X0196897Y0116133D01*
X0196264Y0115898D01*
X0195626Y0115678D01*
X0194983Y0115474D01*
X0194335Y0115286D01*
X0193682Y0115114D01*
X0193025Y0114958D01*
X0192365Y0114818D01*
X0191701Y0114695D01*
X0191035Y0114588D01*
X0190366Y0114497D01*
X0189695Y0114422D01*
X0189023Y0114365D01*
X0188349Y0114323D01*
X0187675Y0114298D01*
X0187000Y0114290D01*
X0186325Y0114298D01*
X0185651Y0114323D01*
X0184977Y0114365D01*
X0184305Y0114422D01*
X0183634Y0114497D01*
X0182965Y0114588D01*
X0182299Y0114695D01*
X0181635Y0114818D01*
X0180975Y0114958D01*
X0180318Y0115114D01*
X0179665Y0115286D01*
X0179017Y0115474D01*
X0178374Y0115678D01*
X0177736Y0115898D01*
X0177103Y0116133D01*
X0176476Y0116383D01*
X0175856Y0116649D01*
X0175242Y0116930D01*
X0174636Y0117226D01*
X0174037Y0117537D01*
X0173445Y0117863D01*
X0172862Y0118202D01*
X0172288Y0118557D01*
X0171722Y0118925D01*
X0171165Y0119306D01*
X0170618Y0119702D01*
X0170081Y0120110D01*
X0169554Y0120532D01*
X0169038Y0120967D01*
X0168532Y0121414D01*
X0168038Y0121873D01*
X0167555Y0122345D01*
X0167083Y0122828D01*
X0166624Y0123322D01*
X0166177Y0123828D01*
X0165742Y0124344D01*
X0165320Y0124871D01*
X0164912Y0125408D01*
X0164516Y0125955D01*
X0164135Y0126512D01*
X0163767Y0127078D01*
X0163412Y0127652D01*
X0163073Y0128235D01*
X0162747Y0128827D01*
X0162436Y0129426D01*
X0162140Y0130032D01*
X0161859Y0130646D01*
X0161593Y0131266D01*
X0161343Y0131893D01*
X0161108Y0132526D01*
X0160888Y0133164D01*
X0160684Y0133807D01*
X0160496Y0134455D01*
X0160324Y0135108D01*
X0160168Y0135765D01*
X0160028Y0136425D01*
X0159905Y0137089D01*
X0159798Y0137755D01*
X0159707Y0138424D01*
X0159632Y0139095D01*
X0159575Y0139767D01*
X0159533Y0140441D01*
X0159508Y0141115D01*
X0159500Y0141790D01*
X0164500Y0141790D02*
X0169500Y0141790D01*
X0167000Y0139290D02*
X0167000Y0144290D01*
X0182500Y0141790D02*
X0183500Y0141790D01*
X0189500Y0141790D02*
X0191500Y0141790D01*
X0152063Y0138490D02*
X0150063Y0136990D01*
X0150063Y0139990D01*
X0152063Y0138490D01*
X0152020Y0138522D02*
X0150063Y0138522D01*
X0150063Y0137924D02*
X0151308Y0137924D01*
X0150510Y0137325D02*
X0150063Y0137325D01*
X0150063Y0139121D02*
X0151222Y0139121D01*
X0150424Y0139719D02*
X0150063Y0139719D01*
X0116500Y0141790D02*
X0114500Y0141790D01*
X0084500Y0141790D02*
X0084508Y0142465D01*
X0084533Y0143139D01*
X0084575Y0143813D01*
X0084632Y0144485D01*
X0084707Y0145156D01*
X0084798Y0145825D01*
X0084905Y0146491D01*
X0085028Y0147155D01*
X0085168Y0147815D01*
X0085324Y0148472D01*
X0085496Y0149125D01*
X0085684Y0149773D01*
X0085888Y0150416D01*
X0086108Y0151054D01*
X0086343Y0151687D01*
X0086593Y0152314D01*
X0086859Y0152934D01*
X0087140Y0153548D01*
X0087436Y0154154D01*
X0087747Y0154753D01*
X0088073Y0155345D01*
X0088412Y0155928D01*
X0088767Y0156502D01*
X0089135Y0157068D01*
X0089516Y0157625D01*
X0089912Y0158172D01*
X0090320Y0158709D01*
X0090742Y0159236D01*
X0091177Y0159752D01*
X0091624Y0160258D01*
X0092083Y0160752D01*
X0092555Y0161235D01*
X0093038Y0161707D01*
X0093532Y0162166D01*
X0094038Y0162613D01*
X0094554Y0163048D01*
X0095081Y0163470D01*
X0095618Y0163878D01*
X0096165Y0164274D01*
X0096722Y0164655D01*
X0097288Y0165023D01*
X0097862Y0165378D01*
X0098445Y0165717D01*
X0099037Y0166043D01*
X0099636Y0166354D01*
X0100242Y0166650D01*
X0100856Y0166931D01*
X0101476Y0167197D01*
X0102103Y0167447D01*
X0102736Y0167682D01*
X0103374Y0167902D01*
X0104017Y0168106D01*
X0104665Y0168294D01*
X0105318Y0168466D01*
X0105975Y0168622D01*
X0106635Y0168762D01*
X0107299Y0168885D01*
X0107965Y0168992D01*
X0108634Y0169083D01*
X0109305Y0169158D01*
X0109977Y0169215D01*
X0110651Y0169257D01*
X0111325Y0169282D01*
X0112000Y0169290D01*
X0112675Y0169282D01*
X0113349Y0169257D01*
X0114023Y0169215D01*
X0114695Y0169158D01*
X0115366Y0169083D01*
X0116035Y0168992D01*
X0116701Y0168885D01*
X0117365Y0168762D01*
X0118025Y0168622D01*
X0118682Y0168466D01*
X0119335Y0168294D01*
X0119983Y0168106D01*
X0120626Y0167902D01*
X0121264Y0167682D01*
X0121897Y0167447D01*
X0122524Y0167197D01*
X0123144Y0166931D01*
X0123758Y0166650D01*
X0124364Y0166354D01*
X0124963Y0166043D01*
X0125555Y0165717D01*
X0126138Y0165378D01*
X0126712Y0165023D01*
X0127278Y0164655D01*
X0127835Y0164274D01*
X0128382Y0163878D01*
X0128919Y0163470D01*
X0129446Y0163048D01*
X0129962Y0162613D01*
X0130468Y0162166D01*
X0130962Y0161707D01*
X0131445Y0161235D01*
X0131917Y0160752D01*
X0132376Y0160258D01*
X0132823Y0159752D01*
X0133258Y0159236D01*
X0133680Y0158709D01*
X0134088Y0158172D01*
X0134484Y0157625D01*
X0134865Y0157068D01*
X0135233Y0156502D01*
X0135588Y0155928D01*
X0135927Y0155345D01*
X0136253Y0154753D01*
X0136564Y0154154D01*
X0136860Y0153548D01*
X0137141Y0152934D01*
X0137407Y0152314D01*
X0137657Y0151687D01*
X0137892Y0151054D01*
X0138112Y0150416D01*
X0138316Y0149773D01*
X0138504Y0149125D01*
X0138676Y0148472D01*
X0138832Y0147815D01*
X0138972Y0147155D01*
X0139095Y0146491D01*
X0139202Y0145825D01*
X0139293Y0145156D01*
X0139368Y0144485D01*
X0139425Y0143813D01*
X0139467Y0143139D01*
X0139492Y0142465D01*
X0139500Y0141790D01*
X0139492Y0141115D01*
X0139467Y0140441D01*
X0139425Y0139767D01*
X0139368Y0139095D01*
X0139293Y0138424D01*
X0139202Y0137755D01*
X0139095Y0137089D01*
X0138972Y0136425D01*
X0138832Y0135765D01*
X0138676Y0135108D01*
X0138504Y0134455D01*
X0138316Y0133807D01*
X0138112Y0133164D01*
X0137892Y0132526D01*
X0137657Y0131893D01*
X0137407Y0131266D01*
X0137141Y0130646D01*
X0136860Y0130032D01*
X0136564Y0129426D01*
X0136253Y0128827D01*
X0135927Y0128235D01*
X0135588Y0127652D01*
X0135233Y0127078D01*
X0134865Y0126512D01*
X0134484Y0125955D01*
X0134088Y0125408D01*
X0133680Y0124871D01*
X0133258Y0124344D01*
X0132823Y0123828D01*
X0132376Y0123322D01*
X0131917Y0122828D01*
X0131445Y0122345D01*
X0130962Y0121873D01*
X0130468Y0121414D01*
X0129962Y0120967D01*
X0129446Y0120532D01*
X0128919Y0120110D01*
X0128382Y0119702D01*
X0127835Y0119306D01*
X0127278Y0118925D01*
X0126712Y0118557D01*
X0126138Y0118202D01*
X0125555Y0117863D01*
X0124963Y0117537D01*
X0124364Y0117226D01*
X0123758Y0116930D01*
X0123144Y0116649D01*
X0122524Y0116383D01*
X0121897Y0116133D01*
X0121264Y0115898D01*
X0120626Y0115678D01*
X0119983Y0115474D01*
X0119335Y0115286D01*
X0118682Y0115114D01*
X0118025Y0114958D01*
X0117365Y0114818D01*
X0116701Y0114695D01*
X0116035Y0114588D01*
X0115366Y0114497D01*
X0114695Y0114422D01*
X0114023Y0114365D01*
X0113349Y0114323D01*
X0112675Y0114298D01*
X0112000Y0114290D01*
X0111325Y0114298D01*
X0110651Y0114323D01*
X0109977Y0114365D01*
X0109305Y0114422D01*
X0108634Y0114497D01*
X0107965Y0114588D01*
X0107299Y0114695D01*
X0106635Y0114818D01*
X0105975Y0114958D01*
X0105318Y0115114D01*
X0104665Y0115286D01*
X0104017Y0115474D01*
X0103374Y0115678D01*
X0102736Y0115898D01*
X0102103Y0116133D01*
X0101476Y0116383D01*
X0100856Y0116649D01*
X0100242Y0116930D01*
X0099636Y0117226D01*
X0099037Y0117537D01*
X0098445Y0117863D01*
X0097862Y0118202D01*
X0097288Y0118557D01*
X0096722Y0118925D01*
X0096165Y0119306D01*
X0095618Y0119702D01*
X0095081Y0120110D01*
X0094554Y0120532D01*
X0094038Y0120967D01*
X0093532Y0121414D01*
X0093038Y0121873D01*
X0092555Y0122345D01*
X0092083Y0122828D01*
X0091624Y0123322D01*
X0091177Y0123828D01*
X0090742Y0124344D01*
X0090320Y0124871D01*
X0089912Y0125408D01*
X0089516Y0125955D01*
X0089135Y0126512D01*
X0088767Y0127078D01*
X0088412Y0127652D01*
X0088073Y0128235D01*
X0087747Y0128827D01*
X0087436Y0129426D01*
X0087140Y0130032D01*
X0086859Y0130646D01*
X0086593Y0131266D01*
X0086343Y0131893D01*
X0086108Y0132526D01*
X0085888Y0133164D01*
X0085684Y0133807D01*
X0085496Y0134455D01*
X0085324Y0135108D01*
X0085168Y0135765D01*
X0085028Y0136425D01*
X0084905Y0137089D01*
X0084798Y0137755D01*
X0084707Y0138424D01*
X0084632Y0139095D01*
X0084575Y0139767D01*
X0084533Y0140441D01*
X0084508Y0141115D01*
X0084500Y0141790D01*
X0089500Y0141790D02*
X0094500Y0141790D01*
X0092000Y0139290D02*
X0092000Y0144290D01*
X0107500Y0141790D02*
X0108500Y0141790D01*
X0108500Y0146790D01*
X0111000Y0146790D01*
X0111000Y0136790D01*
X0108500Y0136790D01*
X0108500Y0141790D01*
X0077435Y0159558D02*
X0077435Y0163828D01*
X0075300Y0161693D02*
X0079570Y0161693D01*
X0054870Y0161693D02*
X0050600Y0161693D01*
X0035063Y0140034D02*
X0035063Y0137034D01*
X0037063Y0138534D01*
X0035063Y0140034D01*
X0035063Y0139719D02*
X0035483Y0139719D01*
X0035063Y0139121D02*
X0036281Y0139121D01*
X0037047Y0138522D02*
X0035063Y0138522D01*
X0035063Y0137924D02*
X0036249Y0137924D01*
X0035451Y0137325D02*
X0035063Y0137325D01*
X0034200Y0109290D02*
X0041200Y0109290D01*
X0041260Y0109288D01*
X0041321Y0109283D01*
X0041380Y0109274D01*
X0041439Y0109261D01*
X0041498Y0109245D01*
X0041555Y0109225D01*
X0041610Y0109202D01*
X0041665Y0109175D01*
X0041717Y0109146D01*
X0041768Y0109113D01*
X0041817Y0109077D01*
X0041863Y0109039D01*
X0041907Y0108997D01*
X0041949Y0108953D01*
X0041987Y0108907D01*
X0042023Y0108858D01*
X0042056Y0108807D01*
X0042085Y0108755D01*
X0042112Y0108700D01*
X0042135Y0108645D01*
X0042155Y0108588D01*
X0042171Y0108529D01*
X0042184Y0108470D01*
X0042193Y0108411D01*
X0042198Y0108350D01*
X0042200Y0108290D01*
X0042200Y0106790D01*
X0041700Y0106290D01*
X0041700Y0087290D01*
X0042200Y0086790D01*
X0042200Y0085290D01*
X0042198Y0085230D01*
X0042193Y0085169D01*
X0042184Y0085110D01*
X0042171Y0085051D01*
X0042155Y0084992D01*
X0042135Y0084935D01*
X0042112Y0084880D01*
X0042085Y0084825D01*
X0042056Y0084773D01*
X0042023Y0084722D01*
X0041987Y0084673D01*
X0041949Y0084627D01*
X0041907Y0084583D01*
X0041863Y0084541D01*
X0041817Y0084503D01*
X0041768Y0084467D01*
X0041717Y0084434D01*
X0041665Y0084405D01*
X0041610Y0084378D01*
X0041555Y0084355D01*
X0041498Y0084335D01*
X0041439Y0084319D01*
X0041380Y0084306D01*
X0041321Y0084297D01*
X0041260Y0084292D01*
X0041200Y0084290D01*
X0034200Y0084290D01*
X0034140Y0084292D01*
X0034079Y0084297D01*
X0034020Y0084306D01*
X0033961Y0084319D01*
X0033902Y0084335D01*
X0033845Y0084355D01*
X0033790Y0084378D01*
X0033735Y0084405D01*
X0033683Y0084434D01*
X0033632Y0084467D01*
X0033583Y0084503D01*
X0033537Y0084541D01*
X0033493Y0084583D01*
X0033451Y0084627D01*
X0033413Y0084673D01*
X0033377Y0084722D01*
X0033344Y0084773D01*
X0033315Y0084825D01*
X0033288Y0084880D01*
X0033265Y0084935D01*
X0033245Y0084992D01*
X0033229Y0085051D01*
X0033216Y0085110D01*
X0033207Y0085169D01*
X0033202Y0085230D01*
X0033200Y0085290D01*
X0033200Y0086790D01*
X0033700Y0087290D01*
X0033700Y0106290D01*
X0033200Y0106790D01*
X0033200Y0108290D01*
X0033202Y0108350D01*
X0033207Y0108411D01*
X0033216Y0108470D01*
X0033229Y0108529D01*
X0033245Y0108588D01*
X0033265Y0108645D01*
X0033288Y0108700D01*
X0033315Y0108755D01*
X0033344Y0108807D01*
X0033377Y0108858D01*
X0033413Y0108907D01*
X0033451Y0108953D01*
X0033493Y0108997D01*
X0033537Y0109039D01*
X0033583Y0109077D01*
X0033632Y0109113D01*
X0033683Y0109146D01*
X0033735Y0109175D01*
X0033790Y0109202D01*
X0033845Y0109225D01*
X0033902Y0109245D01*
X0033961Y0109261D01*
X0034020Y0109274D01*
X0034079Y0109283D01*
X0034140Y0109288D01*
X0034200Y0109290D01*
X0029000Y0108290D02*
X0029000Y0106790D01*
X0028500Y0106290D01*
X0028500Y0087290D01*
X0029000Y0086790D01*
X0029000Y0085290D01*
X0028998Y0085230D01*
X0028993Y0085169D01*
X0028984Y0085110D01*
X0028971Y0085051D01*
X0028955Y0084992D01*
X0028935Y0084935D01*
X0028912Y0084880D01*
X0028885Y0084825D01*
X0028856Y0084773D01*
X0028823Y0084722D01*
X0028787Y0084673D01*
X0028749Y0084627D01*
X0028707Y0084583D01*
X0028663Y0084541D01*
X0028617Y0084503D01*
X0028568Y0084467D01*
X0028517Y0084434D01*
X0028465Y0084405D01*
X0028410Y0084378D01*
X0028355Y0084355D01*
X0028298Y0084335D01*
X0028239Y0084319D01*
X0028180Y0084306D01*
X0028121Y0084297D01*
X0028060Y0084292D01*
X0028000Y0084290D01*
X0021000Y0084290D01*
X0020940Y0084292D01*
X0020879Y0084297D01*
X0020820Y0084306D01*
X0020761Y0084319D01*
X0020702Y0084335D01*
X0020645Y0084355D01*
X0020590Y0084378D01*
X0020535Y0084405D01*
X0020483Y0084434D01*
X0020432Y0084467D01*
X0020383Y0084503D01*
X0020337Y0084541D01*
X0020293Y0084583D01*
X0020251Y0084627D01*
X0020213Y0084673D01*
X0020177Y0084722D01*
X0020144Y0084773D01*
X0020115Y0084825D01*
X0020088Y0084880D01*
X0020065Y0084935D01*
X0020045Y0084992D01*
X0020029Y0085051D01*
X0020016Y0085110D01*
X0020007Y0085169D01*
X0020002Y0085230D01*
X0020000Y0085290D01*
X0020000Y0086790D01*
X0020500Y0087290D01*
X0020500Y0106290D01*
X0020000Y0106790D01*
X0020000Y0108290D01*
X0020002Y0108350D01*
X0020007Y0108411D01*
X0020016Y0108470D01*
X0020029Y0108529D01*
X0020045Y0108588D01*
X0020065Y0108645D01*
X0020088Y0108700D01*
X0020115Y0108755D01*
X0020144Y0108807D01*
X0020177Y0108858D01*
X0020213Y0108907D01*
X0020251Y0108953D01*
X0020293Y0108997D01*
X0020337Y0109039D01*
X0020383Y0109077D01*
X0020432Y0109113D01*
X0020483Y0109146D01*
X0020535Y0109175D01*
X0020590Y0109202D01*
X0020645Y0109225D01*
X0020702Y0109245D01*
X0020761Y0109261D01*
X0020820Y0109274D01*
X0020879Y0109283D01*
X0020940Y0109288D01*
X0021000Y0109290D01*
X0028000Y0109290D01*
X0028060Y0109288D01*
X0028121Y0109283D01*
X0028180Y0109274D01*
X0028239Y0109261D01*
X0028298Y0109245D01*
X0028355Y0109225D01*
X0028410Y0109202D01*
X0028465Y0109175D01*
X0028517Y0109146D01*
X0028568Y0109113D01*
X0028617Y0109077D01*
X0028663Y0109039D01*
X0028707Y0108997D01*
X0028749Y0108953D01*
X0028787Y0108907D01*
X0028823Y0108858D01*
X0028856Y0108807D01*
X0028885Y0108755D01*
X0028912Y0108700D01*
X0028935Y0108645D01*
X0028955Y0108588D01*
X0028971Y0108529D01*
X0028984Y0108470D01*
X0028993Y0108411D01*
X0028998Y0108350D01*
X0029000Y0108290D01*
D11*
X0029096Y0039592D02*
X0029096Y0036990D01*
X0034300Y0036990D01*
X0034300Y0039592D01*
X0033433Y0040460D01*
X0032565Y0040460D01*
X0031698Y0039592D01*
X0031698Y0036990D01*
X0031698Y0039592D02*
X0030830Y0040460D01*
X0029963Y0040460D01*
X0029096Y0039592D01*
X0030830Y0042147D02*
X0029096Y0043881D01*
X0030830Y0045616D01*
X0034300Y0045616D01*
X0031698Y0045616D02*
X0031698Y0042147D01*
X0030830Y0042147D02*
X0034300Y0042147D01*
X0029096Y0047303D02*
X0029096Y0050773D01*
X0029096Y0052459D02*
X0029096Y0055929D01*
X0029096Y0054194D02*
X0034300Y0054194D01*
X0034300Y0049038D02*
X0029096Y0049038D01*
X0068200Y0072258D02*
X0068967Y0071490D01*
X0070502Y0071490D01*
X0071269Y0072258D01*
X0072804Y0071490D02*
X0072804Y0076094D01*
X0071269Y0075327D02*
X0070502Y0076094D01*
X0068967Y0076094D01*
X0068200Y0075327D01*
X0068200Y0072258D01*
X0072804Y0073792D02*
X0075873Y0073792D01*
X0077408Y0073025D02*
X0079710Y0073025D01*
X0080477Y0073792D01*
X0080477Y0075327D01*
X0079710Y0076094D01*
X0077408Y0076094D01*
X0077408Y0071490D01*
X0075873Y0071490D02*
X0075873Y0076094D01*
X0078942Y0073025D02*
X0080477Y0071490D01*
X0082012Y0072258D02*
X0082779Y0071490D01*
X0084314Y0071490D01*
X0085081Y0072258D01*
X0085081Y0073792D01*
X0083546Y0073792D01*
X0082012Y0072258D02*
X0082012Y0075327D01*
X0082779Y0076094D01*
X0084314Y0076094D01*
X0085081Y0075327D01*
X0097200Y0076094D02*
X0097200Y0071490D01*
X0099502Y0071490D01*
X0100269Y0072258D01*
X0100269Y0075327D01*
X0099502Y0076094D01*
X0097200Y0076094D01*
X0101804Y0075327D02*
X0101804Y0072258D01*
X0102571Y0071490D01*
X0104106Y0071490D01*
X0104873Y0072258D01*
X0104873Y0075327D01*
X0104106Y0076094D01*
X0102571Y0076094D01*
X0101804Y0075327D01*
X0106408Y0076094D02*
X0109477Y0071490D01*
X0109477Y0076094D01*
X0111012Y0076094D02*
X0111012Y0071490D01*
X0114081Y0071490D01*
X0112546Y0073792D02*
X0111012Y0073792D01*
X0111012Y0076094D02*
X0114081Y0076094D01*
X0106408Y0076094D02*
X0106408Y0071490D01*
X0134096Y0055929D02*
X0134096Y0052459D01*
X0134096Y0050773D02*
X0134096Y0047303D01*
X0134096Y0049038D02*
X0139300Y0049038D01*
X0139300Y0045616D02*
X0135830Y0045616D01*
X0134096Y0043881D01*
X0135830Y0042147D01*
X0139300Y0042147D01*
X0138433Y0040460D02*
X0139300Y0039592D01*
X0139300Y0036990D01*
X0134096Y0036990D01*
X0134096Y0039592D01*
X0134963Y0040460D01*
X0135830Y0040460D01*
X0136698Y0039592D01*
X0136698Y0036990D01*
X0136698Y0039592D02*
X0137565Y0040460D01*
X0138433Y0040460D01*
X0136698Y0042147D02*
X0136698Y0045616D01*
X0139300Y0054194D02*
X0134096Y0054194D01*
X0173200Y0072258D02*
X0173967Y0071490D01*
X0175502Y0071490D01*
X0176269Y0072258D01*
X0177804Y0071490D02*
X0177804Y0076094D01*
X0176269Y0075327D02*
X0175502Y0076094D01*
X0173967Y0076094D01*
X0173200Y0075327D01*
X0173200Y0072258D01*
X0177804Y0073792D02*
X0180873Y0073792D01*
X0182408Y0073025D02*
X0184710Y0073025D01*
X0185477Y0073792D01*
X0185477Y0075327D01*
X0184710Y0076094D01*
X0182408Y0076094D01*
X0182408Y0071490D01*
X0180873Y0071490D02*
X0180873Y0076094D01*
X0183942Y0073025D02*
X0185477Y0071490D01*
X0187012Y0072258D02*
X0187779Y0071490D01*
X0189314Y0071490D01*
X0190081Y0072258D01*
X0190081Y0073792D01*
X0188546Y0073792D01*
X0187012Y0072258D02*
X0187012Y0075327D01*
X0187779Y0076094D01*
X0189314Y0076094D01*
X0190081Y0075327D01*
X0202200Y0076094D02*
X0202200Y0071490D01*
X0204502Y0071490D01*
X0205269Y0072258D01*
X0205269Y0075327D01*
X0204502Y0076094D01*
X0202200Y0076094D01*
X0206804Y0075327D02*
X0206804Y0072258D01*
X0207571Y0071490D01*
X0209106Y0071490D01*
X0209873Y0072258D01*
X0209873Y0075327D01*
X0209106Y0076094D01*
X0207571Y0076094D01*
X0206804Y0075327D01*
X0211408Y0076094D02*
X0214477Y0071490D01*
X0214477Y0076094D01*
X0216012Y0076094D02*
X0216012Y0071490D01*
X0219081Y0071490D01*
X0217546Y0073792D02*
X0216012Y0073792D01*
X0216012Y0076094D02*
X0219081Y0076094D01*
X0211408Y0076094D02*
X0211408Y0071490D01*
X0048300Y0143758D02*
X0047533Y0142990D01*
X0045998Y0142990D01*
X0045998Y0145292D01*
X0046765Y0146060D01*
X0047533Y0146060D01*
X0048300Y0145292D01*
X0048300Y0143758D01*
X0045998Y0142990D02*
X0044463Y0144525D01*
X0043696Y0146060D01*
X0045231Y0147594D02*
X0048300Y0149129D01*
X0045231Y0150663D01*
X0043696Y0152198D02*
X0045231Y0153733D01*
X0043696Y0155267D01*
X0048300Y0155267D01*
X0048300Y0156802D02*
X0045231Y0156802D01*
X0043696Y0158337D01*
X0045231Y0159871D01*
X0048300Y0159871D01*
X0048300Y0161406D02*
X0043696Y0164475D01*
X0043696Y0161406D02*
X0048300Y0164475D01*
X0045998Y0159871D02*
X0045998Y0156802D01*
X0048300Y0152198D02*
X0043696Y0152198D01*
X0057400Y0160590D02*
X0059702Y0160590D01*
X0060469Y0161358D01*
X0060469Y0164427D01*
X0059702Y0165194D01*
X0057400Y0165194D01*
X0057400Y0160590D01*
X0062004Y0161358D02*
X0062771Y0160590D01*
X0064306Y0160590D01*
X0065073Y0161358D01*
X0066608Y0160590D02*
X0068142Y0160590D01*
X0067375Y0160590D02*
X0067375Y0165194D01*
X0066608Y0165194D02*
X0068142Y0165194D01*
X0069677Y0165194D02*
X0072746Y0160590D01*
X0072746Y0165194D01*
X0069677Y0165194D02*
X0069677Y0160590D01*
X0065073Y0164427D02*
X0064306Y0165194D01*
X0062771Y0165194D01*
X0062004Y0164427D01*
X0062004Y0161358D01*
X0018633Y0105971D02*
X0017098Y0105971D01*
X0017098Y0104437D01*
X0015563Y0105971D02*
X0014796Y0105204D01*
X0014796Y0103669D01*
X0015563Y0102902D01*
X0018633Y0102902D01*
X0019400Y0103669D01*
X0019400Y0105204D01*
X0018633Y0105971D01*
X0018633Y0101367D02*
X0015563Y0101367D01*
X0014796Y0100600D01*
X0014796Y0099065D01*
X0015563Y0098298D01*
X0018633Y0098298D01*
X0019400Y0099065D01*
X0019400Y0100600D01*
X0018633Y0101367D01*
X0019400Y0096763D02*
X0017865Y0095229D01*
X0017865Y0095996D02*
X0017098Y0096763D01*
X0015563Y0096763D01*
X0014796Y0095996D01*
X0014796Y0093694D01*
X0019400Y0093694D01*
X0017865Y0093694D02*
X0017865Y0095996D01*
X0017098Y0092160D02*
X0017865Y0091392D01*
X0017865Y0089090D01*
X0019400Y0089090D02*
X0014796Y0089090D01*
X0014796Y0091392D01*
X0015563Y0092160D01*
X0017098Y0092160D01*
D12*
X0079747Y0129540D02*
X0079747Y0131392D01*
X0080364Y0132009D01*
X0082833Y0132009D01*
X0083450Y0131392D01*
X0083450Y0129540D01*
X0079747Y0129540D01*
X0080981Y0133223D02*
X0079747Y0134458D01*
X0083450Y0134458D01*
X0083450Y0135692D02*
X0083450Y0133223D01*
D13*
X0088906Y0114664D02*
X0090874Y0114664D01*
X0090874Y0112696D01*
X0077094Y0114664D02*
X0075126Y0114664D01*
X0075126Y0112696D01*
X0075126Y0100885D02*
X0075126Y0098916D01*
X0077094Y0098916D01*
X0088906Y0098916D02*
X0090874Y0098916D01*
X0090874Y0100885D01*
X0067248Y0067507D02*
X0063902Y0067507D01*
X0063902Y0057664D01*
X0058390Y0057664D01*
X0067248Y0051759D02*
X0067248Y0067507D01*
X0044610Y0057664D02*
X0039098Y0057664D01*
X0039098Y0067507D01*
X0035752Y0067507D01*
X0035752Y0051759D01*
X0042642Y0037979D02*
X0060358Y0037979D01*
X0140752Y0051759D02*
X0140752Y0067507D01*
X0144098Y0067507D01*
X0144098Y0057664D01*
X0149610Y0057664D01*
X0163390Y0057664D02*
X0168902Y0057664D01*
X0168902Y0067507D01*
X0172248Y0067507D01*
X0172248Y0051759D01*
X0165358Y0037979D02*
X0147642Y0037979D01*
X0234250Y0041208D02*
X0235418Y0040040D01*
X0236585Y0041208D01*
X0236585Y0043543D01*
X0237933Y0043543D02*
X0239685Y0043543D01*
X0240268Y0042959D01*
X0240268Y0042376D01*
X0239685Y0041792D01*
X0237933Y0041792D01*
X0237933Y0043543D02*
X0237933Y0040040D01*
X0239685Y0040040D01*
X0240268Y0040624D01*
X0240268Y0041208D01*
X0239685Y0041792D01*
X0241616Y0041792D02*
X0243952Y0041792D01*
X0243952Y0042376D02*
X0243952Y0040040D01*
X0243952Y0042376D02*
X0242784Y0043543D01*
X0241616Y0042376D01*
X0241616Y0040040D01*
X0246467Y0040040D02*
X0246467Y0043543D01*
X0245299Y0043543D02*
X0247635Y0043543D01*
X0249250Y0043543D02*
X0249250Y0040040D01*
X0251585Y0040040D01*
X0252933Y0040040D02*
X0252933Y0043543D01*
X0255268Y0040040D01*
X0255268Y0043543D01*
X0258250Y0042959D02*
X0258250Y0040624D01*
X0258834Y0040040D01*
X0260001Y0040040D01*
X0260585Y0040624D01*
X0260585Y0041792D01*
X0259418Y0041792D01*
X0260585Y0042959D02*
X0260001Y0043543D01*
X0258834Y0043543D01*
X0258250Y0042959D01*
X0261933Y0043543D02*
X0264268Y0040040D01*
X0264268Y0043543D01*
X0265616Y0043543D02*
X0267368Y0043543D01*
X0267952Y0042959D01*
X0267952Y0040624D01*
X0267368Y0040040D01*
X0265616Y0040040D01*
X0265616Y0043543D01*
X0261933Y0043543D02*
X0261933Y0040040D01*
X0251585Y0043543D02*
X0249250Y0043543D01*
X0249250Y0041792D02*
X0250418Y0041792D01*
X0234250Y0041208D02*
X0234250Y0043543D01*
X0281250Y0043459D02*
X0281250Y0041124D01*
X0281834Y0040540D01*
X0283001Y0040540D01*
X0283585Y0041124D01*
X0283585Y0042292D01*
X0282418Y0042292D01*
X0283585Y0043459D02*
X0283001Y0044043D01*
X0281834Y0044043D01*
X0281250Y0043459D01*
X0288750Y0044043D02*
X0288750Y0042292D01*
X0289918Y0042876D01*
X0290501Y0042876D01*
X0291085Y0042292D01*
X0291085Y0041124D01*
X0290501Y0040540D01*
X0289334Y0040540D01*
X0288750Y0041124D01*
X0288750Y0044043D02*
X0291085Y0044043D01*
X0292433Y0044043D02*
X0292433Y0041708D01*
X0293601Y0040540D01*
X0294768Y0041708D01*
X0294768Y0044043D01*
X0296182Y0054886D02*
X0297350Y0056054D01*
X0298518Y0054886D01*
X0298518Y0058389D01*
X0299866Y0058389D02*
X0301617Y0058389D01*
X0302201Y0057805D01*
X0302201Y0056637D01*
X0301617Y0056054D01*
X0299866Y0056054D01*
X0301033Y0056054D02*
X0302201Y0054886D01*
X0299866Y0054886D02*
X0299866Y0058389D01*
X0296182Y0058389D02*
X0296182Y0054886D01*
X0294835Y0056637D02*
X0294251Y0056054D01*
X0292499Y0056054D01*
X0292499Y0054886D02*
X0292499Y0058389D01*
X0294251Y0058389D01*
X0294835Y0057805D01*
X0294835Y0056637D01*
X0294000Y0068040D02*
X0317000Y0068040D01*
X0280323Y0082704D02*
X0280323Y0085460D01*
X0280323Y0082704D02*
X0277567Y0082704D01*
X0266543Y0082704D02*
X0263787Y0082704D01*
X0263787Y0085460D01*
X0263787Y0096483D02*
X0263787Y0099239D01*
X0266543Y0099239D01*
X0277567Y0099239D02*
X0280323Y0099239D01*
X0280323Y0096483D01*
X0294000Y0126040D02*
X0317000Y0126040D01*
X0195874Y0114664D02*
X0195874Y0112696D01*
X0195874Y0114664D02*
X0193906Y0114664D01*
X0182094Y0114664D02*
X0180126Y0114664D01*
X0180126Y0112696D01*
X0180126Y0100885D02*
X0180126Y0098916D01*
X0182094Y0098916D01*
X0193906Y0098916D02*
X0195874Y0098916D01*
X0195874Y0100885D01*
D14*
X0177665Y0113680D02*
X0177667Y0113724D01*
X0177673Y0113768D01*
X0177683Y0113811D01*
X0177696Y0113853D01*
X0177714Y0113893D01*
X0177735Y0113932D01*
X0177759Y0113969D01*
X0177786Y0114004D01*
X0177817Y0114036D01*
X0177850Y0114065D01*
X0177886Y0114091D01*
X0177924Y0114113D01*
X0177964Y0114132D01*
X0178005Y0114148D01*
X0178048Y0114160D01*
X0178091Y0114168D01*
X0178135Y0114172D01*
X0178179Y0114172D01*
X0178223Y0114168D01*
X0178266Y0114160D01*
X0178309Y0114148D01*
X0178350Y0114132D01*
X0178390Y0114113D01*
X0178428Y0114091D01*
X0178464Y0114065D01*
X0178497Y0114036D01*
X0178528Y0114004D01*
X0178555Y0113969D01*
X0178579Y0113932D01*
X0178600Y0113893D01*
X0178618Y0113853D01*
X0178631Y0113811D01*
X0178641Y0113768D01*
X0178647Y0113724D01*
X0178649Y0113680D01*
X0178647Y0113636D01*
X0178641Y0113592D01*
X0178631Y0113549D01*
X0178618Y0113507D01*
X0178600Y0113467D01*
X0178579Y0113428D01*
X0178555Y0113391D01*
X0178528Y0113356D01*
X0178497Y0113324D01*
X0178464Y0113295D01*
X0178428Y0113269D01*
X0178390Y0113247D01*
X0178350Y0113228D01*
X0178309Y0113212D01*
X0178266Y0113200D01*
X0178223Y0113192D01*
X0178179Y0113188D01*
X0178135Y0113188D01*
X0178091Y0113192D01*
X0178048Y0113200D01*
X0178005Y0113212D01*
X0177964Y0113228D01*
X0177924Y0113247D01*
X0177886Y0113269D01*
X0177850Y0113295D01*
X0177817Y0113324D01*
X0177786Y0113356D01*
X0177759Y0113391D01*
X0177735Y0113428D01*
X0177714Y0113467D01*
X0177696Y0113507D01*
X0177683Y0113549D01*
X0177673Y0113592D01*
X0177667Y0113636D01*
X0177665Y0113680D01*
X0072665Y0113680D02*
X0072667Y0113724D01*
X0072673Y0113768D01*
X0072683Y0113811D01*
X0072696Y0113853D01*
X0072714Y0113893D01*
X0072735Y0113932D01*
X0072759Y0113969D01*
X0072786Y0114004D01*
X0072817Y0114036D01*
X0072850Y0114065D01*
X0072886Y0114091D01*
X0072924Y0114113D01*
X0072964Y0114132D01*
X0073005Y0114148D01*
X0073048Y0114160D01*
X0073091Y0114168D01*
X0073135Y0114172D01*
X0073179Y0114172D01*
X0073223Y0114168D01*
X0073266Y0114160D01*
X0073309Y0114148D01*
X0073350Y0114132D01*
X0073390Y0114113D01*
X0073428Y0114091D01*
X0073464Y0114065D01*
X0073497Y0114036D01*
X0073528Y0114004D01*
X0073555Y0113969D01*
X0073579Y0113932D01*
X0073600Y0113893D01*
X0073618Y0113853D01*
X0073631Y0113811D01*
X0073641Y0113768D01*
X0073647Y0113724D01*
X0073649Y0113680D01*
X0073647Y0113636D01*
X0073641Y0113592D01*
X0073631Y0113549D01*
X0073618Y0113507D01*
X0073600Y0113467D01*
X0073579Y0113428D01*
X0073555Y0113391D01*
X0073528Y0113356D01*
X0073497Y0113324D01*
X0073464Y0113295D01*
X0073428Y0113269D01*
X0073390Y0113247D01*
X0073350Y0113228D01*
X0073309Y0113212D01*
X0073266Y0113200D01*
X0073223Y0113192D01*
X0073179Y0113188D01*
X0073135Y0113188D01*
X0073091Y0113192D01*
X0073048Y0113200D01*
X0073005Y0113212D01*
X0072964Y0113228D01*
X0072924Y0113247D01*
X0072886Y0113269D01*
X0072850Y0113295D01*
X0072817Y0113324D01*
X0072786Y0113356D01*
X0072759Y0113391D01*
X0072735Y0113428D01*
X0072714Y0113467D01*
X0072696Y0113507D01*
X0072683Y0113549D01*
X0072673Y0113592D01*
X0072667Y0113636D01*
X0072665Y0113680D01*
D15*
X0053943Y0127040D03*
X0048143Y0127040D03*
X0078328Y0080607D03*
X0084128Y0080607D03*
X0096931Y0080595D03*
X0102731Y0080595D03*
X0183328Y0080607D03*
X0189128Y0080607D03*
X0201931Y0080595D03*
X0207731Y0080595D03*
D16*
X0298196Y0062916D03*
X0151991Y0138490D03*
X0036991Y0138534D03*
D17*
X0077000Y0062362D03*
X0106000Y0062362D03*
X0182000Y0062362D03*
X0211000Y0062362D03*
D18*
X0201006Y0060411D03*
X0201006Y0066211D03*
X0191006Y0066211D03*
X0191006Y0060411D03*
X0213494Y0094681D03*
X0213494Y0100481D03*
X0142906Y0099711D03*
X0142906Y0093911D03*
X0129506Y0093911D03*
X0129506Y0099711D03*
X0108494Y0100481D03*
X0108494Y0094681D03*
X0096006Y0066211D03*
X0096006Y0060411D03*
X0086006Y0060411D03*
X0086006Y0066211D03*
X0037706Y0093911D03*
X0037706Y0099711D03*
X0024506Y0099711D03*
X0024506Y0093911D03*
X0139050Y0131848D03*
X0139050Y0137648D03*
D19*
X0144328Y0072627D02*
X0144328Y0069358D01*
X0142694Y0070992D02*
X0145963Y0070992D01*
X0165194Y0070992D02*
X0168463Y0070992D01*
X0063463Y0070992D02*
X0060194Y0070992D01*
X0040963Y0070992D02*
X0037694Y0070992D01*
X0039328Y0069358D02*
X0039328Y0072627D01*
D20*
X0037700Y0082590D03*
X0024500Y0082590D03*
X0024500Y0110990D03*
X0037700Y0110990D03*
X0129500Y0110990D03*
X0142900Y0110990D03*
X0142900Y0082590D03*
X0129500Y0082590D03*
D21*
X0114250Y0141790D03*
X0189250Y0141790D03*
D22*
X0253500Y0110290D02*
X0253500Y0106290D01*
X0253500Y0102790D02*
X0253500Y0098790D01*
X0261350Y0102578D02*
X0261350Y0124231D01*
X0283791Y0124231D01*
X0283791Y0102578D01*
X0261350Y0102578D01*
X0296614Y0111213D02*
X0296614Y0083654D01*
X0318661Y0083654D01*
X0318661Y0111213D01*
X0296614Y0111213D01*
X0295922Y0119290D02*
X0295924Y0119400D01*
X0295930Y0119511D01*
X0295940Y0119621D01*
X0295954Y0119731D01*
X0295971Y0119840D01*
X0295993Y0119948D01*
X0296019Y0120055D01*
X0296048Y0120162D01*
X0296081Y0120267D01*
X0296118Y0120372D01*
X0296159Y0120474D01*
X0296203Y0120575D01*
X0296251Y0120675D01*
X0296303Y0120773D01*
X0296358Y0120869D01*
X0296416Y0120963D01*
X0296478Y0121054D01*
X0296543Y0121144D01*
X0296611Y0121231D01*
X0296682Y0121315D01*
X0296756Y0121397D01*
X0296833Y0121476D01*
X0296913Y0121553D01*
X0296996Y0121626D01*
X0297081Y0121696D01*
X0297169Y0121764D01*
X0297258Y0121828D01*
X0297351Y0121889D01*
X0297445Y0121946D01*
X0297541Y0122000D01*
X0297640Y0122051D01*
X0297740Y0122098D01*
X0297841Y0122142D01*
X0297944Y0122181D01*
X0298049Y0122217D01*
X0298155Y0122250D01*
X0298261Y0122278D01*
X0298369Y0122303D01*
X0298478Y0122323D01*
X0298587Y0122340D01*
X0298697Y0122353D01*
X0298807Y0122362D01*
X0298917Y0122367D01*
X0299028Y0122368D01*
X0299138Y0122365D01*
X0299248Y0122358D01*
X0299358Y0122347D01*
X0299468Y0122332D01*
X0299577Y0122313D01*
X0299685Y0122291D01*
X0299792Y0122264D01*
X0299898Y0122234D01*
X0300004Y0122200D01*
X0300107Y0122162D01*
X0300210Y0122120D01*
X0300311Y0122075D01*
X0300410Y0122026D01*
X0300507Y0121974D01*
X0300602Y0121918D01*
X0300696Y0121859D01*
X0300787Y0121796D01*
X0300876Y0121731D01*
X0300962Y0121662D01*
X0301046Y0121590D01*
X0301127Y0121515D01*
X0301206Y0121437D01*
X0301281Y0121356D01*
X0301354Y0121273D01*
X0301424Y0121187D01*
X0301490Y0121099D01*
X0301553Y0121009D01*
X0301614Y0120916D01*
X0301670Y0120821D01*
X0301723Y0120724D01*
X0301773Y0120625D01*
X0301819Y0120525D01*
X0301862Y0120423D01*
X0301901Y0120320D01*
X0301936Y0120215D01*
X0301967Y0120109D01*
X0301995Y0120002D01*
X0302018Y0119894D01*
X0302038Y0119785D01*
X0302054Y0119676D01*
X0302066Y0119566D01*
X0302074Y0119456D01*
X0302078Y0119345D01*
X0302078Y0119235D01*
X0302074Y0119124D01*
X0302066Y0119014D01*
X0302054Y0118904D01*
X0302038Y0118795D01*
X0302018Y0118686D01*
X0301995Y0118578D01*
X0301967Y0118471D01*
X0301936Y0118365D01*
X0301901Y0118260D01*
X0301862Y0118157D01*
X0301819Y0118055D01*
X0301773Y0117955D01*
X0301723Y0117856D01*
X0301670Y0117759D01*
X0301614Y0117664D01*
X0301553Y0117571D01*
X0301490Y0117481D01*
X0301424Y0117393D01*
X0301354Y0117307D01*
X0301281Y0117224D01*
X0301206Y0117143D01*
X0301127Y0117065D01*
X0301046Y0116990D01*
X0300962Y0116918D01*
X0300876Y0116849D01*
X0300787Y0116784D01*
X0300696Y0116721D01*
X0300602Y0116662D01*
X0300507Y0116606D01*
X0300410Y0116554D01*
X0300311Y0116505D01*
X0300210Y0116460D01*
X0300107Y0116418D01*
X0300004Y0116380D01*
X0299898Y0116346D01*
X0299792Y0116316D01*
X0299685Y0116289D01*
X0299577Y0116267D01*
X0299468Y0116248D01*
X0299358Y0116233D01*
X0299248Y0116222D01*
X0299138Y0116215D01*
X0299028Y0116212D01*
X0298917Y0116213D01*
X0298807Y0116218D01*
X0298697Y0116227D01*
X0298587Y0116240D01*
X0298478Y0116257D01*
X0298369Y0116277D01*
X0298261Y0116302D01*
X0298155Y0116330D01*
X0298049Y0116363D01*
X0297944Y0116399D01*
X0297841Y0116438D01*
X0297740Y0116482D01*
X0297640Y0116529D01*
X0297541Y0116580D01*
X0297445Y0116634D01*
X0297351Y0116691D01*
X0297258Y0116752D01*
X0297169Y0116816D01*
X0297081Y0116884D01*
X0296996Y0116954D01*
X0296913Y0117027D01*
X0296833Y0117104D01*
X0296756Y0117183D01*
X0296682Y0117265D01*
X0296611Y0117349D01*
X0296543Y0117436D01*
X0296478Y0117526D01*
X0296416Y0117617D01*
X0296358Y0117711D01*
X0296303Y0117807D01*
X0296251Y0117905D01*
X0296203Y0118005D01*
X0296159Y0118106D01*
X0296118Y0118208D01*
X0296081Y0118313D01*
X0296048Y0118418D01*
X0296019Y0118525D01*
X0295993Y0118632D01*
X0295971Y0118740D01*
X0295954Y0118849D01*
X0295940Y0118959D01*
X0295930Y0119069D01*
X0295924Y0119180D01*
X0295922Y0119290D01*
X0293819Y0126174D02*
X0293819Y0067906D01*
X0295922Y0075290D02*
X0295924Y0075400D01*
X0295930Y0075511D01*
X0295940Y0075621D01*
X0295954Y0075731D01*
X0295971Y0075840D01*
X0295993Y0075948D01*
X0296019Y0076055D01*
X0296048Y0076162D01*
X0296081Y0076267D01*
X0296118Y0076372D01*
X0296159Y0076474D01*
X0296203Y0076575D01*
X0296251Y0076675D01*
X0296303Y0076773D01*
X0296358Y0076869D01*
X0296416Y0076963D01*
X0296478Y0077054D01*
X0296543Y0077144D01*
X0296611Y0077231D01*
X0296682Y0077315D01*
X0296756Y0077397D01*
X0296833Y0077476D01*
X0296913Y0077553D01*
X0296996Y0077626D01*
X0297081Y0077696D01*
X0297169Y0077764D01*
X0297258Y0077828D01*
X0297351Y0077889D01*
X0297445Y0077946D01*
X0297541Y0078000D01*
X0297640Y0078051D01*
X0297740Y0078098D01*
X0297841Y0078142D01*
X0297944Y0078181D01*
X0298049Y0078217D01*
X0298155Y0078250D01*
X0298261Y0078278D01*
X0298369Y0078303D01*
X0298478Y0078323D01*
X0298587Y0078340D01*
X0298697Y0078353D01*
X0298807Y0078362D01*
X0298917Y0078367D01*
X0299028Y0078368D01*
X0299138Y0078365D01*
X0299248Y0078358D01*
X0299358Y0078347D01*
X0299468Y0078332D01*
X0299577Y0078313D01*
X0299685Y0078291D01*
X0299792Y0078264D01*
X0299898Y0078234D01*
X0300004Y0078200D01*
X0300107Y0078162D01*
X0300210Y0078120D01*
X0300311Y0078075D01*
X0300410Y0078026D01*
X0300507Y0077974D01*
X0300602Y0077918D01*
X0300696Y0077859D01*
X0300787Y0077796D01*
X0300876Y0077731D01*
X0300962Y0077662D01*
X0301046Y0077590D01*
X0301127Y0077515D01*
X0301206Y0077437D01*
X0301281Y0077356D01*
X0301354Y0077273D01*
X0301424Y0077187D01*
X0301490Y0077099D01*
X0301553Y0077009D01*
X0301614Y0076916D01*
X0301670Y0076821D01*
X0301723Y0076724D01*
X0301773Y0076625D01*
X0301819Y0076525D01*
X0301862Y0076423D01*
X0301901Y0076320D01*
X0301936Y0076215D01*
X0301967Y0076109D01*
X0301995Y0076002D01*
X0302018Y0075894D01*
X0302038Y0075785D01*
X0302054Y0075676D01*
X0302066Y0075566D01*
X0302074Y0075456D01*
X0302078Y0075345D01*
X0302078Y0075235D01*
X0302074Y0075124D01*
X0302066Y0075014D01*
X0302054Y0074904D01*
X0302038Y0074795D01*
X0302018Y0074686D01*
X0301995Y0074578D01*
X0301967Y0074471D01*
X0301936Y0074365D01*
X0301901Y0074260D01*
X0301862Y0074157D01*
X0301819Y0074055D01*
X0301773Y0073955D01*
X0301723Y0073856D01*
X0301670Y0073759D01*
X0301614Y0073664D01*
X0301553Y0073571D01*
X0301490Y0073481D01*
X0301424Y0073393D01*
X0301354Y0073307D01*
X0301281Y0073224D01*
X0301206Y0073143D01*
X0301127Y0073065D01*
X0301046Y0072990D01*
X0300962Y0072918D01*
X0300876Y0072849D01*
X0300787Y0072784D01*
X0300696Y0072721D01*
X0300602Y0072662D01*
X0300507Y0072606D01*
X0300410Y0072554D01*
X0300311Y0072505D01*
X0300210Y0072460D01*
X0300107Y0072418D01*
X0300004Y0072380D01*
X0299898Y0072346D01*
X0299792Y0072316D01*
X0299685Y0072289D01*
X0299577Y0072267D01*
X0299468Y0072248D01*
X0299358Y0072233D01*
X0299248Y0072222D01*
X0299138Y0072215D01*
X0299028Y0072212D01*
X0298917Y0072213D01*
X0298807Y0072218D01*
X0298697Y0072227D01*
X0298587Y0072240D01*
X0298478Y0072257D01*
X0298369Y0072277D01*
X0298261Y0072302D01*
X0298155Y0072330D01*
X0298049Y0072363D01*
X0297944Y0072399D01*
X0297841Y0072438D01*
X0297740Y0072482D01*
X0297640Y0072529D01*
X0297541Y0072580D01*
X0297445Y0072634D01*
X0297351Y0072691D01*
X0297258Y0072752D01*
X0297169Y0072816D01*
X0297081Y0072884D01*
X0296996Y0072954D01*
X0296913Y0073027D01*
X0296833Y0073104D01*
X0296756Y0073183D01*
X0296682Y0073265D01*
X0296611Y0073349D01*
X0296543Y0073436D01*
X0296478Y0073526D01*
X0296416Y0073617D01*
X0296358Y0073711D01*
X0296303Y0073807D01*
X0296251Y0073905D01*
X0296203Y0074005D01*
X0296159Y0074106D01*
X0296118Y0074208D01*
X0296081Y0074313D01*
X0296048Y0074418D01*
X0296019Y0074525D01*
X0295993Y0074632D01*
X0295971Y0074740D01*
X0295954Y0074849D01*
X0295940Y0074959D01*
X0295930Y0075069D01*
X0295924Y0075180D01*
X0295922Y0075290D01*
X0318661Y0083654D02*
X0324173Y0083654D01*
X0324173Y0111213D01*
X0318661Y0111213D01*
X0303626Y0150790D02*
X0303628Y0150983D01*
X0303635Y0151176D01*
X0303647Y0151369D01*
X0303664Y0151562D01*
X0303685Y0151754D01*
X0303711Y0151945D01*
X0303742Y0152136D01*
X0303777Y0152326D01*
X0303817Y0152515D01*
X0303862Y0152703D01*
X0303911Y0152890D01*
X0303965Y0153076D01*
X0304023Y0153260D01*
X0304086Y0153443D01*
X0304154Y0153624D01*
X0304225Y0153803D01*
X0304302Y0153981D01*
X0304382Y0154157D01*
X0304467Y0154330D01*
X0304556Y0154502D01*
X0304649Y0154671D01*
X0304746Y0154838D01*
X0304848Y0155003D01*
X0304953Y0155165D01*
X0305062Y0155324D01*
X0305176Y0155481D01*
X0305293Y0155634D01*
X0305413Y0155785D01*
X0305538Y0155933D01*
X0305666Y0156078D01*
X0305797Y0156219D01*
X0305932Y0156358D01*
X0306071Y0156493D01*
X0306212Y0156624D01*
X0306357Y0156752D01*
X0306505Y0156877D01*
X0306656Y0156997D01*
X0306809Y0157114D01*
X0306966Y0157228D01*
X0307125Y0157337D01*
X0307287Y0157442D01*
X0307452Y0157544D01*
X0307619Y0157641D01*
X0307788Y0157734D01*
X0307960Y0157823D01*
X0308133Y0157908D01*
X0308309Y0157988D01*
X0308487Y0158065D01*
X0308666Y0158136D01*
X0308847Y0158204D01*
X0309030Y0158267D01*
X0309214Y0158325D01*
X0309400Y0158379D01*
X0309587Y0158428D01*
X0309775Y0158473D01*
X0309964Y0158513D01*
X0310154Y0158548D01*
X0310345Y0158579D01*
X0310536Y0158605D01*
X0310728Y0158626D01*
X0310921Y0158643D01*
X0311114Y0158655D01*
X0311307Y0158662D01*
X0311500Y0158664D01*
X0311693Y0158662D01*
X0311886Y0158655D01*
X0312079Y0158643D01*
X0312272Y0158626D01*
X0312464Y0158605D01*
X0312655Y0158579D01*
X0312846Y0158548D01*
X0313036Y0158513D01*
X0313225Y0158473D01*
X0313413Y0158428D01*
X0313600Y0158379D01*
X0313786Y0158325D01*
X0313970Y0158267D01*
X0314153Y0158204D01*
X0314334Y0158136D01*
X0314513Y0158065D01*
X0314691Y0157988D01*
X0314867Y0157908D01*
X0315040Y0157823D01*
X0315212Y0157734D01*
X0315381Y0157641D01*
X0315548Y0157544D01*
X0315713Y0157442D01*
X0315875Y0157337D01*
X0316034Y0157228D01*
X0316191Y0157114D01*
X0316344Y0156997D01*
X0316495Y0156877D01*
X0316643Y0156752D01*
X0316788Y0156624D01*
X0316929Y0156493D01*
X0317068Y0156358D01*
X0317203Y0156219D01*
X0317334Y0156078D01*
X0317462Y0155933D01*
X0317587Y0155785D01*
X0317707Y0155634D01*
X0317824Y0155481D01*
X0317938Y0155324D01*
X0318047Y0155165D01*
X0318152Y0155003D01*
X0318254Y0154838D01*
X0318351Y0154671D01*
X0318444Y0154502D01*
X0318533Y0154330D01*
X0318618Y0154157D01*
X0318698Y0153981D01*
X0318775Y0153803D01*
X0318846Y0153624D01*
X0318914Y0153443D01*
X0318977Y0153260D01*
X0319035Y0153076D01*
X0319089Y0152890D01*
X0319138Y0152703D01*
X0319183Y0152515D01*
X0319223Y0152326D01*
X0319258Y0152136D01*
X0319289Y0151945D01*
X0319315Y0151754D01*
X0319336Y0151562D01*
X0319353Y0151369D01*
X0319365Y0151176D01*
X0319372Y0150983D01*
X0319374Y0150790D01*
X0319372Y0150597D01*
X0319365Y0150404D01*
X0319353Y0150211D01*
X0319336Y0150018D01*
X0319315Y0149826D01*
X0319289Y0149635D01*
X0319258Y0149444D01*
X0319223Y0149254D01*
X0319183Y0149065D01*
X0319138Y0148877D01*
X0319089Y0148690D01*
X0319035Y0148504D01*
X0318977Y0148320D01*
X0318914Y0148137D01*
X0318846Y0147956D01*
X0318775Y0147777D01*
X0318698Y0147599D01*
X0318618Y0147423D01*
X0318533Y0147250D01*
X0318444Y0147078D01*
X0318351Y0146909D01*
X0318254Y0146742D01*
X0318152Y0146577D01*
X0318047Y0146415D01*
X0317938Y0146256D01*
X0317824Y0146099D01*
X0317707Y0145946D01*
X0317587Y0145795D01*
X0317462Y0145647D01*
X0317334Y0145502D01*
X0317203Y0145361D01*
X0317068Y0145222D01*
X0316929Y0145087D01*
X0316788Y0144956D01*
X0316643Y0144828D01*
X0316495Y0144703D01*
X0316344Y0144583D01*
X0316191Y0144466D01*
X0316034Y0144352D01*
X0315875Y0144243D01*
X0315713Y0144138D01*
X0315548Y0144036D01*
X0315381Y0143939D01*
X0315212Y0143846D01*
X0315040Y0143757D01*
X0314867Y0143672D01*
X0314691Y0143592D01*
X0314513Y0143515D01*
X0314334Y0143444D01*
X0314153Y0143376D01*
X0313970Y0143313D01*
X0313786Y0143255D01*
X0313600Y0143201D01*
X0313413Y0143152D01*
X0313225Y0143107D01*
X0313036Y0143067D01*
X0312846Y0143032D01*
X0312655Y0143001D01*
X0312464Y0142975D01*
X0312272Y0142954D01*
X0312079Y0142937D01*
X0311886Y0142925D01*
X0311693Y0142918D01*
X0311500Y0142916D01*
X0311307Y0142918D01*
X0311114Y0142925D01*
X0310921Y0142937D01*
X0310728Y0142954D01*
X0310536Y0142975D01*
X0310345Y0143001D01*
X0310154Y0143032D01*
X0309964Y0143067D01*
X0309775Y0143107D01*
X0309587Y0143152D01*
X0309400Y0143201D01*
X0309214Y0143255D01*
X0309030Y0143313D01*
X0308847Y0143376D01*
X0308666Y0143444D01*
X0308487Y0143515D01*
X0308309Y0143592D01*
X0308133Y0143672D01*
X0307960Y0143757D01*
X0307788Y0143846D01*
X0307619Y0143939D01*
X0307452Y0144036D01*
X0307287Y0144138D01*
X0307125Y0144243D01*
X0306966Y0144352D01*
X0306809Y0144466D01*
X0306656Y0144583D01*
X0306505Y0144703D01*
X0306357Y0144828D01*
X0306212Y0144956D01*
X0306071Y0145087D01*
X0305932Y0145222D01*
X0305797Y0145361D01*
X0305666Y0145502D01*
X0305538Y0145647D01*
X0305413Y0145795D01*
X0305293Y0145946D01*
X0305176Y0146099D01*
X0305062Y0146256D01*
X0304953Y0146415D01*
X0304848Y0146577D01*
X0304746Y0146742D01*
X0304649Y0146909D01*
X0304556Y0147078D01*
X0304467Y0147250D01*
X0304382Y0147423D01*
X0304302Y0147599D01*
X0304225Y0147777D01*
X0304154Y0147956D01*
X0304086Y0148137D01*
X0304023Y0148320D01*
X0303965Y0148504D01*
X0303911Y0148690D01*
X0303862Y0148877D01*
X0303817Y0149065D01*
X0303777Y0149254D01*
X0303742Y0149444D01*
X0303711Y0149635D01*
X0303685Y0149826D01*
X0303664Y0150018D01*
X0303647Y0150211D01*
X0303635Y0150404D01*
X0303628Y0150597D01*
X0303626Y0150790D01*
X0231556Y0061527D02*
X0231556Y0054653D01*
X0228800Y0056909D02*
X0230375Y0059271D01*
X0227225Y0059271D01*
X0228800Y0056909D01*
X0228800Y0057697D02*
X0229587Y0058878D01*
X0228013Y0058878D01*
X0228800Y0057697D01*
X0228638Y0057940D02*
X0228962Y0057940D01*
X0229494Y0058738D02*
X0228106Y0058738D01*
X0226044Y0061527D02*
X0226044Y0054653D01*
X0199937Y0053546D02*
X0193063Y0053546D01*
X0195319Y0052365D02*
X0197681Y0050790D01*
X0195319Y0049215D01*
X0195319Y0052365D01*
X0195713Y0051578D02*
X0196894Y0050790D01*
X0195713Y0050003D01*
X0195713Y0051578D01*
X0195713Y0051552D02*
X0195752Y0051552D01*
X0195713Y0050753D02*
X0196838Y0050753D01*
X0199937Y0048034D02*
X0193063Y0048034D01*
X0303626Y0045790D02*
X0303628Y0045983D01*
X0303635Y0046176D01*
X0303647Y0046369D01*
X0303664Y0046562D01*
X0303685Y0046754D01*
X0303711Y0046945D01*
X0303742Y0047136D01*
X0303777Y0047326D01*
X0303817Y0047515D01*
X0303862Y0047703D01*
X0303911Y0047890D01*
X0303965Y0048076D01*
X0304023Y0048260D01*
X0304086Y0048443D01*
X0304154Y0048624D01*
X0304225Y0048803D01*
X0304302Y0048981D01*
X0304382Y0049157D01*
X0304467Y0049330D01*
X0304556Y0049502D01*
X0304649Y0049671D01*
X0304746Y0049838D01*
X0304848Y0050003D01*
X0304953Y0050165D01*
X0305062Y0050324D01*
X0305176Y0050481D01*
X0305293Y0050634D01*
X0305413Y0050785D01*
X0305538Y0050933D01*
X0305666Y0051078D01*
X0305797Y0051219D01*
X0305932Y0051358D01*
X0306071Y0051493D01*
X0306212Y0051624D01*
X0306357Y0051752D01*
X0306505Y0051877D01*
X0306656Y0051997D01*
X0306809Y0052114D01*
X0306966Y0052228D01*
X0307125Y0052337D01*
X0307287Y0052442D01*
X0307452Y0052544D01*
X0307619Y0052641D01*
X0307788Y0052734D01*
X0307960Y0052823D01*
X0308133Y0052908D01*
X0308309Y0052988D01*
X0308487Y0053065D01*
X0308666Y0053136D01*
X0308847Y0053204D01*
X0309030Y0053267D01*
X0309214Y0053325D01*
X0309400Y0053379D01*
X0309587Y0053428D01*
X0309775Y0053473D01*
X0309964Y0053513D01*
X0310154Y0053548D01*
X0310345Y0053579D01*
X0310536Y0053605D01*
X0310728Y0053626D01*
X0310921Y0053643D01*
X0311114Y0053655D01*
X0311307Y0053662D01*
X0311500Y0053664D01*
X0311693Y0053662D01*
X0311886Y0053655D01*
X0312079Y0053643D01*
X0312272Y0053626D01*
X0312464Y0053605D01*
X0312655Y0053579D01*
X0312846Y0053548D01*
X0313036Y0053513D01*
X0313225Y0053473D01*
X0313413Y0053428D01*
X0313600Y0053379D01*
X0313786Y0053325D01*
X0313970Y0053267D01*
X0314153Y0053204D01*
X0314334Y0053136D01*
X0314513Y0053065D01*
X0314691Y0052988D01*
X0314867Y0052908D01*
X0315040Y0052823D01*
X0315212Y0052734D01*
X0315381Y0052641D01*
X0315548Y0052544D01*
X0315713Y0052442D01*
X0315875Y0052337D01*
X0316034Y0052228D01*
X0316191Y0052114D01*
X0316344Y0051997D01*
X0316495Y0051877D01*
X0316643Y0051752D01*
X0316788Y0051624D01*
X0316929Y0051493D01*
X0317068Y0051358D01*
X0317203Y0051219D01*
X0317334Y0051078D01*
X0317462Y0050933D01*
X0317587Y0050785D01*
X0317707Y0050634D01*
X0317824Y0050481D01*
X0317938Y0050324D01*
X0318047Y0050165D01*
X0318152Y0050003D01*
X0318254Y0049838D01*
X0318351Y0049671D01*
X0318444Y0049502D01*
X0318533Y0049330D01*
X0318618Y0049157D01*
X0318698Y0048981D01*
X0318775Y0048803D01*
X0318846Y0048624D01*
X0318914Y0048443D01*
X0318977Y0048260D01*
X0319035Y0048076D01*
X0319089Y0047890D01*
X0319138Y0047703D01*
X0319183Y0047515D01*
X0319223Y0047326D01*
X0319258Y0047136D01*
X0319289Y0046945D01*
X0319315Y0046754D01*
X0319336Y0046562D01*
X0319353Y0046369D01*
X0319365Y0046176D01*
X0319372Y0045983D01*
X0319374Y0045790D01*
X0319372Y0045597D01*
X0319365Y0045404D01*
X0319353Y0045211D01*
X0319336Y0045018D01*
X0319315Y0044826D01*
X0319289Y0044635D01*
X0319258Y0044444D01*
X0319223Y0044254D01*
X0319183Y0044065D01*
X0319138Y0043877D01*
X0319089Y0043690D01*
X0319035Y0043504D01*
X0318977Y0043320D01*
X0318914Y0043137D01*
X0318846Y0042956D01*
X0318775Y0042777D01*
X0318698Y0042599D01*
X0318618Y0042423D01*
X0318533Y0042250D01*
X0318444Y0042078D01*
X0318351Y0041909D01*
X0318254Y0041742D01*
X0318152Y0041577D01*
X0318047Y0041415D01*
X0317938Y0041256D01*
X0317824Y0041099D01*
X0317707Y0040946D01*
X0317587Y0040795D01*
X0317462Y0040647D01*
X0317334Y0040502D01*
X0317203Y0040361D01*
X0317068Y0040222D01*
X0316929Y0040087D01*
X0316788Y0039956D01*
X0316643Y0039828D01*
X0316495Y0039703D01*
X0316344Y0039583D01*
X0316191Y0039466D01*
X0316034Y0039352D01*
X0315875Y0039243D01*
X0315713Y0039138D01*
X0315548Y0039036D01*
X0315381Y0038939D01*
X0315212Y0038846D01*
X0315040Y0038757D01*
X0314867Y0038672D01*
X0314691Y0038592D01*
X0314513Y0038515D01*
X0314334Y0038444D01*
X0314153Y0038376D01*
X0313970Y0038313D01*
X0313786Y0038255D01*
X0313600Y0038201D01*
X0313413Y0038152D01*
X0313225Y0038107D01*
X0313036Y0038067D01*
X0312846Y0038032D01*
X0312655Y0038001D01*
X0312464Y0037975D01*
X0312272Y0037954D01*
X0312079Y0037937D01*
X0311886Y0037925D01*
X0311693Y0037918D01*
X0311500Y0037916D01*
X0311307Y0037918D01*
X0311114Y0037925D01*
X0310921Y0037937D01*
X0310728Y0037954D01*
X0310536Y0037975D01*
X0310345Y0038001D01*
X0310154Y0038032D01*
X0309964Y0038067D01*
X0309775Y0038107D01*
X0309587Y0038152D01*
X0309400Y0038201D01*
X0309214Y0038255D01*
X0309030Y0038313D01*
X0308847Y0038376D01*
X0308666Y0038444D01*
X0308487Y0038515D01*
X0308309Y0038592D01*
X0308133Y0038672D01*
X0307960Y0038757D01*
X0307788Y0038846D01*
X0307619Y0038939D01*
X0307452Y0039036D01*
X0307287Y0039138D01*
X0307125Y0039243D01*
X0306966Y0039352D01*
X0306809Y0039466D01*
X0306656Y0039583D01*
X0306505Y0039703D01*
X0306357Y0039828D01*
X0306212Y0039956D01*
X0306071Y0040087D01*
X0305932Y0040222D01*
X0305797Y0040361D01*
X0305666Y0040502D01*
X0305538Y0040647D01*
X0305413Y0040795D01*
X0305293Y0040946D01*
X0305176Y0041099D01*
X0305062Y0041256D01*
X0304953Y0041415D01*
X0304848Y0041577D01*
X0304746Y0041742D01*
X0304649Y0041909D01*
X0304556Y0042078D01*
X0304467Y0042250D01*
X0304382Y0042423D01*
X0304302Y0042599D01*
X0304225Y0042777D01*
X0304154Y0042956D01*
X0304086Y0043137D01*
X0304023Y0043320D01*
X0303965Y0043504D01*
X0303911Y0043690D01*
X0303862Y0043877D01*
X0303817Y0044065D01*
X0303777Y0044254D01*
X0303742Y0044444D01*
X0303711Y0044635D01*
X0303685Y0044826D01*
X0303664Y0045018D01*
X0303647Y0045211D01*
X0303635Y0045404D01*
X0303628Y0045597D01*
X0303626Y0045790D01*
X0090256Y0127853D02*
X0090256Y0134727D01*
X0089075Y0132471D02*
X0085925Y0132471D01*
X0087500Y0130109D01*
X0089075Y0132471D01*
X0088287Y0132078D02*
X0087500Y0130897D01*
X0086713Y0132078D01*
X0088287Y0132078D01*
X0087837Y0131403D02*
X0087163Y0131403D01*
X0084744Y0134727D02*
X0084744Y0127853D01*
X0077996Y0131578D02*
X0050437Y0131578D01*
X0050437Y0153625D01*
X0077996Y0153625D01*
X0077996Y0159137D01*
X0050437Y0159137D01*
X0050437Y0153625D01*
X0077996Y0153625D02*
X0077996Y0131578D01*
X0008626Y0150790D02*
X0008628Y0150983D01*
X0008635Y0151176D01*
X0008647Y0151369D01*
X0008664Y0151562D01*
X0008685Y0151754D01*
X0008711Y0151945D01*
X0008742Y0152136D01*
X0008777Y0152326D01*
X0008817Y0152515D01*
X0008862Y0152703D01*
X0008911Y0152890D01*
X0008965Y0153076D01*
X0009023Y0153260D01*
X0009086Y0153443D01*
X0009154Y0153624D01*
X0009225Y0153803D01*
X0009302Y0153981D01*
X0009382Y0154157D01*
X0009467Y0154330D01*
X0009556Y0154502D01*
X0009649Y0154671D01*
X0009746Y0154838D01*
X0009848Y0155003D01*
X0009953Y0155165D01*
X0010062Y0155324D01*
X0010176Y0155481D01*
X0010293Y0155634D01*
X0010413Y0155785D01*
X0010538Y0155933D01*
X0010666Y0156078D01*
X0010797Y0156219D01*
X0010932Y0156358D01*
X0011071Y0156493D01*
X0011212Y0156624D01*
X0011357Y0156752D01*
X0011505Y0156877D01*
X0011656Y0156997D01*
X0011809Y0157114D01*
X0011966Y0157228D01*
X0012125Y0157337D01*
X0012287Y0157442D01*
X0012452Y0157544D01*
X0012619Y0157641D01*
X0012788Y0157734D01*
X0012960Y0157823D01*
X0013133Y0157908D01*
X0013309Y0157988D01*
X0013487Y0158065D01*
X0013666Y0158136D01*
X0013847Y0158204D01*
X0014030Y0158267D01*
X0014214Y0158325D01*
X0014400Y0158379D01*
X0014587Y0158428D01*
X0014775Y0158473D01*
X0014964Y0158513D01*
X0015154Y0158548D01*
X0015345Y0158579D01*
X0015536Y0158605D01*
X0015728Y0158626D01*
X0015921Y0158643D01*
X0016114Y0158655D01*
X0016307Y0158662D01*
X0016500Y0158664D01*
X0016693Y0158662D01*
X0016886Y0158655D01*
X0017079Y0158643D01*
X0017272Y0158626D01*
X0017464Y0158605D01*
X0017655Y0158579D01*
X0017846Y0158548D01*
X0018036Y0158513D01*
X0018225Y0158473D01*
X0018413Y0158428D01*
X0018600Y0158379D01*
X0018786Y0158325D01*
X0018970Y0158267D01*
X0019153Y0158204D01*
X0019334Y0158136D01*
X0019513Y0158065D01*
X0019691Y0157988D01*
X0019867Y0157908D01*
X0020040Y0157823D01*
X0020212Y0157734D01*
X0020381Y0157641D01*
X0020548Y0157544D01*
X0020713Y0157442D01*
X0020875Y0157337D01*
X0021034Y0157228D01*
X0021191Y0157114D01*
X0021344Y0156997D01*
X0021495Y0156877D01*
X0021643Y0156752D01*
X0021788Y0156624D01*
X0021929Y0156493D01*
X0022068Y0156358D01*
X0022203Y0156219D01*
X0022334Y0156078D01*
X0022462Y0155933D01*
X0022587Y0155785D01*
X0022707Y0155634D01*
X0022824Y0155481D01*
X0022938Y0155324D01*
X0023047Y0155165D01*
X0023152Y0155003D01*
X0023254Y0154838D01*
X0023351Y0154671D01*
X0023444Y0154502D01*
X0023533Y0154330D01*
X0023618Y0154157D01*
X0023698Y0153981D01*
X0023775Y0153803D01*
X0023846Y0153624D01*
X0023914Y0153443D01*
X0023977Y0153260D01*
X0024035Y0153076D01*
X0024089Y0152890D01*
X0024138Y0152703D01*
X0024183Y0152515D01*
X0024223Y0152326D01*
X0024258Y0152136D01*
X0024289Y0151945D01*
X0024315Y0151754D01*
X0024336Y0151562D01*
X0024353Y0151369D01*
X0024365Y0151176D01*
X0024372Y0150983D01*
X0024374Y0150790D01*
X0024372Y0150597D01*
X0024365Y0150404D01*
X0024353Y0150211D01*
X0024336Y0150018D01*
X0024315Y0149826D01*
X0024289Y0149635D01*
X0024258Y0149444D01*
X0024223Y0149254D01*
X0024183Y0149065D01*
X0024138Y0148877D01*
X0024089Y0148690D01*
X0024035Y0148504D01*
X0023977Y0148320D01*
X0023914Y0148137D01*
X0023846Y0147956D01*
X0023775Y0147777D01*
X0023698Y0147599D01*
X0023618Y0147423D01*
X0023533Y0147250D01*
X0023444Y0147078D01*
X0023351Y0146909D01*
X0023254Y0146742D01*
X0023152Y0146577D01*
X0023047Y0146415D01*
X0022938Y0146256D01*
X0022824Y0146099D01*
X0022707Y0145946D01*
X0022587Y0145795D01*
X0022462Y0145647D01*
X0022334Y0145502D01*
X0022203Y0145361D01*
X0022068Y0145222D01*
X0021929Y0145087D01*
X0021788Y0144956D01*
X0021643Y0144828D01*
X0021495Y0144703D01*
X0021344Y0144583D01*
X0021191Y0144466D01*
X0021034Y0144352D01*
X0020875Y0144243D01*
X0020713Y0144138D01*
X0020548Y0144036D01*
X0020381Y0143939D01*
X0020212Y0143846D01*
X0020040Y0143757D01*
X0019867Y0143672D01*
X0019691Y0143592D01*
X0019513Y0143515D01*
X0019334Y0143444D01*
X0019153Y0143376D01*
X0018970Y0143313D01*
X0018786Y0143255D01*
X0018600Y0143201D01*
X0018413Y0143152D01*
X0018225Y0143107D01*
X0018036Y0143067D01*
X0017846Y0143032D01*
X0017655Y0143001D01*
X0017464Y0142975D01*
X0017272Y0142954D01*
X0017079Y0142937D01*
X0016886Y0142925D01*
X0016693Y0142918D01*
X0016500Y0142916D01*
X0016307Y0142918D01*
X0016114Y0142925D01*
X0015921Y0142937D01*
X0015728Y0142954D01*
X0015536Y0142975D01*
X0015345Y0143001D01*
X0015154Y0143032D01*
X0014964Y0143067D01*
X0014775Y0143107D01*
X0014587Y0143152D01*
X0014400Y0143201D01*
X0014214Y0143255D01*
X0014030Y0143313D01*
X0013847Y0143376D01*
X0013666Y0143444D01*
X0013487Y0143515D01*
X0013309Y0143592D01*
X0013133Y0143672D01*
X0012960Y0143757D01*
X0012788Y0143846D01*
X0012619Y0143939D01*
X0012452Y0144036D01*
X0012287Y0144138D01*
X0012125Y0144243D01*
X0011966Y0144352D01*
X0011809Y0144466D01*
X0011656Y0144583D01*
X0011505Y0144703D01*
X0011357Y0144828D01*
X0011212Y0144956D01*
X0011071Y0145087D01*
X0010932Y0145222D01*
X0010797Y0145361D01*
X0010666Y0145502D01*
X0010538Y0145647D01*
X0010413Y0145795D01*
X0010293Y0145946D01*
X0010176Y0146099D01*
X0010062Y0146256D01*
X0009953Y0146415D01*
X0009848Y0146577D01*
X0009746Y0146742D01*
X0009649Y0146909D01*
X0009556Y0147078D01*
X0009467Y0147250D01*
X0009382Y0147423D01*
X0009302Y0147599D01*
X0009225Y0147777D01*
X0009154Y0147956D01*
X0009086Y0148137D01*
X0009023Y0148320D01*
X0008965Y0148504D01*
X0008911Y0148690D01*
X0008862Y0148877D01*
X0008817Y0149065D01*
X0008777Y0149254D01*
X0008742Y0149444D01*
X0008711Y0149635D01*
X0008685Y0149826D01*
X0008664Y0150018D01*
X0008647Y0150211D01*
X0008635Y0150404D01*
X0008628Y0150597D01*
X0008626Y0150790D01*
X0008626Y0045790D02*
X0008628Y0045983D01*
X0008635Y0046176D01*
X0008647Y0046369D01*
X0008664Y0046562D01*
X0008685Y0046754D01*
X0008711Y0046945D01*
X0008742Y0047136D01*
X0008777Y0047326D01*
X0008817Y0047515D01*
X0008862Y0047703D01*
X0008911Y0047890D01*
X0008965Y0048076D01*
X0009023Y0048260D01*
X0009086Y0048443D01*
X0009154Y0048624D01*
X0009225Y0048803D01*
X0009302Y0048981D01*
X0009382Y0049157D01*
X0009467Y0049330D01*
X0009556Y0049502D01*
X0009649Y0049671D01*
X0009746Y0049838D01*
X0009848Y0050003D01*
X0009953Y0050165D01*
X0010062Y0050324D01*
X0010176Y0050481D01*
X0010293Y0050634D01*
X0010413Y0050785D01*
X0010538Y0050933D01*
X0010666Y0051078D01*
X0010797Y0051219D01*
X0010932Y0051358D01*
X0011071Y0051493D01*
X0011212Y0051624D01*
X0011357Y0051752D01*
X0011505Y0051877D01*
X0011656Y0051997D01*
X0011809Y0052114D01*
X0011966Y0052228D01*
X0012125Y0052337D01*
X0012287Y0052442D01*
X0012452Y0052544D01*
X0012619Y0052641D01*
X0012788Y0052734D01*
X0012960Y0052823D01*
X0013133Y0052908D01*
X0013309Y0052988D01*
X0013487Y0053065D01*
X0013666Y0053136D01*
X0013847Y0053204D01*
X0014030Y0053267D01*
X0014214Y0053325D01*
X0014400Y0053379D01*
X0014587Y0053428D01*
X0014775Y0053473D01*
X0014964Y0053513D01*
X0015154Y0053548D01*
X0015345Y0053579D01*
X0015536Y0053605D01*
X0015728Y0053626D01*
X0015921Y0053643D01*
X0016114Y0053655D01*
X0016307Y0053662D01*
X0016500Y0053664D01*
X0016693Y0053662D01*
X0016886Y0053655D01*
X0017079Y0053643D01*
X0017272Y0053626D01*
X0017464Y0053605D01*
X0017655Y0053579D01*
X0017846Y0053548D01*
X0018036Y0053513D01*
X0018225Y0053473D01*
X0018413Y0053428D01*
X0018600Y0053379D01*
X0018786Y0053325D01*
X0018970Y0053267D01*
X0019153Y0053204D01*
X0019334Y0053136D01*
X0019513Y0053065D01*
X0019691Y0052988D01*
X0019867Y0052908D01*
X0020040Y0052823D01*
X0020212Y0052734D01*
X0020381Y0052641D01*
X0020548Y0052544D01*
X0020713Y0052442D01*
X0020875Y0052337D01*
X0021034Y0052228D01*
X0021191Y0052114D01*
X0021344Y0051997D01*
X0021495Y0051877D01*
X0021643Y0051752D01*
X0021788Y0051624D01*
X0021929Y0051493D01*
X0022068Y0051358D01*
X0022203Y0051219D01*
X0022334Y0051078D01*
X0022462Y0050933D01*
X0022587Y0050785D01*
X0022707Y0050634D01*
X0022824Y0050481D01*
X0022938Y0050324D01*
X0023047Y0050165D01*
X0023152Y0050003D01*
X0023254Y0049838D01*
X0023351Y0049671D01*
X0023444Y0049502D01*
X0023533Y0049330D01*
X0023618Y0049157D01*
X0023698Y0048981D01*
X0023775Y0048803D01*
X0023846Y0048624D01*
X0023914Y0048443D01*
X0023977Y0048260D01*
X0024035Y0048076D01*
X0024089Y0047890D01*
X0024138Y0047703D01*
X0024183Y0047515D01*
X0024223Y0047326D01*
X0024258Y0047136D01*
X0024289Y0046945D01*
X0024315Y0046754D01*
X0024336Y0046562D01*
X0024353Y0046369D01*
X0024365Y0046176D01*
X0024372Y0045983D01*
X0024374Y0045790D01*
X0024372Y0045597D01*
X0024365Y0045404D01*
X0024353Y0045211D01*
X0024336Y0045018D01*
X0024315Y0044826D01*
X0024289Y0044635D01*
X0024258Y0044444D01*
X0024223Y0044254D01*
X0024183Y0044065D01*
X0024138Y0043877D01*
X0024089Y0043690D01*
X0024035Y0043504D01*
X0023977Y0043320D01*
X0023914Y0043137D01*
X0023846Y0042956D01*
X0023775Y0042777D01*
X0023698Y0042599D01*
X0023618Y0042423D01*
X0023533Y0042250D01*
X0023444Y0042078D01*
X0023351Y0041909D01*
X0023254Y0041742D01*
X0023152Y0041577D01*
X0023047Y0041415D01*
X0022938Y0041256D01*
X0022824Y0041099D01*
X0022707Y0040946D01*
X0022587Y0040795D01*
X0022462Y0040647D01*
X0022334Y0040502D01*
X0022203Y0040361D01*
X0022068Y0040222D01*
X0021929Y0040087D01*
X0021788Y0039956D01*
X0021643Y0039828D01*
X0021495Y0039703D01*
X0021344Y0039583D01*
X0021191Y0039466D01*
X0021034Y0039352D01*
X0020875Y0039243D01*
X0020713Y0039138D01*
X0020548Y0039036D01*
X0020381Y0038939D01*
X0020212Y0038846D01*
X0020040Y0038757D01*
X0019867Y0038672D01*
X0019691Y0038592D01*
X0019513Y0038515D01*
X0019334Y0038444D01*
X0019153Y0038376D01*
X0018970Y0038313D01*
X0018786Y0038255D01*
X0018600Y0038201D01*
X0018413Y0038152D01*
X0018225Y0038107D01*
X0018036Y0038067D01*
X0017846Y0038032D01*
X0017655Y0038001D01*
X0017464Y0037975D01*
X0017272Y0037954D01*
X0017079Y0037937D01*
X0016886Y0037925D01*
X0016693Y0037918D01*
X0016500Y0037916D01*
X0016307Y0037918D01*
X0016114Y0037925D01*
X0015921Y0037937D01*
X0015728Y0037954D01*
X0015536Y0037975D01*
X0015345Y0038001D01*
X0015154Y0038032D01*
X0014964Y0038067D01*
X0014775Y0038107D01*
X0014587Y0038152D01*
X0014400Y0038201D01*
X0014214Y0038255D01*
X0014030Y0038313D01*
X0013847Y0038376D01*
X0013666Y0038444D01*
X0013487Y0038515D01*
X0013309Y0038592D01*
X0013133Y0038672D01*
X0012960Y0038757D01*
X0012788Y0038846D01*
X0012619Y0038939D01*
X0012452Y0039036D01*
X0012287Y0039138D01*
X0012125Y0039243D01*
X0011966Y0039352D01*
X0011809Y0039466D01*
X0011656Y0039583D01*
X0011505Y0039703D01*
X0011357Y0039828D01*
X0011212Y0039956D01*
X0011071Y0040087D01*
X0010932Y0040222D01*
X0010797Y0040361D01*
X0010666Y0040502D01*
X0010538Y0040647D01*
X0010413Y0040795D01*
X0010293Y0040946D01*
X0010176Y0041099D01*
X0010062Y0041256D01*
X0009953Y0041415D01*
X0009848Y0041577D01*
X0009746Y0041742D01*
X0009649Y0041909D01*
X0009556Y0042078D01*
X0009467Y0042250D01*
X0009382Y0042423D01*
X0009302Y0042599D01*
X0009225Y0042777D01*
X0009154Y0042956D01*
X0009086Y0043137D01*
X0009023Y0043320D01*
X0008965Y0043504D01*
X0008911Y0043690D01*
X0008862Y0043877D01*
X0008817Y0044065D01*
X0008777Y0044254D01*
X0008742Y0044444D01*
X0008711Y0044635D01*
X0008685Y0044826D01*
X0008664Y0045018D01*
X0008647Y0045211D01*
X0008635Y0045404D01*
X0008628Y0045597D01*
X0008626Y0045790D01*
D23*
X0087500Y0129715D03*
X0228800Y0056515D03*
D24*
X0281898Y0083885D02*
X0281900Y0083941D01*
X0281906Y0083996D01*
X0281916Y0084050D01*
X0281929Y0084104D01*
X0281947Y0084157D01*
X0281968Y0084208D01*
X0281992Y0084258D01*
X0282020Y0084306D01*
X0282052Y0084352D01*
X0282086Y0084396D01*
X0282124Y0084437D01*
X0282164Y0084475D01*
X0282207Y0084510D01*
X0282252Y0084542D01*
X0282300Y0084571D01*
X0282349Y0084597D01*
X0282400Y0084619D01*
X0282452Y0084637D01*
X0282506Y0084651D01*
X0282561Y0084662D01*
X0282616Y0084669D01*
X0282671Y0084672D01*
X0282727Y0084671D01*
X0282782Y0084666D01*
X0282837Y0084657D01*
X0282891Y0084645D01*
X0282944Y0084628D01*
X0282996Y0084608D01*
X0283046Y0084584D01*
X0283094Y0084557D01*
X0283141Y0084527D01*
X0283185Y0084493D01*
X0283227Y0084456D01*
X0283265Y0084416D01*
X0283302Y0084374D01*
X0283335Y0084329D01*
X0283364Y0084283D01*
X0283391Y0084234D01*
X0283413Y0084183D01*
X0283433Y0084131D01*
X0283448Y0084077D01*
X0283460Y0084023D01*
X0283468Y0083968D01*
X0283472Y0083913D01*
X0283472Y0083857D01*
X0283468Y0083802D01*
X0283460Y0083747D01*
X0283448Y0083693D01*
X0283433Y0083639D01*
X0283413Y0083587D01*
X0283391Y0083536D01*
X0283364Y0083487D01*
X0283335Y0083441D01*
X0283302Y0083396D01*
X0283265Y0083354D01*
X0283227Y0083314D01*
X0283185Y0083277D01*
X0283141Y0083243D01*
X0283094Y0083213D01*
X0283046Y0083186D01*
X0282996Y0083162D01*
X0282944Y0083142D01*
X0282891Y0083125D01*
X0282837Y0083113D01*
X0282782Y0083104D01*
X0282727Y0083099D01*
X0282671Y0083098D01*
X0282616Y0083101D01*
X0282561Y0083108D01*
X0282506Y0083119D01*
X0282452Y0083133D01*
X0282400Y0083151D01*
X0282349Y0083173D01*
X0282300Y0083199D01*
X0282252Y0083228D01*
X0282207Y0083260D01*
X0282164Y0083295D01*
X0282124Y0083333D01*
X0282086Y0083374D01*
X0282052Y0083418D01*
X0282020Y0083464D01*
X0281992Y0083512D01*
X0281968Y0083562D01*
X0281947Y0083613D01*
X0281929Y0083666D01*
X0281916Y0083720D01*
X0281906Y0083774D01*
X0281900Y0083829D01*
X0281898Y0083885D01*
D25*
X0286697Y0089794D02*
X0290697Y0089794D01*
X0299000Y0076852D02*
X0299000Y0073728D01*
X0300562Y0075290D02*
X0297437Y0075290D01*
X0291500Y0074790D02*
X0287500Y0074790D01*
X0271000Y0072790D02*
X0267000Y0072790D01*
X0264000Y0074790D02*
X0260000Y0074790D01*
X0251500Y0070290D02*
X0251500Y0066290D01*
X0249870Y0085786D02*
X0253870Y0085786D01*
X0286626Y0104030D02*
X0290626Y0104030D01*
X0290500Y0118290D02*
X0286500Y0118290D01*
X0299000Y0117728D02*
X0299000Y0120852D01*
X0294500Y0129790D02*
X0294500Y0133790D01*
X0308000Y0132290D02*
X0308000Y0136290D01*
X0253500Y0117790D02*
X0253500Y0113790D01*
X0240874Y0121235D02*
X0236874Y0121235D01*
D26*
X0198075Y0050790D03*
M02*
