%
M48
M72
T01C0.01378
T02C0.01550
T03C0.01575
T04C0.01969
T05C0.02362
T06C0.03200
T07C0.03740
T08C0.03937
T09C0.04000
T10C0.09055
T11C0.09843
%
T01
X228800Y75790
X175000Y118090
T02
X260000Y84290
X239900Y73890
X294000Y126290
T03
X275598Y94515
X272055Y90971
X268512Y87428
X275598Y87428
X268512Y94515
T04
X216000Y80790
X205000Y91290
X205000Y96290
X188000Y103790
X185000Y106790
X188000Y109790
X191000Y106790
X199500Y114290
X204500Y108790
X171500Y110290
X148000Y113890
X163500Y89790
X171500Y87790
X167500Y79790
X170500Y71290
X195500Y83790
X181500Y50790
X111500Y50790
X62500Y79790
X66500Y87790
X58500Y89790
X83000Y103790
X80000Y106790
X83000Y109790
X86000Y106790
X94500Y114290
X99500Y108790
X100500Y101290
X100000Y96290
X100000Y91290
X90500Y83790
X111000Y80790
X66500Y110290
X71400Y119490
X50500Y121790
X49500Y134790
X161500Y138490
T05
X147500Y65790
X42500Y65790
T06
X37700Y76790
X24500Y76790
X24500Y116790
X37700Y116790
X129500Y116790
X142900Y116790
X142900Y76790
X129500Y76790
T07
X299331Y83261
X299331Y93103
X299331Y100977
X299331Y110820
T08
X310000Y104127
X310000Y90347
X292000Y35790
X282000Y35790
X272000Y35790
X262000Y35790
X252000Y35790
X242000Y35790
X232000Y35790
X222000Y35790
X71303Y144963
X57524Y144963
T09
X102000Y141790
X122000Y141790
X177000Y141790
X197000Y141790
T10
X310000Y122906
X310000Y71174
T11
X16500Y45790
X16500Y150790
X311500Y150790
X311500Y45790
M30
