G75*
%MOIN*%
%OFA0B0*%
%FSLAX25Y25*%
%IPPOS*%
%LPD*%
%AMOC8*
5,1,8,0,0,1.08239X$1,22.5*
%
%ADD10R,0.03374X0.01602*%
%ADD11R,0.01602X0.03374*%
%ADD12R,0.10343X0.10343*%
%ADD13R,0.04831X0.06012*%
%ADD14R,0.05224X0.05224*%
%ADD15R,0.06012X0.04831*%
%ADD16R,0.04437X0.18610*%
%ADD17R,0.06799X0.13886*%
%ADD18OC8,0.07100*%
%ADD19R,0.06299X0.05512*%
%ADD20C,0.10500*%
%ADD21OC8,0.10500*%
%ADD22R,0.06012X0.06012*%
%ADD23R,0.06799X0.05618*%
%ADD24C,0.00500*%
%ADD25C,0.14343*%
%ADD26R,0.11130X0.11130*%
%ADD27C,0.01878*%
%ADD28C,0.03475*%
%ADD29R,0.08374X0.20185*%
%ADD30R,0.05618X0.06406*%
%ADD31R,0.06406X0.05618*%
%ADD32C,0.09100*%
%ADD33C,0.06110*%
%ADD34C,0.13555*%
%ADD35R,0.05224X0.06406*%
%ADD36R,0.05224X0.05618*%
%ADD37R,0.04437X0.06012*%
%ADD38R,0.11130X0.06799*%
%ADD39C,0.07100*%
%ADD40C,0.03869*%
%ADD41C,0.04262*%
%ADD42C,0.03450*%
%ADD43C,0.03278*%
%ADD44C,0.04634*%
D10*
X0075264Y0102853D03*
X0075264Y0104822D03*
X0075264Y0106790D03*
X0075264Y0108759D03*
X0075264Y0110727D03*
X0090736Y0110727D03*
X0090736Y0108759D03*
X0090736Y0106790D03*
X0090736Y0104822D03*
X0090736Y0102853D03*
X0180264Y0102853D03*
X0180264Y0104822D03*
X0180264Y0106790D03*
X0180264Y0108759D03*
X0180264Y0110727D03*
X0195736Y0110727D03*
X0195736Y0108759D03*
X0195736Y0106790D03*
X0195736Y0104822D03*
X0195736Y0102853D03*
D11*
X0191937Y0099054D03*
X0189969Y0099054D03*
X0188000Y0099054D03*
X0186031Y0099054D03*
X0184063Y0099054D03*
X0184063Y0114526D03*
X0186031Y0114526D03*
X0188000Y0114526D03*
X0189969Y0114526D03*
X0191937Y0114526D03*
X0086937Y0114526D03*
X0084969Y0114526D03*
X0083000Y0114526D03*
X0081031Y0114526D03*
X0079063Y0114526D03*
X0079063Y0099054D03*
X0081031Y0099054D03*
X0083000Y0099054D03*
X0084969Y0099054D03*
X0086937Y0099054D03*
D12*
X0083000Y0106790D03*
X0188000Y0106790D03*
D13*
X0190185Y0080601D03*
X0182311Y0080601D03*
X0200874Y0080601D03*
X0208748Y0080601D03*
X0160937Y0079790D03*
X0153063Y0079790D03*
X0103748Y0080601D03*
X0095874Y0080601D03*
X0085185Y0080601D03*
X0077311Y0080601D03*
X0055937Y0079790D03*
X0048063Y0079790D03*
X0047126Y0127034D03*
X0055000Y0127034D03*
D14*
X0040197Y0138534D03*
X0031929Y0138534D03*
X0146929Y0138490D03*
X0155197Y0138490D03*
X0182000Y0067424D03*
X0182000Y0059156D03*
X0211000Y0059156D03*
X0211000Y0067424D03*
X0293134Y0062916D03*
X0301402Y0062916D03*
X0106000Y0059156D03*
X0106000Y0067424D03*
X0077000Y0067424D03*
X0077000Y0059156D03*
D15*
X0086000Y0059353D03*
X0096000Y0059353D03*
X0096000Y0067227D03*
X0086000Y0067227D03*
X0112100Y0044127D03*
X0112100Y0036253D03*
X0191000Y0059353D03*
X0201000Y0059353D03*
X0201000Y0067227D03*
X0191000Y0067227D03*
X0229700Y0085053D03*
X0229700Y0092927D03*
X0213500Y0093664D03*
X0213500Y0101538D03*
X0165500Y0104349D03*
X0165500Y0096475D03*
X0108500Y0093664D03*
X0108500Y0101538D03*
X0060500Y0104349D03*
X0060500Y0096475D03*
X0139044Y0130790D03*
X0139044Y0138664D03*
D16*
X0152563Y0064357D03*
X0160437Y0064357D03*
X0055437Y0064357D03*
X0047563Y0064357D03*
D17*
X0038114Y0043885D03*
X0064886Y0043885D03*
X0143114Y0043885D03*
X0169886Y0043885D03*
D18*
X0142900Y0076790D03*
X0129500Y0076790D03*
X0129500Y0116790D03*
X0142900Y0116790D03*
X0037700Y0116790D03*
X0024500Y0116790D03*
X0024500Y0076790D03*
X0037700Y0076790D03*
D19*
X0037700Y0092753D03*
X0024500Y0092753D03*
X0024500Y0100827D03*
X0037700Y0100827D03*
X0129500Y0100827D03*
X0142900Y0100827D03*
X0142900Y0092753D03*
X0129500Y0092753D03*
D20*
X0102000Y0141790D03*
X0177000Y0141790D03*
D21*
X0197000Y0141790D03*
X0122000Y0141790D03*
D22*
X0087500Y0138574D03*
X0087500Y0124007D03*
X0228800Y0065374D03*
X0228800Y0050807D03*
X0203783Y0050790D03*
X0189217Y0050790D03*
D23*
X0155500Y0089050D03*
X0155500Y0096530D03*
X0155500Y0106450D03*
X0155500Y0113930D03*
X0050500Y0115530D03*
X0050500Y0108050D03*
X0050500Y0096530D03*
X0050500Y0089050D03*
D24*
X0029031Y0063806D02*
X0028469Y0064200D01*
X0027847Y0064490D01*
X0027184Y0064667D01*
X0026500Y0064727D01*
X0025816Y0064667D01*
X0025153Y0064490D01*
X0024531Y0064200D01*
X0023969Y0063806D01*
X0023484Y0063321D01*
X0023090Y0062759D01*
X0022800Y0062137D01*
X0022623Y0061474D01*
X0022563Y0060790D01*
X0022623Y0060107D01*
X0022800Y0059444D01*
X0023090Y0058822D01*
X0023484Y0058260D01*
X0023969Y0057774D01*
X0024531Y0057381D01*
X0025153Y0057091D01*
X0025816Y0056913D01*
X0026500Y0056853D01*
X0027184Y0056913D01*
X0027847Y0057091D01*
X0028469Y0057381D01*
X0029031Y0057774D01*
X0029516Y0058260D01*
X0029910Y0058822D01*
X0030200Y0059444D01*
X0030377Y0060107D01*
X0030437Y0060790D01*
X0030377Y0061474D01*
X0030200Y0062137D01*
X0029910Y0062759D01*
X0029516Y0063321D01*
X0029031Y0063806D01*
X0029145Y0063692D02*
X0023855Y0063692D01*
X0023395Y0063194D02*
X0029605Y0063194D01*
X0029939Y0062695D02*
X0023061Y0062695D01*
X0022828Y0062196D02*
X0030172Y0062196D01*
X0030317Y0061698D02*
X0022683Y0061698D01*
X0022599Y0061199D02*
X0030401Y0061199D01*
X0030429Y0060701D02*
X0022571Y0060701D01*
X0022614Y0060202D02*
X0030386Y0060202D01*
X0030269Y0059704D02*
X0022731Y0059704D01*
X0022912Y0059205D02*
X0030088Y0059205D01*
X0029829Y0058707D02*
X0023171Y0058707D01*
X0023535Y0058208D02*
X0029465Y0058208D01*
X0028939Y0057710D02*
X0024061Y0057710D01*
X0024895Y0057211D02*
X0028105Y0057211D01*
X0028482Y0064191D02*
X0024518Y0064191D01*
X0026063Y0064689D02*
X0026937Y0064689D01*
X0282800Y0153444D02*
X0283090Y0152822D01*
X0283484Y0152260D01*
X0283969Y0151774D01*
X0284531Y0151381D01*
X0285153Y0151091D01*
X0285816Y0150913D01*
X0286500Y0150853D01*
X0287184Y0150913D01*
X0287847Y0151091D01*
X0288469Y0151381D01*
X0289031Y0151774D01*
X0289516Y0152260D01*
X0289910Y0152822D01*
X0290200Y0153444D01*
X0290377Y0154107D01*
X0290437Y0154790D01*
X0290377Y0155474D01*
X0290200Y0156137D01*
X0289910Y0156759D01*
X0289516Y0157321D01*
X0289031Y0157806D01*
X0288469Y0158200D01*
X0287847Y0158490D01*
X0287184Y0158667D01*
X0286500Y0158727D01*
X0285816Y0158667D01*
X0285153Y0158490D01*
X0284531Y0158200D01*
X0283969Y0157806D01*
X0283484Y0157321D01*
X0283090Y0156759D01*
X0282800Y0156137D01*
X0282623Y0155474D01*
X0282563Y0154790D01*
X0282623Y0154107D01*
X0282800Y0153444D01*
X0282810Y0153424D02*
X0290190Y0153424D01*
X0290328Y0153923D02*
X0282672Y0153923D01*
X0282595Y0154421D02*
X0290405Y0154421D01*
X0290426Y0154920D02*
X0282574Y0154920D01*
X0282618Y0155418D02*
X0290382Y0155418D01*
X0290259Y0155917D02*
X0282741Y0155917D01*
X0282930Y0156415D02*
X0290070Y0156415D01*
X0289801Y0156914D02*
X0283199Y0156914D01*
X0283575Y0157412D02*
X0289425Y0157412D01*
X0288881Y0157911D02*
X0284119Y0157911D01*
X0284980Y0158409D02*
X0288020Y0158409D01*
X0289958Y0152926D02*
X0283042Y0152926D01*
X0283367Y0152427D02*
X0289633Y0152427D01*
X0289185Y0151929D02*
X0283815Y0151929D01*
X0284461Y0151430D02*
X0288539Y0151430D01*
X0287252Y0150931D02*
X0285748Y0150931D01*
D25*
X0311500Y0150790D03*
X0311500Y0045790D03*
X0016500Y0045790D03*
X0016500Y0150790D03*
D26*
X0272055Y0090971D03*
D27*
X0265165Y0089692D02*
X0262409Y0089692D01*
X0262409Y0087133D02*
X0265165Y0087133D01*
X0265165Y0092251D02*
X0262409Y0092251D01*
X0262409Y0094810D02*
X0265165Y0094810D01*
X0268217Y0097861D02*
X0268217Y0100617D01*
X0270776Y0100617D02*
X0270776Y0097861D01*
X0273335Y0097861D02*
X0273335Y0100617D01*
X0275894Y0100617D02*
X0275894Y0097861D01*
X0278945Y0094810D02*
X0281701Y0094810D01*
X0281701Y0092251D02*
X0278945Y0092251D01*
X0278945Y0089692D02*
X0281701Y0089692D01*
X0281701Y0087133D02*
X0278945Y0087133D01*
X0275894Y0084082D02*
X0275894Y0081326D01*
X0273335Y0081326D02*
X0273335Y0084082D01*
X0270776Y0084082D02*
X0270776Y0081326D01*
X0268217Y0081326D02*
X0268217Y0084082D01*
D28*
X0268512Y0087428D03*
X0272055Y0090971D03*
X0275598Y0087428D03*
X0275598Y0094515D03*
X0268512Y0094515D03*
D29*
X0266272Y0113404D03*
X0278870Y0113404D03*
D30*
X0257240Y0115790D03*
X0249760Y0115790D03*
X0290760Y0131790D03*
X0298240Y0131790D03*
X0304260Y0134290D03*
X0311740Y0134290D03*
D31*
X0288500Y0122030D03*
X0288500Y0114550D03*
X0288626Y0107771D03*
X0288626Y0100290D03*
X0288697Y0093534D03*
X0288697Y0086054D03*
X0289500Y0078530D03*
X0289500Y0071050D03*
X0269000Y0069050D03*
X0262000Y0071050D03*
X0269000Y0076530D03*
X0262000Y0078530D03*
X0251870Y0082046D03*
X0251870Y0089526D03*
X0238874Y0117495D03*
X0238874Y0124975D03*
D32*
X0310000Y0104127D03*
X0310000Y0090347D03*
X0071303Y0144963D03*
X0057524Y0144963D03*
D33*
X0296526Y0110820D02*
X0302136Y0110820D01*
X0302136Y0100977D02*
X0296526Y0100977D01*
X0296526Y0093103D02*
X0302136Y0093103D01*
X0302136Y0083261D02*
X0296526Y0083261D01*
D34*
X0310000Y0071174D03*
X0310000Y0122906D03*
D35*
X0255634Y0068290D03*
X0247366Y0068290D03*
D36*
X0249500Y0100790D03*
X0257500Y0100790D03*
X0257500Y0108290D03*
X0249500Y0108290D03*
D37*
X0238340Y0102066D03*
X0230860Y0102066D03*
X0234600Y0111515D03*
D38*
X0279500Y0076302D03*
X0279500Y0065278D03*
D39*
X0282000Y0035790D03*
X0272000Y0035790D03*
X0262000Y0035790D03*
X0252000Y0035790D03*
X0242000Y0035790D03*
X0232000Y0035790D03*
X0222000Y0035790D03*
X0292000Y0035790D03*
D40*
X0216000Y0080790D03*
X0205000Y0091290D03*
X0205000Y0096290D03*
X0188000Y0103790D03*
X0185000Y0106790D03*
X0188000Y0109790D03*
X0191000Y0106790D03*
X0199500Y0114290D03*
X0204500Y0108790D03*
X0171500Y0110290D03*
X0148000Y0113890D03*
X0163500Y0089790D03*
X0171500Y0087790D03*
X0167500Y0079790D03*
X0170500Y0071290D03*
X0195500Y0083790D03*
X0181500Y0050790D03*
X0111500Y0050790D03*
X0062500Y0079790D03*
X0066500Y0087790D03*
X0058500Y0089790D03*
X0083000Y0103790D03*
X0080000Y0106790D03*
X0083000Y0109790D03*
X0086000Y0106790D03*
X0094500Y0114290D03*
X0099500Y0108790D03*
X0100500Y0101290D03*
X0100000Y0096290D03*
X0100000Y0091290D03*
X0090500Y0083790D03*
X0111000Y0080790D03*
X0066500Y0110290D03*
X0071400Y0119490D03*
X0050500Y0121790D03*
X0049500Y0134790D03*
X0161500Y0138490D03*
D41*
X0147500Y0065790D03*
X0042500Y0065790D03*
D42*
X0239900Y0073890D03*
X0260000Y0084290D03*
X0294000Y0126290D03*
D43*
X0175000Y0118090D03*
D44*
X0228800Y0075790D03*
M02*
