G75*
%MOIN*%
%OFA0B0*%
%FSLAX25Y25*%
%IPPOS*%
%LPD*%
%AMOC8*
5,1,8,0,0,1.08239X$1,22.5*
%
%ADD10R,0.02874X0.01102*%
%ADD11R,0.01102X0.02874*%
%ADD12R,0.02953X0.02953*%
%ADD13R,0.04331X0.05512*%
%ADD14R,0.04724X0.04724*%
%ADD15R,0.05512X0.04331*%
%ADD16R,0.03937X0.18110*%
%ADD17R,0.06299X0.13386*%
%ADD18R,0.05512X0.04724*%
%ADD19R,0.07874X0.09449*%
%ADD20R,0.01969X0.09087*%
%ADD21R,0.10000X0.15000*%
%ADD22R,0.05512X0.05512*%
%ADD23R,0.06299X0.05118*%
%ADD24C,0.01378*%
%ADD25R,0.02362X0.02756*%
%ADD26R,0.02756X0.02362*%
%ADD27R,0.07874X0.19685*%
%ADD28R,0.05118X0.05906*%
%ADD29R,0.05906X0.05118*%
%ADD30R,0.04724X0.05906*%
%ADD31R,0.04724X0.05118*%
%ADD32R,0.03937X0.05512*%
%ADD33R,0.10630X0.06299*%
%ADD34R,0.05315X0.01575*%
%ADD35R,0.07874X0.03937*%
%ADD36R,0.09843X0.09843*%
%ADD37C,0.00500*%
D10*
X0075264Y0102853D03*
X0075264Y0104822D03*
X0075264Y0106790D03*
X0075264Y0108759D03*
X0075264Y0110727D03*
X0090736Y0110727D03*
X0090736Y0108759D03*
X0090736Y0106790D03*
X0090736Y0104822D03*
X0090736Y0102853D03*
X0240264Y0102853D03*
X0240264Y0104822D03*
X0240264Y0106790D03*
X0240264Y0108759D03*
X0240264Y0110727D03*
X0255736Y0110727D03*
X0255736Y0108759D03*
X0255736Y0106790D03*
X0255736Y0104822D03*
X0255736Y0102853D03*
D11*
X0251937Y0099054D03*
X0249969Y0099054D03*
X0248000Y0099054D03*
X0246031Y0099054D03*
X0244063Y0099054D03*
X0244063Y0114526D03*
X0246031Y0114526D03*
X0248000Y0114526D03*
X0249969Y0114526D03*
X0251937Y0114526D03*
X0086937Y0114526D03*
X0084969Y0114526D03*
X0083000Y0114526D03*
X0081031Y0114526D03*
X0079063Y0114526D03*
X0079063Y0099054D03*
X0081031Y0099054D03*
X0083000Y0099054D03*
X0084969Y0099054D03*
X0086937Y0099054D03*
D12*
X0085461Y0104330D03*
X0080539Y0104330D03*
X0080539Y0109251D03*
X0085461Y0109251D03*
X0245539Y0109251D03*
X0245539Y0104330D03*
X0250461Y0104330D03*
X0250461Y0109251D03*
D13*
X0220000Y0127034D03*
X0212126Y0127034D03*
X0213063Y0079790D03*
X0220937Y0079790D03*
X0242311Y0080601D03*
X0250185Y0080601D03*
X0260874Y0080601D03*
X0268748Y0080601D03*
X0287563Y0079790D03*
X0295437Y0079790D03*
X0130437Y0079790D03*
X0122563Y0079790D03*
X0103748Y0080601D03*
X0095874Y0080601D03*
X0085185Y0080601D03*
X0077311Y0080601D03*
X0055937Y0079790D03*
X0048063Y0079790D03*
X0084063Y0124790D03*
X0091937Y0124790D03*
X0055000Y0127034D03*
X0047126Y0127034D03*
D14*
X0040197Y0138534D03*
X0031929Y0138534D03*
X0077000Y0067424D03*
X0077000Y0059156D03*
X0106000Y0059156D03*
X0106000Y0067424D03*
X0196929Y0138534D03*
X0205197Y0138534D03*
X0242000Y0067424D03*
X0242000Y0059156D03*
X0271000Y0059156D03*
X0271000Y0067424D03*
X0315134Y0151916D03*
X0323402Y0151916D03*
D15*
X0273500Y0101538D03*
X0273500Y0093664D03*
X0261000Y0067227D03*
X0261000Y0059353D03*
X0251000Y0059353D03*
X0251000Y0067227D03*
X0225500Y0096475D03*
X0225500Y0104349D03*
X0108500Y0101538D03*
X0108500Y0093664D03*
X0096000Y0067227D03*
X0096000Y0059353D03*
X0086000Y0059353D03*
X0086000Y0067227D03*
X0060500Y0096475D03*
X0060500Y0104349D03*
D16*
X0055437Y0064357D03*
X0047563Y0064357D03*
X0127563Y0064357D03*
X0135437Y0064357D03*
X0212563Y0064357D03*
X0220437Y0064357D03*
X0292563Y0064357D03*
X0300437Y0064357D03*
D17*
X0038114Y0043885D03*
X0064886Y0043885D03*
X0118114Y0043885D03*
X0144886Y0043885D03*
X0203114Y0043885D03*
X0229886Y0043885D03*
X0283114Y0043885D03*
X0309886Y0043885D03*
D18*
X0205500Y0102753D03*
X0205500Y0110827D03*
X0189500Y0110827D03*
X0189500Y0102753D03*
X0040500Y0102753D03*
X0040500Y0110827D03*
X0024500Y0110827D03*
X0024500Y0102753D03*
D19*
X0061677Y0136011D03*
X0096323Y0136011D03*
X0107240Y0133117D03*
X0107240Y0157526D03*
X0150547Y0157526D03*
X0150547Y0133117D03*
D20*
X0085299Y0133790D03*
X0082150Y0133790D03*
X0079000Y0133790D03*
X0075850Y0133790D03*
X0072701Y0133790D03*
D21*
X0061677Y0157664D03*
X0096323Y0157664D03*
D22*
X0107500Y0123574D03*
X0107500Y0109007D03*
X0164217Y0125790D03*
X0178783Y0125790D03*
D23*
X0215500Y0115530D03*
X0215500Y0108050D03*
X0215500Y0096530D03*
X0215500Y0089050D03*
X0050500Y0089050D03*
X0050500Y0096530D03*
X0050500Y0108050D03*
X0050500Y0115530D03*
D24*
X0272409Y0182133D02*
X0275165Y0182133D01*
X0275165Y0184692D02*
X0272409Y0184692D01*
X0272409Y0187251D02*
X0275165Y0187251D01*
X0275165Y0189810D02*
X0272409Y0189810D01*
X0278217Y0192861D02*
X0278217Y0195617D01*
X0280776Y0195617D02*
X0280776Y0192861D01*
X0283335Y0192861D02*
X0283335Y0195617D01*
X0285894Y0195617D02*
X0285894Y0192861D01*
X0288945Y0189810D02*
X0291701Y0189810D01*
X0291701Y0187251D02*
X0288945Y0187251D01*
X0288945Y0184692D02*
X0291701Y0184692D01*
X0291701Y0182133D02*
X0288945Y0182133D01*
X0285894Y0179082D02*
X0285894Y0176326D01*
X0283335Y0176326D02*
X0283335Y0179082D01*
X0280776Y0179082D02*
X0280776Y0176326D01*
X0278217Y0176326D02*
X0278217Y0179082D01*
D25*
X0282055Y0182231D03*
X0282055Y0189712D03*
D26*
X0285795Y0185971D03*
X0278315Y0185971D03*
D27*
X0276272Y0208404D03*
X0288870Y0208404D03*
D28*
X0267240Y0210790D03*
X0259760Y0210790D03*
X0300760Y0226790D03*
X0308240Y0226790D03*
X0314260Y0229290D03*
X0321740Y0229290D03*
D29*
X0298500Y0217030D03*
X0298500Y0209550D03*
X0298626Y0202771D03*
X0298626Y0195290D03*
X0298697Y0188534D03*
X0298697Y0181054D03*
X0299500Y0173530D03*
X0299500Y0166050D03*
X0279000Y0164050D03*
X0272000Y0166050D03*
X0279000Y0171530D03*
X0272000Y0173530D03*
X0261870Y0177046D03*
X0261870Y0184526D03*
X0248874Y0207495D03*
X0248874Y0214975D03*
X0214500Y0200530D03*
X0214500Y0193050D03*
D30*
X0257366Y0163290D03*
X0265634Y0163290D03*
D31*
X0267500Y0195790D03*
X0259500Y0195790D03*
X0259500Y0203290D03*
X0267500Y0203290D03*
D32*
X0248300Y0171515D03*
X0244560Y0162066D03*
X0252040Y0162066D03*
D33*
X0289500Y0160278D03*
X0289500Y0171302D03*
D34*
X0206551Y0185672D03*
X0206551Y0188231D03*
X0206551Y0190790D03*
X0206551Y0193349D03*
X0206551Y0195908D03*
D35*
X0195626Y0193743D03*
X0195626Y0187838D03*
D36*
X0196020Y0176617D03*
X0196020Y0204963D03*
D37*
X0204878Y0204771D02*
X0209209Y0204771D01*
X0209209Y0205269D02*
X0204878Y0205269D01*
X0204878Y0205768D02*
X0209209Y0205768D01*
X0209209Y0206266D02*
X0204878Y0206266D01*
X0204878Y0206765D02*
X0209209Y0206765D01*
X0209209Y0207263D02*
X0204878Y0207263D01*
X0204878Y0207762D02*
X0209209Y0207762D01*
X0209209Y0208260D02*
X0204878Y0208260D01*
X0204878Y0208310D02*
X0204878Y0203979D01*
X0204902Y0203536D01*
X0205013Y0203105D01*
X0205205Y0202705D01*
X0205471Y0202350D01*
X0205802Y0202053D01*
X0206184Y0201827D01*
X0206604Y0201680D01*
X0207043Y0201617D01*
X0207545Y0201696D01*
X0208016Y0201884D01*
X0208433Y0202172D01*
X0208776Y0202546D01*
X0209027Y0202987D01*
X0209174Y0203473D01*
X0209209Y0203979D01*
X0209209Y0208310D01*
X0209184Y0208753D01*
X0209074Y0209184D01*
X0208882Y0209584D01*
X0208615Y0209940D01*
X0208284Y0210236D01*
X0207902Y0210462D01*
X0207483Y0210609D01*
X0207043Y0210672D01*
X0206604Y0210609D01*
X0206184Y0210462D01*
X0205802Y0210236D01*
X0205471Y0209940D01*
X0205205Y0209584D01*
X0205013Y0209184D01*
X0204902Y0208753D01*
X0204878Y0208310D01*
X0204904Y0208759D02*
X0209183Y0208759D01*
X0209039Y0209257D02*
X0205048Y0209257D01*
X0205334Y0209756D02*
X0208753Y0209756D01*
X0208253Y0210254D02*
X0205833Y0210254D01*
X0204878Y0204272D02*
X0209209Y0204272D01*
X0209195Y0203774D02*
X0204889Y0203774D01*
X0204969Y0203275D02*
X0209114Y0203275D01*
X0208907Y0202777D02*
X0205170Y0202777D01*
X0205551Y0202278D02*
X0208530Y0202278D01*
X0207755Y0201780D02*
X0206319Y0201780D01*
X0207043Y0179963D02*
X0207483Y0179901D01*
X0207902Y0179754D01*
X0208284Y0179527D01*
X0208615Y0179231D01*
X0208882Y0178876D01*
X0209074Y0178475D01*
X0209184Y0178045D01*
X0209209Y0177601D01*
X0209209Y0173271D01*
X0209174Y0172764D01*
X0209027Y0172279D01*
X0208776Y0171838D01*
X0208433Y0171464D01*
X0208016Y0171175D01*
X0207545Y0170987D01*
X0207043Y0170908D01*
X0206604Y0170971D01*
X0206184Y0171118D01*
X0205802Y0171345D01*
X0205471Y0171641D01*
X0205205Y0171996D01*
X0205013Y0172397D01*
X0204902Y0172827D01*
X0204878Y0173271D01*
X0204878Y0177601D01*
X0204902Y0178045D01*
X0205013Y0178475D01*
X0205205Y0178876D01*
X0205471Y0179231D01*
X0205802Y0179527D01*
X0206184Y0179754D01*
X0206604Y0179901D01*
X0207043Y0179963D01*
X0206445Y0179845D02*
X0207641Y0179845D01*
X0208486Y0179347D02*
X0205601Y0179347D01*
X0205192Y0178848D02*
X0208895Y0178848D01*
X0209106Y0178350D02*
X0204980Y0178350D01*
X0204892Y0177851D02*
X0209195Y0177851D01*
X0209209Y0177353D02*
X0204878Y0177353D01*
X0204878Y0176854D02*
X0209209Y0176854D01*
X0209209Y0176356D02*
X0204878Y0176356D01*
X0204878Y0175857D02*
X0209209Y0175857D01*
X0209209Y0175359D02*
X0204878Y0175359D01*
X0204878Y0174860D02*
X0209209Y0174860D01*
X0209209Y0174362D02*
X0204878Y0174362D01*
X0204878Y0173863D02*
X0209209Y0173863D01*
X0209209Y0173365D02*
X0204878Y0173365D01*
X0204900Y0172866D02*
X0209181Y0172866D01*
X0209054Y0172367D02*
X0205027Y0172367D01*
X0205300Y0171869D02*
X0208794Y0171869D01*
X0208298Y0171370D02*
X0205773Y0171370D01*
M02*
