G75*
%MOIN*%
%OFA0B0*%
%FSLAX25Y25*%
%IPPOS*%
%LPD*%
%AMOC8*
5,1,8,0,0,1.08239X$1,22.5*
%
%ADD10C,0.00600*%
D10*
X0023311Y0030790D02*
X0309854Y0030790D01*
X0309855Y0030790D02*
X0310259Y0030797D01*
X0310663Y0030814D01*
X0311066Y0030840D01*
X0311469Y0030876D01*
X0311871Y0030922D01*
X0312271Y0030978D01*
X0312670Y0031043D01*
X0313067Y0031118D01*
X0313463Y0031202D01*
X0313856Y0031296D01*
X0314247Y0031400D01*
X0314635Y0031512D01*
X0315020Y0031635D01*
X0315402Y0031766D01*
X0315781Y0031907D01*
X0316157Y0032056D01*
X0316529Y0032215D01*
X0316897Y0032383D01*
X0317260Y0032559D01*
X0317619Y0032745D01*
X0317974Y0032939D01*
X0318324Y0033141D01*
X0318669Y0033352D01*
X0319009Y0033571D01*
X0319343Y0033798D01*
X0319672Y0034034D01*
X0319995Y0034277D01*
X0320312Y0034528D01*
X0320623Y0034786D01*
X0320927Y0035052D01*
X0321225Y0035325D01*
X0321516Y0035606D01*
X0321801Y0035893D01*
X0322078Y0036187D01*
X0322349Y0036488D01*
X0322611Y0036795D01*
X0322867Y0037108D01*
X0323115Y0037428D01*
X0323354Y0037753D01*
X0323586Y0038084D01*
X0323810Y0038421D01*
X0324026Y0038762D01*
X0324234Y0039109D01*
X0324433Y0039461D01*
X0324623Y0039818D01*
X0324805Y0040179D01*
X0324978Y0040544D01*
X0325142Y0040914D01*
X0325297Y0041287D01*
X0325443Y0041664D01*
X0325580Y0042045D01*
X0325708Y0042428D01*
X0325826Y0042815D01*
X0325935Y0043204D01*
X0326034Y0043596D01*
X0326125Y0043990D01*
X0326205Y0044386D01*
X0326276Y0044784D01*
X0326337Y0045184D01*
X0326389Y0045585D01*
X0326431Y0045987D01*
X0326463Y0046390D01*
X0326485Y0046793D01*
X0326498Y0047197D01*
X0326501Y0047602D01*
X0326500Y0047601D02*
X0326665Y0144086D01*
X0326665Y0144085D02*
X0326657Y0144619D01*
X0326636Y0145153D01*
X0326602Y0145686D01*
X0326555Y0146218D01*
X0326495Y0146748D01*
X0326422Y0147277D01*
X0326336Y0147804D01*
X0326236Y0148329D01*
X0326125Y0148851D01*
X0326000Y0149370D01*
X0325863Y0149886D01*
X0325713Y0150399D01*
X0325550Y0150908D01*
X0325375Y0151412D01*
X0325188Y0151912D01*
X0324988Y0152408D01*
X0324777Y0152898D01*
X0324553Y0153383D01*
X0324318Y0153862D01*
X0324071Y0154335D01*
X0323812Y0154803D01*
X0323542Y0155263D01*
X0323261Y0155717D01*
X0322969Y0156164D01*
X0322665Y0156604D01*
X0322351Y0157036D01*
X0322027Y0157460D01*
X0321692Y0157876D01*
X0321348Y0158284D01*
X0320993Y0158683D01*
X0320628Y0159073D01*
X0320255Y0159455D01*
X0319871Y0159827D01*
X0319479Y0160189D01*
X0319078Y0160542D01*
X0318669Y0160885D01*
X0318251Y0161217D01*
X0317825Y0161540D01*
X0317392Y0161852D01*
X0316951Y0162153D01*
X0316503Y0162443D01*
X0316047Y0162722D01*
X0315585Y0162989D01*
X0315117Y0163246D01*
X0314642Y0163491D01*
X0314162Y0163724D01*
X0313676Y0163945D01*
X0313184Y0164154D01*
X0312688Y0164351D01*
X0312187Y0164536D01*
X0311682Y0164708D01*
X0311172Y0164868D01*
X0310659Y0165016D01*
X0310142Y0165151D01*
X0309622Y0165273D01*
X0309100Y0165382D01*
X0308574Y0165479D01*
X0308047Y0165562D01*
X0307518Y0165633D01*
X0306987Y0165690D01*
X0306455Y0165735D01*
X0305922Y0165766D01*
X0305388Y0165785D01*
X0304854Y0165790D01*
X0018311Y0165790D01*
X0017900Y0165786D01*
X0017489Y0165772D01*
X0017078Y0165748D01*
X0016668Y0165714D01*
X0016259Y0165670D01*
X0015852Y0165616D01*
X0015445Y0165552D01*
X0015041Y0165478D01*
X0014638Y0165394D01*
X0014238Y0165301D01*
X0013840Y0165197D01*
X0013444Y0165084D01*
X0013052Y0164961D01*
X0012662Y0164828D01*
X0012276Y0164686D01*
X0011894Y0164535D01*
X0011516Y0164374D01*
X0011141Y0164204D01*
X0010771Y0164024D01*
X0010405Y0163836D01*
X0010044Y0163639D01*
X0009688Y0163433D01*
X0009337Y0163218D01*
X0008992Y0162995D01*
X0008652Y0162764D01*
X0008318Y0162524D01*
X0007990Y0162276D01*
X0007668Y0162020D01*
X0007352Y0161756D01*
X0007043Y0161484D01*
X0006741Y0161206D01*
X0006446Y0160919D01*
X0006158Y0160626D01*
X0005877Y0160325D01*
X0005603Y0160018D01*
X0005338Y0159704D01*
X0005080Y0159384D01*
X0004830Y0159057D01*
X0004588Y0158725D01*
X0004354Y0158386D01*
X0004128Y0158042D01*
X0003912Y0157693D01*
X0003703Y0157338D01*
X0003504Y0156979D01*
X0003313Y0156614D01*
X0003132Y0156245D01*
X0002959Y0155872D01*
X0002796Y0155494D01*
X0002642Y0155113D01*
X0002498Y0154728D01*
X0002363Y0154339D01*
X0002237Y0153947D01*
X0002121Y0153553D01*
X0002015Y0153155D01*
X0001919Y0152756D01*
X0001832Y0152353D01*
X0001756Y0151949D01*
X0001689Y0151543D01*
X0001633Y0151136D01*
X0001586Y0150727D01*
X0001549Y0150318D01*
X0001523Y0149907D01*
X0001506Y0149496D01*
X0001500Y0149085D01*
X0001500Y0149086D02*
X0001500Y0047601D01*
X0001566Y0047135D01*
X0001643Y0046671D01*
X0001732Y0046209D01*
X0001832Y0045749D01*
X0001942Y0045292D01*
X0002064Y0044837D01*
X0002197Y0044386D01*
X0002340Y0043937D01*
X0002495Y0043493D01*
X0002660Y0043052D01*
X0002835Y0042616D01*
X0003021Y0042184D01*
X0003218Y0041756D01*
X0003425Y0041333D01*
X0003642Y0040916D01*
X0003869Y0040504D01*
X0004105Y0040097D01*
X0004352Y0039696D01*
X0004608Y0039302D01*
X0004874Y0038913D01*
X0005149Y0038531D01*
X0005433Y0038156D01*
X0005726Y0037788D01*
X0006028Y0037427D01*
X0006339Y0037074D01*
X0006658Y0036728D01*
X0006985Y0036390D01*
X0007320Y0036060D01*
X0007664Y0035738D01*
X0008014Y0035424D01*
X0008373Y0035119D01*
X0008738Y0034823D01*
X0009111Y0034536D01*
X0009491Y0034258D01*
X0009877Y0033989D01*
X0010269Y0033729D01*
X0010668Y0033479D01*
X0011073Y0033239D01*
X0011483Y0033009D01*
X0011899Y0032788D01*
X0012320Y0032578D01*
X0012745Y0032378D01*
X0013176Y0032188D01*
X0013611Y0032009D01*
X0014050Y0031840D01*
X0014494Y0031682D01*
X0014941Y0031535D01*
X0015391Y0031399D01*
X0015844Y0031273D01*
X0016301Y0031159D01*
X0016760Y0031055D01*
X0017221Y0030963D01*
X0017685Y0030882D01*
X0018150Y0030812D01*
X0018617Y0030753D01*
X0019085Y0030706D01*
X0019554Y0030670D01*
X0020024Y0030645D01*
X0020495Y0030632D01*
X0020965Y0030630D01*
X0021436Y0030639D01*
X0021906Y0030660D01*
X0022375Y0030692D01*
X0022844Y0030735D01*
X0023311Y0030790D01*
M02*
